<?xml version="1.0" encoding="utf-8"?>
<!-- Generator: Adobe Illustrator 16.0.0, SVG Export Plug-In . SVG Version: 6.00 Build 0)  -->
<!DOCTYPE svg PUBLIC "-//W3C//DTD SVG 1.1//EN" "http://www.w3.org/Graphics/SVG/1.1/DTD/svg11.dtd">
<svg version="1.1" id="Layer_1" xmlns="http://www.w3.org/2000/svg" xmlns:xlink="http://www.w3.org/1999/xlink" x="0px" y="0px"
	 width="48px" height="48px" viewBox="0 0 48 48" enable-background="new 0 0 48 48" xml:space="preserve">
<g>
	<circle  cx="24" cy="24" r="3"/>
	<path  d="M24.017,0l-6.805,9.993C16.822,10.547,17.057,11,17.734,11h12.531c0.678,0,0.912-0.453,0.522-1.007
		L24.017,0z"/>
	<path  d="M30.266,37H17.734c-0.677,0-0.913,0.453-0.522,1.008L23.983,48l6.805-9.992
		C31.178,37.453,30.943,37,30.266,37z"/>
	<path  d="M9.993,17.212L0,23.983l9.993,6.805C10.547,31.178,11,30.943,11,30.266V17.734
		C11,17.057,10.547,16.822,9.993,17.212z"/>
	<path  d="M38.008,17.212C37.453,16.822,37,17.057,37,17.734v12.531c0,0.678,0.453,0.912,1.008,0.522L48,24.017
		L38.008,17.212z"/>
</g>
</svg>
