<?xml version="1.0" encoding="utf-8"?>
<!-- Generator: Adobe Illustrator 16.0.0, SVG Export Plug-In . SVG Version: 6.00 Build 0)  -->
<!DOCTYPE svg PUBLIC "-//W3C//DTD SVG 1.1//EN" "http://www.w3.org/Graphics/SVG/1.1/DTD/svg11.dtd">
<svg version="1.1" id="Layer_1" xmlns="http://www.w3.org/2000/svg" xmlns:xlink="http://www.w3.org/1999/xlink" x="0px" y="0px"
	 width="48px" height="48px" viewBox="0 0 48 48" enable-background="new 0 0 48 48" xml:space="preserve">
<g>
	<path  d="M24,0C10.745,0,0,10.745,0,24s10.745,24,24,24s24-10.745,24-24S37.255,0,24,0z M24,44
		C12.972,44,4,35.028,4,24C4,12.972,12.972,4,24,4c11.027,0,20,8.972,20,20C44,35.028,35.027,44,24,44z"/>
	<path  d="M32.72,20.463l-3.695,3.08c-0.559,0.467-1.639,0.494-2.225,0.058l-3.2-2.401
		c-2.056-1.542-5.213-1.459-7.185,0.185l-3.695,3.079c-0.849,0.708-0.963,1.969-0.256,2.817c0.396,0.475,0.964,0.72,1.537,0.72
		c0.451,0,0.905-0.152,1.279-0.463l3.695-3.08c0.56-0.467,1.642-0.494,2.225-0.058l3.2,2.401c2.054,1.541,5.212,1.459,7.185-0.185
		l3.695-3.079c0.849-0.708,0.963-1.969,0.256-2.817C34.828,19.871,33.567,19.755,32.72,20.463z"/>
</g>
</svg>
