<?xml version="1.0" encoding="utf-8"?>
<!-- Generator: Adobe Illustrator 16.0.0, SVG Export Plug-In . SVG Version: 6.00 Build 0)  -->
<!DOCTYPE svg PUBLIC "-//W3C//DTD SVG 1.1//EN" "http://www.w3.org/Graphics/SVG/1.1/DTD/svg11.dtd">
<svg version="1.1" id="Layer_1" xmlns="http://www.w3.org/2000/svg" xmlns:xlink="http://www.w3.org/1999/xlink" x="0px" y="0px"
	 width="48px" height="48px" viewBox="0 0 48 48" enable-background="new 0 0 48 48" xml:space="preserve">
<g>
	<path  d="M42,33h-6.422c-0.772-1.765-2.529-3-4.578-3s-3.806,1.235-4.578,3H6c-1.1,0-2,0.9-2,2s0.9,2,2,2h20.422
		c0.772,1.764,2.529,3,4.578,3s3.806-1.236,4.578-3H42c1.1,0,2-0.9,2-2S43.1,33,42,33z"/>
	<path  d="M6,15h6.422c0.772,1.764,2.529,3,4.578,3s3.806-1.236,4.578-3H42c1.1,0,2-0.9,2-2c0-1.1-0.9-2-2-2H21.578
		C20.806,9.235,19.049,8,17,8s-3.806,1.235-4.578,3H6c-1.1,0-2,0.9-2,2C4,14.1,4.9,15,6,15z"/>
</g>
</svg>
