<?xml version="1.0" encoding="UTF-8"?>
<svg width="48px" height="44px" viewBox="0 0 48 44" version="1.1" xmlns="http://www.w3.org/2000/svg" xmlns:xlink="http://www.w3.org/1999/xlink">
    <!-- Generator: Sketch 52.3 (67297) - http://www.bohemiancoding.com/sketch -->
    <title>account</title>
    <desc>Created with Sketch.</desc>
    <g id="Page-1" stroke="none" stroke-width="1" fill="none" fill-rule="evenodd">
        <g id="account" fill="#000000" fill-rule="nonzero">
            <path d="M22,0 C19.415966,0 17.211436,1.6885102 16.375,4 L0,4 L0,8 L16.375,8 C17.211436,10.31149 19.415966,12 22,12 C24.584034,12 26.788564,10.31149 27.625,8 L48,8 L48,4 L27.625,4 C26.788564,1.6885102 24.584034,0 22,0 Z M22,3 C23.692387,3 25,4.3076127 25,6 C25,7.6923873 23.692387,9 22,9 C20.307613,9 19,7.6923873 19,6 C19,4.3076127 20.307613,3 22,3 Z M36,16 C33.415964,16 31.211436,17.68851 30.375,20 L0,20 L0,24 L30.375,24 C31.211436,26.31149 33.415964,28 36,28 C38.584036,28 40.788564,26.31149 41.625,24 L48,24 L48,20 L41.625,20 C40.788564,17.68851 38.584036,16 36,16 Z M36,19 C37.692384,19 39,20.307616 39,22 C39,23.692384 37.692384,25 36,25 C34.307616,25 33,23.692384 33,22 C33,20.307616 34.307616,19 36,19 Z M14,32 C11.4159636,32 9.2114356,33.68851 8.375,36 L0,36 L0,40 L8.375,40 C9.2114356,42.31149 11.4159636,44 14,44 C16.584036,44 18.788564,42.31149 19.625,40 L48,40 L48,36 L19.625,36 C18.788564,33.68851 16.584036,32 14,32 Z M14,35 C15.692384,35 17,36.307616 17,38 C17,39.692384 15.692384,41 14,41 C12.307613,41 11,39.692387 11,38 C11,36.307613 12.307613,35 14,35 Z" id="Shape"></path>
        </g>
    </g>
</svg>