<?xml version="1.0" encoding="utf-8"?>
<!-- Generator: Adobe Illustrator 16.0.0, SVG Export Plug-In . SVG Version: 6.00 Build 0)  -->
<!DOCTYPE svg PUBLIC "-//W3C//DTD SVG 1.1//EN" "http://www.w3.org/Graphics/SVG/1.1/DTD/svg11.dtd">
<svg version="1.1" id="Layer_1" xmlns="http://www.w3.org/2000/svg" xmlns:xlink="http://www.w3.org/1999/xlink" x="0px" y="0px"
	 width="48px" height="48px" viewBox="0 0 48 48" enable-background="new 0 0 48 48" xml:space="preserve">
<g>
	<path  d="M24,0C10.745,0,0,10.745,0,24s10.745,24,24,24s24-10.745,24-24S37.255,0,24,0z M24,7c1.656,0,3,1.343,3,3
		s-1.344,3-3,3c-1.657,0-3-1.343-3-3S22.343,7,24,7z M35.84,16.844L28,18.321v7.652l2.994,13.307
		c0.131,0.818-0.426,1.588-1.244,1.719c-0.787,0.127-1.531-0.389-1.703-1.158L24.413,27h-0.826l-3.611,12.84
		c-0.179,0.81-0.979,1.32-1.789,1.143c-0.779-0.172-1.281-0.926-1.158-1.703L20,25.973v-7.652l-7.839-1.477
		c-0.783-0.147-1.298-0.902-1.15-1.685c0.139-0.735,0.819-1.234,1.549-1.17L23.61,15h0.779l11.052-1.011
		c0.793-0.072,1.494,0.512,1.567,1.306C37.076,16.04,36.559,16.706,35.84,16.844z"/>
</g>
</svg>
