<?xml version="1.0" encoding="UTF-8"?>
<svg width="48px" height="37px" viewBox="0 0 48 37" version="1.1" xmlns="http://www.w3.org/2000/svg" xmlns:xlink="http://www.w3.org/1999/xlink">
    <!-- Generator: Sketch 52.3 (67297) - http://www.bohemiancoding.com/sketch -->
    <title>Combined Shape</title>
    <desc>Created with Sketch.</desc>
    <g id="Page-1" stroke="none" stroke-width="1" fill="none" fill-rule="evenodd">
        <path d="M48,26.7794528 L43.7333333,26.7794528 L43.7333333,35.9333333 C43.7333333,36.5224371 43.2557704,37 42.6666667,37 L5.33333333,37 C4.7442296,37 4.26666667,36.5224371 4.26666667,35.9333333 L4.26666667,20.4879442 C4.26666667,18.8645734 7.46666667,18.8645734 7.46666667,20.4879442 L7.46666667,33.8285714 L40.5333333,33.8285714 L40.4984242,26.7794528 L36.2666667,26.7794528 L42.1333333,19.0285714 L48,26.7794528 Z M0,10.2205472 L4.26666667,10.2205472 L4.26666667,1.06666667 C4.26666667,0.477562934 4.7442296,4.26325641e-14 5.33333333,4.26325641e-14 L42.6666667,-3.55271368e-15 C43.2557704,-3.55271368e-15 43.7333333,0.477562934 43.7333333,1.06666667 L43.7333333,16.5120558 C43.7333333,18.1354266 40.5333333,18.1354266 40.5333333,16.5120558 L40.5333333,3.17142857 L7.46666667,3.17142857 L7.50157579,10.2205472 L11.7333333,10.2205472 L5.86666667,17.9714286 L0,10.2205472 Z" id="Combined-Shape" fill="#000000" fill-rule="nonzero"></path>
    </g>
</svg>