<?xml version="1.0" encoding="utf-8"?>
<!-- Generator: Adobe Illustrator 16.0.0, SVG Export Plug-In . SVG Version: 6.00 Build 0)  -->
<!DOCTYPE svg PUBLIC "-//W3C//DTD SVG 1.1//EN" "http://www.w3.org/Graphics/SVG/1.1/DTD/svg11.dtd">
<svg version="1.1" id="Layer_1" xmlns="http://www.w3.org/2000/svg" xmlns:xlink="http://www.w3.org/1999/xlink" x="0px" y="0px"
	 width="48px" height="48px" viewBox="0 0 48 48" enable-background="new 0 0 48 48" xml:space="preserve">
<g>
	<path  d="M24.943,48c-0.512,0-1.023-0.195-1.414-0.586c-0.781-0.781-0.781-2.047,0-2.828
		c5.498-5.499,8.526-12.81,8.526-20.586S29.027,8.913,23.529,3.414c-0.781-0.781-0.781-2.047,0-2.828s2.047-0.781,2.828,0
		C32.611,6.84,36.056,15.155,36.056,24s-3.444,17.16-9.698,23.414C25.967,47.805,25.455,48,24.943,48z"/>
	<path  d="M13.944,37c-0.512,0-1.023-0.195-1.414-0.586c-0.781-0.781-0.781-2.047,0-2.828
		c2.561-2.561,3.971-5.965,3.971-9.586s-1.41-7.025-3.971-9.586c-0.781-0.781-0.781-2.047,0-2.828s2.047-0.781,2.828,0
		c3.316,3.316,5.143,7.725,5.143,12.414s-1.826,9.098-5.143,12.414C14.968,36.805,14.456,37,13.944,37z"/>
	<path  d="M13.944,37c-0.512,0-1.023-0.195-1.414-0.586c-0.781-0.781-0.781-2.047,0-2.828
		c2.561-2.561,3.971-5.965,3.971-9.586s-1.41-7.025-3.971-9.586c-0.781-0.781-0.781-2.047,0-2.828s2.047-0.781,2.828,0
		c3.316,3.316,5.143,7.725,5.143,12.414s-1.826,9.098-5.143,12.414C14.968,36.805,14.456,37,13.944,37z"/>
</g>
</svg>
