<?xml version="1.0" encoding="utf-8"?>
<!-- Generator: Adobe Illustrator 16.0.0, SVG Export Plug-In . SVG Version: 6.00 Build 0)  -->
<!DOCTYPE svg PUBLIC "-//W3C//DTD SVG 1.1//EN" "http://www.w3.org/Graphics/SVG/1.1/DTD/svg11.dtd">
<svg version="1.1" id="Layer_1" xmlns="http://www.w3.org/2000/svg" xmlns:xlink="http://www.w3.org/1999/xlink" x="0px" y="0px"
	 width="48px" height="48px" viewBox="0 0 48 48" enable-background="new 0 0 48 48" xml:space="preserve">
<g>
	<path  d="M31.988,24.496c-0.127,7.591-3.134,14.708-8.515,20.09c-0.781,0.781-0.781,2.047,0,2.828
		C23.864,47.805,24.376,48,24.888,48s1.023-0.195,1.414-0.586C32.556,41.16,36,32.845,36,24c0-1.125-0.057-2.242-0.168-3.348
		L31.988,24.496z"/>
	<path  d="M47.414,0.586c-0.781-0.781-2.047-0.781-2.828,0L33.595,11.577c-1.644-4.064-4.1-7.798-7.293-10.991
		c-0.781-0.781-2.047-0.781-2.828,0s-0.781,2.047,0,2.828c3.226,3.226,5.593,7.078,7.006,11.278L20.408,24.764
		c0.011-0.255,0.037-0.507,0.037-0.764c0-4.689-1.826-9.098-5.143-12.414c-0.781-0.781-2.047-0.781-2.828,0s-0.781,2.047,0,2.828
		c2.561,2.561,3.971,5.965,3.971,9.586c0,2.215-0.533,4.347-1.529,6.256l-14.33,14.33c-0.781,0.781-0.781,2.047,0,2.828
		C0.977,47.805,1.488,48,2,48s1.023-0.195,1.414-0.586l44-44C48.195,2.633,48.195,1.367,47.414,0.586z"/>
</g>
</svg>
