<?xml version="1.0" encoding="utf-8"?>
<!-- Generator: Adobe Illustrator 16.0.0, SVG Export Plug-In . SVG Version: 6.00 Build 0)  -->
<!DOCTYPE svg PUBLIC "-//W3C//DTD SVG 1.1//EN" "http://www.w3.org/Graphics/SVG/1.1/DTD/svg11.dtd">
<svg version="1.1" id="Layer_1" xmlns="http://www.w3.org/2000/svg" xmlns:xlink="http://www.w3.org/1999/xlink" x="0px" y="0px"
	 width="48px" height="48px" viewBox="0 0 48 48" enable-background="new 0 0 48 48" xml:space="preserve">
<g>
	<path  d="M33.318,40.558L23.225,34.7c-0.278-0.16-0.599-0.537-0.713-0.836l-1.219-2.742
		c1.614-1.189,2.767-5.024,2.767-7.182v-4.375c0-3.608-2.96-6.562-6.568-6.562s-6.557,2.954-6.557,6.562v4.375
		c0,2.206,1.054,6.079,2.729,7.261l-1.188,2.663c-0.114,0.299-0.435,0.676-0.712,0.836L1.669,40.558
		c-0.278,0.16-0.548,0.551-0.601,0.867L0,47.999h34.99l-1.07-6.574C33.867,41.108,33.596,40.718,33.318,40.558z"/>
	<path  d="M35.282,17.76L48,9.001l-12.718-8.76C34.577-0.256,34,0.043,34,0.906v16.188
		C34,17.957,34.577,18.256,35.282,17.76z"/>
	<path  d="M46.718,14.241L34,23l12.718,8.759C47.423,32.257,48,31.957,48,31.095V14.906
		C48,14.044,47.423,13.745,46.718,14.241z"/>
</g>
</svg>
