<?xml version="1.0" encoding="utf-8"?>
<!-- Generator: Adobe Illustrator 16.0.0, SVG Export Plug-In . SVG Version: 6.00 Build 0)  -->
<!DOCTYPE svg PUBLIC "-//W3C//DTD SVG 1.1//EN" "http://www.w3.org/Graphics/SVG/1.1/DTD/svg11.dtd">
<svg version="1.1" id="Layer_1" xmlns="http://www.w3.org/2000/svg" xmlns:xlink="http://www.w3.org/1999/xlink" x="0px" y="0px"
	 width="48px" height="48px" viewBox="0 0 48 48" enable-background="new 0 0 48 48" xml:space="preserve">
<g>
	<path  d="M24,48c13.254,0,24-10.745,24-24S37.254,0,24,0C10.746,0,0,10.745,0,24S10.746,48,24,48z M14,22h8v-8
		c0-1.104,0.896-2,2-2s2,0.895,2,2v8h8.037c1.104,0,2,0.895,2,2c0,1.104-0.896,2-2,2H26v8.109c0,1.104-0.896,2-2,2s-2-0.896-2-2
		L21.999,26H14c-1.104,0-2-0.895-2-2C12,22.896,12.896,22,14,22z"/>
</g>
</svg>
