<?xml version="1.0" encoding="utf-8"?>
<!-- Generator: Adobe Illustrator 16.0.0, SVG Export Plug-In . SVG Version: 6.00 Build 0)  -->
<!DOCTYPE svg PUBLIC "-//W3C//DTD SVG 1.1//EN" "http://www.w3.org/Graphics/SVG/1.1/DTD/svg11.dtd">
<svg version="1.1" id="Layer_1" xmlns="http://www.w3.org/2000/svg" xmlns:xlink="http://www.w3.org/1999/xlink" x="0px" y="0px"
	 width="48px" height="48px" viewBox="0 0 48 48" enable-background="new 0 0 48 48" xml:space="preserve">
<g>
	<path  d="M41.883,36.645l-12.689-7.365c-0.349-0.201-0.752-0.674-0.896-1.051l-1.495-3.348
		c2.105-1.488,3.431-6.358,3.431-9.131v-5.5c0-4.536-3.706-8.25-8.242-8.25c-4.536,0-8.242,3.714-8.242,8.25v5.5
		c0,2.773,1.325,7.643,3.43,9.131l-1.495,3.348c-0.143,0.377-0.546,0.85-0.896,1.051l-12.69,7.365
		c-0.349,0.201-0.689,0.691-0.756,1.09L0,46h43.982l-1.344-8.266C42.572,37.336,42.232,36.846,41.883,36.645z"/>
	<path  d="M46,20.998l-4,0.001v-4c0-1.1-0.9-2-2-2s-2,0.9-2,2v4h-4c-1.1,0-2,0.9-2,2S32.9,25,34,25h4v4
		c0,1.102,0.9,2,2,2s2-0.898,2-2v-4l4-0.002c1.1,0,2-0.899,2-2S47.1,20.998,46,20.998z"/>
</g>
</svg>
