<?xml version="1.0" encoding="utf-8"?>
<!-- Generator: Adobe Illustrator 16.0.0, SVG Export Plug-In . SVG Version: 6.00 Build 0)  -->
<!DOCTYPE svg PUBLIC "-//W3C//DTD SVG 1.1//EN" "http://www.w3.org/Graphics/SVG/1.1/DTD/svg11.dtd">
<svg version="1.1" id="Layer_1" xmlns="http://www.w3.org/2000/svg" xmlns:xlink="http://www.w3.org/1999/xlink" x="0px" y="0px"
	 width="48px" height="48px" viewBox="0 0 48 48" enable-background="new 0 0 48 48" xml:space="preserve">
<g>
	<path  d="M33.324,40.559l-10.095-5.857c-0.278-0.16-0.598-0.537-0.712-0.837l-1.219-2.741
		c1.614-1.189,2.766-5.025,2.766-7.184v-4.375c0-3.608-2.96-6.562-6.568-6.562s-6.556,2.954-6.556,6.562v4.375
		c0,2.206,1.054,6.079,2.728,7.262l-1.189,2.663c-0.114,0.3-0.435,0.677-0.713,0.837L1.674,40.559
		c-0.278,0.16-0.548,0.551-0.602,0.867L0.004,48h34.99l-1.07-6.574C33.871,41.109,33.6,40.719,33.324,40.559z"/>
	<path  d="M47.996,12.989v-1.998L43,9.321c-0.053-0.136-0.107-0.271-0.168-0.404l2.365-4.701l-1.414-1.413
		l-4.717,2.354c-0.131-0.059-0.264-0.111-0.396-0.162L37.004,0h-1.998l-1.664,4.995c-0.133,0.051-0.266,0.103-0.395,0.162
		L28.24,2.803l-1.414,1.413l2.352,4.702c-0.059,0.13-0.113,0.264-0.164,0.398l-4.999,1.675v1.998l4.991,1.655
		c0.053,0.137,0.105,0.273,0.166,0.406l-2.346,4.709l1.414,1.413l4.691-2.355c0.135,0.061,0.271,0.116,0.41,0.168l1.664,4.977h1.998
		l1.652-4.972c0.141-0.054,0.281-0.11,0.42-0.172l4.695,2.341l1.412-1.413l-2.35-4.687c0.062-0.138,0.119-0.278,0.172-0.42
		L47.996,12.989z M36.006,17c-2.762,0-5-2.239-5-5c0-2.762,2.238-5,5-5c2.76,0,5,2.238,5,5C41.006,14.761,38.766,17,36.006,17z"/>
</g>
</svg>
