<?xml version="1.0" encoding="utf-8"?>
<!-- Generator: Adobe Illustrator 16.0.0, SVG Export Plug-In . SVG Version: 6.00 Build 0)  -->
<!DOCTYPE svg PUBLIC "-//W3C//DTD SVG 1.1//EN" "http://www.w3.org/Graphics/SVG/1.1/DTD/svg11.dtd">
<svg version="1.1" id="Layer_1" xmlns="http://www.w3.org/2000/svg" xmlns:xlink="http://www.w3.org/1999/xlink" x="0px" y="0px"
	 width="48px" height="48px" viewBox="0 0 48 48" enable-background="new 0 0 48 48" xml:space="preserve">
<g>
	<path  d="M26,3.101V2c0-1.104-0.896-2-2-2s-2,0.896-2,2v1.101C11.341,4.109,3,13.077,3,24
		c0,5.843,2.39,11.125,6.241,14.932l-5.655,5.654c-0.781,0.781-0.781,2.047,0,2.828C3.977,47.805,4.488,48,5,48
		s1.023-0.195,1.414-0.586l5.941-5.941C15.688,43.698,19.691,45,24,45s8.312-1.302,11.645-3.527l5.941,5.941
		C41.977,47.805,42.488,48,43,48s1.023-0.195,1.414-0.586c0.781-0.781,0.781-2.047,0-2.828l-5.654-5.654
		C42.61,35.125,45,29.843,45,24C45,13.077,36.659,4.109,26,3.101z M29.414,31.414C29.023,31.805,28.512,32,28,32
		s-1.023-0.195-1.414-0.586L22,26.828V15c0-1.104,0.896-2,2-2s2,0.896,2,2v10.172l3.414,3.414
		C30.195,29.367,30.195,30.633,29.414,31.414z"/>
	<path  d="M2.05,2.05c-2.734,2.733-2.734,7.166,0,9.899L11.95,2.05C9.216-0.684,4.784-0.684,2.05,2.05z"/>
	<path  d="M45.949,2.05c-2.733-2.734-7.165-2.734-9.898,0l9.898,9.899C48.684,9.216,48.684,4.784,45.949,2.05z"/>
</g>
</svg>
