<?xml version="1.0" encoding="utf-8"?>
<!-- Generator: Adobe Illustrator 18.1.1, SVG Export Plug-In . SVG Version: 6.00 Build 0)  -->
<svg version="1.1" id="Layer_1" xmlns="http://www.w3.org/2000/svg" xmlns:xlink="http://www.w3.org/1999/xlink" x="0px" y="0px"
	 viewBox="0 0 48 48" enable-background="new 0 0 48 48" xml:space="preserve">
<g>
	<path fill-rule="evenodd" clip-rule="evenodd"  d="M44.3,28.9c-0.3-0.5-0.7-1.3-1-1.7l-4.8-6.4
		c-0.3-0.4-0.7-1.2-0.8-1.8c0,0-1.9-7.3-2-7.3C34.6,5.1,30.9,0,23.9,0c-7,0-10.8,5.2-11.8,11.9c0,0-1.9,7.1-1.9,7.1
		c-0.1,0.5-0.5,1.3-0.8,1.8l-4.8,6.4c-0.3,0.4-0.7,1.2-0.8,1.8L2,36h44L44.3,28.9z"/>
	<circle fill-rule="evenodd" clip-rule="evenodd"  cx="24" cy="44" r="4"/>
</g>
</svg>
