<?xml version="1.0" encoding="utf-8"?>
<!-- Generator: Adobe Illustrator 19.1.0, SVG Export Plug-In . SVG Version: 6.00 Build 0)  -->
<svg version="1.1" id="Layer_1" xmlns="http://www.w3.org/2000/svg" xmlns:xlink="http://www.w3.org/1999/xlink" x="0px" y="0px"
	 width="48px" height="48px" viewBox="-281 373 48 48" style="enable-background:new -281 373 48 48;" xml:space="preserve">

<g>
	<path d="M-239,406h-36c-3.3,0-6,2.7-6,6h48C-233,408.7-235.7,406-239,406z"/>
	<path d="M-274,389c-0.8,0.8-0.8,2,0,2.8c0.8,0.8,2,0.8,2.8,0c3.8-3.8,8.8-5.9,14.1-5.9s10.4,2.1,14.1,5.9
		c0.8,0.8,2,0.8,2.8,0c0.4-0.4,0.6-0.9,0.6-1.4s-0.2-1-0.6-1.4c-4.5-4.5-10.6-7-17-7S-269.4,384.5-274,389z"/>
	<path d="M-265.5,400.3c0.8,0.8,2,0.8,2.8,0c1.5-1.5,3.5-2.3,5.7-2.3s4.1,0.8,5.7,2.3c0.8,0.8,2,0.8,2.8,0
		c0.4-0.4,0.6-0.9,0.6-1.4s-0.2-1-0.6-1.4c-2.3-2.3-5.3-3.5-8.5-3.5s-6.2,1.2-8.5,3.5C-266.3,398.3-266.3,399.6-265.5,400.3z"/>
</g>
</svg>
