<?xml version="1.0" encoding="utf-8"?>
<!-- Generator: Adobe Illustrator 15.0.0, SVG Export Plug-In . SVG Version: 6.00 Build 0)  -->
<!DOCTYPE svg PUBLIC "-//W3C//DTD SVG 1.1//EN" "http://www.w3.org/Graphics/SVG/1.1/DTD/svg11.dtd">
<svg version="1.1" id="Layer_1" xmlns="http://www.w3.org/2000/svg" xmlns:xlink="http://www.w3.org/1999/xlink" x="0px" y="0px"
	 width="48px" height="48px" viewBox="0 0 48 48" enable-background="new 0 0 48 48" xml:space="preserve">
<g id="XMLID_1_">
	<g id="XMLID_679_">
		<polygon id="XMLID_681_"  points="12.7,11.15 12.7,11.15 12.7,11.25 		"/>
		<path id="XMLID_680_"  d="M35.9,37.351l-8.7-4.9c-1-0.6-2.3-0.8-3.4-0.5l-4.6,1.1c-2-2.1-3.8-4.399-5.5-6.899
			s-3.2-5.1-4.4-7.7l2.7-3.9c0.7-1,0.9-2.2,0.8-3.4L11.4,1.25c-0.101-0.5-0.5-0.8-0.9-0.9L0.4-0.05l0,0l0,0c0.1,1.3,0.2,2.6,0.399,4
			c1.101,8,4.301,16.5,9.7,24.4C15.9,36.25,22.601,42.25,29.7,46.25c1.2,0.7,2.399,1.3,3.5,1.8l0,0l0,0l3.2-9.399
			C36.5,38.05,36.3,37.55,35.9,37.351z"/>
	</g>
	<circle id="XMLID_546_"  cx="32" cy="6.05" r="3"/>
	<circle id="XMLID_545_"  cx="19.5" cy="6.05" r="3"/>
	<circle id="XMLID_544_"  cx="44.6" cy="6.05" r="3"/>
</g>
</svg>
