<?xml version="1.0" encoding="utf-8"?>
<!-- Generator: Adobe Illustrator 16.0.0, SVG Export Plug-In . SVG Version: 6.00 Build 0)  -->
<!DOCTYPE svg PUBLIC "-//W3C//DTD SVG 1.1//EN" "http://www.w3.org/Graphics/SVG/1.1/DTD/svg11.dtd">
<svg version="1.1" id="Layer_1" xmlns="http://www.w3.org/2000/svg" xmlns:xlink="http://www.w3.org/1999/xlink" x="0px" y="0px"
	 width="48px" height="48px" viewBox="0 0 48 48" enable-background="new 0 0 48 48" xml:space="preserve">
<g>
	<path  d="M4.28,27.342C3.203,20.96,5.288,14.422,9.857,9.853C16.481,3.23,26.621,2.254,34.307,6.88
		c-0.553,1.871-0.116,3.971,1.36,5.447c2.147,2.148,5.63,2.148,7.777,0c2.148-2.148,2.148-5.63,0-7.778
		c-1.806-1.806-4.547-2.074-6.654-0.842C27.52-2.139,15.097-1.044,7.029,7.024c-5.483,5.483-7.985,13.327-6.692,20.983
		c0.164,0.977,1.011,1.667,1.97,1.667c0.11,0,0.223-0.009,0.335-0.028C3.73,29.463,4.465,28.431,4.28,27.342z"/>
	<path  d="M47.663,19.982c-0.184-1.09-1.223-1.827-2.305-1.64c-1.09,0.184-1.824,1.216-1.639,2.306
		c1.076,6.381-1.008,12.919-5.578,17.488c-6.623,6.623-16.763,7.599-24.449,2.973c0.553-1.871,0.116-3.972-1.36-5.447
		c-2.147-2.148-5.63-2.148-7.778,0c-2.148,2.147-2.148,5.63,0,7.777c1.806,1.807,4.547,2.074,6.654,0.843
		c3.895,2.456,8.339,3.701,12.792,3.701c6.146,0,12.292-2.34,16.97-7.019C46.454,35.482,48.956,27.638,47.663,19.982z"/>
</g>
</svg>
