<?xml version="1.0" encoding="utf-8"?>
<!-- Generator: Adobe Illustrator 16.0.0, SVG Export Plug-In . SVG Version: 6.00 Build 0)  -->
<!DOCTYPE svg PUBLIC "-//W3C//DTD SVG 1.1//EN" "http://www.w3.org/Graphics/SVG/1.1/DTD/svg11.dtd">
<svg version="1.1" id="Layer_1" xmlns="http://www.w3.org/2000/svg" xmlns:xlink="http://www.w3.org/1999/xlink" x="0px" y="0px"
	 width="48px" height="48px" viewBox="0 0 48 48" enable-background="new 0 0 48 48" xml:space="preserve">
<path  d="M38,0H10C8.9,0,8,0.9,8,2v44c0,1.1,0.9,2,2,2h28c1.1,0,2-0.9,2-2V2C40,0.9,39.1,0,38,0z M16,35
	c-1.104,0-2-0.896-2-2s0.896-2,2-2s2,0.896,2,2S17.104,35,16,35z M16,26c-1.104,0-2-0.896-2-2s0.896-2,2-2s2,0.896,2,2
	S17.104,26,16,26z M16,17c-1.104,0-2-0.896-2-2s0.896-2,2-2s2,0.896,2,2S17.104,17,16,17z M32,35h-8c-1.104,0-2-0.896-2-2
	s0.896-2,2-2h8c1.104,0,2,0.896,2,2S33.104,35,32,35z M32,26h-8c-1.104,0-2-0.896-2-2s0.896-2,2-2h8c1.104,0,2,0.896,2,2
	S33.104,26,32,26z M32,17h-8c-1.104,0-2-0.896-2-2s0.896-2,2-2h8c1.104,0,2,0.896,2,2S33.104,17,32,17z"/>
</svg>
