<?xml version="1.0" encoding="utf-8"?>
<!-- Generator: Adobe Illustrator 15.0.0, SVG Export Plug-In . SVG Version: 6.00 Build 0)  -->
<!DOCTYPE svg PUBLIC "-//W3C//DTD SVG 1.1//EN" "http://www.w3.org/Graphics/SVG/1.1/DTD/svg11.dtd">
<svg version="1.1" id="Layer_1" xmlns="http://www.w3.org/2000/svg" xmlns:xlink="http://www.w3.org/1999/xlink" x="0px" y="0px"
	 width="48px" height="48px" viewBox="0 0 48 48" enable-background="new 0 0 48 48" xml:space="preserve">
<g id="XMLID_1_">
	<g id="XMLID_707_">
		<polygon id="XMLID_709_"  points="12.2,11.15 12.2,11.15 12.2,11.25 		"/>
		<path id="XMLID_708_"  d="M35.5,37.352l-8.7-4.9c-1-0.6-2.3-0.801-3.399-0.5l-4.601,1.1c-2-2.1-3.8-4.398-5.5-6.898
			c-1.7-2.5-3.2-5.1-4.4-7.7l2.7-3.9c0.7-1,0.9-2.2,0.8-3.4l-1.4-9.9c-0.1-0.5-0.5-0.8-0.9-0.9L0-0.05l0,0l0,0
			c0.1,1.3,0.2,2.6,0.4,4c1.1,8,4.3,16.5,9.7,24.399c5.4,7.9,12.1,13.9,19.2,17.9c1.2,0.7,2.4,1.3,3.5,1.8l0,0l0,0L36,38.65
			C36.1,38.05,35.9,37.55,35.5,37.352z"/>
	</g>
	<g id="XMLID_766_">
		<circle id="XMLID_748_" fill="none" stroke="#333439" stroke-width="4" stroke-miterlimit="10" cx="33" cy="14.45" r="12"/>
		
			<polyline id="XMLID_768_" fill="none" stroke="#333439" stroke-width="4" stroke-linecap="round" stroke-linejoin="round" stroke-miterlimit="10" points="
			33.5,8.95 33.5,15.65 36.7,19.05 		"/>
	</g>
</g>
</svg>
