<?xml version="1.0" encoding="utf-8"?>
<!-- Generator: Adobe Illustrator 16.0.0, SVG Export Plug-In . SVG Version: 6.00 Build 0)  -->
<!DOCTYPE svg PUBLIC "-//W3C//DTD SVG 1.1//EN" "http://www.w3.org/Graphics/SVG/1.1/DTD/svg11.dtd">
<svg version="1.1" id="Layer_1" xmlns="http://www.w3.org/2000/svg" xmlns:xlink="http://www.w3.org/1999/xlink" x="0px" y="0px"
	 width="48px" height="48px" viewBox="0 0 48 48" enable-background="new 0 0 48 48" xml:space="preserve">
<g>
	<path  d="M46,8H2c-1.1,0-2,0.9-2,2v28c0,1.1,0.9,2,2,2h44c1.1,0,2-0.9,2-2V10C48,8.9,47.1,8,46,8z M42.469,10
		c0.829,0,1.5,0.671,1.5,1.5s-0.671,1.5-1.5,1.5c-0.828,0-1.5-0.671-1.5-1.5S41.641,10,42.469,10z M37.469,10
		c0.829,0,1.5,0.671,1.5,1.5s-0.671,1.5-1.5,1.5c-0.828,0-1.5-0.671-1.5-1.5S36.641,10,37.469,10z M32.469,10
		c0.829,0,1.5,0.671,1.5,1.5s-0.671,1.5-1.5,1.5c-0.828,0-1.5-0.671-1.5-1.5S31.641,10,32.469,10z M44,36H4V15h40V36z"/>
	<path  d="M33.635,32.484c0.156,0.412,0.621,0.62,1.031,0.463c0.412-0.156,0.62-0.621,0.463-1.032l-1.328-3.489
		l4.168-0.178l-9-10.256v13.674l3.336-2.671L33.635,32.484z"/>
</g>
</svg>
