<?xml version="1.0" encoding="utf-8"?>
<!-- Generator: Adobe Illustrator 19.1.0, SVG Export Plug-In . SVG Version: 6.00 Build 0)  -->
<svg version="1.1" id="Layer_1" xmlns="http://www.w3.org/2000/svg" xmlns:xlink="http://www.w3.org/1999/xlink" x="0px" y="0px"
	 width="48px" height="48px" viewBox="-281 373 48 48" style="enable-background:new -281 373 48 48;" xml:space="preserve">

<g>
	<path d="M-233.1,393.9c-0.1-0.3-0.3-0.5-0.5-0.8c-0.3-0.3-0.8-0.6-1.2-0.6c-0.1,0-0.3,0-0.4,0s-0.3,0-0.4,0
		c-0.4,0.1-0.9,0.3-1.2,0.6l1.6-1.7c0.9-0.9,0.9-2.4,0-3.3c-0.1-0.1-0.2-0.2-0.4-0.3c-0.4-0.3-0.8-0.4-1.3-0.4s-0.9,0.1-1.3,0.4
		c-0.1,0.1-0.3,0.2-0.4,0.3l-1.6,1.7c0.7-0.7,0.8-1.7,0.5-2.6c-0.1-0.3-0.3-0.5-0.5-0.8c-0.1-0.1-0.2-0.2-0.4-0.3c0,0-0.1,0-0.1-0.1
		c-0.1-0.1-0.2-0.1-0.3-0.1c-0.1,0-0.1,0-0.2-0.1c-0.1,0-0.2-0.1-0.3-0.1c-0.1,0-0.1,0-0.2,0c-0.1,0-0.2,0-0.3,0
		c-0.3,0-0.6,0.1-0.8,0.2c0,0-0.1,0-0.1,0c-0.1,0-0.2,0.1-0.3,0.2c-0.1,0.1-0.2,0.2-0.4,0.3l-4.2,3.4l-10.2,8.2
		c0.1-0.2,0.9-3.2,1.5-5c0.2-0.7,0.4-1.3,0.4-1.3c0.5-1.4-0.2-2.9-1.5-3.3c-0.2-0.1-0.3-0.1-0.5-0.1c-0.1,0-0.1,0-0.2,0
		c-0.1,0-0.2,0-0.2,0c0,0-0.1,0-0.1,0c-0.1,0-0.1,0-0.2,0c-0.1,0-0.2,0-0.3,0c0,0-0.1,0-0.1,0c-0.1,0-0.2,0.1-0.4,0.1c0,0,0,0-0.1,0
		c-0.1,0.1-0.3,0.1-0.4,0.2c0,0-0.1,0.1-0.1,0.1c-0.1,0.1-0.2,0.1-0.3,0.2c0,0-0.1,0.1-0.1,0.1c-0.1,0.1-0.1,0.2-0.2,0.3
		c0,0-0.1,0.1-0.1,0.1c-0.1,0.1-0.2,0.3-0.2,0.4l-7.4,16.4c-0.1,0.3-0.2,0.7-0.1,1c0,0.2,0.1,0.3,0.1,0.4c0.1,0.2,0.2,0.3,0.3,0.4
		l12.3,12.5c0.1,0.1,0.2,0.1,0.3,0.2c0,0,0.1,0,0.1,0c0.1,0,0.1,0,0.2,0c0,0,0.1,0,0.1,0c0.1,0,0.2,0,0.3-0.1l0,0
		c3.1-1.1,8.4-5.6,12.6-9.6c0.5-0.5,1-0.9,1.5-1.4c0.5-0.4,0.9-0.9,1.3-1.3s0.8-0.8,1.2-1.2c1.7-1.6,2.7-2.8,2.7-2.8
		c0.1-0.1,0.2-0.2,0.3-0.4c0.3-0.4,0.4-0.8,0.4-1.3s-0.1-0.9-0.4-1.3c-0.1-0.1-0.2-0.3-0.3-0.4s-0.2-0.2-0.4-0.3s-0.3-0.2-0.4-0.2
		c-0.3-0.1-0.5-0.2-0.8-0.2c0,0,0,0,0,0c-0.6,0-1.2,0.2-1.6,0.7l0,0l0,0l4.9-5C-233,395.7-232.8,394.7-233.1,393.9z"/>
	<path d="M-264.7,388.9c0.9-2.7,3.4-4.6,6.3-4.6c2.8,0,5.1,1.7,6.1,4.1l5.6-4.7c0.9-0.9,0.9-2.4,0-3.3
		c-0.9-0.9-2.3-0.9-3.2,0l1.6-1.6c0.9-0.9,0.9-2.4,0-3.3c-0.9-0.9-2.3-0.9-3.2,0l-1.6,1.6c0.9-0.9,0.9-2.4,0-3.3
		c-0.5-0.5-1.1-0.7-1.7-0.7c-0.3,0-0.6,0.1-0.8,0.2c0,0-0.1,0-0.1,0c-0.1,0-0.2,0.1-0.3,0.2c-0.1,0.1-0.2,0.2-0.3,0.3l-14.2,11.4
		c0.1-0.2,0.9-3.2,1.4-4.9c0.2-0.7,0.4-1.2,0.4-1.2c0.5-1.3-0.2-2.8-1.5-3.3c-0.2-0.1-0.3-0.1-0.5-0.1c-0.1,0-0.1,0-0.2,0
		c-0.1,0-0.2,0-0.2,0c0,0-0.1,0-0.1,0c-0.1,0-0.1,0-0.1,0c-0.1,0-0.2,0-0.3,0c0,0-0.1,0-0.1,0c-0.1,0-0.2,0.1-0.3,0.1c0,0,0,0-0.1,0
		c-0.1,0.1-0.3,0.1-0.4,0.2c0,0-0.1,0.1-0.1,0.1c-0.1,0.1-0.2,0.1-0.2,0.2c0,0-0.1,0.1-0.1,0.1c-0.1,0.1-0.1,0.2-0.2,0.3
		c0,0-0.1,0.1-0.1,0.1c-0.1,0.1-0.2,0.3-0.2,0.4l-7.3,16.2c-0.3,0.6-0.1,1.4,0.3,1.9l8.9,9L-264.7,388.9L-264.7,388.9z"/>
</g>
</svg>
