<?xml version="1.0" encoding="utf-8"?>
<!-- Generator: Adobe Illustrator 16.0.0, SVG Export Plug-In . SVG Version: 6.00 Build 0)  -->
<!DOCTYPE svg PUBLIC "-//W3C//DTD SVG 1.1//EN" "http://www.w3.org/Graphics/SVG/1.1/DTD/svg11.dtd">
<svg version="1.1" id="Layer_1" xmlns="http://www.w3.org/2000/svg" xmlns:xlink="http://www.w3.org/1999/xlink" x="0px" y="0px"
	 width="48px" height="48px" viewBox="0 0 48 48" enable-background="new 0 0 48 48" xml:space="preserve">
<path  d="M46,0H18c-1.104,0-2,0.896-2,2v9h-6c-1.104,0-2,0.896-2,2v9H2c-1.104,0-2,0.896-2,2v22c0,1.104,0.896,2,2,2
	h28c1.104,0,2-0.896,2-2v-9h6c1.104,0,2-0.896,2-2v-9h6c1.104,0,2-0.896,2-2V2C48,0.896,47.104,0,46,0z M37.5,2
	C38.328,2,39,2.671,39,3.5S38.328,5,37.5,5S36,4.329,36,3.5S36.672,2,37.5,2z M28,44H4V29h4v6c0,1.104,0.896,2,2,2h18V44z M36,33H12
	V18h4v6c0,0.015,0.004,0.027,0.004,0.043C16.027,25.127,16.91,26,18,26h18V33z M44,22H20V7h24V22z M42.5,5C41.672,5,41,4.329,41,3.5
	S41.672,2,42.5,2S44,2.671,44,3.5S43.328,5,42.5,5z"/>
</svg>
