<?xml version="1.0" encoding="UTF-8"?>
<svg width="48px" height="48px" viewBox="0 0 48 48" version="1.1" xmlns="http://www.w3.org/2000/svg" xmlns:xlink="http://www.w3.org/1999/xlink">
    <!-- Generator: Sketch 52.3 (67297) - http://www.bohemiancoding.com/sketch -->
    <title>grid-view</title>
    <desc>Created with Sketch.</desc>
    <g id="Page-1" stroke="none" stroke-width="1" fill="none" fill-rule="evenodd">
        <g id="grid-view" fill="#000000">
            <path d="M12.7058824,0 L1.41176471,0 C0.635294118,0 0,0.635294118 0,1.41176471 L0,12.7058824 C0,13.4823529 0.635294118,14.1176471 1.41176471,14.1176471 L12.7058824,14.1176471 C13.4823529,14.1176471 14.1176471,13.4823529 14.1176471,12.7058824 L14.1176471,1.41176471 C14.1176471,0.635294118 13.4823529,0 12.7058824,0 Z" id="Path"></path>
            <path d="M0,18.3529412 L0,29.6470588 C0,30.4235294 0.635294118,31.0588235 1.41176471,31.0588235 L12.7058824,31.0588235 C13.4823529,31.0588235 14.1176471,30.4235294 14.1176471,29.6470588 L14.1176471,18.3529412 C14.1176471,17.5764706 13.4823529,16.9411765 12.7058824,16.9411765 L1.41176471,16.9411765 C0.635294118,16.9411765 0,17.5764706 0,18.3529412 Z" id="Path"></path>
            <path d="M16.9411765,1.41176471 L16.9411765,12.7058824 C16.9411765,13.4823529 17.5764706,14.1176471 18.3529412,14.1176471 L29.6470588,14.1176471 C30.4235294,14.1176471 31.0588235,13.4823529 31.0588235,12.7058824 L31.0588235,1.41176471 C31.0588235,0.635294118 30.4235294,0 29.6470588,0 L18.3529412,0 C17.5764706,0 16.9411765,0.635294118 16.9411765,1.41176471 Z" id="Path"></path>
            <path d="M18.3529412,31.0588235 L29.6470588,31.0588235 C30.4235294,31.0588235 31.0588235,30.4235294 31.0588235,29.6470588 L31.0588235,18.3529412 C31.0588235,17.5764706 30.4235294,16.9411765 29.6470588,16.9411765 L18.3529412,16.9411765 C17.5764706,16.9411765 16.9411765,17.5764706 16.9411765,18.3529412 L16.9411765,29.6470588 C16.9411765,30.4235294 17.5764706,31.0588235 18.3529412,31.0588235 Z" id="Path"></path>
            <path d="M33.8823529,1.41176471 L33.8823529,12.7058824 C33.8823529,13.4823529 34.5176471,14.1176471 35.2941176,14.1176471 L46.5882353,14.1176471 C47.3647059,14.1176471 48,13.4823529 48,12.7058824 L48,1.41176471 C48,0.635294118 47.3647059,0 46.5882353,0 L35.2941176,0 C34.5176471,0 33.8823529,0.635294118 33.8823529,1.41176471 Z" id="Path"></path>
            <path d="M35.2941176,31.0588235 L46.5882353,31.0588235 C47.3647059,31.0588235 48,30.4235294 48,29.6470588 L48,18.3529412 C48,17.5764706 47.3647059,16.9411765 46.5882353,16.9411765 L35.2941176,16.9411765 C34.5176471,16.9411765 33.8823529,17.5764706 33.8823529,18.3529412 L33.8823529,29.6470588 C33.8823529,30.4235294 34.5176471,31.0588235 35.2941176,31.0588235 Z" id="Path"></path>
            <path d="M0,35.2941176 L0,46.5882353 C0,47.3647059 0.635294118,48 1.41176471,48 L12.7058824,48 C13.4823529,48 14.1176471,47.3647059 14.1176471,46.5882353 L14.1176471,35.2941176 C14.1176471,34.5176471 13.4823529,33.8823529 12.7058824,33.8823529 L1.41176471,33.8823529 C0.635294118,33.8823529 0,34.5176471 0,35.2941176 Z" id="Path"></path>
            <path d="M18.3529412,48 L29.6470588,48 C30.4235294,48 31.0588235,47.3647059 31.0588235,46.5882353 L31.0588235,35.2941176 C31.0588235,34.5176471 30.4235294,33.8823529 29.6470588,33.8823529 L18.3529412,33.8823529 C17.5764706,33.8823529 16.9411765,34.5176471 16.9411765,35.2941176 L16.9411765,46.5882353 C16.9411765,47.3647059 17.5764706,48 18.3529412,48 Z" id="Path"></path>
            <path d="M35.2941176,48 L46.5882353,48 C47.3647059,48 48,47.3647059 48,46.5882353 L48,35.2941176 C48,34.5176471 47.3647059,33.8823529 46.5882353,33.8823529 L35.2941176,33.8823529 C34.5176471,33.8823529 33.8823529,34.5176471 33.8823529,35.2941176 L33.8823529,46.5882353 C33.8823529,47.3647059 34.5176471,48 35.2941176,48 Z" id="Path"></path>
        </g>
    </g>
</svg>