<?xml version="1.0" encoding="utf-8"?>
<!-- Generator: Adobe Illustrator 18.1.1, SVG Export Plug-In . SVG Version: 6.00 Build 0)  -->
<svg version="1.1" id="Layer_1" xmlns="http://www.w3.org/2000/svg" xmlns:xlink="http://www.w3.org/1999/xlink" x="0px" y="0px"
	 viewBox="0 0 64 64" enable-background="new 0 0 64 64" xml:space="preserve">
<path d="M59.1,38.4c1.3,0.7,2.1,1.8,2.5,3.2s0.2,2.8-0.5,4.1l-2.7,4.6c-0.7,1.3-1.8,2.1-3.2,2.5s-2.8,0.2-4.1-0.5L40,45.9v12.8
	c0,1.4-0.5,2.7-1.6,3.8S36.1,64,34.7,64h-5.3c-1.4,0-2.7-0.5-3.8-1.6c-1.1-1.1-1.6-2.3-1.6-3.8V45.9l-11.1,6.4
	c-1.3,0.7-2.6,0.9-4.1,0.5s-2.5-1.2-3.2-2.5L3,45.7c-0.7-1.3-0.9-2.6-0.5-4.1s1.2-2.5,2.5-3.2L16,32L4.9,25.6
	c-1.3-0.7-2.1-1.8-2.5-3.2c-0.4-1.4-0.2-2.8,0.5-4.1l2.7-4.6c0.7-1.3,1.8-2.1,3.2-2.5s2.8-0.2,4.1,0.5L24,18.1V5.3
	c0-1.4,0.5-2.7,1.6-3.8C26.6,0.5,27.9,0,29.3,0h5.3c1.4,0,2.7,0.5,3.8,1.6S40,3.9,40,5.3v12.8l11.1-6.4c1.3-0.7,2.6-0.9,4.1-0.5
	s2.5,1.2,3.2,2.5l2.7,4.6c0.7,1.3,0.9,2.6,0.5,4.1c-0.4,1.4-1.2,2.5-2.5,3.2L48,32L59.1,38.4z"/>
</svg>
