<?xml version="1.0" encoding="utf-8"?>
<!-- Generator: Adobe Illustrator 16.0.0, SVG Export Plug-In . SVG Version: 6.00 Build 0)  -->
<!DOCTYPE svg PUBLIC "-//W3C//DTD SVG 1.1//EN" "http://www.w3.org/Graphics/SVG/1.1/DTD/svg11.dtd">
<svg version="1.1" id="Layer_1" xmlns="http://www.w3.org/2000/svg" xmlns:xlink="http://www.w3.org/1999/xlink" x="0px" y="0px"
	 width="48px" height="48px" viewBox="0 0 48 48" enable-background="new 0 0 48 48" xml:space="preserve">
<g>
	<path  d="M24.559,17.654c-0.852,0-1.596,0.206-2.235,0.619s-1.164,0.984-1.576,1.716
		c-0.413,0.732-0.725,1.596-0.938,2.594c-0.214,0.997-0.32,2.069-0.32,3.212c0,0.719,0.101,1.324,0.3,1.816
		c0.2,0.492,0.452,0.898,0.759,1.217c0.305,0.32,0.658,0.545,1.057,0.678c0.399,0.135,0.799,0.201,1.197,0.201
		c0.586,0,1.151-0.166,1.696-0.5c0.545-0.332,1.031-0.838,1.457-1.516c0.426-0.68,0.76-1.551,0.998-2.615
		c0.24-1.062,0.359-2.34,0.359-3.83c0-1.064-0.193-1.929-0.578-2.594C26.348,17.987,25.623,17.654,24.559,17.654z"/>
	<path  d="M24,0C10.745,0,0,10.745,0,24c0,13.254,10.745,24,24,24c13.256,0,24-10.746,24-24C48,10.745,37.256,0,24,0z
		 M39.504,25.615c-0.385,1.477-0.932,2.768-1.635,3.871c-0.705,1.105-1.557,1.977-2.555,2.615s-2.096,0.957-3.293,0.957
		c-0.611,0-1.17-0.113-1.676-0.34c-0.506-0.225-0.945-0.518-1.318-0.877c-0.371-0.359-0.678-0.758-0.918-1.197
		c-0.238-0.439-0.385-0.871-0.438-1.297c-0.16,0.318-0.412,0.672-0.758,1.057c-0.346,0.387-0.766,0.746-1.258,1.078
		S24.611,32.094,24,32.32c-0.612,0.227-1.264,0.34-1.956,0.34c-0.719,0-1.443-0.121-2.175-0.359
		c-0.732-0.24-1.397-0.633-1.996-1.178c-0.599-0.545-1.084-1.258-1.457-2.135c-0.373-0.879-0.559-1.955-0.559-3.232
		c0-1.543,0.179-2.986,0.539-4.331c0.359-1.343,0.891-2.507,1.596-3.492c0.705-0.984,1.583-1.756,2.635-2.315
		c1.051-0.559,2.268-0.838,3.651-0.838c0.744,0,1.477,0.2,2.195,0.599s1.223,0.972,1.516,1.716l0.719-2.035h2.834l-1.477,11.334
		c-0.08,0.639-0.119,1.184-0.119,1.635c0,1.412,0.65,2.115,1.955,2.115c0.559,0,1.111-0.213,1.656-0.639
		c0.545-0.424,1.031-1.029,1.455-1.814c0.426-0.785,0.766-1.75,1.018-2.894c0.254-1.144,0.381-2.435,0.381-3.871
		c0-1.623-0.307-3.079-0.918-4.37c-0.613-1.29-1.457-2.381-2.535-3.272c-1.078-0.891-2.354-1.569-3.83-2.035
		c-1.477-0.465-3.08-0.699-4.811-0.699c-1.33,0-2.747,0.24-4.25,0.719c-1.503,0.479-2.88,1.271-4.13,2.375
		c-1.251,1.104-2.289,2.534-3.113,4.29c-0.825,1.756-1.237,3.911-1.237,6.465c0,2.234,0.379,4.17,1.138,5.807
		s1.756,2.986,2.993,4.051c1.237,1.064,2.634,1.85,4.19,2.355c1.557,0.504,3.146,0.758,4.768,0.758c1.119,0,2.203-0.1,3.254-0.299
		c1.051-0.201,2.002-0.445,2.854-0.74v3.115c-0.826,0.291-1.803,0.537-2.934,0.736s-2.295,0.301-3.492,0.301
		c-2.075,0-4.098-0.334-6.067-0.998c-1.969-0.666-3.725-1.664-5.267-2.994c-1.543-1.33-2.781-3.006-3.711-5.027
		c-0.932-2.021-1.397-4.391-1.397-7.104c0-2.076,0.246-3.932,0.738-5.568c0.492-1.636,1.157-3.079,1.996-4.33
		c0.838-1.25,1.809-2.314,2.913-3.192c1.104-0.878,2.268-1.597,3.492-2.155c1.223-0.559,2.454-0.964,3.691-1.217
		c1.237-0.252,2.428-0.379,3.571-0.379c1.996,0,3.938,0.286,5.828,0.858c1.889,0.572,3.572,1.423,5.047,2.554
		c1.479,1.131,2.662,2.528,3.553,4.19c0.891,1.663,1.338,3.585,1.338,5.767C40.084,22.562,39.889,24.139,39.504,25.615z"/>
</g>
</svg>
