<?xml version="1.0" encoding="utf-8"?>
<!-- Generator: Adobe Illustrator 16.0.0, SVG Export Plug-In . SVG Version: 6.00 Build 0)  -->
<!DOCTYPE svg PUBLIC "-//W3C//DTD SVG 1.1//EN" "http://www.w3.org/Graphics/SVG/1.1/DTD/svg11.dtd">
<svg version="1.1" id="Layer_1" xmlns="http://www.w3.org/2000/svg" xmlns:xlink="http://www.w3.org/1999/xlink" x="0px" y="0px"
	 width="48px" height="48px" viewBox="0 0 48 48" enable-background="new 0 0 48 48" xml:space="preserve">
<path  d="M24.475,0C14.385,0,0.081,6.45,0.081,24.523C0.081,40.329,12.188,48,24.533,48
	c3.562,0,7.123-0.639,9.557-1.51v-4.533c-2.493,0.813-5.758,1.511-9.081,1.511c-9.615,0-19.469-5.812-19.469-18.887
	c0-14.877,10.981-20.165,18.935-20.165c10.268,0,17.983,5.636,17.983,15.109c0,8.368-3.323,13.424-6.706,13.424
	c-1.959,0-2.909-0.988-2.909-3.08c0-0.639,0.06-1.453,0.178-2.383l2.061-16.493h-4l-1.146,2.953c-0.89-2.15-3.323-3.371-5.52-3.371
	c-8.25,0-12.523,6.974-12.523,15.981c0,7.381,4.926,10.053,9.2,10.053c4.154,0,7.419-2.904,8.368-4.822
	c0.297,2.498,2.908,5.404,6.469,5.404c7.183,0,11.99-8.02,11.99-17.725C47.919,6.799,36.345,0,24.475,0z M22.219,32.311
	c-2.374,0-4.926-1.512-4.926-5.695c0-6.683,2.492-11.855,7.537-11.855c3.146,0,4.096,2.15,4.096,5.23
	C28.926,28.591,25.78,32.311,22.219,32.311z"/>
</svg>
