<?xml version="1.0" encoding="utf-8"?>
<!-- Generator: Adobe Illustrator 16.0.0, SVG Export Plug-In . SVG Version: 6.00 Build 0)  -->
<!DOCTYPE svg PUBLIC "-//W3C//DTD SVG 1.1//EN" "http://www.w3.org/Graphics/SVG/1.1/DTD/svg11.dtd">
<svg version="1.1" id="Layer_1" xmlns="http://www.w3.org/2000/svg" xmlns:xlink="http://www.w3.org/1999/xlink" x="0px" y="0px"
	 width="48px" height="48px" viewBox="0 0 48 48" enable-background="new 0 0 48 48" xml:space="preserve">
<path  d="M31.819,17.127c0.784-0.778,0.788-2.044,0.01-2.828c-0.777-0.783-2.043-0.789-2.828-0.01L8.925,34.221
	c-1.871,1.871-1.871,4.916,0,6.791c1.872,1.871,4.917,1.869,6.787,0l28.136-28.056c2.964-2.964,2.964-7.786,0-10.75
	c-1.431-1.432-3.34-2.22-5.375-2.22c-2.034,0-3.943,0.788-5.372,2.218L4.965,30.26c-1.959,1.959-3.037,4.57-3.037,7.355
	s1.078,5.398,3.037,7.355c2.028,2.029,4.692,3.043,7.356,3.043c2.662,0,5.324-1.014,7.349-3.037l20.07-19.928
	c0.784-0.778,0.788-2.043,0.01-2.828c-0.777-0.783-2.045-0.789-2.828-0.01L16.847,42.143c-2.497,2.498-6.559,2.496-9.054,0
	c-1.203-1.203-1.865-2.811-1.865-4.527s0.662-3.324,1.863-4.525L35.928,5.034c1.352-1.352,3.741-1.352,5.093,0
	c1.404,1.404,1.404,3.689,0.002,5.092L12.886,38.182c-0.307,0.307-0.825,0.307-1.132,0c-0.308-0.307-0.308-0.826-0.006-1.127
	L31.819,17.127z"/>
</svg>
