<?xml version="1.0" encoding="utf-8"?>
<!-- Generator: Adobe Illustrator 16.0.0, SVG Export Plug-In . SVG Version: 6.00 Build 0)  -->
<!DOCTYPE svg PUBLIC "-//W3C//DTD SVG 1.1//EN" "http://www.w3.org/Graphics/SVG/1.1/DTD/svg11.dtd">
<svg version="1.1" id="Layer_1" xmlns="http://www.w3.org/2000/svg" xmlns:xlink="http://www.w3.org/1999/xlink" x="0px" y="0px"
	 width="48px" height="48px" viewBox="0 0 48 48" enable-background="new 0 0 48 48" xml:space="preserve">
<g>
	<path  d="M2,15c-1.1,0-2,0.9-2,2v14c0,1.1,0.9,2,2,2h6.06L24,48V0L8.06,15H2z"/>
	<path  d="M40.971,7.029c-0.781-0.781-2.049-0.781-2.828,0c-0.781,0.781-0.781,2.047,0,2.828
		C41.92,13.635,44,18.658,44,24s-2.08,10.365-5.857,14.143c-0.781,0.781-0.781,2.047,0,2.828c0.39,0.391,0.902,0.586,1.414,0.586
		s1.023-0.195,1.414-0.586C45.504,36.438,48,30.411,48,24S45.504,11.562,40.971,7.029z"/>
	<path  d="M30.364,14.807c-0.781,0.781-0.781,2.048-0.001,2.829C32.064,19.336,33,21.597,33,24
		c0,2.404-0.936,4.664-2.636,6.364c-0.781,0.781-0.781,2.047,0,2.828c0.39,0.391,0.902,0.586,1.414,0.586s1.024-0.195,1.414-0.586
		C35.648,30.737,37,27.473,37,24c0-3.472-1.352-6.736-3.807-9.192C32.412,14.027,31.146,14.026,30.364,14.807z"/>
</g>
</svg>
