<?xml version="1.0" encoding="utf-8"?>
<!-- Generator: Adobe Illustrator 16.0.0, SVG Export Plug-In . SVG Version: 6.00 Build 0)  -->
<!DOCTYPE svg PUBLIC "-//W3C//DTD SVG 1.1//EN" "http://www.w3.org/Graphics/SVG/1.1/DTD/svg11.dtd">
<svg version="1.1" id="Layer_1" xmlns="http://www.w3.org/2000/svg" xmlns:xlink="http://www.w3.org/1999/xlink" x="0px" y="0px"
	 width="48px" height="48px" viewBox="0 0 48 48" enable-background="new 0 0 48 48" xml:space="preserve">
<g>
	<path  d="M28,19h0.555c0.693,1.19,1.969,2,3.445,2s2.752-0.81,3.445-2H46c1.1,0,2-0.9,2-2s-0.9-2-2-2H35.445
		c-0.693-1.19-1.969-2-3.445-2s-2.752,0.81-3.445,2H28c-1.1,0-2,0.9-2,2S26.9,19,28,19z"/>
	<path  d="M46,29h-0.555c-0.693-1.19-1.969-2-3.445-2s-2.752,0.81-3.445,2H28c-1.1,0-2,0.9-2,2s0.9,2,2,2h10.555
		c0.693,1.19,1.969,2,3.445,2s2.752-0.81,3.445-2H46c1.1,0,2-0.9,2-2S47.1,29,46,29z"/>
	<path  d="M2,15c-1.1,0-2,0.9-2,2v14c0,1.1,0.9,2,2,2h6.06L24,48V0L8.06,15H2z"/>
</g>
</svg>
