<?xml version="1.0" encoding="utf-8"?>
<!-- Generator: Adobe Illustrator 16.0.0, SVG Export Plug-In . SVG Version: 6.00 Build 0)  -->
<!DOCTYPE svg PUBLIC "-//W3C//DTD SVG 1.1//EN" "http://www.w3.org/Graphics/SVG/1.1/DTD/svg11.dtd">
<svg version="1.1" id="Layer_1" xmlns="http://www.w3.org/2000/svg" xmlns:xlink="http://www.w3.org/1999/xlink" x="0px" y="0px"
	 width="48px" height="48px" viewBox="0 0 48 48" enable-background="new 0 0 48 48" xml:space="preserve">
<g>
	<path  d="M24,5c-3.85,0-7,3.134-7,6.964v16.071C17,31.866,20.15,35,24,35c3.85,0,7-3.134,7-6.965V11.964
		C31,8.134,27.85,5,24,5z"/>
	<path  d="M46.344,12.266c-0.402-1.029-1.562-1.536-2.591-1.133c-1.028,0.402-1.536,1.562-1.134,2.591
		C43.535,16.064,44,18.512,44,21c0,2.488-0.465,4.936-1.381,7.275c-0.402,1.029,0.105,2.189,1.134,2.592
		c0.239,0.094,0.485,0.139,0.729,0.139c0.8,0,1.554-0.482,1.862-1.271C47.443,26.928,48,23.988,48,21
		C48,18.011,47.443,15.073,46.344,12.266z"/>
	<path  d="M36.646,14.699c-1.047,0.351-1.611,1.484-1.262,2.531C35.793,18.449,36,19.717,36,21
		c0,1.283-0.207,2.551-0.615,3.77c-0.35,1.048,0.215,2.182,1.262,2.531c0.211,0.071,0.425,0.104,0.636,0.104
		c0.836,0,1.616-0.528,1.896-1.366C39.724,24.41,40,22.715,40,21c0-1.715-0.276-3.411-0.822-5.04
		C38.828,14.913,37.695,14.349,36.646,14.699z"/>
	<path  d="M4.247,11.133c-1.026-0.403-2.188,0.104-2.591,1.133C0.557,15.073,0,18.011,0,21
		c0,2.988,0.557,5.928,1.656,8.734c0.309,0.789,1.063,1.271,1.863,1.271c0.243,0,0.489-0.045,0.729-0.139
		c1.029-0.402,1.536-1.562,1.133-2.592C4.464,25.936,4,23.488,4,21c0-2.488,0.464-4.936,1.38-7.276
		C5.783,12.695,5.276,11.535,4.247,11.133z"/>
	<path  d="M11.353,14.699c-1.044-0.352-2.18,0.214-2.531,1.262C8.276,17.589,8,19.285,8,21
		c0,1.715,0.276,3.41,0.822,5.039c0.28,0.838,1.06,1.366,1.896,1.366c0.21,0,0.425-0.034,0.635-0.104
		c1.047-0.35,1.612-1.483,1.262-2.531C12.207,23.551,12,22.283,12,21c0-1.283,0.207-2.551,0.615-3.77
		C12.965,16.183,12.4,15.049,11.353,14.699z"/>
	<path  d="M29.5,40l-3.51-0.73V37H22v2.263L18.5,40c-0.825,0-1.5,0.675-1.5,1.5s0.675,1.5,1.5,1.5h11
		c0.825,0,1.5-0.675,1.5-1.5S30.325,40,29.5,40z"/>
</g>
</svg>
