<?xml version="1.0" encoding="utf-8"?>
<!-- Generator: Adobe Illustrator 16.0.0, SVG Export Plug-In . SVG Version: 6.00 Build 0)  -->
<!DOCTYPE svg PUBLIC "-//W3C//DTD SVG 1.1//EN" "http://www.w3.org/Graphics/SVG/1.1/DTD/svg11.dtd">
<svg version="1.1" id="Layer_1" xmlns="http://www.w3.org/2000/svg" xmlns:xlink="http://www.w3.org/1999/xlink" x="0px" y="0px"
	 width="48px" height="48px" viewBox="0 0 48 48" enable-background="new 0 0 48 48" xml:space="preserve">
<g>
	<path  d="M7.5,15c-1.1,0-2,0.9-2,2v14c0,1.1,0.9,2,2,2h6.06L29.5,48V0L13.56,15H7.5z"/>
	<path  d="M38.693,14.808c-0.781-0.78-2.047-0.781-2.829-0.001c-0.781,0.781-0.781,2.048-0.001,2.829
		c1.701,1.7,2.637,3.961,2.637,6.364c0,2.404-0.936,4.664-2.636,6.364c-0.781,0.781-0.781,2.047,0,2.828
		c0.39,0.391,0.902,0.586,1.414,0.586s1.024-0.195,1.414-0.586C41.148,30.737,42.5,27.473,42.5,24
		C42.5,20.528,41.148,17.264,38.693,14.808z"/>
</g>
</svg>
