<?xml version="1.0" encoding="utf-8"?>
<!-- Generator: Adobe Illustrator 16.0.0, SVG Export Plug-In . SVG Version: 6.00 Build 0)  -->
<!DOCTYPE svg PUBLIC "-//W3C//DTD SVG 1.1//EN" "http://www.w3.org/Graphics/SVG/1.1/DTD/svg11.dtd">
<svg version="1.1" id="Layer_1" xmlns="http://www.w3.org/2000/svg" xmlns:xlink="http://www.w3.org/1999/xlink" x="0px" y="0px"
	 width="48px" height="48px" viewBox="0 0 48 48" enable-background="new 0 0 48 48" xml:space="preserve">
<g>
	<path  d="M32.998,20.234V10c0-1.104-0.895-2-2-2H3.001c-1.104,0-2,0.896-2,2v28c0,1.104,0.896,2,2,2h27.997
		c1.105,0,2-0.896,2-2V27.766c4.879,2.872,14,8.24,14,8.234V12C46.998,11.994,37.877,17.362,32.998,20.234z M16.999,35
		c-6.075,0-11-4.925-11-11s4.925-11,11-11s11,4.925,11,11S23.074,35,16.999,35z"/>
	<path  d="M16.999,17c-3.86,0-7,3.14-7,7c0,3.859,3.14,7,7,7s7-3.141,7-7C23.999,20.14,20.858,17,16.999,17z"/>
</g>
</svg>
