<?xml version="1.0" encoding="utf-8"?>
<!-- Generator: Adobe Illustrator 16.0.0, SVG Export Plug-In . SVG Version: 6.00 Build 0)  -->
<!DOCTYPE svg PUBLIC "-//W3C//DTD SVG 1.1//EN" "http://www.w3.org/Graphics/SVG/1.1/DTD/svg11.dtd">
<svg version="1.1" id="Layer_1" xmlns="http://www.w3.org/2000/svg" xmlns:xlink="http://www.w3.org/1999/xlink" x="0px" y="0px"
	 width="48px" height="48px" viewBox="0 0 48 48" enable-background="new 0 0 48 48" xml:space="preserve">
<path  d="M33.556,13.998H16.944V6.102c0-1.047-0.701-1.411-1.557-0.807L-0.056,15.982L15.387,26.7
	c0.856,0.604,1.557,0.24,1.557-0.807v-7.896h16.611c5.79,0,10.5,4.711,10.5,10.5c0,5.789-4.71,10.5-10.5,10.5c-1.104,0-2,0.896-2,2
	s0.896,2,2,2c7.995,0,14.5-6.505,14.5-14.5C48.056,20.502,41.551,13.998,33.556,13.998z"/>
</svg>
