<?xml version="1.0" encoding="utf-8"?>
<!-- Generator: Adobe Illustrator 16.0.0, SVG Export Plug-In . SVG Version: 6.00 Build 0)  -->
<!DOCTYPE svg PUBLIC "-//W3C//DTD SVG 1.1//EN" "http://www.w3.org/Graphics/SVG/1.1/DTD/svg11.dtd">
<svg version="1.1" id="Layer_1" xmlns="http://www.w3.org/2000/svg" xmlns:xlink="http://www.w3.org/1999/xlink" x="0px" y="0px"
	 width="48px" height="48px" viewBox="0 0 48 48" enable-background="new 0 0 48 48" xml:space="preserve">
<g>
	<polygon  points="16.232,15.561 16,15.391 16.232,15.561 	"/>
	<path  d="M44,2H4C2.896,2,2,2.895,2,4v40c0,1.104,0.896,2,2,2h40c1.104,0,2-0.896,2-2V4C46,2.895,45.104,2,44,2z
		 M24,38.959c-7.168,0-13-5.831-13-13c0-2.799,0.906-5.379,2.42-7.5l3.223,2.357C15.618,22.277,15,24.043,15,25.959
		c0,4.963,4.037,9,9,9s9-4.037,9-9c0-3.909-2.51-7.235-6-8.475v4.975c0,0.527-0.353,0.71-0.783,0.406L16,15.391l10.217-7.244
		C26.647,7.843,27,8.026,27,8.553v4.77c5.725,1.36,10,6.502,10,12.636C37,33.128,31.168,38.959,24,38.959z"/>
</g>
</svg>
