<?xml version="1.0" encoding="utf-8"?>
<!-- Generator: Adobe Illustrator 15.0.0, SVG Export Plug-In . SVG Version: 6.00 Build 0)  -->
<!DOCTYPE svg PUBLIC "-//W3C//DTD SVG 1.1//EN" "http://www.w3.org/Graphics/SVG/1.1/DTD/svg11.dtd">
<svg version="1.1" id="Layer_1" xmlns="http://www.w3.org/2000/svg" xmlns:xlink="http://www.w3.org/1999/xlink" x="0px" y="0px"
	 width="48px" height="48px" viewBox="0 0 48 48" enable-background="new 0 0 48 48" xml:space="preserve">
<g id="XMLID_276_">
	<path id="XMLID_277_"  d="M46,8H8c-1.1,0-2,0.9-2,2v8H1c-0.6,0-1,0.5-1,1v10c0,0.5,0.4,1,1,1h5v8c0,1.1,0.9,2,2,2h38
		c1.1,0,2-0.9,2-2V10C48,8.9,47.1,8,46,8z M33,33c0,1.1-0.9,2-2,2s-2-0.9-2-2V15c0-1.1,0.9-2,2-2s2,0.9,2,2V33z M42,33
		c0,1.1-0.9,2-2,2s-2-0.9-2-2V15c0-1.1,0.9-2,2-2s2,0.9,2,2V33z"/>
</g>
</svg>
