<?xml version="1.0" encoding="utf-8"?>
<!-- Generator: Adobe Illustrator 16.0.0, SVG Export Plug-In . SVG Version: 6.00 Build 0)  -->
<!DOCTYPE svg PUBLIC "-//W3C//DTD SVG 1.1//EN" "http://www.w3.org/Graphics/SVG/1.1/DTD/svg11.dtd">
<svg version="1.1" id="Layer_1" xmlns="http://www.w3.org/2000/svg" xmlns:xlink="http://www.w3.org/1999/xlink" x="0px" y="0px"
	 width="48px" height="48px" viewBox="0 0 48 48" enable-background="new 0 0 48 48" xml:space="preserve">
<g id="XMLID_981_">
	<path id="XMLID_984_" fill-rule="evenodd" clip-rule="evenodd"  d="M44.324,28.944
		c-0.134-0.533-0.513-1.329-0.842-1.769l-4.796-6.395c-0.33-0.439-0.709-1.235-0.842-1.769c0,0-1.921-7.101-1.929-7.114
		C34.905,5.167,31.102,0,24.088,0h-0.176c-7.014,0-10.817,5.167-11.828,11.899c-0.007,0.013-1.929,7.114-1.929,7.114
		c-0.133,0.533-0.512,1.329-0.842,1.769l-4.796,6.395c-0.329,0.439-0.708,1.235-0.842,1.769L2,36h44L44.324,28.944z"/>
	<circle id="XMLID_985_" fill-rule="evenodd" clip-rule="evenodd"  cx="24" cy="44" r="4"/>
</g>
</svg>
