<?xml version="1.0" encoding="utf-8"?>
<!-- Generator: Adobe Illustrator 16.0.0, SVG Export Plug-In . SVG Version: 6.00 Build 0)  -->
<!DOCTYPE svg PUBLIC "-//W3C//DTD SVG 1.1//EN" "http://www.w3.org/Graphics/SVG/1.1/DTD/svg11.dtd">
<svg version="1.1" id="Layer_1" xmlns="http://www.w3.org/2000/svg" xmlns:xlink="http://www.w3.org/1999/xlink" x="0px" y="0px"
	 width="48px" height="48px" viewBox="0 0 48 48" enable-background="new 0 0 48 48" xml:space="preserve">
<g>
	<path fill-rule="evenodd" clip-rule="evenodd"  d="M43.482,27.176l-4.796-6.395c-0.33-0.439-0.709-1.235-0.842-1.769
		c0,0-0.029-0.106-0.077-0.284c-0.092,0.092-0.158,0.155-0.16,0.148L20.484,36H46l-1.676-7.056
		C44.19,28.411,43.812,27.615,43.482,27.176z"/>
	<path fill-rule="evenodd" clip-rule="evenodd"  d="M47.414,0.586c-0.781-0.781-2.047-0.781-2.828,0l-9.12,9.12
		C34.008,4.079,30.316,0,24.088,0h-0.176c-7.013,0-10.817,5.167-11.828,11.899c-0.007,0.013-1.929,7.114-1.929,7.114
		c-0.133,0.533-0.512,1.329-0.842,1.769l-4.796,6.395c-0.329,0.439-0.708,1.235-0.841,1.769L2,36h7.172l-8.586,8.586
		c-0.781,0.781-0.781,2.047,0,2.828C0.977,47.805,1.488,48,2,48s1.023-0.195,1.414-0.586L14.828,36l21.732-21.732L47.414,3.414
		C48.195,2.633,48.195,1.367,47.414,0.586z"/>
	<circle fill-rule="evenodd" clip-rule="evenodd"  cx="24" cy="44" r="4"/>
</g>
</svg>
