<?xml version="1.0" encoding="utf-8"?>
<!-- Generator: Adobe Illustrator 16.0.0, SVG Export Plug-In . SVG Version: 6.00 Build 0)  -->
<!DOCTYPE svg PUBLIC "-//W3C//DTD SVG 1.1//EN" "http://www.w3.org/Graphics/SVG/1.1/DTD/svg11.dtd">
<svg version="1.1" id="Layer_1" xmlns="http://www.w3.org/2000/svg" xmlns:xlink="http://www.w3.org/1999/xlink" x="0px" y="0px"
	 width="48px" height="48px" viewBox="0 0 48 48" enable-background="new 0 0 48 48" xml:space="preserve">
<path  d="M24,0C10.745,0,0,10.745,0,24s10.745,24,24,24s24-10.745,24-24S37.255,0,24,0z M24,4
	c4.795,0,9.199,1.699,12.648,4.523L8.523,36.648C5.699,33.199,4,28.795,4,24C4,12.972,12.972,4,24,4z M24,44
	c-4.795,0-9.199-1.699-12.648-4.523l28.125-28.125C42.301,14.801,44,19.205,44,24C44,35.028,35.028,44,24,44z"/>
</svg>
