<?xml version="1.0" encoding="utf-8"?>
<!-- Generator: Adobe Illustrator 16.0.0, SVG Export Plug-In . SVG Version: 6.00 Build 0)  -->
<!DOCTYPE svg PUBLIC "-//W3C//DTD SVG 1.1//EN" "http://www.w3.org/Graphics/SVG/1.1/DTD/svg11.dtd">
<svg version="1.1" id="Layer_1" xmlns="http://www.w3.org/2000/svg" xmlns:xlink="http://www.w3.org/1999/xlink" x="0px" y="0px"
	 width="48px" height="48px" viewBox="0 0 48 48" enable-background="new 0 0 48 48" xml:space="preserve">
<g>
	<path  d="M29.142,27.344l4.486,4.486L22.5,42.826v-8.842l-9.627,9.628C15.835,46.699,19.749,48,24.149,48
		c9.665,0,16.703-6.437,16.703-24c0-2.908-0.192-5.502-0.551-7.815L29.142,27.344z"/>
	<polygon  points="25.5,30.984 25.5,35.645 29.372,31.817 27.02,29.465 	"/>
	<path  d="M47.414,0.586c-0.781-0.781-2.047-0.781-2.828,0L37.59,7.582C34.621,2.172,29.842,0,24.149,0
		c-9.665,0-17,6.437-17,24c0,5.004,0.583,9.093,1.637,12.387l-8.2,8.199c-0.781,0.781-0.781,2.047,0,2.828
		C0.977,47.805,1.488,48,2,48s1.023-0.195,1.414-0.586l7.065-7.064h0L47.414,3.414C48.195,2.633,48.195,1.367,47.414,0.586z
		 M14.652,17.097l2.121-2.121l5.727,5.727V5.173l8.801,8.697l-2.121,2.122l-3.68-3.636v7.316l-4.137,4.137L14.652,17.097z"/>
</g>
</svg>
