<?xml version="1.0" encoding="utf-8"?>
<!-- Generator: Adobe Illustrator 16.0.0, SVG Export Plug-In . SVG Version: 6.00 Build 0)  -->
<!DOCTYPE svg PUBLIC "-//W3C//DTD SVG 1.1//EN" "http://www.w3.org/Graphics/SVG/1.1/DTD/svg11.dtd">
<svg version="1.1" id="Layer_1" xmlns="http://www.w3.org/2000/svg" xmlns:xlink="http://www.w3.org/1999/xlink" x="0px" y="0px"
	 width="48px" height="48px" viewBox="0 0 48 48" enable-background="new 0 0 48 48" xml:space="preserve">
<g>
	<path  d="M24,0C14.25,0,7,6.437,7,24c0,17.751,7.25,24,17,24s17-6.437,17-24C41,6.249,33.75,0,24,0z M33.027,40.094
		C30.934,42.723,27.98,44,24,44c-3.215,0-13,0-13-20c0-7.371,1.336-12.786,3.972-16.094C17.066,5.278,20.02,4,24,4
		c3.215,0,13,0,13,20C37,31.371,35.664,36.785,33.027,40.094z"/>
	<path  d="M33.525,16.291L22.514,5.409v15.289l-5.599-5.598l-2.121,2.121L21.573,24l-6.82,6.82l2.121,2.121
		l5.64-5.639v15.289l11.012-10.883L25.816,24L33.525,16.291z M25.514,12.591l3.756,3.712l-3.756,3.756V12.591z M29.27,31.696
		l-3.756,3.712v-7.469L29.27,31.696z"/>
</g>
</svg>
