<?xml version="1.0" encoding="utf-8"?>
<!-- Generator: Adobe Illustrator 16.0.0, SVG Export Plug-In . SVG Version: 6.00 Build 0)  -->
<!DOCTYPE svg PUBLIC "-//W3C//DTD SVG 1.1//EN" "http://www.w3.org/Graphics/SVG/1.1/DTD/svg11.dtd">
<svg version="1.1" id="Layer_1" xmlns="http://www.w3.org/2000/svg" xmlns:xlink="http://www.w3.org/1999/xlink" x="0px" y="0px"
	 width="48px" height="48px" viewBox="0 0 48 48" enable-background="new 0 0 48 48" xml:space="preserve">
<g>
	<path  d="M24,0C14.25,0,7,6.437,7,24c0,17.751,7.25,24,17,24s17-6.437,17-24C41,6.249,33.75,0,24,0z M33.525,31.709
		L22.514,42.592V27.303l-5.64,5.639l-2.121-2.121l6.82-6.82l-6.779-6.78l2.121-2.121l5.599,5.598V5.409l11.012,10.882L25.816,24
		L33.525,31.709z"/>
	<polygon  points="25.514,12.591 25.514,20.06 29.27,16.304 	"/>
	<polygon  points="25.514,35.408 29.27,31.696 25.514,27.939 	"/>
</g>
</svg>
