<?xml version="1.0" encoding="utf-8"?>
<!-- Generator: Adobe Illustrator 18.1.1, SVG Export Plug-In . SVG Version: 6.00 Build 0)  -->
<svg version="1.1" id="Layer_1" xmlns="http://www.w3.org/2000/svg" xmlns:xlink="http://www.w3.org/1999/xlink" x="0px" y="0px"
	 viewBox="0 0 48 48" enable-background="new 0 0 48 48" xml:space="preserve">
<g>
	<path  d="M0,13v28c0,1.1,0.9,2,2,2h2V11H2C0.9,11,0,11.9,0,13z"/>
	<path  d="M46,11h-2v32h2c1.1,0,2-0.9,2-2V13C48,11.9,47.1,11,46,11z"/>
	<path  d="M35,5c0-1.1-0.9-2-2-2H15c-1.1,0-2,0.9-2,2v6H8v32h32V11h-5V5z M31,11H17V7h14V11z"/>
</g>
</svg>
