<?xml version="1.0" encoding="utf-8"?>
<!-- Generator: Adobe Illustrator 19.1.0, SVG Export Plug-In . SVG Version: 6.00 Build 0)  -->
<svg version="1.1" id="Layer_1" xmlns="http://www.w3.org/2000/svg" xmlns:xlink="http://www.w3.org/1999/xlink" x="0px" y="0px"
	 width="48px" height="48px" viewBox="-281 373 48 48" style="enable-background:new -281 373 48 48;" xml:space="preserve">

<g>
	<path d="M-239,382.1c-0.8-0.8-2-0.8-2.8,0s-0.8,2,0,2.8c3.1,3.1,4.8,7.2,4.8,11.5s-1.7,8.5-4.8,11.5
		c-0.8,0.8-0.8,2,0,2.8c0.4,0.4,0.9,0.6,1.4,0.6s1-0.2,1.4-0.6c3.8-3.8,6-8.9,6-14.4C-233,391.1-235.1,386-239,382.1z"/>
	<path d="M-245.4,388.6c-0.8-0.8-2-0.8-2.8,0s-0.8,2,0,2.8c1.4,1.4,2.1,3.2,2.1,5.1c0,1.9-0.7,3.7-2.1,5.1
		c-0.8,0.8-0.8,2,0,2.8c0.4,0.4,0.9,0.6,1.4,0.6s1-0.2,1.4-0.6c2.1-2.1,3.3-4.9,3.3-7.9C-242.2,393.5-243.3,390.7-245.4,388.6z"/>
	<path d="M-255,386.5h-24c-1.1,0-2,0.9-2,2v16c0,1.1,0.9,2,2,2h2v6l6-6h16c1.1,0,2-0.9,2-2v-16
		C-253,387.4-253.9,386.5-255,386.5z"/>
</g>
</svg>
