<?xml version="1.0" encoding="utf-8"?>
<!-- Generator: Adobe Illustrator 16.0.0, SVG Export Plug-In . SVG Version: 6.00 Build 0)  -->
<!DOCTYPE svg PUBLIC "-//W3C//DTD SVG 1.1//EN" "http://www.w3.org/Graphics/SVG/1.1/DTD/svg11.dtd">
<svg version="1.1" id="Layer_1" xmlns="http://www.w3.org/2000/svg" xmlns:xlink="http://www.w3.org/1999/xlink" x="0px" y="0px"
	 width="48px" height="48px" viewBox="0 0 48 48" enable-background="new 0 0 48 48" xml:space="preserve">
<g>
	<path  d="M38,0H10C8.9,0,8,0.9,8,2v44c0,1.1,0.9,2,2,2h28c1.1,0,2-0.9,2-2V2C40,0.9,39.1,0,38,0z M31.463,31.449
		c-0.781,0.781-2.048,0.781-2.829,0l-4.609-4.609l-4.567,4.567c-0.781,0.781-2.048,0.781-2.829,0c-0.781-0.78-0.781-2.048,0-2.828
		l4.567-4.567l-4.575-4.575c-0.781-0.781-0.781-2.047,0-2.829c0.781-0.781,2.047-0.781,2.828,0l4.576,4.576l4.583-4.584
		c0.781-0.781,2.048-0.781,2.829,0c0.78,0.781,0.78,2.047,0,2.828l-4.584,4.584l4.609,4.609
		C32.243,29.402,32.243,30.668,31.463,31.449z"/>
</g>
</svg>
