<?xml version="1.0" encoding="utf-8"?>
<!-- Generator: Adobe Illustrator 19.1.0, SVG Export Plug-In . SVG Version: 6.00 Build 0)  -->
<svg version="1.1" id="Layer_1" xmlns="http://www.w3.org/2000/svg" xmlns:xlink="http://www.w3.org/1999/xlink" x="0px" y="0px"
	 width="48px" height="48px" viewBox="-281 373 48 48" style="enable-background:new -281 373 48 48;" xml:space="preserve">

<path d="M-235,381h-44c-1.1,0-2,0.9-2,2v28c0,1.1,0.9,2,2,2h44c1.1,0,2-0.9,2-2v-28C-233,381.9-233.9,381-235,381z
	 M-274,390c-1.1,0-2-0.9-2-2c0-1.1,0.9-2,2-2c1.1,0,2,0.9,2,2C-272,389.1-272.9,390-274,390z M-265,390c-1.1,0-2-0.9-2-2
	c0-1.1,0.9-2,2-2c1.1,0,2,0.9,2,2C-263,389.1-263.9,390-265,390z M-240,390h-16c-1.1,0-2-0.9-2-2s0.9-2,2-2h16c1.1,0,2,0.9,2,2
	S-238.9,390-240,390z"/>
</svg>
