<?xml version="1.0" encoding="utf-8"?>
<!-- Generator: Adobe Illustrator 16.0.0, SVG Export Plug-In . SVG Version: 6.00 Build 0)  -->
<!DOCTYPE svg PUBLIC "-//W3C//DTD SVG 1.1//EN" "http://www.w3.org/Graphics/SVG/1.1/DTD/svg11.dtd">
<svg version="1.1" id="Layer_1" xmlns="http://www.w3.org/2000/svg" xmlns:xlink="http://www.w3.org/1999/xlink" x="0px" y="0px"
	 width="48px" height="48px" viewBox="0 0 48 48" enable-background="new 0 0 48 48" xml:space="preserve">
<path  d="M46,22H34.9l9.102-5.269c0.956-0.554,1.282-1.777,0.729-2.733c-0.552-0.956-1.774-1.283-2.732-0.729
	L31,19.636V15c0-3.85-3.15-7-7-7c-3.85,0-7,3.15-7,7v4.636L6.002,13.269c-0.956-0.554-2.18-0.227-2.732,0.729
	c-0.554,0.956-0.228,2.179,0.729,2.733L13.099,22H2c-1.104,0-2,0.896-2,2s0.896,2,2,2h11.099l-9.101,5.27
	c-0.956,0.553-1.282,1.777-0.729,2.732C3.64,34.643,4.312,35,5.002,35c0.34,0,0.685-0.086,1-0.27L17,28.363V33c0,3.85,3.15,7,7,7
	c3.85,0,7-3.15,7-7v-4.637l10.998,6.367c0.315,0.184,0.66,0.27,1,0.27c0.69,0,1.362-0.357,1.732-0.998
	c0.554-0.955,0.228-2.18-0.729-2.732L34.9,26H46c1.104,0,2-0.896,2-2S47.104,22,46,22z"/>
</svg>
