<?xml version="1.0" encoding="UTF-8"?>
<svg width="48px" height="48px" viewBox="0 0 48 48" version="1.1" xmlns="http://www.w3.org/2000/svg" xmlns:xlink="http://www.w3.org/1999/xlink">
    <!-- Generator: Sketch 52.3 (67297) - http://www.bohemiancoding.com/sketch -->
    <title>bug</title>
    <desc>Created with Sketch.</desc>
    <g id="Page-1" stroke="none" stroke-width="1" fill="none" fill-rule="evenodd">
        <path d="M9.66238721,13.3591424 L9.24784219,12.5714246 C8.36724933,10.8981232 8.08178033,8.97513011 8.43830585,7.11817814 L8.51948812,6.69534287 C8.81757192,5.14278273 9.77798308,3.79744675 11.149525,3.01120904 C12.5344051,2.21732516 14.1752383,1.99773303 15.7201355,2.39952582 L15.8030473,2.42108932 C17.4135269,2.83993863 18.8252612,3.81214077 19.7909033,5.16735833 L20.8696527,6.68131483 L20.7757058,6.73894441 C22.3468342,6.60574472 23.9501632,6.70482329 25.5390012,7.02185712 L27.1123322,1.03043186 L27.2918702,0.75683373 C27.8015318,-0.0198401594 28.8443127,-0.236296398 29.6209866,0.273365189 C30.154846,0.623689371 30.4443061,1.24609277 30.3682202,1.88008319 L28.9329086,8.04106849 C31.9213675,9.24836181 34.7294571,11.2337968 37.0184327,13.8934612 L41.97967,10.2536071 L42.292761,10.1534365 C43.176539,9.87067965 44.1222023,10.3579036 44.4049591,11.2416816 C44.5994736,11.8496515 44.432663,12.5153345 43.974439,12.9597375 L39.1043988,16.7458354 C41.0278704,19.8645208 42.038037,23.2200804 42.1912007,26.4545701 L47.1302473,28.3171807 L47.3785227,28.5195912 C48.0980359,29.1061859 48.2057877,30.1649957 47.6191929,30.884509 C47.2156238,31.3795242 46.5663798,31.6030583 45.9436084,31.4614113 L41.9934546,30.0960817 C41.29758,34.441126 38.9490546,38.2755959 35.1045108,40.6035943 C30.8601542,43.1736981 25.6719375,43.3506835 20.898101,41.5624623 L19.6910511,46.913879 L19.5213265,47.1933349 C19.0390725,47.987378 18.0044292,48.2401331 17.210386,47.7578791 C16.6646029,47.4264033 16.3535668,46.8144783 16.4074482,46.1781983 L17.6238327,39.9847217 C15.1654699,38.5183882 12.9254396,36.4966485 11.1245129,33.9890562 L5.9367466,37.2645989 L5.61777534,37.3426323 C4.71651434,37.5631173 3.80715947,37.0112394 3.58667438,36.1099784 C3.43498626,35.4899338 3.64779519,34.8374899 4.13589937,34.4261277 L9.31661677,30.9495041 C7.79636452,27.8355852 7.11643788,24.554861 7.23358503,21.4428761 L1.17280265,20.4093884 L0.889155303,20.2573255 C0.0712397196,19.8188422 -0.236350969,18.8003298 0.202132272,17.9824142 C0.503851966,17.4196076 1.09850721,17.0764616 1.73676272,17.096855 L7.71992824,17.9464916 C8.1252347,16.3043666 8.77525239,14.755612 9.66238721,13.3591424 Z" id="bug" fill="#000000"></path>
    </g>
</svg>