<?xml version="1.0" encoding="utf-8"?>
<!-- Generator: Adobe Illustrator 19.1.0, SVG Export Plug-In . SVG Version: 6.00 Build 0)  -->
<!DOCTYPE svg PUBLIC "-//W3C//DTD SVG 1.1//EN" "http://www.w3.org/Graphics/SVG/1.1/DTD/svg11.dtd">
<svg version="1.1" id="Layer_1" xmlns="http://www.w3.org/2000/svg" xmlns:xlink="http://www.w3.org/1999/xlink" x="0px" y="0px"
	 viewBox="-281 373 48 48" style="enable-background:new -281 373 48 48;" xml:space="preserve">

<g>
	<path d="M-237,375h-6v2c0,1.1-0.9,2-2,2s-2-0.9-2-2v-2h-20v2c0,1.1-0.9,2-2,2s-2-0.9-2-2v-2h-6c-1.1,0-2,0.9-2,2v40
		c0,1.1,0.9,2,2,2h40c1.1,0,2-0.9,2-2v-40C-235,375.9-235.9,375-237,375z M-256.9,408.4c-3.7,0-5.9-1.9-6.3-4.7h2.5
		c0.4,1.7,1.6,2.7,3.7,2.7c2.4,0,3.8-1.3,3.8-3.2c0-2.4-1.8-3.3-3.4-3.3h-1.5v-2.1h1.4c1.3,0,2.9-0.9,2.9-2.9c0-1.9-1.6-2.8-3.3-2.8
		c-2,0-3.3,1-3.5,2.5h-2.5c0.4-2.7,2.8-4.5,6.2-4.5c2.9,0,5.7,1.4,5.7,4.6c0,1.9-1.3,3.4-3.1,4c2,0.4,3.7,1.9,3.7,4.5
		C-250.7,406.3-253.2,408.4-256.9,408.4z"/>
</g>
</svg>
