<?xml version="1.0" encoding="utf-8"?>
<!-- Generator: Adobe Illustrator 18.1.1, SVG Export Plug-In . SVG Version: 6.00 Build 0)  -->
<svg version="1.1" id="Layer_1" xmlns="http://www.w3.org/2000/svg" xmlns:xlink="http://www.w3.org/1999/xlink" x="0px" y="0px"
	 viewBox="0 0 48 48" enable-background="new 0 0 48 48" xml:space="preserve">
<path  d="M44,2h-6v2c0,1.1-0.9,2-2,2s-2-0.9-2-2V2H14v2c0,1.1-0.9,2-2,2s-2-0.9-2-2V2H4C2.9,2,2,2.9,2,4v40
	c0,1.1,0.9,2,2,2h40c1.1,0,2-0.9,2-2V4C46,2.9,45.1,2,44,2z M12,37c-1.1,0-2-0.9-2-2s0.9-2,2-2s2,0.9,2,2S13.1,37,12,37z M12,28
	c-1.1,0-2-0.9-2-2s0.9-2,2-2s2,0.9,2,2S13.1,28,12,28z M12,19c-1.1,0-2-0.9-2-2s0.9-2,2-2s2,0.9,2,2S13.1,19,12,19z M20,37
	c-1.1,0-2-0.9-2-2s0.9-2,2-2s2,0.9,2,2S21.1,37,20,37z M20,28c-1.1,0-2-0.9-2-2s0.9-2,2-2s2,0.9,2,2S21.1,28,20,28z M20,19
	c-1.1,0-2-0.9-2-2s0.9-2,2-2s2,0.9,2,2S21.1,19,20,19z M28,37c-1.1,0-2-0.9-2-2s0.9-2,2-2s2,0.9,2,2S29.1,37,28,37z M28,28
	c-1.1,0-2-0.9-2-2s0.9-2,2-2s2,0.9,2,2S29.1,28,28,28z M28,19c-1.1,0-2-0.9-2-2s0.9-2,2-2s2,0.9,2,2S29.1,19,28,19z M36,28
	c-1.1,0-2-0.9-2-2s0.9-2,2-2s2,0.9,2,2S37.1,28,36,28z M36,19c-1.1,0-2-0.9-2-2s0.9-2,2-2s2,0.9,2,2S37.1,19,36,19z"/>
</svg>
