<?xml version="1.0" encoding="utf-8"?>
<!-- Generator: Adobe Illustrator 19.1.0, SVG Export Plug-In . SVG Version: 6.00 Build 0)  -->
<svg version="1.1" id="Layer_1" xmlns="http://www.w3.org/2000/svg" xmlns:xlink="http://www.w3.org/1999/xlink" x="0px" y="0px"
	 width="48px" height="48px" viewBox="-281 373 48 48" style="enable-background:new -281 373 48 48;" xml:space="preserve">

<g>
	<path d="M-244,399.8v4.2v0h-10.5l-2.6-3.6l-2.5,3.4l1.8,2.5c0.8,1,2,1.7,3.2,1.7h10.5v0v4.2c0,0.7,0.5,0.9,1,0.5
		l10-6.8l-10-6.8C-243.5,398.8-244,399.1-244,399.8z"/>
	<path d="M-254.5,390h10.5v4.2c0,0.7,0.5,0.9,1,0.5l10-6.8l-10-6.8c-0.6-0.4-1-0.2-1,0.5v4.2v0.1h-10.5
		c-1.3,0-2.5,0.6-3.2,1.7l-4.3,5.9l-4.3-5.9c-0.8-1-2-1.7-3.2-1.7h-9.5c-1.1,0-2,0.9-2,2s0.9,2,2,2h9.5l5.1,7l-5.1,7h-9.5
		c-1.1,0-2,0.9-2,2s0.9,2,2,2h9.5c1.3,0,2.5-0.6,3.2-1.7L-254.5,390z"/>
</g>
</svg>
