<?xml version="1.0" encoding="utf-8"?>
<!-- Generator: Adobe Illustrator 19.1.0, SVG Export Plug-In . SVG Version: 6.00 Build 0)  -->
<svg version="1.1" id="Layer_1" xmlns="http://www.w3.org/2000/svg" xmlns:xlink="http://www.w3.org/1999/xlink" x="0px" y="0px"
	 width="48px" height="48px" viewBox="-281 373 48 48" style="enable-background:new -281 373 48 48;" xml:space="preserve">

<g>
	<path d="M-233,379.3L-233,379.3c-0.9-0.6-1.9-1.1-2.9-1.6c-6-3-13.3-4.7-21.1-4.7s-15.1,1.8-21.1,4.8
		c-1,0.5-2,1-2.9,1.6l0,0l0,0l5,6.6c0.2,0.3,0.7,0.4,1,0.2l7.4-3.9c0.9-0.4,1.6-1.2,1.9-2.1l1.4-3.6c2.4-0.4,4.8-0.6,7.3-0.6
		c2.5,0,5,0.2,7.3,0.5l1.4,3.6c0.4,0.9,1,1.7,1.9,2.1l0,0l7.4,3.9c0.4,0.2,0.8,0.1,1-0.2L-233,379.3L-233,379.3z"/>
	<path d="M-244,391h-26c-1.1,0-2,0.9-2,2c0,1.1,0.9,2,2,2h26c1.1,0,2-0.9,2-2C-242,391.9-242.9,391-244,391z"/>
	<path d="M-244,404h-26c-1.1,0-2,0.9-2,2c0,1.1,0.9,2,2,2h26c1.1,0,2-0.9,2-2C-242,404.9-242.9,404-244,404z"/>
	<path d="M-257,417h-13c-1.1,0-2,0.9-2,2c0,1.1,0.9,2,2,2h13c1.1,0,2-0.9,2-2C-255,417.9-255.9,417-257,417z"/>
</g>
</svg>
