<?xml version="1.0" encoding="utf-8"?>
<!-- Generator: Adobe Illustrator 19.1.0, SVG Export Plug-In . SVG Version: 6.00 Build 0)  -->
<svg version="1.1" id="Layer_1" xmlns="http://www.w3.org/2000/svg" xmlns:xlink="http://www.w3.org/1999/xlink" x="0px" y="0px"
	 width="48px" height="48px" viewBox="-281 373 48 48" style="enable-background:new -281 373 48 48;" xml:space="preserve">

<g>
	<path d="M-257,383c-9.4,0-17,7.6-17,17c0,5,2.2,9.5,5.6,12.6l-5,5c-0.8,0.8-0.8,2,0,2.8c0.4,0.4,0.9,0.6,1.4,0.6
		s1-0.2,1.4-0.6l5.5-5.5c2.4,1.3,5.2,2.1,8.1,2.1s5.7-0.7,8.1-2.1l5.5,5.5c0.4,0.4,0.9,0.6,1.4,0.6s1-0.2,1.4-0.6
		c0.8-0.8,0.8-2,0-2.8l-5-5c3.4-3.1,5.6-7.6,5.6-12.6C-240,390.6-247.6,383-257,383z M-252,406.4c-0.4,0.4-0.9,0.6-1.4,0.6
		s-1-0.2-1.4-0.6l-4.1-4.1v-9.3c0-1.1,0.9-2,2-2s2,0.9,2,2v7.7l3,3C-251.3,404.3-251.3,405.6-252,406.4z"/>
	<path d="M-239,373h-36c-3.3,0-6,2.7-6,6h48C-233,375.7-235.7,373-239,373z"/>
</g>
</svg>
