<?xml version="1.0" encoding="utf-8"?>
<!-- Generator: Adobe Illustrator 19.1.0, SVG Export Plug-In . SVG Version: 6.00 Build 0)  -->
<svg version="1.1" id="Layer_1" xmlns="http://www.w3.org/2000/svg" xmlns:xlink="http://www.w3.org/1999/xlink" x="0px" y="0px"
	 width="48px" height="48px" viewBox="-281 373 48 48" style="enable-background:new -281 373 48 48;" xml:space="preserve">

<g>
	<path d="M-239,405.2h-36c-3.3,0-6,2.7-6,6h48C-233,408-235.7,405.2-239,405.2z"/>
	<path d="M-268.6,395.5l3.3-3.3l8.3,8.3l8.4-8.4c0.8-0.8,0.8-2,0-2.8c-0.8-0.8-2-0.8-2.8,0l-5.6,5.6l-5.5-5.5l3.2-3.2
		c0.5-0.5,0.3-1-0.3-1.1l-12.4-2.3l2.3,12.4C-269.6,395.8-269.1,396-268.6,395.5z"/>
</g>
</svg>
