<?xml version="1.0" encoding="utf-8"?>
<!-- Generator: Adobe Illustrator 16.0.0, SVG Export Plug-In . SVG Version: 6.00 Build 0)  -->
<!DOCTYPE svg PUBLIC "-//W3C//DTD SVG 1.1//EN" "http://www.w3.org/Graphics/SVG/1.1/DTD/svg11.dtd">
<svg version="1.1" id="Layer_1" xmlns="http://www.w3.org/2000/svg" xmlns:xlink="http://www.w3.org/1999/xlink" x="0px" y="0px"
	 width="48px" height="48px" viewBox="0 0 48 48" enable-background="new 0 0 48 48" xml:space="preserve">
<g>
	<path  d="M24,6C10.745,6,0,16.786,0,30.092C0,34.491,1.012,38.451,3.064,42h41.872
		C46.988,38.451,48,34.491,48,30.092C48,16.786,37.255,6,24,6z M26.22,33.523c-1.702,0.982-3.879,0.398-4.862-1.303
		c-0.167-0.291-0.273-0.596-0.352-0.906l-5.304-13.638l2.055-1.187l9.158,11.413c0.229,0.224,0.441,0.468,0.608,0.758
		C28.506,30.363,27.922,32.54,26.22,33.523z"/>
</g>
</svg>
