<?xml version="1.0" encoding="utf-8"?>
<!-- Generator: Adobe Illustrator 16.0.0, SVG Export Plug-In . SVG Version: 6.00 Build 0)  -->
<!DOCTYPE svg PUBLIC "-//W3C//DTD SVG 1.1//EN" "http://www.w3.org/Graphics/SVG/1.1/DTD/svg11.dtd">
<svg version="1.1" id="Layer_1" xmlns="http://www.w3.org/2000/svg" xmlns:xlink="http://www.w3.org/1999/xlink" x="0px" y="0px"
	 width="48px" height="48px" viewBox="0 0 48 48" enable-background="new 0 0 48 48" xml:space="preserve">
<g>
	<path  d="M24,19c-3.86,0-7,3.141-7,7s3.14,7,7,7c3.859,0,7-3.141,7-7S27.859,19,24,19z"/>
	<path  d="M46,10h-9l-0.758-3.03C36.109,6.437,35.55,6,35,6H12c-0.55,0-1.109,0.437-1.243,0.97L10,10H2
		c-1.1,0-2,0.9-2,2v28c0,1.1,0.9,2,2,2h44c1.1,0,2-0.9,2-2V12C48,10.9,47.1,10,46,10z M24,37c-6.075,0-11-4.925-11-11
		s4.925-11,11-11s11,4.925,11,11S30.075,37,24,37z"/>
</g>
</svg>
