<?xml version="1.0" encoding="UTF-8" standalone="no"?>
<svg width="52px" height="55px" viewBox="0 0 52 55" version="1.1" xmlns="http://www.w3.org/2000/svg" xmlns:xlink="http://www.w3.org/1999/xlink">
    <!-- Generator: Sketch 46.2 (44496) - http://www.bohemiancoding.com/sketch -->
    <title>Shape</title>
    <desc>Created with Sketch.</desc>
    <defs></defs>
    <g id="Page-1" stroke="none" stroke-width="1" fill="none" fill-rule="evenodd">
        <path d="M17.2645495,44.0787984 C17.9749534,44.0787984 18.6458904,44.2084753 19.2829986,44.4734672 C19.9201069,44.732821 20.4670051,45.0992992 20.9349696,45.5672637 C21.4029341,46.0352282 21.7750504,46.5821264 22.0569567,47.2192347 C22.338863,47.8563429 22.474178,48.52728 22.474178,49.2376838 C22.474178,49.9480877 22.3332249,50.6190248 22.0569567,51.256133 C21.7806885,51.8932413 21.4029341,52.4401395 20.9349696,52.908104 C20.4670051,53.3760684 19.9144688,53.7481848 19.2829986,54.0300911 C18.6458904,54.3119974 17.9749534,54.4529505 17.2645495,54.4473124 C16.5203168,54.4473124 15.8268273,54.3063593 15.1953572,54.0300911 C14.5582489,53.7481848 14.0113507,53.3760684 13.5433862,52.908104 C13.0754217,52.4401395 12.7033054,51.8876031 12.4213991,51.256133 C12.1394928,50.6190248 12.0041778,49.9480877 12.0041778,49.2376838 C12.0041778,48.52728 12.1451309,47.8563429 12.4213991,47.2192347 C12.7033054,46.5821264 13.0754217,46.0352282 13.5433862,45.5672637 C14.0113507,45.0992992 14.563887,44.7384592 15.1953572,44.4734672 C15.8268273,44.2084753 16.5203168,44.0787984 17.2645495,44.0787984 Z M38.3189855,44.1807447 C39.0290071,44.1807447 39.7108532,44.3103518 40.3645238,44.5752011 C41.0181944,44.8344154 41.5760685,45.2006963 42.0437811,45.6684089 C42.5114937,46.1361215 42.8834098,46.6827254 43.1651643,47.3194908 C43.4469189,47.9562561 43.5821611,48.626832 43.5821611,49.3368536 C43.5821611,50.0468751 43.4412838,50.717451 43.1651643,51.3542164 C42.8834098,51.9909817 42.5114937,52.5375856 42.0437811,53.0052982 C41.5760685,53.4730108 41.0181944,53.8449269 40.3645238,54.1266815 C39.7108532,54.4084361 39.0290071,54.5493133 38.3189855,54.5436783 C37.608964,54.5436783 36.9383881,54.402801 36.3016227,54.1266815 C35.6648574,53.850562 35.1182535,53.4730108 34.6505409,53.0052982 C34.1828283,52.5375856 33.8109122,51.9853466 33.5291576,51.3542164 C33.2474031,50.7230861 33.1121609,50.0468751 33.1121609,49.3368536 C33.1121609,48.626832 33.2530381,47.9562561 33.5291576,47.3194908 C33.8052771,46.6827254 34.1828283,46.1361215 34.6505409,45.6684089 C35.1182535,45.2006963 35.6704925,44.8344154 36.3016227,44.5752011 C36.9383881,44.3103518 37.6145991,44.1807447 38.3189855,44.1807447 Z M50.5315399,11.7988926 C51.0565634,12.0537583 51.4235701,12.3646946 51.647852,12.7367986 C51.8721339,13.1089026 51.9689829,13.5064932 51.9536909,13.9244731 C51.938399,14.3475503 48.3075604,35.0773189 48,36 C47.8717069,36.3848792 47.5383736,37.0515459 47,38 L46,39 L44.5686071,39.4759226 C43.4882695,39.849095 42.6320671,40.0237875 42,40 L15,40 L13,40 C12.781372,40.1036651 12.4480386,40.1036651 12,40 C11.5519614,39.8963349 10.8852947,39.5630016 10,39 L9,38 C8.47945637,36.7747919 8.14612304,35.7747919 8,35 C7.78081544,33.8327148 8,27.0051106 8,26.0051106 C8,25.0051106 8,22.7506847 8,21 C8,18.8933044 8,13.8933044 8,6 L2.6811879,5.8568154 C2.17655368,5.8568154 1.7534765,5.72938251 1.41705368,5.47961406 C1.08063087,5.22474829 0.800278518,4.92400668 0.581093956,4.5671946 C0.361909394,4.21038252 0.208989931,3.83318118 0.127432885,3.43049327 C0.0458758386,3.02780535 0,2.65570132 0,2.31418119 C0,1.64133556 0.229379193,1.08063087 0.683040264,0.642261741 C1.13670133,0.203892616 1.7534765,1.04203888e-14 2.53336575,0.0356812078 L7.6459731,0.0356812078 C8.09453686,0.0356812078 8.54587916,0.0356812078 9,0.0356812078 L10,0 L11,0.0356812078 C12.2857584,0.52224273 12.9524251,0.843682328 13,1 C13.081501,1.26778901 13.9337349,2.51065772 14,3 C14.0441767,3.32622819 14.0441767,3.84862639 14,4.5671946 C13.9320358,8.40376957 13.9320358,10.548038 14,11 L46,11 C47,11 50.0065165,11.5491241 50.5315399,11.7988926 Z M46,17 L14,17 L14,34 L42.5714286,34 L46,17 Z" id="Shape" fill="#000000" fill-rule="nonzero"></path>
    </g>
</svg>