<?xml version="1.0" encoding="UTF-8"?>
<svg width="48px" height="38px" viewBox="0 0 48 38" version="1.1" xmlns="http://www.w3.org/2000/svg" xmlns:xlink="http://www.w3.org/1999/xlink">
    <!-- Generator: Sketch 52.3 (67297) - http://www.bohemiancoding.com/sketch -->
    <title>cart</title>
    <desc>Created with Sketch.</desc>
    <g id="Page-1" stroke="none" stroke-width="1" fill="none" fill-rule="evenodd">
        <g id="cart" fill="#000000">
            <g id="Group" transform="translate(14.181818, 29.230769)">
                <path d="M24.1672727,4.00607692 C24.1672727,1.86930769 22.4116364,0.133 20.2545455,0.133 C18.1090909,0.133 16.3636364,1.86930769 16.3636364,4.00607692 C16.3636364,6.13992308 18.1090909,7.87769231 20.2545455,7.87769231 C22.4116364,7.87769231 24.1672727,6.13992308 24.1672727,4.00607692 Z" id="fwt-cart-wheel-1"></path>
                <path d="M8.05381818,4.03969231 C8.05381818,1.90292308 6.29818182,0.168076923 4.14109091,0.168076923 C1.99563636,0.168076923 0.250181818,1.90292308 0.250181818,4.03969231 C0.250181818,6.175 1.99563636,7.91276923 4.14109091,7.91276923 C6.29818182,7.91276923 8.05381818,6.175 8.05381818,4.03969231 Z" id="fwt-cart-wheel-2"></path>
            </g>
            <path d="M15.7672727,24.4866154 L36.1352727,24.4866154 C37.5505455,24.4866154 38.864,23.7222308 39.5621818,22.4901538 L47.3076364,8.57338462 C47.5156364,8.19923077 47.5621818,7.76515385 47.4414545,7.35592308 C47.3207273,6.94669231 47.0458182,6.60469231 46.6690909,6.39861538 L45.2436364,5.62984615 L36.5221818,21.2814615 L16.7301818,21.2814615 L6.93236364,0.856461538 L2.16,0.856461538 C1.26981818,0.856461538 0.545454545,1.57261538 0.545454545,2.45392308 C0.545454545,3.34692308 1.26981818,4.066 2.16,4.066 L4.88290909,4.066 L14.4524205,23.8808968 C14.6313444,24.2513815 15.0051664,24.4866154 15.4149985,24.4866154 L15.7672727,24.4866154 Z" id="Shape"></path>
        </g>
    </g>
</svg>