<?xml version="1.0" encoding="utf-8"?>
<!-- Generator: Adobe Illustrator 16.0.0, SVG Export Plug-In . SVG Version: 6.00 Build 0)  -->
<!DOCTYPE svg PUBLIC "-//W3C//DTD SVG 1.1//EN" "http://www.w3.org/Graphics/SVG/1.1/DTD/svg11.dtd">
<svg version="1.1" id="Layer_1" xmlns="http://www.w3.org/2000/svg" xmlns:xlink="http://www.w3.org/1999/xlink" x="0px" y="0px"
	 width="48px" height="48px" viewBox="0 0 48 48" enable-background="new 0 0 48 48" xml:space="preserve">
<g>
	<path  d="M48,24.002l-5.457-4.971l2.239-7.03l-7.208-1.577L36,3.216l-7.031,2.238L23.997,0l-4.969,5.454L12,3.216
		l-1.577,7.209l-7.208,1.577l2.237,7.03L0,24.002l5.451,4.967L3.214,36l7.208,1.575L12,44.782l7.028-2.236L23.997,48l4.972-5.454
		L36,44.782l1.574-7.207L44.782,36l-2.239-7.031L48,24.002z M32.914,20.258L21.188,31.984l-6.102-6.102
		c-0.781-0.781-0.781-2.047,0-2.828s2.047-0.781,2.828,0l3.273,3.273l8.898-8.898c0.781-0.781,2.047-0.781,2.828,0
		C33.695,18.21,33.695,19.477,32.914,20.258z"/>
</g>
</svg>
