<?xml version="1.0" encoding="utf-8"?>
<!-- Generator: Adobe Illustrator 16.0.0, SVG Export Plug-In . SVG Version: 6.00 Build 0)  -->
<!DOCTYPE svg PUBLIC "-//W3C//DTD SVG 1.1//EN" "http://www.w3.org/Graphics/SVG/1.1/DTD/svg11.dtd">
<svg version="1.1" id="Layer_1" xmlns="http://www.w3.org/2000/svg" xmlns:xlink="http://www.w3.org/1999/xlink" x="0px" y="0px"
	 width="48px" height="48px" viewBox="0 0 48 48" enable-background="new 0 0 48 48" xml:space="preserve">
<g>
	<path  d="M46,8H8c-1.104,0-2,0.896-2,2v8H1c-0.55,0-1,0.45-1,1v10c0,0.55,0.45,1,1,1h5v8c0,1.104,0.896,2,2,2h38
		c1.104,0,2-0.896,2-2V10C48,8.896,47.104,8,46,8z M38.28,23.537l-3.696,3.079c-1.972,1.644-5.13,1.726-7.184,0.185L24.2,24.399
		c-0.583-0.437-1.665-0.409-2.225,0.058l-3.695,3.08C17.906,27.848,17.452,28,17,28c-0.573,0-1.142-0.245-1.537-0.72
		c-0.707-0.849-0.592-2.109,0.256-2.817l3.695-3.079c1.972-1.644,5.128-1.727,7.185-0.185l3.2,2.401
		c0.586,0.437,1.666,0.409,2.225-0.058l3.695-3.08c0.847-0.708,2.108-0.592,2.816,0.256C39.242,21.568,39.129,22.829,38.28,23.537z"
		/>
</g>
</svg>
