<?xml version="1.0" encoding="utf-8"?>
<!-- Generator: Adobe Illustrator 16.0.0, SVG Export Plug-In . SVG Version: 6.00 Build 0)  -->
<!DOCTYPE svg PUBLIC "-//W3C//DTD SVG 1.1//EN" "http://www.w3.org/Graphics/SVG/1.1/DTD/svg11.dtd">
<svg version="1.1" id="Layer_1" xmlns="http://www.w3.org/2000/svg" xmlns:xlink="http://www.w3.org/1999/xlink" x="0px" y="0px"
	 width="48px" height="48px" viewBox="0 0 48 48" enable-background="new 0 0 48 48" xml:space="preserve">
<g>
	<path  d="M33,24c1.105,0,2-0.896,2-2v-1V4c0-1.104-0.895-2-2-2H4C2.896,2,2,2.896,2,4v18c0,1.104,0.896,2,2,2h4v4v4
		l4-4l4-4h2H33z"/>
	<path  d="M44,21h-5v1c0,3.309-2.691,6-6,6H18v10c0,1.104,0.896,2,2,2h16l6,6v-6h2c1.105,0,2-0.896,2-2V23
		C46,21.896,45.105,21,44,21z"/>
</g>
</svg>
