<?xml version="1.0" encoding="UTF-8" standalone="no"?>
<svg width="48px" height="48px" viewBox="0 0 48 48" version="1.1" xmlns="http://www.w3.org/2000/svg" xmlns:xlink="http://www.w3.org/1999/xlink">
    <!-- Generator: Sketch 46.2 (44496) - http://www.bohemiancoding.com/sketch -->
    <title>check-outline</title>
    <desc>Created with Sketch.</desc>
    <defs></defs>
    <g id="Page-1" stroke="none" stroke-width="1" fill="none" fill-rule="evenodd">
        <g id="check-outline" fill-rule="nonzero" fill="#000000">
            <path d="M24,0 C10.746,0 0,10.746 0,24 C0,37.2555 10.746,48 24,48 C37.2555,48 48,37.2555 48,24 C48,10.746 37.2555,0 24,0 Z M24,43.9995 C12.972,43.9995 4.0005,35.031 4.0005,24 C4.0005,12.972 12.9735,4.0005 24,4.0005 C35.028,4.0005 43.9995,12.972 43.9995,24 C43.9995,35.031 35.028,43.9995 24,43.9995 Z" id="Shape"></path>
            <path d="M18.8166474,32.3459024 C18.4679182,32.1123749 18.143508,31.8505058 17.8442672,31.5613942 L11.4067765,25.3418103 C10.8644078,24.8178006 10.8644078,23.5394048 11.4067765,23.0153952 C11.9491451,22.4913855 13.2535873,22.4913855 13.7959559,23.0153952 L19.2964524,28.3146347 L33.5070083,15.1024816 C34.0493769,14.578472 35.0508549,14.7116292 35.5932235,15.2356388 C36.1355922,15.7596485 36.1355922,16.7664359 35.5932235,17.2904455 L20.8111124,31.5640297 C20.5134891,31.8514143 20.191421,32.1123535 19.848553,32.3438942 C19.5369834,32.5542989 19.1290337,32.5550929 18.8166474,32.3459024 Z" id="Shape"></path>
        </g>
    </g>
</svg>