<?xml version="1.0" encoding="utf-8"?>
<!-- Generator: Adobe Illustrator 18.1.1, SVG Export Plug-In . SVG Version: 6.00 Build 0)  -->
<svg version="1.1" id="Layer_1" xmlns="http://www.w3.org/2000/svg" xmlns:xlink="http://www.w3.org/1999/xlink" x="0px" y="0px"
	 viewBox="0 0 64 64" enable-background="new 0 0 64 64" xml:space="preserve">
<g>
	<path d="M60.2,3.8C57.6,1.3,54.5,0,50.9,0H13.1C9.5,0,6.4,1.3,3.8,3.8S0,9.5,0,13.1v37.8c0,3.6,1.3,6.7,3.8,9.2S9.5,64,13.1,64
		h37.8c3.6,0,6.7-1.3,9.2-3.8s3.8-5.6,3.8-9.2V13.1C64,9.5,62.7,6.4,60.2,3.8z M58,50.9c0,2-0.6,3.6-2,5c-1.4,1.4-3,2-5,2H13.1
		c-2,0-3.6-0.6-5-2c-1.4-1.4-2-3-2-5V13.1c0-2,0.6-3.6,2-5s3-2,5-2h37.8c2,0,3.6,0.6,5,2s2,3,2,5V50.9z"/>
	<path d="M49.6,19.6c-0.5-0.5-1.2-0.8-1.9-0.8s-1.3,0.3-1.9,0.8l-17,17l-9.4-9.4c-0.5-0.5-1.2-0.8-1.9-0.8s-1.3,0.3-1.9,0.8
		l-3.8,3.8c-0.5,0.5-0.8,1.1-0.8,1.9c0,0.8,0.2,1.4,0.8,1.9L27,49.7c0.5,0.5,1.2,0.8,1.9,0.8c0.8,0,1.4-0.3,1.9-0.8l22.6-22.6
		c0.5-0.5,0.8-1.1,0.8-1.9c0-0.8-0.2-1.4-0.8-1.9L49.6,19.6z"/>
</g>
</svg>
