<?xml version="1.0" encoding="utf-8"?>
<!-- Generator: Adobe Illustrator 18.1.1, SVG Export Plug-In . SVG Version: 6.00 Build 0)  -->
<svg version="1.1" id="Layer_1" xmlns="http://www.w3.org/2000/svg" xmlns:xlink="http://www.w3.org/1999/xlink" x="0px" y="0px"
	 viewBox="0 0 64 64" enable-background="new 0 0 64 64" xml:space="preserve">
<path d="M28.5,48.8l25.6-25.6c0.5-0.5,0.8-1.2,0.8-1.9c0-0.7-0.3-1.3-0.8-1.9l-4.2-4.3c-0.5-0.5-1.2-0.8-1.9-0.8s-1.3,0.3-1.9,0.8
	L26.7,34.7l-8.8-8.8c-0.5-0.5-1.2-0.8-1.9-0.8c-0.7,0-1.3,0.3-1.9,0.8l-4.2,4.2c-0.5,0.5-0.8,1.2-0.8,1.9s0.3,1.3,0.8,1.9l14.9,14.9
	c0.5,0.5,1.2,0.8,1.9,0.8C27.4,49.6,28,49.3,28.5,48.8z M64,12v40c0,3.3-1.2,6.1-3.5,8.5C58.1,62.8,55.3,64,52,64H12
	c-3.3,0-6.1-1.2-8.5-3.5S0,55.3,0,52V12c0-3.3,1.2-6.1,3.5-8.5S8.7,0,12,0h40c3.3,0,6.1,1.2,8.5,3.5C62.8,5.9,64,8.7,64,12z"/>
</svg>
