<?xml version="1.0" encoding="utf-8"?>
<!-- Generator: Adobe Illustrator 19.1.0, SVG Export Plug-In . SVG Version: 6.00 Build 0)  -->
<!DOCTYPE svg PUBLIC "-//W3C//DTD SVG 1.1//EN" "http://www.w3.org/Graphics/SVG/1.1/DTD/svg11.dtd">
<svg version="1.1" id="Layer_1" xmlns="http://www.w3.org/2000/svg" xmlns:xlink="http://www.w3.org/1999/xlink" x="0px" y="0px"
	 viewBox="-281 373 48 48" style="enable-background:new -281 373 48 48;" xml:space="preserve">

<g>
	<path d="M-257,373c-13.3,0-24,10.7-24,24s10.7,24,24,24c13.3,0,24-10.7,24-24S-243.7,373-257,373z M-259.6,408.4
		c-0.4,0.4-0.9,0.6-1.4,0.6s-1-0.2-1.4-0.6c-0.8-0.8-0.8-2,0-2.8l8.6-8.6l-8.6-8.6c-0.8-0.8-0.8-2,0-2.8s2-0.8,2.8,0l11.4,11.4
		L-259.6,408.4z"/>
</g>
</svg>
