<?xml version="1.0" encoding="UTF-8" standalone="no"?>
<svg width="15px" height="20px" viewBox="0 0 15 20" version="1.1" xmlns="http://www.w3.org/2000/svg" xmlns:xlink="http://www.w3.org/1999/xlink">
    <!-- Generator: Sketch 46.2 (44496) - http://www.bohemiancoding.com/sketch -->
    <title>clipboard-sm</title>
    <desc>Created with Sketch.</desc>
    <defs></defs>
    <g id="Page-1" stroke="none" stroke-width="1" fill="none" fill-rule="evenodd">
        <g id="clipboard-sm" fill-rule="nonzero" fill="#000000">
            <path d="M13.6377397,19.0379747 L1.36442266,19.0379747 C0.611935996,19.0379747 -9.76996262e-15,18.5059175 -9.76996262e-15,17.8512229 C-9.76996262e-15,7.6170743 -9.76996262e-15,2.66666667 -9.76996262e-15,3 C-9.76996262e-15,2.5 0.5,2 1,2 C2.10469013,2 4.11119413,2 4.5,2 C4.50045766,2.17627097 4.50045766,2.59595847 4.5,3.2590625 C3.49492188,3.2590625 2.65904948,3.2590625 1.99238281,3.2590625 C1.61732422,3.2590625 1.36442266,3.59511719 1.36658498,4 C1.36802653,8 1.36802653,12.0862635 1.36658498,16.2587904 C1.36658498,16.5870811 1.67147182,16.8531097 2.04771515,16.8531097 L12.9566095,16.8531097 C13.3328528,16.8531097 13.6377397,16.5889678 13.6377397,16.2587904 C13.6377397,12.1079822 13.6377397,8.02171875 13.6377397,4 C13.6377397,3.59210938 13.5207813,3.2590625 13.0089844,3.2590625 C12.2454167,3.2590625 11.4090885,3.2590625 10.5,3.2590625 C10.5,2.60041474 10.5,2.18072724 10.5,2 C11.0016577,2 12.3822656,2 14.016875,2 C14.5384375,2 15,2.41734375 15,3.01242188 C15,6.30951395 15,11.2551521 15,17.8493362 C15,18.5059175 14.3902263,19.0379747 13.6377397,19.0379747 Z M2.72884532,8.31181306 L12.273317,8.31181306 L12.273317,10.6881869 L2.72884532,10.6881869 L2.72884532,8.31181306 Z M2.72884532,12.5 L12.2688453,12.5 L12.2688453,14.8763739 L2.72884532,14.8763739 L2.72884532,12.5 Z M11.5880342,3.88348495 C11.9641013,3.88348495 12.2688453,4.13016095 12.2688453,4.43456963 C12.2688453,4.7389783 12.2688453,6.5 12.2688453,6.5 L2.72884532,6.5 C2.72884532,6.5 2.72884532,4.73722883 2.72884532,4.43456963 C2.72884532,4.13016095 3.03358931,3.88348495 3.40965638,3.88348495 L5.45425084,3.88348495 C5.45425084,3.88348495 5.46289606,3.10146957 5.46289606,2.20573828 C5.46289606,1.27676697 6.34903109,0.5 7.4988453,0.5 C8.64865952,0.5 9.56505282,1.3170049 9.56505282,2.2109867 C9.56505282,3.17494752 9.54343976,3.88348495 9.54343976,3.88348495 L11.5880342,3.88348495 Z M7.51999986,1.5 C6.92895221,1.5 6.44999981,1.96178059 6.44999981,2.52836245 C6.44999981,3.09821935 6.92895221,3.55999994 7.51999986,3.55999994 C8.11104749,3.55999994 8.58999991,3.09821935 8.58999991,2.52836245 C8.58999991,1.96178059 8.11104749,1.5 7.51999986,1.5 Z" id="Shape"></path>
        </g>
    </g>
</svg>