<?xml version="1.0" encoding="UTF-8" standalone="no"?>
<svg width="79px" height="95px" viewBox="0 0 79 95" version="1.1" xmlns="http://www.w3.org/2000/svg" xmlns:xlink="http://www.w3.org/1999/xlink">
    <!-- Generator: Sketch 46.2 (44496) - http://www.bohemiancoding.com/sketch -->
    <title>86b122d4358357d834a87ce618a55de0</title>
    <desc>Created with Sketch.</desc>
    <defs></defs>
    <g id="Page-1" stroke="none" stroke-width="1" fill="none" fill-rule="evenodd">
        <g id="86b122d4358357d834a87ce618a55de0" fill-rule="nonzero" fill="#000000">
            <path d="M71.8254289,95 L7.18595935,95 C3.22286291,95 -7.10542736e-15,92.197832 -7.10542736e-15,88.7497742 L-7.10542736e-15,13.2502258 C-7.10542736e-15,9.80216802 3.2114747,7 7.18595935,7 L25.1337754,7 L25.1337754,13.5185185 L10.7846331,13.5185185 C8.80308491,13.5185185 7.19734756,14.9196025 7.19734756,16.6485998 L7.19734756,85.6296296 C7.19734756,87.3586269 8.80308491,88.7597109 10.7846331,88.7597109 L68.2381433,88.7597109 C70.2196915,88.7597109 71.8254289,87.3685637 71.8254289,85.6296296 L71.8254289,16.6386631 C71.8254289,14.9096658 70.2196915,13.5085818 68.2381433,13.5085818 L53.8662246,13.5085818 L53.8662246,7 L71.8140407,7 C75.7771371,7 79,9.80216802 79,13.2502258 L79,88.7398374 C79,92.197832 75.7885253,95 71.8254289,95 Z M14.3719187,36.8188881 L64.6394695,36.8188881 L64.6394695,43 L14.3719187,43 L14.3719187,36.8188881 Z M14.3719187,49.4796333 L64.6394695,49.4796333 L64.6394695,55.6607453 L14.3719187,55.6607453 L14.3719187,49.4796333 Z M14.3719187,62.1403786 L64.6394695,62.1403786 L64.6394695,68.3214905 L14.3719187,68.3214905 L14.3719187,62.1403786 Z M14.3719187,74.8011239 L64.6394695,74.8011239 L64.6394695,80.9822358 L14.3719187,80.9822358 L14.3719187,74.8011239 Z M61.0521839,20.3009097 C63.0337322,20.3009097 64.6394695,21.7809657 64.6394695,23.6074178 C64.6394695,25.4338698 64.6394695,30 64.6394695,30 L14.3719187,30 C14.3719187,30 14.3719187,25.423373 14.3719187,23.6074178 C14.3719187,21.7809657 15.977656,20.3009097 17.9592043,20.3009097 L28.7324492,20.3009097 C28.7324492,20.3009097 28.778002,15.6088174 28.778002,10.2344297 C28.778002,4.66060182 33.4471674,0 39.5056941,0 C45.5642208,0 50.3928211,4.90202939 50.3928211,10.2659202 C50.3928211,16.0496851 50.278939,20.3009097 50.278939,20.3009097 L61.0521839,20.3009097 Z M39.6195762,5.66122449 C37.2346218,5.66122449 35.3019864,7.497436 35.3019864,9.75037637 C35.3019864,12.0163395 37.2346218,13.852551 39.6195762,13.852551 C42.0045305,13.852551 43.937166,12.0163395 43.937166,9.75037637 C43.937166,7.497436 42.0045305,5.66122449 39.6195762,5.66122449 Z" id="Shape"></path>
        </g>
    </g>
</svg>