<?xml version="1.0" encoding="UTF-8" standalone="no"?>
<svg width="24px" height="29px" viewBox="0 0 24 29" version="1.1" xmlns="http://www.w3.org/2000/svg" xmlns:xlink="http://www.w3.org/1999/xlink">
    <!-- Generator: Sketch 46.2 (44496) - http://www.bohemiancoding.com/sketch -->
    <title>clipboard-md</title>
    <desc>Created with Sketch.</desc>
    <defs></defs>
    <g id="Page-1" stroke="none" stroke-width="1" fill="none" fill-rule="evenodd">
        <g id="clipboard-md" fill-rule="nonzero" fill="#000000">
            <path d="M21.8203835,28.8607595 L2.18307626,28.8607595 C0.979097593,28.8607595 -7.10542736e-15,28.0094679 -7.10542736e-15,26.9619567 L-7.10542736e-15,4.02538505 C-7.10542736e-15,2.97787383 0.975637884,2.12658228 2.18307626,2.12658228 L7.63557734,2.12658228 L7.63557734,4.1068917 L3.27634423,4.1068917 C2.67435491,4.1068917 2.18653597,4.53253747 2.18653597,5.05780247 L2.18653597,26.0140647 C2.18653597,26.5393297 2.67435491,26.9649755 3.27634423,26.9649755 L20.7305752,26.9649755 C21.3325645,26.9649755 21.8203835,26.5423485 21.8203835,26.0140647 L21.8203835,5.05478373 C21.8203835,4.52951872 21.3325645,4.10387295 20.7305752,4.10387295 L16.3644227,4.10387295 L16.3644227,2.12658228 L21.8169238,2.12658228 C23.0209024,2.12658228 24,2.97787383 24,4.02538505 L24,26.9589379 C24,28.0094679 23.0243621,28.8607595 21.8203835,28.8607595 Z M4.36615252,12.185485 L19.6373072,12.185485 L19.6373072,15.0654851 L4.36615252,15.0654851 L4.36615252,12.185485 Z M4.36615252,17.0317873 L19.6373072,17.0317873 L19.6373072,19.9117874 L4.36615252,19.9117874 L4.36615252,17.0317873 Z M4.36615252,21.7243921 L19.6373072,21.7243921 L19.6373072,24.6043922 L4.36615252,24.6043922 L4.36615252,21.7243921 Z M18.5474989,6.16736497 C19.1494883,6.16736497 19.6373072,6.61700224 19.6373072,7.17187376 C19.6373072,7.72674526 19.6373072,10.1139241 19.6373072,10.1139241 L4.36615252,10.1139241 C4.36615252,10.1139241 4.36615252,7.72355635 4.36615252,7.17187376 C4.36615252,6.61700224 4.85397144,6.16736497 5.4559608,6.16736497 L8.72884533,6.16736497 C8.72884533,6.16736497 8.74268415,4.74191921 8.74268415,3.10919383 C8.74268415,1.41587903 10.1611648,0 12.0017299,0 C13.8422949,0 15.3092115,1.48922412 15.3092115,3.11876057 C15.3092115,4.8758537 15.2746144,6.16736497 15.2746144,6.16736497 L18.5474989,6.16736497 Z M12.0349998,1.72000003 C11.275476,1.72000003 10.6599998,2.3073132 10.6599998,3.0279173 C10.6599998,3.75268675 11.275476,4.33999991 12.0349998,4.33999991 C12.7945236,4.33999991 13.4099998,3.75268675 13.4099998,3.0279173 C13.4099998,2.3073132 12.7945236,1.72000003 12.0349998,1.72000003 Z" id="Shape"></path>
        </g>
    </g>
</svg>