<?xml version="1.0" encoding="utf-8"?>
<!-- Generator: Adobe Illustrator 16.0.0, SVG Export Plug-In . SVG Version: 6.00 Build 0)  -->
<!DOCTYPE svg PUBLIC "-//W3C//DTD SVG 1.1//EN" "http://www.w3.org/Graphics/SVG/1.1/DTD/svg11.dtd">
<svg version="1.1" id="Layer_1" xmlns="http://www.w3.org/2000/svg" xmlns:xlink="http://www.w3.org/1999/xlink" x="0px" y="0px"
	 width="48px" height="48px" viewBox="0 0 48 48" enable-background="new 0 0 48 48" xml:space="preserve">
<g>
	<g>
		<path  d="M24,0C10.745,0,0,10.745,0,24s10.745,24,24,24s24-10.745,24-24S37.255,0,24,0z M24,44
			C12.972,44,4,35.027,4,24C4,12.972,12.972,4,24,4c11.027,0,20,8.972,20,20C44,35.027,35.027,44,24,44z"/>
	</g>
	<g>
		<path  d="M26,25.172V14c0-1.104-0.896-2-2-2s-2,0.896-2,2v12.828l5.586,5.586C27.977,32.805,28.488,33,29,33
			s1.023-0.195,1.414-0.586c0.781-0.781,0.781-2.047,0-2.828L26,25.172z"/>
	</g>
</g>
</svg>
