<?xml version="1.0" encoding="utf-8"?>
<!-- Generator: Adobe Illustrator 16.0.0, SVG Export Plug-In . SVG Version: 6.00 Build 0)  -->
<!DOCTYPE svg PUBLIC "-//W3C//DTD SVG 1.1//EN" "http://www.w3.org/Graphics/SVG/1.1/DTD/svg11.dtd">
<svg version="1.1" id="Layer_1" xmlns="http://www.w3.org/2000/svg" xmlns:xlink="http://www.w3.org/1999/xlink" x="0px" y="0px"
	 width="48px" height="48px" viewBox="0 0 48 48" enable-background="new 0 0 48 48" xml:space="preserve">
<g>
	<path  d="M30.289,34H17.758c-0.677,0-0.913,0.453-0.522,1.008L24.006,45l6.804-9.992
		C31.201,34.453,30.967,34,30.289,34z"/>
	<circle  cx="24" cy="6" r="3"/>
	<circle  cx="4" cy="6" r="3"/>
	<circle  cx="14" cy="6" r="3"/>
	<circle  cx="34" cy="6" r="3"/>
	<circle  cx="44" cy="6" r="3"/>
	<circle  cx="4" cy="26" r="3"/>
	<path  d="M34,23H14c-1.657,0-3,1.344-3,3s1.343,3,3,3h20c1.656,0,3-1.344,3-3S35.656,23,34,23z"/>
	<circle  cx="44" cy="26" r="3"/>
	<circle  cx="24" cy="16" r="3"/>
	<circle  cx="4" cy="16" r="3"/>
	<circle  cx="14" cy="16" r="3"/>
	<circle  cx="34" cy="16" r="3"/>
	<circle  cx="44" cy="16" r="3"/>
</g>
</svg>
