<?xml version="1.0" encoding="utf-8"?>
<!-- Generator: Adobe Illustrator 18.1.1, SVG Export Plug-In . SVG Version: 6.00 Build 0)  -->
<svg version="1.1" id="Layer_1" xmlns="http://www.w3.org/2000/svg" xmlns:xlink="http://www.w3.org/1999/xlink" x="0px" y="0px"
	 viewBox="0 0 48 48" enable-background="new 0 0 48 48" xml:space="preserve">
<path  d="M26.8,24L41.4,9.4c0.8-0.8,0.8-2,0-2.8c-0.8-0.8-2-0.8-2.8,0L24,21.2L9.4,6.6c-0.8-0.8-2-0.8-2.8,0
	c-0.8,0.8-0.8,2,0,2.8L21.2,24L6.6,38.6c-0.8,0.8-0.8,2,0,2.8C7,41.8,7.5,42,8,42s1-0.2,1.4-0.6L24,26.8l14.6,14.6
	C39,41.8,39.5,42,40,42s1-0.2,1.4-0.6c0.8-0.8,0.8-2,0-2.8L26.8,24z"/>
</svg>
