<?xml version="1.0" encoding="utf-8"?>
<!-- Generator: Adobe Illustrator 16.0.0, SVG Export Plug-In . SVG Version: 6.00 Build 0)  -->
<!DOCTYPE svg PUBLIC "-//W3C//DTD SVG 1.1//EN" "http://www.w3.org/Graphics/SVG/1.1/DTD/svg11.dtd">
<svg version="1.1" id="Layer_1" xmlns="http://www.w3.org/2000/svg" xmlns:xlink="http://www.w3.org/1999/xlink" x="0px" y="0px"
	 width="48px" height="48px" viewBox="0 0 48 48" enable-background="new 0 0 48 48" xml:space="preserve">
<path  d="M48,29.5c0-4.95-3.43-9.09-8.041-10.198C39.979,19.036,40,18.771,40,18.5C40,12.701,35.299,8,29.5,8
	c-4.527,0-8.375,2.871-9.849,6.888C18.556,14.324,17.317,14,16,14c-4.418,0-8,3.582-8,8c0,0.34,0.028,0.672,0.069,1H8v0.025
	c-4.46,0.26-8,3.949-8,8.475s3.54,8.215,8,8.475V40h30v-0.025C43.565,39.712,48,35.13,48,29.5z"/>
</svg>
