<?xml version="1.0" encoding="UTF-8" standalone="no"?>
<svg width="48px" height="32px" viewBox="0 0 48 32" version="1.1" xmlns="http://www.w3.org/2000/svg" xmlns:xlink="http://www.w3.org/1999/xlink">
    <!-- Generator: Sketch 46.2 (44496) - http://www.bohemiancoding.com/sketch -->
    <title>cloud</title>
    <desc>Created with Sketch.</desc>
    <defs>
        <path d="M48,21.5 C48,27.13 43.565,31.712 38,31.975 L38,32 L8,32 L8,31.975 C3.54,31.715 0,28.026 0,23.5 C0,18.974 3.54,15.285 8,15.025 L8,15 L8.069,15 C8.028,14.672 8,14.34 8,14 C8,9.582 11.582,6 16,6 C17.317,6 18.556,6.324 19.651,6.888 C21.125,2.871 24.973,0 29.5,0 C35.299,0 40,4.701 40,10.5 C40,10.771 39.979,11.036 39.959,11.302 C44.57,12.41 48,16.55 48,21.5 Z M24.0003333,12 L18.1600787,20.2702962 C17.8287309,20.7287455 18.0287396,21.1039587 18.6034314,21.1039587 L22.6669419,21.1039587 L22.6669419,28.7004437 L25.3337248,28.7004437 L25.3337248,21.1039587 L29.3965687,21.1039587 C29.9712604,21.1039587 30.1712691,20.7287455 29.8399213,20.2702962 L24.0003333,12 Z" id="path-1"></path>
    </defs>
    <g id="Page-1" stroke="none" stroke-width="1" fill="none" fill-rule="evenodd">
        <g id="cloud">
            <g id="Combined-Shape-path">
                <mask id="mask-2" fill="white">
                    <use xlink:href="#path-1"></use>
                </mask>
                <use id="Combined-Shape" fill="#000000" fill-rule="nonzero" xlink:href="#path-1"></use>
            </g>
        </g>
    </g>
</svg>