<?xml version="1.0" encoding="utf-8"?>
<!-- Generator: Adobe Illustrator 16.0.0, SVG Export Plug-In . SVG Version: 6.00 Build 0)  -->
<!DOCTYPE svg PUBLIC "-//W3C//DTD SVG 1.1//EN" "http://www.w3.org/Graphics/SVG/1.1/DTD/svg11.dtd">
<svg version="1.1" id="Layer_1" xmlns="http://www.w3.org/2000/svg" xmlns:xlink="http://www.w3.org/1999/xlink" x="0px" y="0px"
	 width="48px" height="48px" viewBox="0 0 48 48" enable-background="new 0 0 48 48" xml:space="preserve">
<g>
	<path  d="M48.001,26.018v-4L38,18.675c-0.105-0.273-0.214-0.544-0.334-0.809l4.732-9.411l-2.829-2.828l-9.443,4.712
		c-0.261-0.117-0.525-0.223-0.794-0.324L26,0.017h-4l-3.332,9.998c-0.268,0.102-0.531,0.206-0.791,0.322l-9.422-4.71L5.627,8.455
		l4.706,9.413c-0.118,0.261-0.226,0.527-0.329,0.797l-10.005,3.353v4l9.99,3.313c0.105,0.273,0.213,0.546,0.332,0.812l-4.694,9.426
		l2.829,2.828l9.393-4.714c0.268,0.121,0.542,0.231,0.819,0.337L22,47.983h4l3.306-9.952c0.284-0.108,0.565-0.221,0.841-0.345
		l9.398,4.687l2.828-2.829l-4.703-9.381c0.124-0.276,0.236-0.558,0.344-0.842L48.001,26.018z M23.999,35.017
		c-6.075,0-11-4.925-11-11s4.925-11,11-11s11,4.925,11,11S30.074,35.017,23.999,35.017z"/>
</g>
</svg>
