<?xml version="1.0" encoding="utf-8"?>
<!-- Generator: Adobe Illustrator 19.1.0, SVG Export Plug-In . SVG Version: 6.00 Build 0)  -->
<svg version="1.1" id="Layer_1" xmlns="http://www.w3.org/2000/svg" xmlns:xlink="http://www.w3.org/1999/xlink" x="0px" y="0px"
	 width="48px" height="48px" viewBox="-281 373 48 48" style="enable-background:new -281 373 48 48;" xml:space="preserve">

<g>
	<path d="M-235,375h-44c-1.1,0-2,0.9-2,2v28c0,1.1,0.9,2,2,2h7v12l12-12h25c1.1,0,2-0.9,2-2v-28
		C-233,375.9-233.9,375-235,375z M-259,398h-14c-1.1,0-2-0.9-2-2s0.9-2,2-2h14c1.1,0,2,0.9,2,2S-257.9,398-259,398z M-241,388h-32
		c-1.1,0-2-0.9-2-2s0.9-2,2-2h32c1.1,0,2,0.9,2,2S-239.9,388-241,388z"/>
</g>
</svg>
