<?xml version="1.0" encoding="utf-8"?>
<!-- Generator: Adobe Illustrator 19.1.0, SVG Export Plug-In . SVG Version: 6.00 Build 0)  -->
<svg version="1.1" id="Layer_1" xmlns="http://www.w3.org/2000/svg" xmlns:xlink="http://www.w3.org/1999/xlink" x="0px" y="0px"
	 width="48px" height="48px" viewBox="-281 373 48 48" style="enable-background:new -281 373 48 48;" xml:space="preserve">

<g>
	<path d="M-263.2,420.2c8,2.1,16.9,0.1,23.2-6.2c2-2,3.5-4.2,4.7-6.6l-7.5-7.5L-263.2,420.2z"/>
	<path d="M-240,380c-2-2-4.2-3.5-6.6-4.7l-7.5,7.5l20.4,20.4C-231.7,395.2-233.7,386.3-240,380z"/>
	<path d="M-250.8,373.8c-8-2.1-16.9-0.1-23.2,6.2c-2,2-3.5,4.2-4.7,6.6l7.5,7.5L-250.8,373.8z"/>
	<path d="M-280.2,390.8c-2.1,8-0.1,16.9,6.2,23.2c2,2,4.2,3.5,6.6,4.7l7.5-7.5L-280.2,390.8z"/>
</g>
</svg>
