<?xml version="1.0" encoding="UTF-8" standalone="no"?>
<svg width="77px" height="48px" viewBox="0 0 77 48" version="1.1" xmlns="http://www.w3.org/2000/svg" xmlns:xlink="http://www.w3.org/1999/xlink">
    <!-- Generator: Sketch 3.8.3 (29802) - http://www.bohemiancoding.com/sketch -->
    <title>ic_home_communities_2</title>
    <desc>Created with Sketch.</desc>
    <defs></defs>
    <g id="icons" stroke="none" stroke-width="1" fill="none" fill-rule="evenodd">
        <g id="ic_home_communities_2" fill="#333439">
            <g id="Group">
                <path d="M29.13625,7.99135135 C29.49375,3.59351351 33.831875,-0.0713513514 38.5,0.0324324324 C43.10625,-0.0518918919 47.41,3.51567568 47.843125,7.85513514 C48.235,13.6151351 48.4,20.172973 44.04125,24.7718919 C44.9625,26.5621622 45.4025,28.8518919 47.39625,29.8897297 C51.734375,32.3027027 56.1275,34.6378378 60.479375,37.0443243 C61.084375,37.452973 61.91625,37.7967568 62.088125,38.5686486 C62.830625,41.5524324 63.12625,44.6205405 63.724375,47.6367568 L13.255,47.6367568 C14.073125,44.4259459 13.880625,40.8713514 15.310625,37.8681081 C19.89625,34.9427027 24.8875,32.6075676 29.60375,29.8767568 C31.549375,28.8713514 31.99625,26.64 32.896875,24.8951351 C28.524375,20.3221622 28.82,13.7383784 29.13625,7.99135135 L29.13625,7.99135135 Z" id="Shape"></path>
                <path d="M10.814375,12.7654054 C12.155,8.15351351 19.683125,7.66702703 21.6975,12.0518919 C22.983125,16.1254054 22.666875,21.0097297 19.903125,24.5254054 C20.494375,26.1016216 21.4225,27.5351351 23.038125,28.3459459 C19.696875,30.1491892 16.3075,31.8940541 13.04875,33.8335135 C11.165,34.8583784 10.429375,36.8497297 9.851875,38.7048649 C6.785625,38.7113514 3.7125,38.7048649 0.64625,38.7048649 C0.97625,36.7005405 1.32,34.6962162 1.684375,32.6983784 C4.640625,30.9081081 7.761875,29.3902703 10.7525,27.6518919 C11.969375,27.0227027 12.313125,25.667027 12.91125,24.5902703 C10.154375,21.2691892 10.0925,16.7351351 10.814375,12.7654054 L10.814375,12.7654054 Z" id="Shape"></path>
                <path d="M55.09625,12.4994595 C56.684375,7.95243243 64.219375,7.82918919 66.006875,12.2983784 C67.08625,16.332973 66.845625,21.0745946 64.075,24.5059459 C64.590625,25.4724324 64.8725,26.6335135 65.786875,27.3405405 C68.79125,29.3383784 72.290625,30.6227027 75.19875,32.7502703 C75.851875,34.6767568 75.975625,36.72 76.346875,38.7048649 C73.27375,38.6983784 70.200625,38.7113514 67.134375,38.7048649 C66.556875,36.9924324 65.9725,35.1113514 64.28125,34.0735135 C60.95375,31.9848649 57.3925,30.2335135 53.94125,28.3394595 C55.529375,27.5545946 56.491875,26.1535135 57.07625,24.5967568 C54.3125,21.1913514 54.209375,16.5275676 55.09625,12.4994595 L55.09625,12.4994595 Z" id="Shape"></path>
            </g>
        </g>
    </g>
</svg>