<?xml version="1.0" encoding="utf-8"?>
<!-- Generator: Adobe Illustrator 19.1.0, SVG Export Plug-In . SVG Version: 6.00 Build 0)  -->
<svg version="1.1" id="Layer_1" xmlns="http://www.w3.org/2000/svg" xmlns:xlink="http://www.w3.org/1999/xlink" x="0px" y="0px"
	 width="48px" height="48px" viewBox="-281 373 48 48" style="enable-background:new -281 373 48 48;" xml:space="preserve">

<g>
	<path d="M-233.6,403.2c0-0.2-0.2-0.4-0.3-0.5l-5.8-3.3c-0.2-0.1-0.3-0.3-0.4-0.5l-0.7-1.6c0.9-0.7,1.6-2.9,1.6-4.1
		v-2.5c0-2.1-1.7-3.8-3.8-3.8s-3.7,1.7-3.7,3.8v2.5c0,1.3,0.6,3.5,1.6,4.2l-0.7,1.5c-0.1,0.2-0.2,0.4-0.4,0.5l-1,0.6l6.2,3.6
		c1,0.6,1.8,1.7,2,2.9l0.1,0.5h5.9L-233.6,403.2z"/>
	<path d="M-266.7,400l-1-0.6c-0.2-0.1-0.3-0.3-0.4-0.5l-0.7-1.6c0.9-0.7,1.6-2.9,1.6-4.1v-2.5c0-2.1-1.7-3.8-3.8-3.8
		s-3.7,1.7-3.7,3.8v2.5c0,1.3,0.6,3.5,1.6,4.2l-0.7,1.5c-0.1,0.2-0.2,0.4-0.4,0.5l-5.8,3.3c-0.2,0.1-0.3,0.3-0.3,0.5l-0.6,3.8h5.9
		l0.1-0.5c0.2-1.2,1-2.3,2-2.9L-266.7,400z"/>
	<path d="M-242,407c0-0.3-0.3-0.6-0.5-0.8l-9.2-5.4c-0.3-0.1-0.5-0.5-0.7-0.8l-1.1-2.5c0.7-0.5,1.4-1.7,1.8-3
		c0.4-1.3,0.7-2.6,0.7-3.6v-4c0-3.3-2.7-6-6-6c-3.3,0-6,2.7-6,6v4c0,2,1,5.6,2.5,6.6l-1.1,2.4c-0.1,0.3-0.4,0.6-0.7,0.8l-9.2,5.4
		c-0.3,0.1-0.5,0.5-0.5,0.8l0,0l-1,6h32L-242,407L-242,407z"/>
</g>
</svg>
