<?xml version="1.0" encoding="UTF-8"?>
<svg width="48px" height="48px" viewBox="0 0 48 48" version="1.1" xmlns="http://www.w3.org/2000/svg" xmlns:xlink="http://www.w3.org/1999/xlink">
    <!-- Generator: Sketch 52.3 (67297) - http://www.bohemiancoding.com/sketch -->
    <title>clipboard</title>
    <desc>Created with Sketch.</desc>
    <g id="Page-1" stroke="none" stroke-width="1" fill="none" fill-rule="evenodd">
        <g id="clipboard" fill="#000000" fill-rule="nonzero">
            <path d="M25.1428954,48 L3.6133676,48 C1.62057533,48 -7.10542736e-15,46.5841677 -7.10542736e-15,44.8419912 L-7.10542736e-15,6.69485093 C-7.10542736e-15,4.95267437 1.61484891,3.53684211 3.6133676,3.53684211 L12.638197,3.53684211 L12.638197,6.83040935 L5.42291459,6.83040935 C4.42651847,6.83040935 3.61909402,7.53832547 3.61909402,8.41192411 L3.61909402,43.2654971 C3.61909402,44.1390957 4.42651847,44.8470118 5.42291459,44.8470118 L22.9263668,44.8470118 C23.5102922,46.0058471 24.2594502,47.0671583 25.1428954,48 Z M36.1164968,25.7239452 L36.1164968,8.40690346 C36.1164968,7.53330483 35.3090723,6.8253887 34.3126762,6.8253887 L27.085941,6.8253887 L27.085941,3.53684211 L36.1107704,3.53684211 C38.1035626,3.53684211 39.7241379,4.95267437 39.7241379,6.69485093 L39.7241379,26.6176834 C38.5910669,26.1590279 37.3800601,25.8526554 36.1164968,25.7239452 Z M30.6993085,10.2573017 C31.6957047,10.2573017 32.5031291,11.0051195 32.5031291,11.9279585 C32.5031291,12.8507974 32.5031291,15.1578947 32.5031291,15.1578947 L7.2267352,15.1578947 C7.2267352,15.1578947 7.2267352,12.8454937 7.2267352,11.9279585 C7.2267352,11.0051195 8.03415963,10.2573017 9.03055581,10.2573017 L14.447744,10.2573017 C14.447744,10.2573017 14.4706496,7.88656037 14.4706496,5.17108027 C14.4706496,2.35483039 16.8184796,0 19.8649322,0 C22.9113847,0 25.3393845,2.47681485 25.3393845,5.18699126 C25.3393845,8.10931458 25.2821204,10.2573017 25.2821204,10.2573017 L30.6993085,10.2573017 Z M19.9221963,2.86040816 C18.7229526,2.86040816 17.7511516,3.78817819 17.7511516,4.92650596 C17.7511516,6.07141364 18.7229526,6.99918366 19.9221963,6.99918366 C21.12144,6.99918366 22.093241,6.07141364 22.093241,4.92650596 C22.093241,3.78817819 21.12144,2.86040816 19.9221963,2.86040816 Z" id="Combined-Shape"></path>
            <path d="M33.1033966,43.862069 L26.0187464,36.8200554 C25.5339811,36.3382074 25.5339811,35.5571325 26.0187464,35.0752846 C26.5035118,34.5934366 27.2893158,34.5934366 27.7740812,35.0752846 L33.1033966,40.3725273 L45.8810913,27.6717308 C46.3658566,27.1898828 47.1516606,27.1898828 47.636426,27.6717308 C48.1211913,28.1535788 48.1211913,28.9346537 47.636426,29.4165016 L33.1033966,43.862069 Z" id="Path"></path>
        </g>
    </g>
</svg>