<?xml version="1.0" encoding="utf-8"?>
<!-- Generator: Adobe Illustrator 16.0.0, SVG Export Plug-In . SVG Version: 6.00 Build 0)  -->
<!DOCTYPE svg PUBLIC "-//W3C//DTD SVG 1.1//EN" "http://www.w3.org/Graphics/SVG/1.1/DTD/svg11.dtd">
<svg version="1.1" id="Layer_1" xmlns="http://www.w3.org/2000/svg" xmlns:xlink="http://www.w3.org/1999/xlink" x="0px" y="0px"
	 width="48px" height="48px" viewBox="0 0 48 48" enable-background="new 0 0 48 48" xml:space="preserve">
<g>
	<path  d="M32.021,8H2c-1.104,0-2,0.896-2,2v20c0,1.104,0.896,2,2,2h30.021c1.104,0,2-0.896,2-2V10
		C34.021,8.896,33.125,8,32.021,8z M30.021,28H4V12h26.021V28z"/>
	<path  d="M24.521,37l-7.545-1L9.5,37C8.675,37,8,37.675,8,38.5S8.675,40,9.5,40h15.021c0.825,0,1.5-0.675,1.5-1.5
		S25.346,37,24.521,37z"/>
	<path  d="M46,8h-5.979c-1.104,0-2,0.896-2,2v28c0,1.104,0.896,2,2,2H46c1.104,0,2-0.896,2-2V10
		C48,8.896,47.104,8,46,8z"/>
</g>
</svg>
