<?xml version="1.0" encoding="UTF-8" standalone="no"?>
<svg width="48px" height="23px" viewBox="0 0 48 23" version="1.1" xmlns="http://www.w3.org/2000/svg" xmlns:xlink="http://www.w3.org/1999/xlink">
    <!-- Generator: Sketch 50.2 (55047) - http://www.bohemiancoding.com/sketch -->
    <title>Group 3</title>
    <desc>Created with Sketch.</desc>
    <defs></defs>
    <g id="Page-1" stroke="none" stroke-width="1" fill="none" fill-rule="evenodd">
        <g id="Group-3" fill="#000000" fill-rule="nonzero">
            <g id="Group" transform="translate(30.000000, 1.000000)">
                <path d="M0.818181818,4 L17.1818182,4 C17.6334545,4 18,3.104 18,2 C18,0.896 17.6334545,0 17.1818182,0 L0.818181818,0 C0.366545455,0 0,0.896 0,2 C0,3.104 0.366545455,4 0.818181818,4 Z" id="Shape"></path>
                <path d="M17.1818182,18 L0.818181818,18 C0.366545455,18 0,18.896 0,20 C0,21.104 0.366545455,22 0.818181818,22 L17.1818182,22 C17.6334545,22 18,21.104 18,20 C18,18.896 17.6334545,18 17.1818182,18 Z" id="Shape"></path>
                <path d="M17.1818182,9 L0.818181818,9 C0.366545455,9 0,9.896 0,11 C0,12.104 0.366545455,13 0.818181818,13 L17.1818182,13 C17.6334545,13 18,12.104 18,11 C18,9.896 17.6334545,9 17.1818182,9 Z" id="Shape"></path>
            </g>
            <g id="Group-2">
                <g id="cog">
                    <path d="M18.62038,9.75675 L18.62038,8.25675 L14.82,7.003125 C14.7801,6.90075 14.73868,6.799125 14.69308,6.69975 L16.49124,3.170625 L15.41622,2.110125 L11.82788,3.877125 C11.7287,3.83325 11.62838,3.7935 11.52616,3.755625 L10.26,0.006375 L8.74,0.006375 L7.47384,3.755625 C7.372,3.793875 7.27206,3.832875 7.17326,3.876375 L3.5929,2.110125 L2.51826,3.170625 L4.30654,6.7005 C4.2617,6.798375 4.22066,6.898125 4.18152,6.999375 L0.37962,8.25675 L0.37962,9.75675 L4.17582,10.999125 C4.21572,11.1015 4.25676,11.203875 4.30198,11.303625 L2.51826,14.838375 L3.59328,15.898875 L7.16262,14.131125 C7.26446,14.1765 7.36858,14.21775 7.47384,14.2575 L8.74,17.993625 L10.26,17.993625 L11.51628,14.261625 C11.6242,14.221125 11.73098,14.17875 11.83586,14.13225 L15.4071,15.889875 L16.48174,14.829 L14.6946,11.311125 C14.74172,11.207625 14.78428,11.101875 14.82532,10.995375 L18.62038,9.75675 Z M9.49962,13.131375 C7.19112,13.131375 5.31962,11.2845 5.31962,9.006375 C5.31962,6.72825 7.19112,4.881375 9.49962,4.881375 C11.80812,4.881375 13.67962,6.72825 13.67962,9.006375 C13.67962,11.2845 11.80812,13.131375 9.49962,13.131375 Z" id="Shape"></path>
                </g>
                <g id="cog" transform="translate(21.000000, 16.000000) rotate(-8.000000) translate(-21.000000, -16.000000) translate(16.000000, 11.500000)">
                    <path d="M9.8002,4.878375 L9.8002,4.128375 L7.8,3.5015625 C7.779,3.450375 7.7572,3.3995625 7.7332,3.349875 L8.6796,1.5853125 L8.1138,1.0550625 L6.2252,1.9385625 C6.173,1.916625 6.1202,1.89675 6.0664,1.8778125 L5.4,0.0031875 L4.6,0.0031875 L3.9336,1.8778125 C3.88,1.8969375 3.8274,1.9164375 3.7754,1.9381875 L1.891,1.0550625 L1.3254,1.5853125 L2.2666,3.35025 C2.243,3.3991875 2.2214,3.4490625 2.2008,3.4996875 L0.1998,4.128375 L0.1998,4.878375 L2.1978,5.4995625 C2.2188,5.55075 2.2404,5.6019375 2.2642,5.6518125 L1.3254,7.4191875 L1.8912,7.9494375 L3.7698,7.0655625 C3.8234,7.08825 3.8782,7.108875 3.9336,7.12875 L4.6,8.9968125 L5.4,8.9968125 L6.0612,7.1308125 C6.118,7.1105625 6.1742,7.089375 6.2294,7.066125 L8.109,7.9449375 L8.6746,7.4145 L7.734,5.6555625 C7.7588,5.6038125 7.7812,5.5509375 7.8028,5.4976875 L9.8002,4.878375 Z M4.9998,6.5656875 C3.7848,6.5656875 2.7998,5.64225 2.7998,4.5031875 C2.7998,3.364125 3.7848,2.4406875 4.9998,2.4406875 C6.2148,2.4406875 7.1998,3.364125 7.1998,4.5031875 C7.1998,5.64225 6.2148,6.5656875 4.9998,6.5656875 Z" id="Shape"></path>
                </g>
            </g>
        </g>
    </g>
</svg>