<?xml version="1.0" encoding="UTF-8"?>
<svg width="48px" height="47px" viewBox="0 0 48 47" version="1.1" xmlns="http://www.w3.org/2000/svg" xmlns:xlink="http://www.w3.org/1999/xlink">
    <!-- Generator: Sketch 52.3 (67297) - http://www.bohemiancoding.com/sketch -->
    <title>configurations</title>
    <desc>Created with Sketch.</desc>
    <g id="Page-1" stroke="none" stroke-width="1" fill="none" fill-rule="evenodd">
        <g id="configurations" fill="#000000" fill-rule="nonzero">
            <path d="M2.73154442,38.6666667 C1.52252832,38.6666667 0.533333333,37.6916667 0.533333333,36.5 L0.533333333,2.16666667 C0.533333333,0.975 1.52252832,0 2.73154442,0 L45.4053667,0 C46.6143828,0 47.6035778,0.975 47.6035778,2.16666667 L47.6035778,18.8348819 C46.2572769,17.9966299 46.2793087,17.3451884 44.7071556,16.9175021 L44.7071556,3.08333333 L3.42975552,3.08333333 L3.42975552,35.3333333 L14.1539416,35.3333333 C14.4698526,36.8672937 15.0049861,37.3227899 15.7257065,38.6666688 L2.73154442,38.6666667 Z M47.5333333,33.262144 L41.2917183,35.3279823 C41.2242211,35.5056082 41.1542241,35.6819831 41.0767274,35.8546054 L44.0159799,41.7218863 L42.2485535,43.4912647 L36.3750483,40.5598132 C36.2025554,40.6373682 36.0269378,40.7080432 35.8494451,40.775591 L33.7832812,47 L31.2833854,47 L29.2009722,40.7687112 C29.0278544,40.7024142 28.8566115,40.6336155 28.6891185,40.5579368 L22.8187381,43.5062753 L21.0506868,41.7375223 L23.9843145,35.8420964 C23.9099426,35.6757286 23.8424454,35.5049827 23.7768232,35.3342367 L17.5333333,33.262144 L17.5333333,30.760372 L23.7861978,28.6632614 C23.8505701,28.4943918 23.9180673,28.328024 23.9918142,28.1647834 L21.0506868,22.2774883 L22.8181131,20.5087353 L28.7066178,23.454572 C28.869111,23.3820206 29.0334792,23.3169746 29.2009722,23.2531794 L31.2833854,17 L33.7832812,17 L35.8656945,23.2531794 C36.0338125,23.3163491 36.1988056,23.3826461 36.3619238,23.4558229 L42.2635529,20.5087353 L44.0316042,22.2774883 L41.0742275,28.1635326 C41.1492243,28.3292749 41.2173465,28.49877 41.2829687,28.6695159 L47.5333333,30.760372 L47.5333333,33.262144 Z M32.2606311,37.9675417 C35.5991642,37.9675417 38.3057116,35.2998333 38.3057116,32.0092083 C38.3057116,28.7185833 35.5991642,26.050875 32.2606311,26.050875 C28.922098,26.050875 26.2155506,28.7185833 26.2155506,32.0092083 C26.2155506,35.2998333 28.922098,37.9675417 32.2606311,37.9675417 Z" id="Shape"></path>
        </g>
    </g>
</svg>