<?xml version="1.0" encoding="utf-8"?>
<!-- Generator: Adobe Illustrator 19.1.0, SVG Export Plug-In . SVG Version: 6.00 Build 0)  -->
<svg version="1.1" id="Layer_1" xmlns="http://www.w3.org/2000/svg" xmlns:xlink="http://www.w3.org/1999/xlink" x="0px" y="0px"
	 width="48px" height="48px" viewBox="-281 373 48 48" style="enable-background:new -281 373 48 48;" xml:space="preserve">

<g>
	<path d="M-235,381h-44c-1.1,0-2,0.9-2,2v28c0,1.1,0.9,2,2,2h4v-2c0-1.1,0.9-2,2-2s2,0.9,2,2v2h28v-2c0-1.1,0.9-2,2-2
		s2,0.9,2,2v2h4c1.1,0,2-0.9,2-2v-28C-233,381.9-233.9,381-235,381z M-268,408l0.7-4.1c0-0.2,0.2-0.4,0.4-0.5l6.3-3.7
		c0.2-0.1,0.4-0.3,0.4-0.5l0.7-1.7c-1.1-0.7-1.7-3.2-1.7-4.6v-2.8c0-2.3,1.9-4.1,4.1-4.1c2.3,0,4.1,1.9,4.1,4.1v2.8
		c0,1.4-0.7,3.8-1.7,4.5l0.8,1.7c0.1,0.2,0.3,0.4,0.4,0.5l6.3,3.7c0.2,0.1,0.3,0.3,0.4,0.5l0.7,4.1H-268z"/>
</g>
</svg>
