<?xml version="1.0" encoding="utf-8"?>
<!-- Generator: Adobe Illustrator 16.0.0, SVG Export Plug-In . SVG Version: 6.00 Build 0)  -->
<!DOCTYPE svg PUBLIC "-//W3C//DTD SVG 1.1//EN" "http://www.w3.org/Graphics/SVG/1.1/DTD/svg11.dtd">
<svg version="1.1" id="Layer_1" xmlns="http://www.w3.org/2000/svg" xmlns:xlink="http://www.w3.org/1999/xlink" x="0px" y="0px"
	 width="48px" height="48px" viewBox="0 0 48 48" enable-background="new 0 0 48 48" xml:space="preserve">
<g>
	<polygon  points="24,2 24,2 24.001,2 	"/>
	<path  d="M44.648,37.734c-0.066-0.398-0.406-0.889-0.755-1.091l-12.691-7.364c-0.349-0.201-0.752-0.675-0.895-1.052
		l-1.495-3.348c2.104-1.487,3.43-6.356,3.43-9.13v-5.5C32.242,5.714,28.536,2,24,2c-4.535,0-8.241,3.714-8.241,8.25v5.5
		c0,2.773,1.324,7.643,3.43,9.13l-1.495,3.348c-0.144,0.377-0.546,0.851-0.896,1.052L4.108,36.644
		c-0.35,0.202-0.689,0.692-0.756,1.091L2.009,46h43.982L44.648,37.734z"/>
</g>
</svg>
