<svg id="Layer_1" data-name="Layer 1" xmlns="http://www.w3.org/2000/svg" width="48" height="48" viewBox="0 0 48 48"><defs><style>.cls-1{fill:#333439;}</style></defs><title>LOGIN_CONTRACT_VERSION-C_FINAL_A</title><path class="cls-1" d="M32.44,4.41l7.7,7.7v32.3h-32v-40h24.3m1.6-4H6a2,2,0,0,0-2,2v44a2,2,0,0,0,2,2H42a2,2,0,0,0,2-2v-36L34,.41Z"/><path class="cls-1" d="M35,19.21H27a2,2,0,0,1,0-4h8a2,2,0,1,1,0,4Z"/><path class="cls-1" d="M35,33.61H13a2,2,0,1,1,0-4H35a2,2,0,0,1,0,4Z"/><path class="cls-1" d="M35,26.41H13a2,2,0,0,1,0-4H35a2,2,0,0,1,0,4Z"/><path class="cls-1" d="M35,40.71H13a2,2,0,0,1,0-4H35a2,2,0,0,1,0,4Z"/><path class="cls-1" d="M20.74,12.91v-2a4,4,0,0,0-8,0v2h-1v5a1.08,1.08,0,0,0,1,1h8a1.08,1.08,0,0,0,1-1v-5Zm-6-2a2,2,0,0,1,4,0v2h-4Z"/></svg>