<svg id="Layer_1" data-name="Layer 1" xmlns="http://www.w3.org/2000/svg" width="24" height="24" viewBox="0 0 24 24"><defs><style>.cls-1{fill:#333439;}</style></defs><title>LOGIN_CONTRACT_VERSION-C_FINAL_A</title><path class="cls-1" d="M17.3,2.21,21.1,6v16.2H4.1v-20H17.3m.8-2H3.1a1,1,0,0,0-1,1v22a1.08,1.08,0,0,0,1,1h19a1.08,1.08,0,0,0,1-1v-18l-5-5Z"/><path class="cls-1" d="M18.4,12.61h-3a1.08,1.08,0,0,1-1-1h0a1.08,1.08,0,0,1,1-1h3a1,1,0,0,1,1,1h0A.94.94,0,0,1,18.4,12.61Z"/><path class="cls-1" d="M12.4,7.61v-1a3,3,0,0,0-3-3,3,3,0,0,0-3,3v1h-1v4a.94.94,0,0,0,1,1h6a.94.94,0,0,0,1-1v-4Zm-4-1a.94.94,0,0,1,1-1,.94.94,0,0,1,1,1v1h-2Z"/><path class="cls-1" d="M18.4,16.61H6.4a1.08,1.08,0,0,1-1-1h0a1.08,1.08,0,0,1,1-1h12a1,1,0,0,1,1,1h0A.94.94,0,0,1,18.4,16.61Z"/><path class="cls-1" d="M18.4,20.61H6.4a1.08,1.08,0,0,1-1-1h0a1.08,1.08,0,0,1,1-1h12a1,1,0,0,1,1,1h0A.94.94,0,0,1,18.4,20.61Z"/></svg>