<svg id="Layer_1" data-name="Layer 1" xmlns="http://www.w3.org/2000/svg" width="16" height="16" viewBox="0 0 16 16"><defs><style>.cls-1{fill:#333439;}</style></defs><title>LOGIN_CONTRACT_VERSION-C_FINAL_A</title><path class="cls-1" d="M10.49.95l2.7,2.7v11.3h-10V.95h7.3m.4-1h-8a.68.68,0,0,0-.7.7v14.7a.68.68,0,0,0,.7.7h10.6a.68.68,0,0,0,.7-.7v-12l-3.3-3.4Z"/><path class="cls-1" d="M11.39,13.55H5.09a.5.5,0,0,1,0-1h6.3a.5.5,0,0,1,0,1Z"/><path class="cls-1" d="M10.89,6.15v-.9a2.7,2.7,0,1,0-5.4,0v.9h-.9v3.6a.9.9,0,0,0,.9.9h5.4a.9.9,0,0,0,.9-.9V6.15Zm-3.6-.9a.9.9,0,1,1,1.8,0v.9H7.29Z"/></svg>