<?xml version="1.0" encoding="UTF-8" standalone="no"?>
<svg width="46px" height="45px" viewBox="0 0 46 45" version="1.1" xmlns="http://www.w3.org/2000/svg" xmlns:xlink="http://www.w3.org/1999/xlink">
    <!-- Generator: Sketch 46.2 (44496) - http://www.bohemiancoding.com/sketch -->
    <title>cpu-chip</title>
    <desc>Created with Sketch.</desc>
    <defs></defs>
    <g id="Page-1" stroke="none" stroke-width="1" fill="none" fill-rule="evenodd">
        <g id="cpu-chip" fill-rule="nonzero" fill="#000000">
            <path d="M32.2199998,41.2199998 C32.2199998,40.0999998 31.5322961,39.2199998 30.6570369,39.2199998 L25.7800002,39.2199998 L25.7800002,43.2199998 L30.6570369,43.2199998 C31.5322961,43.2199998 32.2199998,42.3399998 32.2199998,41.2199998 Z" id="Shape" transform="translate(29.000000, 41.220000) rotate(90.000000) translate(-29.000000, -41.220000) "></path>
            <path d="M20.2199998,41.2199998 C20.2199998,40.0999998 19.5322961,39.2199998 18.6570369,39.2199998 L13.7800002,39.2199998 L13.7800002,43.2199998 L18.6570369,43.2199998 C19.5322961,43.2199998 20.2199998,42.3399998 20.2199998,41.2199998 Z" id="Shape" transform="translate(17.000000, 41.220000) rotate(90.000000) translate(-17.000000, -41.220000) "></path>
            <path d="M7.21999979,28.2199998 C7.21999979,27.0999998 6.53229612,26.2199998 5.6570369,26.2199998 L0.78000021,26.2199998 L0.78000021,30.2199998 L5.6570369,30.2199998 C6.53229612,30.2199998 7.21999979,29.3399998 7.21999979,28.2199998 Z" id="Shape" transform="translate(4.000000, 28.220000) rotate(180.000000) translate(-4.000000, -28.220000) "></path>
            <path d="M7.21999979,16.2199998 C7.21999979,15.0999998 6.53229612,14.2199998 5.6570369,14.2199998 L0.78000021,14.2199998 L0.78000021,18.2199998 L5.6570369,18.2199998 C6.53229612,18.2199998 7.21999979,17.3399998 7.21999979,16.2199998 Z" id="Shape" transform="translate(4.000000, 16.220000) rotate(180.000000) translate(-4.000000, -16.220000) "></path>
            <path d="M32.2199998,3.21999979 C32.2199998,2.09999979 31.5322961,1.21999979 30.6570369,1.21999979 L25.7800002,1.21999979 L25.7800002,5.21999979 L30.6570369,5.21999979 C31.5322961,5.21999979 32.2199998,4.33999979 32.2199998,3.21999979 Z" id="Shape" transform="translate(29.000000, 3.220000) rotate(270.000000) translate(-29.000000, -3.220000) "></path>
            <path d="M20.2199998,3.21999979 C20.2199998,2.09999979 19.5322961,1.21999979 18.6570369,1.21999979 L13.7800002,1.21999979 L13.7800002,5.21999979 L18.6570369,5.21999979 C19.5322961,5.21999979 20.2199998,4.33999979 20.2199998,3.21999979 Z" id="Shape" transform="translate(17.000000, 3.220000) rotate(270.000000) translate(-17.000000, -3.220000) "></path>
            <path d="M45.4399996,28 C45.4399996,26.88 44.7522959,26 43.8770367,26 L39,26 L39,30 L43.8770367,30 C44.7522959,30 45.4399996,29.12 45.4399996,28 Z" id="Shape" transform="translate(42.220000, 28.000000) rotate(360.000000) translate(-42.220000, -28.000000) "></path>
            <path d="M45.4399996,16 C45.4399996,14.88 44.7522959,14 43.8770367,14 L39,14 L39,18 L43.8770367,18 C44.7522959,18 45.4399996,17.12 45.4399996,16 Z" id="Shape" transform="translate(42.220000, 16.000000) rotate(360.000000) translate(-42.220000, -16.000000) "></path>
            <path d="M38.5833333,5 L7.41666667,5 C6.6375,5 6,5.95625 6,7.125 L6,36.875 C6,38.04375 6.6375,39 7.41666667,39 L38.5833333,39 C39.3625,39 40,38.04375 40,36.875 L40,7.125 C40,5.95625 39.3625,5 38.5833333,5 Z M36.1633333,34.75 L9.83333333,34.75 L9.83333333,9.25 L36.1633333,9.25 L36.1633333,34.75 Z" id="Shape"></path>
            <path d="M29.4166667,15 L16.5833333,15 C16.2625,15 16,15.39375 16,15.875 L16,28.125 C16,28.60625 16.2625,29 16.5833333,29 L29.4166667,29 C29.7375,29 30,28.60625 30,28.125 L30,15.875 C30,15.39375 29.7375,15 29.4166667,15 Z M26.4184315,25.25 L19.5784314,25.25 L19.5784314,18.75 L26.4184315,18.75 L26.4184315,25.25 Z" id="Shape"></path>
        </g>
    </g>
</svg>