<?xml version="1.0" encoding="utf-8"?>
<!-- Generator: Adobe Illustrator 16.0.0, SVG Export Plug-In . SVG Version: 6.00 Build 0)  -->
<!DOCTYPE svg PUBLIC "-//W3C//DTD SVG 1.1//EN" "http://www.w3.org/Graphics/SVG/1.1/DTD/svg11.dtd">
<svg version="1.1" id="Layer_1" xmlns="http://www.w3.org/2000/svg" xmlns:xlink="http://www.w3.org/1999/xlink" x="0px" y="0px"
	 width="48px" height="48px" viewBox="0 0 48 48" enable-background="new 0 0 48 48" xml:space="preserve">
<g>
	<path  d="M23.955,9c3.416,0,6.558,1.16,9.082,3.09l6.412-6.412C35.268,2.138,29.862,0,23.955,0
		C11.375,0,1.062,9.682,0.045,22h9.06C10.088,14.673,16.364,9,23.955,9z"/>
	<path  d="M42.277,8.506l-6.412,6.412c1.93,2.524,3.09,5.666,3.09,9.082c0,3.415-1.16,6.558-3.09,9.082l6.412,6.412
		c3.539-4.182,5.678-9.587,5.678-15.494C47.955,18.092,45.816,12.687,42.277,8.506z"/>
	<path  d="M23.955,39c-7.591,0-13.867-5.674-14.851-13h-9.06c1.017,12.318,11.33,22,23.91,22
		c5.907,0,11.312-2.139,15.494-5.678l-6.412-6.412C30.513,37.84,27.371,39,23.955,39z"/>
</g>
</svg>
