<?xml version="1.0" encoding="utf-8"?>
<!-- Generator: Adobe Illustrator 16.0.0, SVG Export Plug-In . SVG Version: 6.00 Build 0)  -->
<!DOCTYPE svg PUBLIC "-//W3C//DTD SVG 1.1//EN" "http://www.w3.org/Graphics/SVG/1.1/DTD/svg11.dtd">
<svg version="1.1" id="Layer_1" xmlns="http://www.w3.org/2000/svg" xmlns:xlink="http://www.w3.org/1999/xlink" x="0px" y="0px"
	 width="48px" height="48px" viewBox="0 0 48 48" enable-background="new 0 0 48 48" xml:space="preserve">
<g>
	<path  d="M44,2h-6v2c0,1.104-0.896,2-2,2c-1.105,0-2-0.896-2-2V2H14v2c0,1.104-0.896,2-2,2s-2-0.896-2-2V2H4
		C2.896,2,2,2.896,2,4v40c0,1.104,0.896,2,2,2h40c1.104,0,2-0.896,2-2V4C46,2.896,45.104,2,44,2z M24.023,35.35
		c-3.674,0-5.898-1.9-6.298-4.699h2.549c0.4,1.749,1.575,2.699,3.699,2.699c2.4,0,3.8-1.3,3.8-3.174c0-2.399-1.85-3.3-3.45-3.3
		h-1.45v-2.074h1.399c1.325,0,2.899-0.899,2.899-2.924c0-1.875-1.648-2.75-3.348-2.75c-1.95,0-3.274,1-3.524,2.5h-2.524
		c0.425-2.725,2.85-4.499,6.174-4.499c2.924,0,5.672,1.449,5.672,4.573c0,1.899-1.324,3.425-3.148,3.999
		c1.975,0.425,3.75,1.899,3.75,4.524C30.223,33.225,27.773,35.35,24.023,35.35z"/>
</g>
</svg>
