<?xml version="1.0" encoding="utf-8"?>
<!-- Generator: Adobe Illustrator 16.0.0, SVG Export Plug-In . SVG Version: 6.00 Build 0)  -->
<!DOCTYPE svg PUBLIC "-//W3C//DTD SVG 1.1//EN" "http://www.w3.org/Graphics/SVG/1.1/DTD/svg11.dtd">
<svg version="1.1" id="Layer_1" xmlns="http://www.w3.org/2000/svg" xmlns:xlink="http://www.w3.org/1999/xlink" x="0px" y="0px"
	 width="48px" height="48px" viewBox="0 0 48 48" enable-background="new 0 0 48 48" xml:space="preserve">
<path  d="M45.998,8H18.386c-0.55,0-1.331,0.305-1.736,0.677L0.005,24c-0.004,0.004-0.004,0.01,0,0.014l16.645,15.309
	C17.055,39.695,17.836,40,18.386,40h27.612c1.1,0,2-0.9,2-2V10C47.998,8.899,47.098,8,45.998,8z M40.418,32.412
	c-0.39,0.391-0.901,0.586-1.414,0.586c-0.512,0-1.023-0.195-1.413-0.586l-5.587-5.584l-5.583,5.586
	C26.03,32.805,25.519,33,25.007,33s-1.023-0.195-1.414-0.586c-0.781-0.781-0.781-2.047,0-2.828L29.176,24l-5.585-5.584
	c-0.781-0.781-0.781-2.048,0-2.829s2.047-0.78,2.828,0l5.585,5.585l5.586-5.586c0.781-0.781,2.047-0.781,2.828-0.001
	c0.781,0.781,0.781,2.048,0,2.829l-5.585,5.585l5.585,5.585C41.199,30.365,41.199,31.631,40.418,32.412z"/>
</svg>
