<?xml version="1.0" encoding="UTF-8"?>
<svg width="48px" height="48px" viewBox="0 0 48 48" version="1.1" xmlns="http://www.w3.org/2000/svg" xmlns:xlink="http://www.w3.org/1999/xlink">
    <!-- Generator: Sketch 52.3 (67297) - http://www.bohemiancoding.com/sketch -->
    <title>trash</title>
    <desc>Created with Sketch.</desc>
    <g id="Page-1" stroke="none" stroke-width="1" fill="none" fill-rule="evenodd">
        <g id="trash" fill="#000000">
            <path d="M15.8823529,42.2689412 C16.6616471,42.2689412 17.2941176,41.6364706 17.2941176,40.8571765 L17.2941176,18.9748235 C17.2941176,18.1955294 16.6616471,17.5630588 15.8823529,17.5630588 C15.1030588,17.5630588 14.4705882,18.1955294 14.4705882,18.9748235 L14.4705882,40.8571765 C14.4705882,41.6364706 15.1030588,42.2689412 15.8823529,42.2689412 Z" id="Path"></path>
            <path d="M23.6470588,42.2689412 C24.4263529,42.2689412 25.0588235,41.6364706 25.0588235,40.8571765 L25.0588235,18.9748235 C25.0588235,18.1955294 24.4263529,17.5630588 23.6470588,17.5630588 C22.8677647,17.5630588 22.2352941,18.1955294 22.2352941,18.9748235 L22.2352941,40.8571765 C22.2352941,41.6364706 22.8677647,42.2689412 23.6470588,42.2689412 Z" id="Path"></path>
            <path d="M31.4117647,42.2689412 C32.1910588,42.2689412 32.8235294,41.6364706 32.8235294,40.8571765 L32.8235294,18.9748235 C32.8235294,18.1955294 32.1910588,17.5630588 31.4117647,17.5630588 C30.6324706,17.5630588 30,18.1955294 30,18.9748235 L30,40.8571765 C30,41.6364706 30.6324706,42.2689412 31.4117647,42.2689412 Z" id="Path"></path>
            <path d="M11.0964706,47.6470588 L37.1004706,47.6470588 C39.5654118,47.6470588 41.2941176,45.9077647 41.2941176,43.5317647 L41.2941176,14.4705882 L44.1176471,14.4705882 C46.2585882,14.4705882 48,12.7284706 48,10.5882353 C48,8.448 46.2585882,6.70588235 44.1176471,6.70588235 L35.6470588,6.70588235 L35.6470588,4.89741176 C35.6470588,2.41976471 34.2945882,0.352941176 31.9461176,0.352941176 L16.4145882,0.352941176 C14.1268235,0.352941176 12.3529412,2.25952941 12.3529412,4.89741176 L12.3529412,6.70588235 L3.88235294,6.70588235 C1.74141176,6.70588235 0,8.448 0,10.5882353 C0,12.7284706 1.74141176,14.4705882 3.88235294,14.4705882 L6,14.4705882 L6,43.5317647 C6,45.8675294 8.56941176,47.6470588 11.0964706,47.6470588 Z M15.1764706,4.89741176 C15.1764706,3.44541176 16.0616471,3.17647059 16.4145882,3.17647059 L31.9461176,3.17647059 C33.0169412,3.17647059 32.8235294,4.35458824 32.8235294,4.89741176 L32.8235294,6.70588235 L15.1764706,6.70588235 L15.1764706,4.89741176 Z M3.88235294,11.6470588 C3.29858824,11.6470588 2.82352941,11.172 2.82352941,10.5882353 C2.82352941,10.0044706 3.29858824,9.52941176 3.88235294,9.52941176 L44.1176471,9.52941176 C44.7014118,9.52941176 45.1764706,10.0044706 45.1764706,10.5882353 C45.1764706,11.172 44.7014118,11.6470588 44.1176471,11.6470588 L3.88235294,11.6470588 Z M38.4705882,14.4705882 L38.4705882,43.5317647 C38.4705882,44.3484706 38.0018824,44.8235294 37.1004706,44.8235294 L11.0964706,44.8235294 C10.1456471,44.8235294 8.82352941,44.3047059 8.82352941,43.5317647 L8.82352941,14.4705882 L38.4705882,14.4705882 Z" id="Shape" fill-rule="nonzero"></path>
        </g>
    </g>
</svg>