<?xml version="1.0" encoding="utf-8"?>
<!-- Generator: Adobe Illustrator 19.1.0, SVG Export Plug-In . SVG Version: 6.00 Build 0)  -->
<svg version="1.1" id="Layer_1" xmlns="http://www.w3.org/2000/svg" xmlns:xlink="http://www.w3.org/1999/xlink" x="0px" y="0px"
	 width="48px" height="48px" viewBox="-281 373 48 48" style="enable-background:new -281 373 48 48;" xml:space="preserve">

<g>
	<path d="M-281,384v26c0,3.3,2.7,6,6,6v-38C-278.3,378-281,380.7-281,384z"/>
	<path d="M-235,378h-34c-1.1,0-2,0.9-2,2v34c0,1.1,0.9,2,2,2h34c1.1,0,2-0.9,2-2v-34C-233,378.9-233.9,378-235,378z
		 M-265.5,403c-0.8,0-1.5-0.7-1.5-1.5s0.7-1.5,1.5-1.5s1.5,0.7,1.5,1.5S-264.7,403-265.5,403z M-259,403c-0.8,0-1.5-0.7-1.5-1.5
		s0.7-1.5,1.5-1.5s1.5,0.7,1.5,1.5S-258.2,403-259,403z M-252.5,403c-0.8,0-1.5-0.7-1.5-1.5s0.7-1.5,1.5-1.5s1.5,0.7,1.5,1.5
		S-251.7,403-252.5,403z M-251,397h-16v-15h16V397z M-237.5,397h-9c-0.8,0-1.5-0.7-1.5-1.5s0.7-1.5,1.5-1.5h9c0.8,0,1.5,0.7,1.5,1.5
		S-236.7,397-237.5,397z M-237.5,391h-9c-0.8,0-1.5-0.7-1.5-1.5s0.7-1.5,1.5-1.5h9c0.8,0,1.5,0.7,1.5,1.5S-236.7,391-237.5,391z
		 M-237.5,385h-9c-0.8,0-1.5-0.7-1.5-1.5s0.7-1.5,1.5-1.5h9c0.8,0,1.5,0.7,1.5,1.5S-236.7,385-237.5,385z"/>
</g>
</svg>
