<?xml version="1.0" encoding="UTF-8"?>
<svg width="48px" height="44px" viewBox="0 0 48 44" version="1.1" xmlns="http://www.w3.org/2000/svg" xmlns:xlink="http://www.w3.org/1999/xlink">
    <!-- Generator: Sketch 52.3 (67297) - http://www.bohemiancoding.com/sketch -->
    <title>device-reload</title>
    <desc>Created with Sketch.</desc>
    <g id="Page-1" stroke="none" stroke-width="1" fill="none" fill-rule="evenodd">
        <path d="M37.7425685,18.2049377 C36.0017057,17.4144191 34.0648731,16.9736842 32.0239975,16.9736842 C27.3067355,16.9736842 23.1453268,19.3283234 20.674944,22.9144737 L3.55271368e-15,22.9144737 L3.55271368e-15,14.4276316 L37.7425685,14.4276316 L37.7425685,18.2049377 Z M18.9828739,26.3092105 C18.539355,27.6442731 18.2994271,29.0707305 18.2994271,30.5526316 C18.2994271,33.0259496 18.9677745,35.3448229 20.1355303,37.3421053 L0.857785647,37.3421053 C0.384043715,37.3421053 5.80166582e-17,36.9621364 0,36.4934211 L0,26.3092105 L18.9828739,26.3092105 Z M36.8847828,0 C37.3585247,-8.61016127e-17 37.7425685,0.379968863 37.7425685,0.848684211 L37.7425685,11.0328947 L3.55271368e-15,11.0328947 L3.55271368e-15,0.848684211 C3.49469702e-15,0.379968863 0.384043715,8.61016127e-17 0.857785647,0 L36.8847828,0 Z M3.00224976,8.48684211 L4.71782106,8.48684211 L4.71782106,2.618797 L3.00224976,2.618797 L3.00224976,8.48684211 Z M7.291178,8.48684211 L9.00674929,8.48684211 L9.00674929,2.618797 L7.291178,2.618797 L7.291178,8.48684211 Z M11.5801062,8.48684211 L13.2956775,8.48684211 L13.2956775,2.618797 L11.5801062,2.618797 L11.5801062,8.48684211 Z M3.00224976,20.7927632 L4.71782106,20.7927632 L4.71782106,16.5493421 L3.00224976,16.5493421 L3.00224976,20.7927632 Z M7.291178,20.7927632 L9.00674929,20.7927632 L9.00674929,16.5493421 L7.291178,16.5493421 L7.291178,20.7927632 Z M11.5801062,20.7927632 L13.2956775,20.7927632 L13.2956775,16.5493421 L11.5801062,16.5493421 L11.5801062,20.7927632 Z M11.5801062,34.7960526 L13.2956775,34.7960526 L13.2956775,28.9280075 L11.5801062,28.9280075 L11.5801062,34.7960526 Z M3.00224976,34.7960526 L4.71782106,34.7960526 L4.71782106,28.9280075 L3.00224976,28.9280075 L3.00224976,34.7960526 Z M7.291178,34.7960526 L9.00674929,34.7960526 L9.00674929,28.9280075 L7.291178,28.9280075 L7.291178,34.7960526 Z M44.5307153,31.1184211 C44.5307153,37.7508197 39.2117285,43.1274201 32.6491364,43.1274201 C26.0871101,43.1274201 20.7675575,37.7508197 20.7675575,31.1184211 C20.7675575,24.4860224 26.0871101,19.109422 32.6491364,19.109422 C36.1479785,19.109422 39.283018,20.6465739 41.4567811,23.0781103 L40.1158601,25.0024094 C38.3511627,22.8053344 35.6608338,21.3968504 32.6491364,21.3968504 C27.3459917,21.3968504 23.0307153,25.7578326 23.0307153,31.1184211 C23.0307153,36.4790095 27.3459917,40.8399917 32.6491364,40.8399917 C37.9528469,40.8399917 42.2675575,36.4790095 42.2675575,31.1184211 L39.3854259,31.1184211 C38.9644785,31.1184211 38.8185048,30.8359236 39.0606627,30.4899501 L43.4042285,24.2561359 L47.7376101,30.4899501 C47.979768,30.8359236 47.8343601,31.1184211 47.4134127,31.1184211 L44.5307153,31.1184211 Z" id="device-reload" fill="#000000" fill-rule="nonzero"></path>
    </g>
</svg>