<?xml version="1.0" encoding="UTF-8"?>
<svg width="48px" height="47px" viewBox="0 0 48 47" version="1.1" xmlns="http://www.w3.org/2000/svg" xmlns:xlink="http://www.w3.org/1999/xlink">
    <!-- Generator: Sketch 52.3 (67297) - http://www.bohemiancoding.com/sketch -->
    <title>Combined Shape</title>
    <desc>Created with Sketch.</desc>
    <g id="Page-1" stroke="none" stroke-width="1" fill="none" fill-rule="evenodd">
        <path d="M40.6153846,19.8984202 C38.7420142,19.0343651 36.6577576,18.5526316 34.4615385,18.5526316 C29.385217,18.5526316 24.9070582,21.126307 22.2486396,25.0460526 L3.55271368e-15,25.0460526 L3.55271368e-15,15.7697368 L40.6153846,15.7697368 L40.6153846,19.8984202 Z M20.4277758,28.7565789 C19.950498,30.2158334 19.6923077,31.7749846 19.6923077,33.3947368 C19.6923077,36.0981326 20.4115279,38.6327166 21.6681702,40.8157936 L0.923076923,40.8157895 C0.413275615,40.8157895 6.24326585e-17,40.4004746 0,39.8881579 L0,28.7565789 L20.4277758,28.7565789 Z M39.6923077,0 C40.202109,-9.4111065e-17 40.6153846,0.415314804 40.6153846,0.927631579 L40.6153846,12.0592105 L3.55271368e-15,12.0592105 L3.55271368e-15,0.927631579 C3.49028102e-15,0.415314804 0.413275615,9.4111065e-17 0.923076923,0 L39.6923077,0 Z M3.23076923,9.27631579 L5.07692308,9.27631579 L5.07692308,2.86240602 L3.23076923,2.86240602 L3.23076923,9.27631579 Z M7.84615385,9.27631579 L9.69230769,9.27631579 L9.69230769,2.86240602 L7.84615385,2.86240602 L7.84615385,9.27631579 Z M12.4615385,9.27631579 L14.3076923,9.27631579 L14.3076923,2.86240602 L12.4615385,2.86240602 L12.4615385,9.27631579 Z M3.23076923,22.7269737 L5.07692308,22.7269737 L5.07692308,18.0888158 L3.23076923,18.0888158 L3.23076923,22.7269737 Z M7.84615385,22.7269737 L9.69230769,22.7269737 L9.69230769,18.0888158 L7.84615385,18.0888158 L7.84615385,22.7269737 Z M12.4615385,22.7269737 L14.3076923,22.7269737 L14.3076923,18.0888158 L12.4615385,18.0888158 L12.4615385,22.7269737 Z M12.4615385,38.0328947 L14.3076923,38.0328947 L14.3076923,31.618985 L12.4615385,31.618985 L12.4615385,38.0328947 Z M3.23076923,38.0328947 L5.07692308,38.0328947 L5.07692308,31.618985 L3.23076923,31.618985 L3.23076923,38.0328947 Z M7.84615385,38.0328947 L9.69230769,38.0328947 L9.69230769,31.618985 L7.84615385,31.618985 L7.84615385,38.0328947 Z M35.0769231,21.0263158 C42.2384615,21.0263158 48,26.8162829 48,34.0131579 C48,41.2100329 42.2384615,47 35.0769231,47 C27.9153846,47 22.1538462,41.2100329 22.1538462,34.0131579 C22.1538462,26.8162829 27.9153846,21.0263158 35.0769231,21.0263158 Z M35.0769231,44.8355263 C41,44.8355263 45.8461538,39.9654605 45.8461538,34.0131579 C45.8461538,28.0608553 41,23.1907895 35.0769231,23.1907895 C29.1538462,23.1907895 24.3076923,28.0608553 24.3076923,34.0131579 C24.3076923,39.9654605 29.1538462,44.8355263 35.0769231,44.8355263 Z M39.0610202,38.0174545 C38.6297395,38.4503222 37.9841645,38.4503222 37.5528837,38.0174545 L35.0766539,35.5284653 L32.5998856,38.0174545 C32.1691433,38.4503222 31.5230298,38.4503222 31.0922875,38.0174545 C30.6615452,37.5840457 30.6615452,36.9352853 31.0922875,36.5018765 L33.5690558,34.0128874 L31.0922875,31.5238982 C30.6615452,31.0910305 30.6615452,30.441729 31.0922875,30.0088613 C31.5230298,29.5759936 32.1691433,29.5759936 32.5998856,30.0088613 L35.0766539,32.4978505 L37.5534221,30.0088613 C37.9847029,29.5759936 38.6302779,29.5759936 39.0615587,30.0088613 C39.492301,30.441729 39.492301,31.0910305 39.0615587,31.5238982 L36.5842519,34.0134284 L39.0615587,36.5024176 C39.4917625,36.9352853 39.4917625,37.5845868 39.0610202,38.0174545 Z" id="Combined-Shape" fill="#000000" fill-rule="nonzero"></path>
    </g>
</svg>