<?xml version="1.0" encoding="UTF-8"?>
<svg width="49px" height="46px" viewBox="0 0 49 46" version="1.1" xmlns="http://www.w3.org/2000/svg" xmlns:xlink="http://www.w3.org/1999/xlink">
    <!-- Generator: Sketch 52.3 (67297) - http://www.bohemiancoding.com/sketch -->
    <title>Combined Shape</title>
    <desc>Created with Sketch.</desc>
    <g id="Page-1" stroke="none" stroke-width="1" fill="none" fill-rule="evenodd">
        <path d="M48.5073185,42.0558862 C49.6148235,44.2642241 48.807927,45.999455 46.4874402,45.999455 L25.407927,45.999455 C23.1929168,45.999455 22.3860203,44.2582177 23.4935254,42.0558862 L34.3839919,21.7495401 C35.2910913,20.1235764 36.7044787,20.1235764 37.6115781,21.7495401 L48.5073185,42.0558862 Z M45.8226979,43.9992782 C46.83032,43.9992782 47.1997815,43.1547397 46.7439044,42.2053238 L36.6484906,23.4157769 C36.2790771,22.780993 35.727284,22.780993 35.4537866,23.4157769 L25.3583728,42.2053238 C24.8065798,43.1547397 25.1760412,43.9992782 26.1836633,43.9992782 L45.8226979,43.9992782 Z M36.053625,42.1666667 C35.766,42.1666667 35.4905625,42.0529167 35.2858125,41.8522292 C35.0843125,41.6458542 34.9705625,41.3639167 34.9705625,41.0827917 C34.9705625,40.8008542 35.0843125,40.5189167 35.2858125,40.3133542 C35.696125,39.9127917 36.4168125,39.9127917 36.817375,40.3133542 C37.02375,40.5197292 37.1375,40.7951667 37.1375,41.0827917 C37.1375,41.3704167 37.02375,41.6458542 36.8230625,41.8465417 C36.6166875,42.0529167 36.34125,42.1666667 36.053625,42.1666667 Z M36.0544375,37.8333333 C35.4564375,37.8333333 34.971375,37.3482708 34.971375,36.7494583 L34.971375,30.7913958 C34.971375,30.1942083 35.4564375,29.7083333 36.0544375,29.7083333 C36.6524375,29.7083333 37.1375,30.1942083 37.1375,30.7922083 L37.1375,36.7502708 C37.1375,37.3482708 36.6524375,37.8333333 36.0544375,37.8333333 Z M34.9028318,15.8409091 L29.5018381,25.1590909 L0,25.1590909 L0,15.8409091 L34.9028318,15.8409091 Z M37.0957515,15.8409091 L41,15.8409091 L41,22.5767987 L37.0957515,15.8409091 Z M27.3414407,28.8863636 L20.3201489,41 L0.931818182,41 C0.41718921,41 -3.4896898e-15,40.5828107 -3.55271368e-15,40.0681818 L-3.55271368e-15,28.8863636 L27.3414407,28.8863636 Z M40.0681818,0 C40.5828107,-9.45358087e-17 41,0.41718921 41,0.931818182 L41,12.1136364 L0,12.1136364 L0,0.931818182 C-6.30238723e-17,0.41718921 0.41718921,9.45358087e-17 0.931818182,0 L40.0681818,0 Z M3.26136364,9.31818182 L5.125,9.31818182 L5.125,2.87532468 L3.26136364,2.87532468 L3.26136364,9.31818182 Z M7.92045455,9.31818182 L9.78409091,9.31818182 L9.78409091,2.87532468 L7.92045455,2.87532468 L7.92045455,9.31818182 Z M12.5795455,9.31818182 L14.4431818,9.31818182 L14.4431818,2.87532468 L12.5795455,2.87532468 L12.5795455,9.31818182 Z M3.26136364,22.8295455 L5.125,22.8295455 L5.125,18.1704545 L3.26136364,18.1704545 L3.26136364,22.8295455 Z M7.92045455,22.8295455 L9.78409091,22.8295455 L9.78409091,18.1704545 L7.92045455,18.1704545 L7.92045455,22.8295455 Z M12.5795455,22.8295455 L14.4431818,22.8295455 L14.4431818,18.1704545 L12.5795455,18.1704545 L12.5795455,22.8295455 Z M12.5795455,38.2045455 L14.4431818,38.2045455 L14.4431818,31.7616883 L12.5795455,31.7616883 L12.5795455,38.2045455 Z M3.26136364,38.2045455 L5.125,38.2045455 L5.125,31.7616883 L3.26136364,31.7616883 L3.26136364,38.2045455 Z M7.92045455,38.2045455 L9.78409091,38.2045455 L9.78409091,31.7616883 L7.92045455,31.7616883 L7.92045455,38.2045455 Z" id="Combined-Shape" fill="#000000" fill-rule="nonzero"></path>
    </g>
</svg>