<?xml version="1.0" encoding="utf-8"?>
<!-- Generator: Adobe Illustrator 19.1.0, SVG Export Plug-In . SVG Version: 6.00 Build 0)  -->
<svg version="1.1" id="Layer_1" xmlns="http://www.w3.org/2000/svg" xmlns:xlink="http://www.w3.org/1999/xlink" x="0px" y="0px"
	 width="48px" height="48px" viewBox="-281 373 48 48" style="enable-background:new -281 373 48 48;" xml:space="preserve">

<g>
	<path d="M-241,373h-28c-1.1,0-2,0.9-2,2v5h-2c-1.1,0-2,0.9-2,2v30c0,1.1,0.9,2,2,2h2v5c0,1.1,0.9,2,2,2h28
		c1.1,0,2-0.9,2-2v-44C-239,373.9-239.9,373-241,373z M-266,408l0.7-4.1c0-0.2,0.2-0.4,0.4-0.5l6.3-3.7c0.2-0.1,0.4-0.3,0.4-0.5
		l0.7-1.7c-1.1-0.7-1.7-3.2-1.7-4.6v-2.7c0-2.3,1.9-4.1,4.1-4.1h0h0h0h0c2.3,0,4.1,1.9,4.1,4.1v2.7c0,1.4-0.7,3.8-1.7,4.6l0.7,1.7
		c0.1,0.2,0.3,0.4,0.4,0.5l6.3,3.7c0.2,0.1,0.3,0.3,0.4,0.5l0.7,4.1H-266z"/>
</g>
</svg>
