<?xml version="1.0" encoding="utf-8"?>
<!-- Generator: Adobe Illustrator 16.0.0, SVG Export Plug-In . SVG Version: 6.00 Build 0)  -->
<!DOCTYPE svg PUBLIC "-//W3C//DTD SVG 1.1//EN" "http://www.w3.org/Graphics/SVG/1.1/DTD/svg11.dtd">
<svg version="1.1" id="Layer_1" xmlns="http://www.w3.org/2000/svg" xmlns:xlink="http://www.w3.org/1999/xlink" x="0px" y="0px"
	 width="48px" height="48px" viewBox="0 0 48 48" enable-background="new 0 0 48 48" xml:space="preserve">
<g>
	<path  d="M5.345,15.834c4.81,0,8.028,2.563,8.028,8.166c0,5.286-3.402,8.166-8.188,8.166H0.036V15.834H5.345z
		 M2.351,17.672v12.59h3.062c3.583,0,5.624-2.156,5.624-6.262c0-4.287-2.176-6.328-5.671-6.328H2.351z"/>
	<path  d="M23.386,32.166l-5.035-12.793v12.793h-2.246V15.834h3.221l5.193,13.611l4.9-13.611h3.04v16.332h-2.178
		v-12.68l-4.719,12.68H23.386z"/>
	<path  d="M40.5,24.317c-3.786-1.044-4.967-2.382-4.967-4.627c0-2.382,2.109-4.196,5.852-4.196
		c3.495,0,6.059,1.656,6.467,4.423h-2.383c-0.249-1.588-1.633-2.518-4.084-2.518c-2.495,0-3.537,0.976-3.537,2.199
		c0,1.271,0.543,1.884,4.287,2.927c4.536,1.271,5.829,2.609,5.829,5.127c0,2.541-2.314,4.854-6.374,4.854
		c-3.517,0-6.171-1.928-6.623-4.922h2.381c0.273,1.838,1.769,3.018,4.196,3.018c2.723,0,4.105-1.315,4.105-2.859
		C45.649,26.224,44.901,25.52,40.5,24.317z"/>
</g>
</svg>
