<?xml version="1.0" encoding="UTF-8"?>
<svg width="49px" height="33px" viewBox="0 0 49 33" version="1.1" xmlns="http://www.w3.org/2000/svg" xmlns:xlink="http://www.w3.org/1999/xlink">
    <!-- Generator: Sketch 52.3 (67297) - http://www.bohemiancoding.com/sketch -->
    <title>dna</title>
    <desc>Created with Sketch.</desc>
    <g id="Page-1" stroke="none" stroke-width="1" fill="none" fill-rule="evenodd">
        <g id="dna" fill="#000000" fill-rule="nonzero">
            <path d="M26.2602351,16.2129923 C27.0455359,17.2436669 29.0785554,19.7190037 29.8842162,20.6722826 L31.6094884,22.573332 C31.6262978,22.591854 31.6437962,22.6097389 31.6619467,22.6269488 L33.8116147,24.6652174 C35.0376778,25.7001473 35.5484955,26.216391 37.7390132,27.3440217 C39.1993584,28.0957756 40.5084912,28.5506669 41.6664117,28.7086957 C42.8816097,28.96961 44.1977654,29.1130435 45.5938103,29.1130435 L46.9560472,29.3374434 C47.5531857,29.4358095 48.0212064,29.9038302 48.1195724,30.5009687 C48.246303,31.2702966 47.7253751,31.9966955 46.9560472,32.1234261 L45.5938103,32.3478261 C35.7103126,32.3478261 28.9485424,25.2816885 24.0944632,19.1153547 C21.8642584,22.0666242 19.4985163,24.9713869 16.5678806,27.3440217 C12.9484942,30.2742674 8.30958778,32.3478261 2.39242662,32.3478261 L1.25292459,32.1131898 C0.700413766,31.9994216 0.268662669,31.5676705 0.154894458,31.0151596 C-0.00235473376,30.2514851 0.489250103,29.504929 1.25292459,29.3476798 L2.39242662,29.1130435 C3.81992189,29.1130435 5.10713618,28.9654048 6.31982513,28.7086957 C7.2212005,28.5245772 7.90662355,28.3539742 8.37609429,28.1968865 C8.77937878,28.0619452 9.40308856,27.7945047 10.2472236,27.3945652 C10.9168575,27.0603733 11.5158431,26.7241146 12.1322279,26.300801 C12.68915,25.9183245 13.2668147,25.4558909 13.8064285,25.0190217 C13.9264695,24.9218375 14.0559794,24.8158725 14.1746222,24.7157609 C14.912971,23.9978888 15.4758795,23.4419858 15.8633479,23.0480517 C16.3486348,22.5546669 17.094859,21.7795917 18.1020207,20.7228261 C19.3262811,19.2745767 20.474295,17.7149392 21.6612256,16.1233696 C16.6278618,9.37495638 11.6835554,3.23478261 2.39242662,3.23478261 L1.25292459,3.00014629 C0.700413766,2.88637808 0.268662669,2.45462698 0.154894458,1.90211615 C-0.00235473376,1.13844166 0.489250103,0.391885512 1.25292459,0.23463632 L2.39242662,0 C13.0736329,0 18.8105135,6.30197259 23.9317528,13.0402174 C26.1184949,10.1528844 28.4791187,7.32661763 31.3569906,5.00380435 C34.9874739,2.07353609 39.6580835,0 45.5938103,0 L46.9560472,0.224399958 C47.5531857,0.322766 48.0212064,0.790786701 48.1195724,1.3879252 C48.246303,2.15725308 47.7253751,2.88365202 46.9560472,3.01038265 L45.5938103,3.23478261 C40.7291911,3.23478261 37.2510615,4.80037696 34.1184427,7.32880435 C31.2217919,9.66677519 28.7541355,12.8672514 26.2602351,16.2129923 Z M24.794354,18.182904 L24.0944632,19.1153547 C24.3290936,18.8048641 24.5622239,18.4938587 24.794354,18.182904 Z M42.2003494,6.35403727 C42.9935938,6.35403727 43.6366454,6.99708886 43.6366454,7.79033321 L43.6366454,24.5574929 C43.6366454,25.3507372 42.9935938,25.9937888 42.2003494,25.9937888 C41.4071051,25.9937888 40.7640535,25.3507372 40.7640535,24.5574929 L40.7640535,7.79033321 C40.7640535,6.99708886 41.4071051,6.35403727 42.2003494,6.35403727 Z M35.9764003,9.24223602 C36.7696447,9.24223602 37.4126963,9.88528762 37.4126963,10.678532 L37.4126963,21.6692941 C37.4126963,22.4625385 36.7696447,23.1055901 35.9764003,23.1055901 C35.183156,23.1055901 34.5401044,22.4625385 34.5401044,21.6692941 L34.5401044,10.678532 C34.5401044,9.88528762 35.183156,9.24223602 35.9764003,9.24223602 Z M4.85665493,6.35403727 C5.64989928,6.35403727 6.29295088,6.99708886 6.29295088,7.79033321 L6.29295088,24.5574929 C6.29295088,25.3507372 5.64989928,25.9937888 4.85665493,25.9937888 C4.06341059,25.9937888 3.42035899,25.3507372 3.42035899,24.5574929 L3.42035899,7.79033321 C3.42035899,6.99708886 4.06341059,6.35403727 4.85665493,6.35403727 Z M11.080604,9.24223602 C11.8738484,9.24223602 12.5169,9.88528762 12.5169,10.678532 L12.5169,21.6692941 C12.5169,22.4625385 11.8738484,23.1055901 11.080604,23.1055901 C10.2873597,23.1055901 9.64430807,22.4625385 9.64430807,21.6692941 L9.64430807,10.678532 C9.64430807,9.88528762 10.2873597,9.24223602 11.080604,9.24223602 Z" id="Combined-Shape"></path>
        </g>
    </g>
</svg>