<?xml version="1.0" encoding="utf-8"?>
<!-- Generator: Adobe Illustrator 19.1.0, SVG Export Plug-In . SVG Version: 6.00 Build 0)  -->
<svg version="1.1" id="Layer_1" xmlns="http://www.w3.org/2000/svg" xmlns:xlink="http://www.w3.org/1999/xlink" x="0px" y="0px"
	 width="48px" height="48px" viewBox="-281 373 48 48" style="enable-background:new -281 373 48 48;" xml:space="preserve">

<g>
	<path d="M-239.9,417h-34.1c-1.1,0-1.9,0.9-1.9,2c0,1.1,0.9,2,1.9,2h34.1c1.1,0,1.9-0.9,1.9-2
		C-238,417.9-238.9,417-239.9,417z"/>
	<path d="M-269,401h9c-2.5,4.2-7,12-7,12h20c0,0-4.5-7.8-7-12h9c1.1,0,2-0.9,2-2v-24c0-1.1-0.9-2-2-2h-24
		c-1.1,0-2,0.9-2,2v24C-271,400.1-270.1,401-269,401z"/>
</g>
</svg>
