<?xml version="1.0" encoding="utf-8"?>
<!-- Generator: Adobe Illustrator 19.1.0, SVG Export Plug-In . SVG Version: 6.00 Build 0)  -->
<svg version="1.1" id="Layer_1" xmlns="http://www.w3.org/2000/svg" xmlns:xlink="http://www.w3.org/1999/xlink" x="0px" y="0px"
	 width="48px" height="48px" viewBox="-281 373 48 48" style="enable-background:new -281 373 48 48;" xml:space="preserve">

<g>
	<path d="M-239.9,417h-28.6l-4,4h32.6c1.1,0,1.9-0.9,1.9-2C-238,417.9-238.9,417-239.9,417z"/>
	<path d="M-243,399v-7.5l-9.5,9.5h7.5C-243.9,401-243,400.1-243,399z"/>
	<path d="M-264.5,413h17.5c0,0-3.9-6.7-6.5-11.1L-264.5,413z"/>
	<path d="M-233.6,373.6c-0.8-0.8-2-0.8-2.8,0l-6.6,6.6V375c0-1.1-0.9-2-2-2h-24c-1.1,0-2,0.9-2,2v24c0,1.1,0.9,2,2,2
		h5.2l-16.6,16.6c-0.8,0.8-0.8,2,0,2.8c0.4,0.4,0.9,0.6,1.4,0.6s1-0.2,1.4-0.6l44-44C-232.8,375.6-232.8,374.4-233.6,373.6z"/>
</g>
</svg>
