<?xml version="1.0" encoding="utf-8"?>
<!-- Generator: Adobe Illustrator 16.0.0, SVG Export Plug-In . SVG Version: 6.00 Build 0)  -->
<!DOCTYPE svg PUBLIC "-//W3C//DTD SVG 1.1//EN" "http://www.w3.org/Graphics/SVG/1.1/DTD/svg11.dtd">
<svg version="1.1" id="Layer_1" xmlns="http://www.w3.org/2000/svg" xmlns:xlink="http://www.w3.org/1999/xlink" x="0px" y="0px"
	 width="48px" height="48px" viewBox="0 0 48 48" enable-background="new 0 0 48 48" xml:space="preserve">
<g>
	<path  d="M44,2H4C2.896,2,2,2.896,2,4v40c0,1.104,0.896,2,2,2h40c1.104,0,2-0.896,2-2V4C46,2.896,45.104,2,44,2z
		 M17.704,19H22v-8c0-1.104,0.896-2,2-2s2,0.896,2,2v8h4.296c0.671,0,0.903,0.453,0.518,1.007L24,30l-6.813-9.993
		C16.8,19.453,17.033,19,17.704,19z M37,39H11c-1.104,0-2-0.896-2-2s0.896-2,2-2h26c1.104,0,2,0.896,2,2S38.104,39,37,39z"/>
</g>
</svg>
