<?xml version="1.0" encoding="utf-8"?>
<!-- Generator: Adobe Illustrator 15.0.0, SVG Export Plug-In . SVG Version: 6.00 Build 0)  -->
<!DOCTYPE svg PUBLIC "-//W3C//DTD SVG 1.1//EN" "http://www.w3.org/Graphics/SVG/1.1/DTD/svg11.dtd">
<svg version="1.1" id="Layer_1" xmlns="http://www.w3.org/2000/svg" xmlns:xlink="http://www.w3.org/1999/xlink" x="0px" y="0px"
	 width="48px" height="48px" viewBox="0 0 48 48" enable-background="new 0 0 48 48" xml:space="preserve">
<g id="XMLID_134_">
	<g id="XMLID_691_">
		<path id="XMLID_772_"  d="M3.61,0.2L3.61,0.2c0,1.3,0.2,2.6,0.4,3.9c1.1,8,4.3,16.5,9.7,24.3
			c5.4,7.8,12.1,13.899,19.2,17.8c1.199,0.7,2.399,1.2,3.5,1.8l0,0l0,0l3.199-9.4c0.2-0.5,0-1-0.5-1.199l-8.699-4.9
			c-1-0.6-2.301-0.8-3.4-0.5l-4.6,1.1c-2-2.1-3.8-4.399-5.5-6.899c-1.7-2.5-3.2-5.1-4.4-7.7l2.7-3.9c0.7-1,0.9-2.2,0.8-3.4l0,0
			l-1.4-9.9c-0.2-0.3-0.6-0.6-1-0.7L3.61,0.2L3.61,0.2z"/>
	</g>
	<g id="XMLID_31_">
		<polygon id="XMLID_847_"  points="27.91,7.7 27.91,7.7 27.91,7.8 		"/>
		<path id="XMLID_850_"  d="M44.01,25.8l-6-3.4c-0.7-0.4-1.6-0.5-2.4-0.3l-3.199,0.7c-1.4-1.5-2.7-3.1-3.801-4.8
			c-1.199-1.7-2.199-3.5-3.1-5.3l1.9-2.7c0.5-0.7,0.699-1.5,0.5-2.3l-1-6.8c0-0.3-0.301-0.6-0.7-0.6l-3.5-0.2L19.01,0
			c0,0,0,9,6.2,18.7c0,0,5.7,9.8,16.8,15l0.2-0.7l2.1-6.3C44.51,26.3,44.31,26,44.01,25.8z"/>
	</g>
</g>
</svg>
