<?xml version="1.0" encoding="utf-8"?>
<!-- Generator: Adobe Illustrator 19.1.0, SVG Export Plug-In . SVG Version: 6.00 Build 0)  -->
<svg version="1.1" id="Layer_1" xmlns="http://www.w3.org/2000/svg" xmlns:xlink="http://www.w3.org/1999/xlink" x="0px" y="0px"
	 width="48px" height="48px" viewBox="-281 373 48 48" style="enable-background:new -281 373 48 48;" xml:space="preserve">

<g>
	<path d="M-269,373c-2.2,0-4,1.8-4,4v16v1v14l4,13l4-13v-14v-1v-16C-265,374.8-266.8,373-269,373z"/>
	<g>
		<path d="M-254.2,397h4.3v9c0,1.1,0.9,2,2,2s2-0.9,2-2v-9h4.2c0.7,0,0.9-0.5,0.5-1l-6.8-10l-6.8,10
			C-255.2,396.5-254.9,397-254.2,397z"/>
	</g>
</g>
</svg>
