<?xml version="1.0" encoding="utf-8"?>
<!-- Generator: Adobe Illustrator 19.1.0, SVG Export Plug-In . SVG Version: 6.00 Build 0)  -->
<svg version="1.1" id="Layer_1" xmlns="http://www.w3.org/2000/svg" xmlns:xlink="http://www.w3.org/1999/xlink" x="0px" y="0px"
	 width="48px" height="48px" viewBox="-281 373 48 48" style="enable-background:new -281 373 48 48;" xml:space="preserve">

<g>
	<path d="M-257,373c-13.3,0-24,10.7-24,24c0,13.3,10.7,24,24,24c13.3,0,24-10.7,24-24C-233,383.7-243.7,373-257,373z
		 M-248,391c1.7,0,3,1.3,3,3s-1.3,3-3,3s-3-1.3-3-3S-249.7,391-248,391z M-266,391c1.7,0,3,1.3,3,3s-1.3,3-3,3s-3-1.3-3-3
		S-267.7,391-266,391z M-257,412c-6.1,0-11.7-3.7-14-9h28C-245.3,408.3-250.9,412-257,412z"/>
</g>
</svg>
