<?xml version="1.0" encoding="utf-8"?>
<!-- Generator: Adobe Illustrator 16.0.0, SVG Export Plug-In . SVG Version: 6.00 Build 0)  -->
<!DOCTYPE svg PUBLIC "-//W3C//DTD SVG 1.1//EN" "http://www.w3.org/Graphics/SVG/1.1/DTD/svg11.dtd">
<svg version="1.1" id="Layer_1" xmlns="http://www.w3.org/2000/svg" xmlns:xlink="http://www.w3.org/1999/xlink" x="0px" y="0px"
	 width="48px" height="48px" viewBox="0 0 48 48" enable-background="new 0 0 48 48" xml:space="preserve">
<g>
	<path  d="M35,0H13L0,13v22l13,13h22l13-13V13L35,0z M32.414,29.586c0.781,0.781,0.781,2.047,0,2.828
		C32.023,32.805,31.512,33,31,33s-1.023-0.195-1.414-0.586L24,26.828l-5.586,5.586C18.023,32.805,17.512,33,17,33
		s-1.023-0.195-1.414-0.586c-0.781-0.781-0.781-2.047,0-2.828L21.172,24l-5.44-5.44c-0.781-0.781-0.781-2.047,0-2.828
		s2.047-0.781,2.828,0l5.44,5.44l5.586-5.586c0.781-0.781,2.047-0.781,2.828,0s0.781,2.047,0,2.828L26.828,24L32.414,29.586z"/>
</g>
</svg>
