<?xml version="1.0" encoding="UTF-8" standalone="no"?>
<svg width="48px" height="48px" viewBox="0 0 48 48" version="1.1" xmlns="http://www.w3.org/2000/svg" xmlns:xlink="http://www.w3.org/1999/xlink">
    <!-- Generator: Sketch 46.2 (44496) - http://www.bohemiancoding.com/sketch -->
    <title>Shape</title>
    <desc>Created with Sketch.</desc>
    <defs></defs>
    <g id="Page-1" stroke="none" stroke-width="1" fill="none" fill-rule="evenodd">
        <g id="error" fill-rule="nonzero" fill="#000000">
            <path d="M35,0 L13,0 L0,13 L0,35 L13,48 L35,48 L48,35 L48,13 L35,0 Z M33.1666667,4 L44,14.8333333 L44,33.1666667 L33.1666667,44 L14.8333333,44 L4,33.1666667 L4,14.8333333 L14.8333333,4 L33.1666667,4 Z M32.414,29.586 L26.828,24 L32.414,18.414 C33.195,17.633 33.195,16.367 32.414,15.586 C31.633,14.805 30.367,14.805 29.586,15.586 L24,21.172 L18.56,15.732 C17.779,14.951 16.513,14.951 15.732,15.732 C14.951,16.513 14.951,17.779 15.732,18.56 L21.172,24 L15.586,29.586 C14.805,30.367 14.805,31.633 15.586,32.414 C15.977,32.805 16.488,33 17,33 C17.512,33 18.023,32.805 18.414,32.414 L24,26.828 L29.586,32.414 C29.977,32.805 30.488,33 31,33 C31.512,33 32.023,32.805 32.414,32.414 C33.195,31.633 33.195,30.367 32.414,29.586 Z" id="Shape"></path>
        </g>
    </g>
</svg>