<?xml version="1.0" encoding="utf-8"?>
<!-- Generator: Adobe Illustrator 16.0.0, SVG Export Plug-In . SVG Version: 6.00 Build 0)  -->
<!DOCTYPE svg PUBLIC "-//W3C//DTD SVG 1.1//EN" "http://www.w3.org/Graphics/SVG/1.1/DTD/svg11.dtd">
<svg version="1.1" id="Layer_1" xmlns="http://www.w3.org/2000/svg" xmlns:xlink="http://www.w3.org/1999/xlink" x="0px" y="0px"
	 width="48px" height="48px" viewBox="0 0 48 48" enable-background="new 0 0 48 48" xml:space="preserve">
<g>
	<path  d="M37.869,13.98c-0.752-0.752-1.97-0.752-2.722,0c-0.751,0.751-0.751,1.97,0,2.721l7.3,7.299l-7.3,7.299
		c-0.751,0.752-0.751,1.97,0,2.722c0.376,0.376,0.868,0.563,1.361,0.563c0.492,0,0.984-0.188,1.36-0.563L47.889,24L37.869,13.98z"/>
	<path  d="M5.553,24l7.299-7.299c0.752-0.751,0.752-1.97,0-2.721c-0.751-0.752-1.969-0.752-2.721,0L0.111,24
		l10.02,10.021c0.376,0.376,0.868,0.563,1.361,0.563c0.492,0,0.985-0.188,1.36-0.563c0.752-0.752,0.752-1.97,0-2.722L5.553,24z"/>
	<circle  cx="24" cy="24" r="1.925"/>
	<circle  cx="15.34" cy="24" r="1.925"/>
	<circle  cx="32.659" cy="24" r="1.925"/>
</g>
</svg>
