<?xml version="1.0" encoding="utf-8"?>
<!-- Generator: Adobe Illustrator 18.1.1, SVG Export Plug-In . SVG Version: 6.00 Build 0)  -->
<svg version="1.1" id="Layer_1" xmlns="http://www.w3.org/2000/svg" xmlns:xlink="http://www.w3.org/1999/xlink" x="0px" y="0px"
	 viewBox="0 0 48 48" enable-background="new 0 0 48 48" xml:space="preserve">
<g>
	<path  d="M47.7,42.4L25.5,4.1c-0.8-1.4-2.2-1.4-3,0L0.3,42.4C-0.5,43.8,0.2,45,1.9,45h44.3
		C47.8,45,48.5,43.8,47.7,42.4z M25.4,38.4C25,38.8,24.5,39,24,39s-1-0.2-1.4-0.6C22.2,38,22,37.5,22,37c0-0.5,0.2-1,0.6-1.4
		c0.7-0.7,2.1-0.7,2.8,0C25.8,36,26,36.5,26,37S25.8,38,25.4,38.4z M26,30c0,1.1-0.9,2-2,2s-2-0.9-2-2V18c0-1.1,0.9-2,2-2s2,0.9,2,2
		V30z"/>
</g>
</svg>
