<?xml version="1.0" encoding="utf-8"?>
<!-- Generator: Adobe Illustrator 18.1.1, SVG Export Plug-In . SVG Version: 6.00 Build 0)  -->
<svg version="1.1" id="Layer_1" xmlns="http://www.w3.org/2000/svg" xmlns:xlink="http://www.w3.org/1999/xlink" x="0px" y="0px"
	 viewBox="0 0 48 48" enable-background="new 0 0 48 48" xml:space="preserve">
<g>
	<path  d="M24,0C10.7,0,0,10.7,0,24s10.7,24,24,24s24-10.7,24-24S37.3,0,24,0z M25.4,34.4C25,34.8,24.5,35,24,35
		s-1-0.2-1.4-0.6C22.2,34,22,33.5,22,33c0-0.5,0.2-1,0.6-1.4c0.8-0.7,2.1-0.7,2.8,0C25.8,32,26,32.5,26,33S25.8,34,25.4,34.4z
		 M26,25c0,1.1-0.9,2-2,2s-2-0.9-2-2V14c0-1.1,0.9-2,2-2s2,0.9,2,2V25z"/>
</g>
</svg>
