<?xml version="1.0" encoding="utf-8"?>
<!-- Generator: Adobe Illustrator 19.1.0, SVG Export Plug-In . SVG Version: 6.00 Build 0)  -->
<svg version="1.1" id="Layer_1" xmlns="http://www.w3.org/2000/svg" xmlns:xlink="http://www.w3.org/1999/xlink" x="0px" y="0px"
	 width="48px" height="48px" viewBox="-281 373 48 48" style="enable-background:new -281 373 48 48;" xml:space="preserve">

<g>
	<path d="M-262,401.8c-0.6,0-1.1,0.2-1.5,0.6l-2.9,2.9c-0.4,0.4-0.6,0.9-0.6,1.5c0,0.6,0.2,1.1,0.6,1.5
		c0.8,0.8,2.2,0.8,3,0l2.9-2.9c0.4-0.4,0.6-0.9,0.6-1.5c0-0.6-0.2-1.1-0.6-1.5C-260.9,402-261.4,401.8-262,401.8z"/>
	<path d="M-249.2,389c-0.6,0-1.1,0.2-1.5,0.6l-2.9,2.9c-0.4,0.4-0.6,0.9-0.6,1.5c0,0.6,0.2,1.1,0.6,1.5
		c0.8,0.8,2.2,0.8,3,0l2.9-2.9c0.4-0.4,0.6-0.9,0.6-1.5c0-0.6-0.2-1.1-0.6-1.5C-248.1,389.2-248.6,389-249.2,389z"/>
	<path d="M-237,375h-6v2c0,1.1-0.9,2-2,2s-2-0.9-2-2v-2h-20v2c0,1.1-0.9,2-2,2s-2-0.9-2-2v-2h-6c-1.1,0-2,0.9-2,2v40
		c0,1.1,0.9,2,2,2h40c1.1,0,2-0.9,2-2v-40C-235,375.9-235.9,375-237,375z M-244.8,395.4l-2.9,2.9c-1.2,1.2-2.7,1.8-4.3,1.8
		c-0.9,0-1.9-0.2-2.7-0.6l-1.7,1.7c0.4,0.8,0.6,1.7,0.6,2.7c0,1.6-0.6,3.2-1.8,4.3l-2.9,2.9c-1.2,1.2-2.7,1.8-4.3,1.8
		c-1.6,0-3.2-0.6-4.3-1.8c-1.2-1.2-1.8-2.7-1.8-4.3c0-1.6,0.6-3.2,1.8-4.3l2.9-2.9c1.2-1.2,2.7-1.8,4.3-1.8c0.9,0,1.9,0.2,2.7,0.6
		l1.7-1.7c-1.1-2.3-0.7-5.1,1.2-7l2.9-2.9c1.2-1.2,2.7-1.8,4.3-1.8s3.2,0.6,4.3,1.8c1.2,1.2,1.8,2.7,1.8,4.3
		C-243,392.8-243.7,394.3-244.8,395.4z"/>
</g>
</svg>
