<?xml version="1.0" encoding="utf-8"?>
<!-- Generator: Adobe Illustrator 16.0.0, SVG Export Plug-In . SVG Version: 6.00 Build 0)  -->
<!DOCTYPE svg PUBLIC "-//W3C//DTD SVG 1.1//EN" "http://www.w3.org/Graphics/SVG/1.1/DTD/svg11.dtd">
<svg version="1.1" id="Layer_1" xmlns="http://www.w3.org/2000/svg" xmlns:xlink="http://www.w3.org/1999/xlink" x="0px" y="0px"
	 width="48px" height="48px" viewBox="0 0 48 48" enable-background="new 0 0 48 48" xml:space="preserve">
<g>
	<path  d="M7.029,40.971c9.373,9.372,24.568,9.373,33.941,0s9.373-24.569,0-33.941
		c-9.373-9.372-24.568-9.373-33.941,0C-2.343,16.402-2.343,31.598,7.029,40.971z M18.343,15.515L24,21.172l5.656-5.657
		c0.781-0.781,2.049-0.781,2.829,0c0.78,0.781,0.781,2.047,0,2.829L26.828,24l5.684,5.684c0.781,0.78,0.781,2.047,0,2.828
		s-2.047,0.781-2.828,0L24,26.828l-5.734,5.734c-0.781,0.781-2.047,0.781-2.828,0c-0.781-0.781-0.782-2.047,0-2.828L21.171,24
		l-5.656-5.657c-0.781-0.781-0.781-2.047,0-2.829C16.296,14.734,17.562,14.734,18.343,15.515z"/>
</g>
</svg>
