<?xml version="1.0" encoding="utf-8"?>
<!-- Generator: Adobe Illustrator 16.0.0, SVG Export Plug-In . SVG Version: 6.00 Build 0)  -->
<!DOCTYPE svg PUBLIC "-//W3C//DTD SVG 1.1//EN" "http://www.w3.org/Graphics/SVG/1.1/DTD/svg11.dtd">
<svg version="1.1" id="Layer_1" xmlns="http://www.w3.org/2000/svg" xmlns:xlink="http://www.w3.org/1999/xlink" x="0px" y="0px"
	 width="48px" height="48px" viewBox="0 0 48 48" enable-background="new 0 0 48 48" xml:space="preserve">
<path  d="M26.828,24L41.414,9.414c0.781-0.781,0.781-2.047,0-2.828c-0.781-0.781-2.047-0.781-2.828,0L24,21.172
	L9.414,6.586c-0.781-0.781-2.047-0.781-2.828,0c-0.781,0.781-0.781,2.047,0,2.828L21.172,24L6.586,38.586
	c-0.781,0.781-0.781,2.047,0,2.828C6.977,41.805,7.488,42,8,42s1.023-0.195,1.414-0.586L24,26.828l14.586,14.586
	C38.977,41.805,39.488,42,40,42s1.023-0.195,1.414-0.586c0.781-0.781,0.781-2.047,0-2.828L26.828,24z"/>
</svg>
