<?xml version="1.0" encoding="utf-8"?>
<!-- Generator: Adobe Illustrator 19.1.0, SVG Export Plug-In . SVG Version: 6.00 Build 0)  -->
<svg version="1.1" id="Layer_1" xmlns="http://www.w3.org/2000/svg" xmlns:xlink="http://www.w3.org/1999/xlink" x="0px" y="0px"
	 width="48px" height="48px" viewBox="-281 373 48 48" style="enable-background:new -281 373 48 48;" xml:space="preserve">

<g>
	<path d="M-241,392.3c0-0.3,0-0.5,0-0.8c0-5.8-4.7-10.5-10.5-10.5c-4.5,0-8.4,2.9-9.8,6.9c-1.1-0.6-2.3-0.9-3.7-0.9
		c-4.4,0-8,3.6-8,8c0,0.3,0,0.7,0.1,1h-0.1v0c-4.5,0.3-8,3.9-8,8.5c0,4.5,3.5,8.2,8,8.5v0h30v0c5.6-0.3,10-4.8,10-10.5
		C-233,397.5-236.4,393.4-241,392.3z M-254,408h-6l1.8-6.2c-1.6-0.5-2.8-2-2.8-3.8c0-2.2,1.8-4,4-4s4,1.8,4,4c0,1.8-1.2,3.3-2.8,3.8
		L-254,408z"/>
</g>
</svg>
