<?xml version="1.0" encoding="utf-8"?>
<!-- Generator: Adobe Illustrator 21.1.0, SVG Export Plug-In . SVG Version: 6.00 Build 0)  -->
<svg version="1.1" id="Layer_1" xmlns="http://www.w3.org/2000/svg" xmlns:xlink="http://www.w3.org/1999/xlink" x="0px" y="0px"
	 viewBox="0 0 16 16" enable-background="new 0 0 16 16" xml:space="preserve">
<g>
	<path fill="none" d="M8,6C6.9,6,6,6.9,6,8c0,0.9,0.6,1.7,1.5,1.9l2.4-2.4C9.7,6.6,8.9,6,8,6z"/>
	<path fill="none" d="M9.4,9.4L9.4,9.4C9.4,9.4,9.4,9.4,9.4,9.4z"/>
	<g>
		<path  d="M15.7,1.7c0.4-0.4,0.4-1,0-1.4s-1-0.4-1.4,0l-3.5,3.5C9.9,3.3,8.9,3,8,3C4.9,3,1.6,6.2,0,8
			c0.8,0.9,2,2.1,3.4,3.2l-3.1,3.1c-0.4,0.4-0.4,1,0,1.4C0.5,15.9,0.7,16,1,16s0.5-0.1,0.7-0.3L15.7,1.7z M6,8c0-1.1,0.9-2,2-2
			c0.2,0,0.3,0,0.5,0.1L6.1,8.5C6,8.3,6,8.2,6,8z"/>
		<path  d="M13.4,5.5l-7.2,7.2C6.8,12.9,7.4,13,8,13c3.1,0,6.4-3.2,8-5C15.3,7.3,14.4,6.3,13.4,5.5z"/>
	</g>
</g>
</svg>
