<?xml version="1.0" encoding="utf-8"?>
<!-- Generator: Adobe Illustrator 19.1.0, SVG Export Plug-In . SVG Version: 6.00 Build 0)  -->
<svg version="1.1" id="Layer_1" xmlns="http://www.w3.org/2000/svg" xmlns:xlink="http://www.w3.org/1999/xlink" x="0px" y="0px"
	 width="48px" height="48px" viewBox="-281 373 48 48" style="enable-background:new -281 373 48 48;" xml:space="preserve">

<g>
	<g>
		<path d="M-233.5,374h-5.7c-20,9.4-33.1,9.2-33.1,9.2c-4.8,0-8.7,3.9-8.7,8.7s3.9,8.7,8.7,8.7c0,0,0.1,0,0.4,0
			l3.9,14.5c0.1,0.5,0.7,1,1.3,1h4.1c0.6,0,0.9-0.4,0.7-1l-3.7-13.5c1,0.2,2.1,0.4,3.3,0.6c2.1-7,8.6-12.1,16.3-12.1
			c5.2,0,9.9,2.4,13,6.1v-21.6C-233,374.2-233.2,374-233.5,374z"/>
	</g>
	<g>
		<path d="M-246,394c-7.2,0-13,5.8-13,13s5.8,13,13,13s13-5.8,13-13S-238.8,394-246,394z M-239.6,410.6
			c0.8,0.8,0.8,2,0,2.8c-0.4,0.4-0.9,0.6-1.4,0.6s-1-0.2-1.4-0.6l-3.6-3.6l-3.6,3.6c-0.4,0.4-0.9,0.6-1.4,0.6s-1-0.2-1.4-0.6
			c-0.8-0.8-0.8-2,0-2.8l3.6-3.6l-3.6-3.6c-0.8-0.8-0.8-2,0-2.8c0.8-0.8,2-0.8,2.8,0l3.6,3.6l3.6-3.6c0.8-0.8,2-0.8,2.8,0
			c0.8,0.8,0.8,2,0,2.8l-3.6,3.6L-239.6,410.6z"/>
	</g>
</g>
</svg>
