<?xml version="1.0" encoding="utf-8"?>
<!-- Generator: Adobe Illustrator 19.1.0, SVG Export Plug-In . SVG Version: 6.00 Build 0)  -->
<svg version="1.1" id="Layer_1" xmlns="http://www.w3.org/2000/svg" xmlns:xlink="http://www.w3.org/1999/xlink" x="0px" y="0px"
	 width="48px" height="48px" viewBox="-281 373 48 48" style="enable-background:new -281 373 48 48;" xml:space="preserve">

<g>
	<path d="M-233.5,374h-5.7c-20,9.4-33.1,9.2-33.1,9.2c-4.8,0-8.7,3.9-8.7,8.7s3.9,8.7,8.7,8.7c0,0,0.1,0,0.4,0l3.9,14.5
		c0.1,0.5,0.7,1,1.3,1h4.1c0.6,0,0.9-0.4,0.7-1l-3.7-13.5c1,0.2,2.1,0.4,3.3,0.6c2.1-7,8.6-12.1,16.3-12.1c5.2,0,9.9,2.4,13,6.1
		v-21.6C-233,374.2-233.2,374-233.5,374z"/>
	<path d="M-251,406c0,2.2,1.8,4,4,4s4-1.8,4-4s-1.8-4-4-4S-251,403.8-251,406z"/>
	<path d="M-246,394c-7.2,0-13,5.8-13,13s5.8,13,13,13c2.8,0,5.5-0.9,7.6-2.5l-4.6-4.6c-1.2,0.7-2.5,1.1-4,1.1
		c-4.4,0-8-3.6-8-8s3.6-8,8-8s8,3.6,8,8c0,1.5-0.4,2.9-1.2,4.1l4.6,4.6c1.6-2.2,2.6-4.8,2.6-7.7C-233,399.8-238.8,394-246,394z"/>
</g>
</svg>
