<?xml version="1.0" encoding="utf-8"?>
<!-- Generator: Adobe Illustrator 19.1.0, SVG Export Plug-In . SVG Version: 6.00 Build 0)  -->
<svg version="1.1" id="Layer_1" xmlns="http://www.w3.org/2000/svg" xmlns:xlink="http://www.w3.org/1999/xlink" x="0px" y="0px"
	 width="48px" height="48px" viewBox="-281 373 48 48" style="enable-background:new -281 373 48 48;" xml:space="preserve">
<style type="text/css">
	.st0{fill-rule:evenodd;clip-rule:evenodd;fill:#333439;}
</style>
<path d="M-233.5,376h-5.7c-20,9.4-33.1,9.2-33.1,9.2c-4.8,0-8.7,3.9-8.7,8.7s3.9,8.7,8.7,8.7c0,0,0.1,0,0.4,0l3.9,14.5
	c0.1,0.5,0.7,1,1.3,1h4.1c0.6,0,0.9-0.4,0.7-1l-3.7-13.5c5.8,0.9,14.9,3.2,26.3,8.5h5.7c0.3,0,0.5-0.2,0.5-0.5v-35
	C-233,376.2-233.2,376-233.5,376z"/>
</svg>
