<?xml version="1.0" encoding="UTF-8" standalone="no"?>
<svg width="42px" height="48px" viewBox="0 0 42 48" version="1.1" xmlns="http://www.w3.org/2000/svg" xmlns:xlink="http://www.w3.org/1999/xlink">
    <!-- Generator: Sketch 49.3 (51167) - http://www.bohemiancoding.com/sketch -->
    <title>file-text</title>
    <desc>Created with Sketch.</desc>
    <defs></defs>
    <g id="Page-1" stroke="none" stroke-width="1" fill="none" fill-rule="evenodd">
        <g id="file-text" fill="#000000" fill-rule="nonzero">
            <path d="M39.75,12.75 C39.975,12.975 40.275,13.35 40.5,13.725 L27.825,13.725 L27.825,1.05 C28.2,1.275 28.575,1.575 28.8,1.8 L39.75,12.75 Z M27,17.175 L41.55,17.175 L41.55,45.45 C41.55,46.2 41.325,46.8 40.8,47.25 C40.275,47.775 39.675,48 39,48 L3,48 C2.25,48 1.65,47.775 1.2,47.25 C0.75,46.725 0.45,46.125 0.45,45.45 L0.45,2.55 C0.45,1.8 0.675,1.2 1.2,0.75 C1.725,0.3 2.25,0 3,0 L24.45,0 L24.45,14.55 C24.45,15.3 24.675,15.9 25.2,16.35 C25.65,16.875 26.25,17.175 27,17.175 Z M31.275,36.825 L31.275,35.1 C31.275,34.875 31.2,34.65 31.05,34.5 C30.9,34.35 30.675,34.275 30.45,34.275 L11.55,34.275 C11.325,34.275 11.1,34.35 10.95,34.5 C10.8,34.65 10.725,34.875 10.725,35.1 L10.725,36.825 C10.725,37.05 10.8,37.275 10.95,37.425 C11.1,37.575 11.325,37.65 11.55,37.65 L30.375,37.65 C30.6,37.65 30.825,37.575 30.975,37.425 C31.2,37.35 31.275,37.125 31.275,36.825 Z M31.275,30 L31.275,28.275 C31.275,28.05 31.2,27.825 31.05,27.675 C30.9,27.525 30.675,27.45 30.45,27.45 L11.55,27.45 C11.325,27.45 11.1,27.525 10.95,27.675 C10.8,27.825 10.725,28.05 10.725,28.275 L10.725,30 C10.725,30.225 10.8,30.45 10.95,30.6 C11.1,30.75 11.325,30.825 11.55,30.825 L30.375,30.825 C30.6,30.825 30.825,30.75 30.975,30.6 C31.2,30.45 31.275,30.225 31.275,30 Z M31.275,23.175 L31.275,21.45 C31.275,21.225 31.2,21 31.05,20.85 C30.9,20.7 30.675,20.625 30.45,20.625 L11.55,20.625 C11.325,20.625 11.1,20.7 10.95,20.85 C10.8,21 10.725,21.225 10.725,21.45 L10.725,23.175 C10.725,23.4 10.8,23.625 10.95,23.775 C11.1,23.925 11.325,24 11.55,24 L30.375,24 C30.6,24 30.825,23.925 30.975,23.775 C31.2,23.625 31.275,23.4 31.275,23.175 Z" id="Shape"></path>
        </g>
    </g>
</svg>