<?xml version="1.0" encoding="UTF-8" standalone="no"?>
<svg width="41px" height="48px" viewBox="0 0 41 48" version="1.1" xmlns="http://www.w3.org/2000/svg" xmlns:xlink="http://www.w3.org/1999/xlink">
    <!-- Generator: Sketch 49.3 (51167) - http://www.bohemiancoding.com/sketch -->
    <title>file-archive-o</title>
    <desc>Created with Sketch.</desc>
    <defs></defs>
    <g id="Page-1" stroke="none" stroke-width="1" fill="none" fill-rule="evenodd">
        <g id="file-archive-o" fill="#000000" fill-rule="nonzero">
            <path d="M17.0912791,10.296 L17.0912791,6.864 L13.6825581,6.864 L13.6825581,10.296 L17.0912791,10.296 Z M20.5,13.704 L20.5,10.296 L17.0912791,10.296 L17.0912791,13.728 L20.5,13.728 L20.5,13.704 Z M17.0912791,17.136 L17.0912791,13.704 L13.6825581,13.704 L13.6825581,17.136 L17.0912791,17.136 Z M20.5,20.568 L20.5,17.136 L17.0912791,17.136 L17.0912791,20.568 L20.5,20.568 Z M39.1168605,10.176 C39.6174419,10.68 40.0465116,11.352 40.4040698,12.216 C40.7616279,13.08 40.9284884,13.848 40.9284884,14.568 L40.9284884,45.432 C40.9284884,46.152 40.6901163,46.752 40.1895349,47.256 C39.6889535,47.76 39.0930233,48 38.377907,48 L2.62209302,48 C1.90697674,48 1.31104651,47.76 0.810465116,47.256 C0.309883721,46.752 0.0715116279,46.152 0.0715116279,45.432 L0.0715116279,2.568 C0.0715116279,1.848 0.309883721,1.248 0.810465116,0.744 C1.31104651,0.24 1.90697674,0 2.62209302,0 L26.4593023,0 C27.1744186,0 27.9372093,0.168 28.7953488,0.528 C29.6534884,0.888 30.3209302,1.32 30.8215116,1.824 L39.1168605,10.176 Z M27.3174419,3.648 L27.3174419,13.728 L37.3290698,13.728 C37.1622093,13.2 36.9476744,12.84 36.7331395,12.624 L28.4139535,4.248 C28.1994186,4.008 27.8180233,3.816 27.3174419,3.648 Z M37.5197674,44.568 L37.5197674,17.136 L26.4593023,17.136 C25.744186,17.136 25.1482558,16.896 24.6476744,16.392 C24.147093,15.888 23.9087209,15.288 23.9087209,14.568 L23.9087209,3.432 L20.5,3.432 L20.5,6.864 L17.0912791,6.864 L17.0912791,3.432 L3.48023256,3.432 L3.48023256,44.568 L37.5197674,44.568 Z M20.8575581,25.248 L23.694186,34.608 C23.8372093,35.088 23.9087209,35.544 23.9087209,36 C23.9087209,37.488 23.2651163,38.712 21.977907,39.672 C20.6906977,40.656 19.0697674,41.136 17.0912791,41.136 C15.1127907,41.136 13.4918605,40.656 12.2046512,39.672 C10.9174419,38.688 10.2738372,37.464 10.2738372,36 C10.2738372,35.544 10.3453488,35.088 10.4883721,34.608 C10.8697674,33.48 11.9186047,29.952 13.6825581,24 L13.6825581,20.568 L17.0912791,20.568 L17.0912791,24 L19.1889535,24 C19.5703488,24 19.927907,24.12 20.2377907,24.36 C20.5238372,24.576 20.7383721,24.888 20.8575581,25.248 Z M17.0912791,37.704 C18.0209302,37.704 18.8313953,37.536 19.4988372,37.2 C20.1662791,36.864 20.5,36.456 20.5,36 C20.5,35.544 20.1662791,35.136 19.4988372,34.8 C18.8313953,34.464 18.0209302,34.296 17.0912791,34.296 C16.1616279,34.296 15.3511628,34.464 14.6837209,34.8 C14.0162791,35.136 13.6825581,35.544 13.6825581,36 C13.6825581,36.456 14.0162791,36.864 14.6837209,37.2 C15.3511628,37.536 16.1616279,37.704 17.0912791,37.704 Z" id="Shape"></path>
        </g>
    </g>
</svg>