<?xml version="1.0" encoding="utf-8"?>
<!-- Generator: Adobe Illustrator 18.1.1, SVG Export Plug-In . SVG Version: 6.00 Build 0)  -->
<svg version="1.1" id="Layer_1" xmlns="http://www.w3.org/2000/svg" xmlns:xlink="http://www.w3.org/1999/xlink" x="0px" y="0px"
	 viewBox="0 0 64 64" enable-background="new 0 0 64 64" xml:space="preserve">
<path d="M57,13.6c0.7,0.7,1.2,1.6,1.7,2.7s0.7,2.2,0.7,3.1v41.1c0,1-0.3,1.8-1,2.4c-0.7,0.7-1.5,1-2.4,1H8c-1,0-1.8-0.3-2.4-1
	s-1-1.5-1-2.4V3.4c0-1,0.3-1.8,1-2.4S7,0,8,0h32c1,0,2,0.2,3.1,0.7s2,1,2.7,1.7L57,13.6z M41.1,4.9v13.4h13.4
	c-0.2-0.7-0.5-1.2-0.8-1.5L42.6,5.6C42.3,5.4,41.8,5.1,41.1,4.9z M54.9,59.4V22.9H40c-1,0-1.8-0.3-2.4-1c-0.7-0.7-1-1.5-1-2.4V4.6
	H9.1v54.9H54.9z M18.3,28.6c0-0.3,0.1-0.6,0.3-0.8c0.2-0.2,0.5-0.3,0.8-0.3h25.1c0.3,0,0.6,0.1,0.8,0.3s0.3,0.5,0.3,0.8v2.3
	c0,0.3-0.1,0.6-0.3,0.8c-0.2,0.2-0.5,0.3-0.8,0.3H19.4c-0.3,0-0.6-0.1-0.8-0.3c-0.2-0.2-0.3-0.5-0.3-0.8V28.6z M44.6,36.6
	c0.3,0,0.6,0.1,0.8,0.3s0.3,0.5,0.3,0.8V40c0,0.3-0.1,0.6-0.3,0.8c-0.2,0.2-0.5,0.3-0.8,0.3H19.4c-0.3,0-0.6-0.1-0.8-0.3
	c-0.2-0.2-0.3-0.5-0.3-0.8v-2.3c0-0.3,0.1-0.6,0.3-0.8c0.2-0.2,0.5-0.3,0.8-0.3H44.6z M44.6,45.7c0.3,0,0.6,0.1,0.8,0.3
	c0.2,0.2,0.3,0.5,0.3,0.8v2.3c0,0.3-0.1,0.6-0.3,0.8c-0.2,0.2-0.5,0.3-0.8,0.3H19.4c-0.3,0-0.6-0.1-0.8-0.3
	c-0.2-0.2-0.3-0.5-0.3-0.8v-2.3c0-0.3,0.1-0.6,0.3-0.8c0.2-0.2,0.5-0.3,0.8-0.3H44.6z"/>
</svg>
