<?xml version="1.0" encoding="utf-8"?>
<!-- Generator: Adobe Illustrator 18.1.1, SVG Export Plug-In . SVG Version: 6.00 Build 0)  -->
<svg version="1.1" id="Layer_1" xmlns="http://www.w3.org/2000/svg" xmlns:xlink="http://www.w3.org/1999/xlink" x="0px" y="0px"
	 viewBox="0 0 200 200" enable-background="new 0 0 200 200" xml:space="preserve">
<path d="M178.1,42.4c2.1,2.1,3.9,4.9,5.4,8.5c1.5,3.6,2.2,6.8,2.2,9.8v128.6c0,3-1,5.5-3.1,7.6S178,200,175,200H25
	c-3,0-5.5-1-7.6-3.1s-3.1-4.6-3.1-7.6V10.7c0-3,1-5.5,3.1-7.6S22,0,25,0h100c3,0,6.2,0.7,9.8,2.2s6.4,3.3,8.5,5.4L178.1,42.4z
	 M128.6,15.2v42h42c-0.7-2.2-1.6-3.7-2.5-4.6l-34.9-34.9C132.3,16.7,130.7,15.9,128.6,15.2z M171.4,185.7V71.4H125
	c-3,0-5.5-1-7.6-3.1s-3.1-4.6-3.1-7.6V14.3H28.6v171.4H171.4z M83.5,94.9c1.5,0.6,2.2,1.7,2.2,3.3v60.7c0,1.6-0.7,2.8-2.2,3.3
	c-0.6,0.1-1,0.2-1.3,0.2c-0.9,0-1.7-0.3-2.6-1L61,142.9H46.4c-1,0-1.9-0.3-2.6-1s-1-1.5-1-2.6v-21.4c0-1,0.3-1.9,1-2.6
	c0.7-0.7,1.5-1,2.6-1H61l18.5-18.6C80.8,94.5,82.1,94.3,83.5,94.9z M130,171.8c2.3,0,4.2-0.9,5.6-2.7c9.6-11.8,14.4-25.3,14.4-40.5
	s-4.8-28.7-14.4-40.5c-1.2-1.6-2.8-2.5-4.8-2.7s-3.8,0.3-5.2,1.6c-1.6,1.3-2.4,2.9-2.6,4.9c-0.2,2,0.4,3.7,1.6,5.3
	c7.4,9.2,11.2,19.6,11.2,31.5s-3.7,22.3-11.2,31.5c-1.3,1.6-1.8,3.3-1.6,5.3c0.2,2,1.1,3.6,2.6,4.7
	C126.9,171.2,128.4,171.8,130,171.8z M106.5,155.2c2,0,3.8-0.7,5.2-2.2c6.5-6.9,9.7-15.1,9.7-24.4s-3.2-17.5-9.7-24.4
	c-1.3-1.4-3-2.2-5-2.2c-2-0.1-3.7,0.6-5.1,1.9c-1.4,1.3-2.2,3-2.2,5c-0.1,2,0.6,3.7,2,5.2c3.9,4.2,5.8,9.1,5.8,14.6
	c0,5.5-1.9,10.4-5.8,14.6c-1.4,1.5-2.1,3.2-2,5.2c0.1,2,0.8,3.6,2.2,5C103.1,154.6,104.7,155.2,106.5,155.2z"/>
</svg>
