<?xml version="1.0" encoding="utf-8"?>
<!-- Generator: Adobe Illustrator 18.1.1, SVG Export Plug-In . SVG Version: 6.00 Build 0)  -->
<svg version="1.1" id="Layer_1" xmlns="http://www.w3.org/2000/svg" xmlns:xlink="http://www.w3.org/1999/xlink" x="0px" y="0px"
	 viewBox="0 0 64 64" enable-background="new 0 0 64 64" xml:space="preserve">
<path d="M57,17c0.3,0.3,0.7,0.8,1,1.3H41.1V1.4c0.5,0.3,1,0.7,1.3,1L57,17z M40,22.9h19.4v37.7c0,1-0.3,1.8-1,2.4
	c-0.7,0.7-1.5,1-2.4,1H8c-1,0-1.8-0.3-2.4-1s-1-1.5-1-2.4V3.4c0-1,0.3-1.8,1-2.4S7,0,8,0h28.6v19.4c0,1,0.3,1.8,1,2.4
	C38.2,22.5,39,22.9,40,22.9z M45.7,49.1v-2.3c0-0.3-0.1-0.6-0.3-0.8c-0.2-0.2-0.5-0.3-0.8-0.3H19.4c-0.3,0-0.6,0.1-0.8,0.3
	c-0.2,0.2-0.3,0.5-0.3,0.8v2.3c0,0.3,0.1,0.6,0.3,0.8c0.2,0.2,0.5,0.3,0.8,0.3h25.1c0.3,0,0.6-0.1,0.8-0.3
	C45.6,49.8,45.7,49.5,45.7,49.1z M45.7,40v-2.3c0-0.3-0.1-0.6-0.3-0.8s-0.5-0.3-0.8-0.3H19.4c-0.3,0-0.6,0.1-0.8,0.3
	c-0.2,0.2-0.3,0.5-0.3,0.8V40c0,0.3,0.1,0.6,0.3,0.8c0.2,0.2,0.5,0.3,0.8,0.3h25.1c0.3,0,0.6-0.1,0.8-0.3
	C45.6,40.6,45.7,40.3,45.7,40z M45.7,30.9v-2.3c0-0.3-0.1-0.6-0.3-0.8s-0.5-0.3-0.8-0.3H19.4c-0.3,0-0.6,0.1-0.8,0.3
	c-0.2,0.2-0.3,0.5-0.3,0.8v2.3c0,0.3,0.1,0.6,0.3,0.8c0.2,0.2,0.5,0.3,0.8,0.3h25.1c0.3,0,0.6-0.1,0.8-0.3
	C45.6,31.5,45.7,31.2,45.7,30.9z"/>
</svg>
