<?xml version="1.0" encoding="utf-8"?>
<!-- Generator: Adobe Illustrator 18.1.1, SVG Export Plug-In . SVG Version: 6.00 Build 0)  -->
<svg version="1.1" id="Layer_1" xmlns="http://www.w3.org/2000/svg" xmlns:xlink="http://www.w3.org/1999/xlink" x="0px" y="0px"
	 viewBox="0 0 200 200" enable-background="new 0 0 200 200" xml:space="preserve">
<path d="M178.1,42.4c2.1,2.1,3.9,4.9,5.4,8.5c1.5,3.6,2.2,6.8,2.2,9.8v128.6c0,3-1,5.5-3.1,7.6S178,200,175,200H25
	c-3,0-5.5-1-7.6-3.1s-3.1-4.6-3.1-7.6V10.7c0-3,1-5.5,3.1-7.6S22,0,25,0h100c3,0,6.2,0.7,9.8,2.2s6.4,3.3,8.5,5.4L178.1,42.4z
	 M128.6,15.2v42h42c-0.7-2.2-1.6-3.7-2.5-4.6l-34.9-34.9C132.3,16.7,130.7,15.9,128.6,15.2z M171.4,185.7V71.4H125
	c-3,0-5.5-1-7.6-3.1s-3.1-4.6-3.1-7.6V14.3H28.6v171.4H171.4z M60.7,159.6v11.8h36.5v-11.8H86.8V141h15.3c5.7,0,10-0.6,13.2-1.7
	c5-1.7,8.9-4.9,11.9-9.7s4.4-10.2,4.4-16.3c0-6-1.4-11.3-4.1-15.7c-2.8-4.5-6.5-7.7-11.2-9.7c-3.6-1.4-8.4-2.1-14.5-2.1H60.7v11.9
	H71v61.9H60.7z M100.1,128.3H86.8V98.4h13.4c3.9,0,7,0.7,9.3,2c4.2,2.5,6.2,6.7,6.2,12.8c0,6.6-2.3,11.1-6.9,13.4
	C106.5,127.8,103.6,128.3,100.1,128.3z"/>
</svg>
