<?xml version="1.0" encoding="UTF-8" standalone="no"?>
<svg width="41px" height="48px" viewBox="0 0 41 48" version="1.1" xmlns="http://www.w3.org/2000/svg" xmlns:xlink="http://www.w3.org/1999/xlink">
    <!-- Generator: Sketch 49.3 (51167) - http://www.bohemiancoding.com/sketch -->
    <title>file</title>
    <desc>Created with Sketch.</desc>
    <defs></defs>
    <g id="Page-1" stroke="none" stroke-width="1" fill="none" fill-rule="evenodd">
        <g id="file" fill="#000000" fill-rule="nonzero">
            <path d="M27.3174419,13.704 L27.3174419,1.08 C27.6988372,1.32 28.0325581,1.584 28.2709302,1.824 L39.1168605,12.744 C39.3552326,12.984 39.6174419,13.32 39.855814,13.704 L27.3174419,13.704 Z M23.9087209,14.568 C23.9087209,15.288 24.147093,15.888 24.6476744,16.392 C25.1482558,16.896 25.744186,17.136 26.4593023,17.136 L40.9284884,17.136 L40.9284884,45.432 C40.9284884,46.152 40.6901163,46.752 40.1895349,47.256 C39.6889535,47.76 39.0930233,48 38.377907,48 L2.62209302,48 C1.90697674,48 1.31104651,47.76 0.810465116,47.256 C0.309883721,46.752 0.0715116279,46.152 0.0715116279,45.432 L0.0715116279,2.568 C0.0715116279,1.848 0.309883721,1.248 0.810465116,0.744 C1.31104651,0.24 1.90697674,0 2.62209302,0 L23.9087209,0 L23.9087209,14.568 Z" id="Shape"></path>
        </g>
    </g>
</svg>