<?xml version="1.0" encoding="UTF-8" standalone="no"?>
<svg width="41px" height="48px" viewBox="0 0 41 48" version="1.1" xmlns="http://www.w3.org/2000/svg" xmlns:xlink="http://www.w3.org/1999/xlink">
    <!-- Generator: Sketch 49.3 (51167) - http://www.bohemiancoding.com/sketch -->
    <title>file-audio-o</title>
    <desc>Created with Sketch.</desc>
    <defs></defs>
    <g id="Page-1" stroke="none" stroke-width="1" fill="none" fill-rule="evenodd">
        <g id="file-audio-o" fill="#000000" fill-rule="nonzero">
            <path d="M39.1168605,10.176 C39.6174419,10.68 40.0465116,11.352 40.4040698,12.216 C40.7616279,13.08 40.9284884,13.848 40.9284884,14.568 L40.9284884,45.432 C40.9284884,46.152 40.6901163,46.752 40.1895349,47.256 C39.6889535,47.76 39.0930233,48 38.377907,48 L2.62209302,48 C1.90697674,48 1.31104651,47.76 0.810465116,47.256 C0.309883721,46.752 0.0715116279,46.152 0.0715116279,45.432 L0.0715116279,2.568 C0.0715116279,1.848 0.309883721,1.248 0.810465116,0.744 C1.31104651,0.24 1.90697674,0 2.62209302,0 L26.4593023,0 C27.1744186,0 27.9372093,0.168 28.7953488,0.528 C29.6534884,0.888 30.3209302,1.32 30.8215116,1.824 L39.1168605,10.176 Z M27.3174419,3.648 L27.3174419,13.728 L37.3290698,13.728 C37.1622093,13.2 36.9476744,12.84 36.7331395,12.624 L28.4139535,4.248 C28.1994186,4.008 27.8180233,3.816 27.3174419,3.648 Z M37.5197674,44.568 L37.5197674,17.136 L26.4593023,17.136 C25.744186,17.136 25.1482558,16.896 24.6476744,16.392 C24.147093,15.888 23.9087209,15.288 23.9087209,14.568 L23.9087209,3.432 L3.48023256,3.432 L3.48023256,44.568 L37.5197674,44.568 Z M16.5668605,22.776 C16.9244186,22.92 17.0912791,23.184 17.0912791,23.568 L17.0912791,38.136 C17.0912791,38.52 16.9244186,38.808 16.5668605,38.928 C16.4238372,38.952 16.3284884,38.976 16.2569767,38.976 C16.0424419,38.976 15.8517442,38.904 15.6372093,38.736 L11.2034884,34.296 L7.72325581,34.296 C7.48488372,34.296 7.27034884,34.224 7.10348837,34.056 C6.93662791,33.888 6.86511628,33.696 6.86511628,33.432 L6.86511628,28.296 C6.86511628,28.056 6.93662791,27.84 7.10348837,27.672 C7.27034884,27.504 7.46104651,27.432 7.72325581,27.432 L11.2034884,27.432 L15.6133721,22.968 C15.9232558,22.68 16.2331395,22.632 16.5668605,22.776 Z M27.6511628,41.232 C28.1994186,41.232 28.6523256,41.016 28.9860465,40.584 C31.2744186,37.752 32.4186047,34.512 32.4186047,30.864 C32.4186047,27.216 31.2744186,23.976 28.9860465,21.144 C28.7,20.76 28.3186047,20.544 27.8418605,20.496 C27.3651163,20.448 26.9360465,20.568 26.6023256,20.88 C26.2209302,21.192 26.0302326,21.576 25.9825581,22.056 C25.9348837,22.536 26.077907,22.944 26.3639535,23.328 C28.127907,25.536 29.0337209,28.032 29.0337209,30.888 C29.0337209,33.744 28.1517442,36.24 26.3639535,38.448 C26.0540698,38.832 25.9348837,39.24 25.9825581,39.72 C26.0302326,40.2 26.2447674,40.584 26.6023256,40.848 C26.9122093,41.088 27.2697674,41.232 27.6511628,41.232 Z M22.0494186,37.248 C22.5261628,37.248 22.9552326,37.08 23.2889535,36.72 C24.8383721,35.064 25.6011628,33.096 25.6011628,30.864 C25.6011628,28.632 24.8383721,26.664 23.2889535,25.008 C22.9790698,24.672 22.5738372,24.48 22.097093,24.48 C21.6203488,24.456 21.2151163,24.624 20.8813953,24.936 C20.5476744,25.248 20.3569767,25.656 20.3569767,26.136 C20.3331395,26.616 20.5,27.024 20.8337209,27.384 C21.7633721,28.392 22.2162791,29.568 22.2162791,30.888 C22.2162791,32.208 21.7633721,33.384 20.8337209,34.392 C20.5,34.752 20.3331395,35.16 20.3569767,35.64 C20.380814,36.12 20.5476744,36.504 20.8813953,36.84 C21.2389535,37.104 21.6203488,37.248 22.0494186,37.248 Z" id="Shape"></path>
        </g>
    </g>
</svg>