<?xml version="1.0" encoding="utf-8"?>
<!-- Generator: Adobe Illustrator 18.1.1, SVG Export Plug-In . SVG Version: 6.00 Build 0)  -->
<svg version="1.1" id="Layer_1" xmlns="http://www.w3.org/2000/svg" xmlns:xlink="http://www.w3.org/1999/xlink" x="0px" y="0px"
	 viewBox="0 0 200 200" enable-background="new 0 0 200 200" xml:space="preserve">
<path d="M178.1,42.4c2.1,2.1,3.9,4.9,5.4,8.5c1.5,3.6,2.2,6.8,2.2,9.8v128.6c0,3-1,5.5-3.1,7.6S178,200,175,200H25
	c-3,0-5.5-1-7.6-3.1s-3.1-4.6-3.1-7.6V10.7c0-3,1-5.5,3.1-7.6S22,0,25,0h100c3,0,6.2,0.7,9.8,2.2s6.4,3.3,8.5,5.4L178.1,42.4z
	 M128.6,15.2v42h42c-0.7-2.2-1.6-3.7-2.5-4.6l-34.9-34.9C132.3,16.7,130.7,15.9,128.6,15.2z M171.4,185.7V71.4H125
	c-3,0-5.5-1-7.6-3.1s-3.1-4.6-3.1-7.6V14.3H28.6v171.4H171.4z M62.2,159.6v11.8h31.4v-11.8h-8.4l11.5-18c0.4-0.5,0.7-1.1,1.1-1.8
	c0.4-0.7,0.7-1.2,0.8-1.5s0.3-0.4,0.4-0.4h0.2c0.1,0.3,0.3,0.7,0.6,1.1c0.1,0.3,0.3,0.6,0.5,0.8c0.2,0.3,0.4,0.6,0.7,0.9
	s0.5,0.7,0.7,0.9l11.9,18h-8.5v11.8h32.5v-11.8H130l-21.4-30.5l21.8-31.5h7.5V85.7h-31.1v11.9h8.3l-11.5,17.7
	c-0.3,0.5-0.7,1.1-1.1,1.8s-0.8,1.2-1,1.5l-0.2,0.3h-0.2c-0.1-0.3-0.3-0.7-0.6-1.1c-0.4-0.8-1.1-1.7-1.9-2.6L86.6,97.7h8.5V85.7
	H62.7v11.9h7.6L91.4,128l-21.7,31.6H62.2z"/>
</svg>
