<?xml version="1.0" encoding="UTF-8" standalone="no"?>
<svg width="41px" height="48px" viewBox="0 0 41 48" version="1.1" xmlns="http://www.w3.org/2000/svg" xmlns:xlink="http://www.w3.org/1999/xlink">
    <!-- Generator: Sketch 49.3 (51167) - http://www.bohemiancoding.com/sketch -->
    <title>file-o</title>
    <desc>Created with Sketch.</desc>
    <defs></defs>
    <g id="Page-1" stroke="none" stroke-width="1" fill="none" fill-rule="evenodd">
        <g id="file-o" fill="#000000" fill-rule="nonzero">
            <path d="M39.1168605,10.176 C39.6174419,10.68 40.0465116,11.352 40.4040698,12.216 C40.7616279,13.08 40.9284884,13.848 40.9284884,14.568 L40.9284884,45.432 C40.9284884,46.152 40.6901163,46.752 40.1895349,47.256 C39.6889535,47.76 39.0930233,48 38.377907,48 L2.62209302,48 C1.90697674,48 1.31104651,47.76 0.810465116,47.256 C0.309883721,46.752 0.0715116279,46.152 0.0715116279,45.432 L0.0715116279,2.568 C0.0715116279,1.848 0.309883721,1.248 0.810465116,0.744 C1.31104651,0.24 1.90697674,0 2.62209302,0 L26.4593023,0 C27.1744186,0 27.9372093,0.168 28.7953488,0.528 C29.6534884,0.888 30.3209302,1.32 30.8215116,1.824 L39.1168605,10.176 Z M27.3174419,3.648 L27.3174419,13.728 L37.3290698,13.728 C37.1622093,13.2 36.9476744,12.84 36.7331395,12.624 L28.4139535,4.248 C28.1994186,4.008 27.8180233,3.816 27.3174419,3.648 Z M37.5197674,44.568 L37.5197674,17.136 L26.4593023,17.136 C25.744186,17.136 25.1482558,16.896 24.6476744,16.392 C24.147093,15.888 23.9087209,15.288 23.9087209,14.568 L23.9087209,3.432 L3.48023256,3.432 L3.48023256,44.568 L37.5197674,44.568 Z" id="Shape"></path>
        </g>
    </g>
</svg>