<?xml version="1.0" encoding="utf-8"?>
<!-- Generator: Adobe Illustrator 18.1.1, SVG Export Plug-In . SVG Version: 6.00 Build 0)  -->
<svg version="1.1" id="Layer_1" xmlns="http://www.w3.org/2000/svg" xmlns:xlink="http://www.w3.org/1999/xlink" x="0px" y="0px"
	 viewBox="0 0 200 200" enable-background="new 0 0 200 200" xml:space="preserve">
<path d="M178.1,42.4c2.1,2.1,3.9,4.9,5.4,8.5c1.5,3.6,2.2,6.8,2.2,9.8v128.6c0,3-1,5.5-3.1,7.6S178,200,175,200H25
	c-3,0-5.5-1-7.6-3.1s-3.1-4.6-3.1-7.6V10.7c0-3,1-5.5,3.1-7.6S22,0,25,0h100c3,0,6.2,0.7,9.8,2.2s6.4,3.3,8.5,5.4L178.1,42.4z
	 M128.6,15.2v42h42c-0.7-2.2-1.6-3.7-2.5-4.6l-34.9-34.9C132.3,16.7,130.7,15.9,128.6,15.2z M171.4,185.7V71.4H125
	c-3,0-5.5-1-7.6-3.1s-3.1-4.6-3.1-7.6V14.3H28.6v171.4H171.4z M40.3,85.7v11.9h7.8l18.3,73.8h17.7l14.3-54.1
	c0.5-1.5,0.9-3.2,1.1-5.1c0.1-1.2,0.2-2.1,0.2-2.7h0.4l0.3,2.7c0.1,0.2,0.2,1,0.4,2.2c0.2,1.3,0.4,2.2,0.6,2.9l14.3,54.1h17.7
	l18.3-73.8h7.8V85.7h-33.5v11.9h10l-11,48.9c-0.4,1.5-0.6,3.2-0.8,5.1l-0.2,2.3h-0.4l-0.3-2.3c-0.1-0.4-0.2-1.2-0.4-2.3
	c-0.2-1.2-0.4-2.1-0.6-2.8l-16.1-60.8H93.6l-16.1,60.8c-0.1,0.7-0.3,1.6-0.5,2.7c-0.2,1.2-0.3,2-0.4,2.4l-0.4,2.3h-0.4l-0.2-2.3
	c-0.1-1.9-0.4-3.6-0.8-5.1l-11-48.9h10V85.7H40.3z"/>
</svg>
