<?xml version="1.0" encoding="UTF-8" standalone="no"?>
<svg width="41px" height="48px" viewBox="0 0 41 48" version="1.1" xmlns="http://www.w3.org/2000/svg" xmlns:xlink="http://www.w3.org/1999/xlink">
    <!-- Generator: Sketch 49.3 (51167) - http://www.bohemiancoding.com/sketch -->
    <title>file-powerpoint-o</title>
    <desc>Created with Sketch.</desc>
    <defs></defs>
    <g id="Page-1" stroke="none" stroke-width="1" fill="none" fill-rule="evenodd">
        <g id="file-powerpoint-o" fill="#000000" fill-rule="nonzero">
            <path d="M39.1168605,10.176 C39.6174419,10.68 40.0465116,11.352 40.4040698,12.216 C40.7616279,13.08 40.9284884,13.848 40.9284884,14.568 L40.9284884,45.432 C40.9284884,46.152 40.6901163,46.752 40.1895349,47.256 C39.6889535,47.76 39.0930233,48 38.377907,48 L2.62209302,48 C1.90697674,48 1.31104651,47.76 0.810465116,47.256 C0.309883721,46.752 0.0715116279,46.152 0.0715116279,45.432 L0.0715116279,2.568 C0.0715116279,1.848 0.309883721,1.248 0.810465116,0.744 C1.31104651,0.24 1.90697674,0 2.62209302,0 L26.4593023,0 C27.1744186,0 27.9372093,0.168 28.7953488,0.528 C29.6534884,0.888 30.3209302,1.32 30.8215116,1.824 L39.1168605,10.176 Z M27.3174419,3.648 L27.3174419,13.728 L37.3290698,13.728 C37.1622093,13.2 36.9476744,12.84 36.7331395,12.624 L28.4139535,4.248 C28.1994186,4.008 27.8180233,3.816 27.3174419,3.648 Z M37.5197674,44.568 L37.5197674,17.136 L26.4593023,17.136 C25.744186,17.136 25.1482558,16.896 24.6476744,16.392 C24.147093,15.888 23.9087209,15.288 23.9087209,14.568 L23.9087209,3.432 L3.48023256,3.432 L3.48023256,44.568 L37.5197674,44.568 Z M11.1319767,38.304 L11.1319767,41.136 L19.8325581,41.136 L19.8325581,38.304 L17.3534884,38.304 L17.3534884,33.84 L21.0005814,33.84 C22.3593023,33.84 23.3843023,33.696 24.147093,33.432 C25.3389535,33.024 26.2686047,32.256 26.9837209,31.104 C27.6988372,29.952 28.0325581,28.656 28.0325581,27.192 C28.0325581,25.752 27.6988372,24.48 27.0552326,23.424 C26.3877907,22.344 25.505814,21.576 24.3854651,21.096 C23.5273256,20.76 22.3831395,20.592 20.9290698,20.592 L11.1319767,20.592 L11.1319767,23.448 L13.5872093,23.448 L13.5872093,38.304 L11.1319767,38.304 Z M20.5238372,30.792 L17.3534884,30.792 L17.3534884,23.616 L20.5476744,23.616 C21.4773256,23.616 22.2162791,23.784 22.7645349,24.096 C23.7656977,24.696 24.2424419,25.704 24.2424419,27.168 C24.2424419,28.752 23.694186,29.832 22.5976744,30.384 C22.0494186,30.672 21.3581395,30.792 20.5238372,30.792 Z" id="Shape"></path>
        </g>
    </g>
</svg>