<?xml version="1.0" encoding="UTF-8" standalone="no"?>
<svg width="41px" height="48px" viewBox="0 0 41 48" version="1.1" xmlns="http://www.w3.org/2000/svg" xmlns:xlink="http://www.w3.org/1999/xlink">
    <!-- Generator: Sketch 49.3 (51167) - http://www.bohemiancoding.com/sketch -->
    <title>file-word-o</title>
    <desc>Created with Sketch.</desc>
    <defs></defs>
    <g id="Page-1" stroke="none" stroke-width="1" fill="none" fill-rule="evenodd">
        <g id="file-word-o" fill="#000000" fill-rule="nonzero">
            <path d="M39.1168605,10.176 C39.6174419,10.68 40.0465116,11.352 40.4040698,12.216 C40.7616279,13.08 40.9284884,13.848 40.9284884,14.568 L40.9284884,45.432 C40.9284884,46.152 40.6901163,46.752 40.1895349,47.256 C39.6889535,47.76 39.0930233,48 38.377907,48 L2.62209302,48 C1.90697674,48 1.31104651,47.76 0.810465116,47.256 C0.309883721,46.752 0.0715116279,46.152 0.0715116279,45.432 L0.0715116279,2.568 C0.0715116279,1.848 0.309883721,1.248 0.810465116,0.744 C1.31104651,0.24 1.90697674,0 2.62209302,0 L26.4593023,0 C27.1744186,0 27.9372093,0.168 28.7953488,0.528 C29.6534884,0.888 30.3209302,1.32 30.8215116,1.824 L39.1168605,10.176 Z M27.3174419,3.648 L27.3174419,13.728 L37.3290698,13.728 C37.1622093,13.2 36.9476744,12.84 36.7331395,12.624 L28.4139535,4.248 C28.1994186,4.008 27.8180233,3.816 27.3174419,3.648 Z M37.5197674,44.568 L37.5197674,17.136 L26.4593023,17.136 C25.744186,17.136 25.1482558,16.896 24.6476744,16.392 C24.147093,15.888 23.9087209,15.288 23.9087209,14.568 L23.9087209,3.432 L3.48023256,3.432 L3.48023256,44.568 L37.5197674,44.568 Z M6.26918605,20.568 L6.26918605,23.424 L8.12848837,23.424 L12.4906977,41.136 L16.7098837,41.136 L20.1186047,28.152 C20.2377907,27.792 20.3331395,27.384 20.380814,26.928 C20.4046512,26.64 20.4284884,26.424 20.4284884,26.28 L20.5238372,26.28 L20.5953488,26.928 C20.619186,26.976 20.6430233,27.168 20.6906977,27.456 C20.7383721,27.768 20.7860465,27.984 20.8337209,28.152 L24.2424419,41.136 L28.4616279,41.136 L32.8238372,23.424 L34.6831395,23.424 L34.6831395,20.568 L26.6976744,20.568 L26.6976744,23.424 L29.0813953,23.424 L26.4593023,35.16 C26.3639535,35.52 26.3162791,35.928 26.2686047,36.384 L26.2209302,36.936 L26.1255814,36.936 L26.0540698,36.384 C26.0302326,36.288 26.0063953,36.096 25.9587209,35.832 C25.9110465,35.544 25.8633721,35.328 25.8156977,35.16 L21.977907,20.568 L18.9744186,20.568 L15.1366279,35.16 C15.1127907,35.328 15.0651163,35.544 15.0174419,35.808 C14.9697674,36.096 14.9459302,36.288 14.922093,36.384 L14.8267442,36.936 L14.7313953,36.936 L14.6837209,36.384 C14.6598837,35.928 14.5883721,35.52 14.4930233,35.16 L11.8709302,23.424 L14.2546512,23.424 L14.2546512,20.568 L6.26918605,20.568 Z" id="Shape"></path>
        </g>
    </g>
</svg>