<?xml version="1.0" encoding="UTF-8" standalone="no"?>
<svg width="41px" height="48px" viewBox="0 0 41 48" version="1.1" xmlns="http://www.w3.org/2000/svg" xmlns:xlink="http://www.w3.org/1999/xlink">
    <!-- Generator: Sketch 49.3 (51167) - http://www.bohemiancoding.com/sketch -->
    <title>file-excel-o</title>
    <desc>Created with Sketch.</desc>
    <defs></defs>
    <g id="Page-1" stroke="none" stroke-width="1" fill="none" fill-rule="evenodd">
        <g id="file-excel-o" fill="#000000" fill-rule="nonzero">
            <path d="M39.1168605,10.176 C39.6174419,10.68 40.0465116,11.352 40.4040698,12.216 C40.7616279,13.08 40.9284884,13.848 40.9284884,14.568 L40.9284884,45.432 C40.9284884,46.152 40.6901163,46.752 40.1895349,47.256 C39.6889535,47.76 39.0930233,48 38.377907,48 L2.62209302,48 C1.90697674,48 1.31104651,47.76 0.810465116,47.256 C0.309883721,46.752 0.0715116279,46.152 0.0715116279,45.432 L0.0715116279,2.568 C0.0715116279,1.848 0.309883721,1.248 0.810465116,0.744 C1.31104651,0.24 1.90697674,0 2.62209302,0 L26.4593023,0 C27.1744186,0 27.9372093,0.168 28.7953488,0.528 C29.6534884,0.888 30.3209302,1.32 30.8215116,1.824 L39.1168605,10.176 Z M27.3174419,3.648 L27.3174419,13.728 L37.3290698,13.728 C37.1622093,13.2 36.9476744,12.84 36.7331395,12.624 L28.4139535,4.248 C28.1994186,4.008 27.8180233,3.816 27.3174419,3.648 Z M37.5197674,44.568 L37.5197674,17.136 L26.4593023,17.136 C25.744186,17.136 25.1482558,16.896 24.6476744,16.392 C24.147093,15.888 23.9087209,15.288 23.9087209,14.568 L23.9087209,3.432 L3.48023256,3.432 L3.48023256,44.568 L37.5197674,44.568 Z M11.4895349,38.304 L11.4895349,41.136 L18.9744186,41.136 L18.9744186,38.304 L16.972093,38.304 L19.7133721,33.984 C19.8087209,33.864 19.8802326,33.72 19.9755814,33.552 C20.0709302,33.384 20.1424419,33.264 20.1662791,33.192 C20.1901163,33.12 20.2377907,33.096 20.2616279,33.096 L20.3093023,33.096 C20.3331395,33.168 20.380814,33.264 20.4523256,33.36 C20.4761628,33.432 20.5238372,33.504 20.5715116,33.552 C20.619186,33.624 20.6668605,33.696 20.7383721,33.768 C20.8098837,33.84 20.8575581,33.936 20.9052326,33.984 L23.7418605,38.304 L21.7156977,38.304 L21.7156977,41.136 L29.4627907,41.136 L29.4627907,38.304 L27.6511628,38.304 L22.55,30.984 L27.7465116,23.424 L29.5343023,23.424 L29.5343023,20.568 L22.1209302,20.568 L22.1209302,23.424 L24.0994186,23.424 L21.3581395,27.672 C21.2866279,27.792 21.1912791,27.936 21.0959302,28.104 C21.0005814,28.272 20.9052326,28.392 20.8575581,28.464 L20.8098837,28.536 L20.7622093,28.536 C20.7383721,28.464 20.6906977,28.368 20.619186,28.272 C20.5238372,28.08 20.3569767,27.864 20.1662791,27.648 L17.305814,23.448 L19.3319767,23.448 L19.3319767,20.568 L11.6087209,20.568 L11.6087209,23.424 L13.4203488,23.424 L18.45,30.72 L13.2773256,38.304 L11.4895349,38.304 Z" id="Shape"></path>
        </g>
    </g>
</svg>