<?xml version="1.0" encoding="utf-8"?>
<!-- Generator: Adobe Illustrator 18.1.1, SVG Export Plug-In . SVG Version: 6.00 Build 0)  -->
<svg version="1.1" id="Layer_1" xmlns="http://www.w3.org/2000/svg" xmlns:xlink="http://www.w3.org/1999/xlink" x="0px" y="0px"
	 viewBox="0 0 200 200" enable-background="new 0 0 200 200" xml:space="preserve">
<path d="M85.7,42.9V28.6H71.4v14.3H85.7z M100,57.1V42.9H85.7v14.3H100z M85.7,71.4V57.1H71.4v14.3H85.7z M100,85.7V71.4H85.7v14.3
	H100z M178.1,42.4c2.1,2.1,3.9,4.9,5.4,8.5c1.5,3.6,2.2,6.8,2.2,9.8v128.6c0,3-1,5.5-3.1,7.6S178,200,175,200H25c-3,0-5.5-1-7.6-3.1
	s-3.1-4.6-3.1-7.6V10.7c0-3,1-5.5,3.1-7.6S22,0,25,0h100c3,0,6.2,0.7,9.8,2.2s6.4,3.3,8.5,5.4L178.1,42.4z M128.6,15.2v42h42
	c-0.7-2.2-1.6-3.7-2.5-4.6l-34.9-34.9C132.3,16.7,130.7,15.9,128.6,15.2z M171.4,185.7V71.4H125c-3,0-5.5-1-7.6-3.1
	s-3.1-4.6-3.1-7.6V14.3H100v14.3H85.7V14.3H28.6v171.4H171.4z M101.5,105.2l11.9,39c0.6,2,0.9,3.9,0.9,5.8c0,6.2-2.7,11.3-8.1,15.3
	c-5.4,4.1-12.2,6.1-20.5,6.1s-15.1-2-20.5-6.1c-5.4-4.1-8.1-9.2-8.1-15.3c0-1.9,0.3-3.8,0.9-5.8c1.6-4.7,6-19.4,13.4-44.2V85.7h14.3
	V100h8.8c1.6,0,3.1,0.5,4.4,1.5C100.1,102.4,101,103.7,101.5,105.2z M85.7,157.1c3.9,0,7.3-0.7,10.1-2.1c2.8-1.4,4.2-3.1,4.2-5
	s-1.4-3.6-4.2-5c-2.8-1.4-6.2-2.1-10.1-2.1s-7.3,0.7-10.1,2.1s-4.2,3.1-4.2,5s1.4,3.6,4.2,5S81.8,157.1,85.7,157.1z"/>
</svg>
