<?xml version="1.0" encoding="UTF-8" standalone="no"?>
<svg width="41px" height="48px" viewBox="0 0 41 48" version="1.1" xmlns="http://www.w3.org/2000/svg" xmlns:xlink="http://www.w3.org/1999/xlink">
    <!-- Generator: Sketch 49.3 (51167) - http://www.bohemiancoding.com/sketch -->
    <title>file-pdf-o</title>
    <desc>Created with Sketch.</desc>
    <defs></defs>
    <g id="Page-1" stroke="none" stroke-width="1" fill="none" fill-rule="evenodd">
        <g id="file-pdf-o" fill="#000000" fill-rule="nonzero">
            <path d="M39.1168605,10.176 C39.6174419,10.68 40.0465116,11.352 40.4040698,12.216 C40.7616279,13.08 40.9284884,13.848 40.9284884,14.568 L40.9284884,45.432 C40.9284884,46.152 40.6901163,46.752 40.1895349,47.256 C39.6889535,47.76 39.0930233,48 38.377907,48 L2.62209302,48 C1.90697674,48 1.31104651,47.76 0.810465116,47.256 C0.309883721,46.752 0.0715116279,46.152 0.0715116279,45.432 L0.0715116279,2.568 C0.0715116279,1.848 0.309883721,1.248 0.810465116,0.744 C1.31104651,0.24 1.90697674,0 2.62209302,0 L26.4593023,0 C27.1744186,0 27.9372093,0.168 28.7953488,0.528 C29.6534884,0.888 30.3209302,1.32 30.8215116,1.824 L39.1168605,10.176 Z M27.3174419,3.648 L27.3174419,13.728 L37.3290698,13.728 C37.1622093,13.2 36.9476744,12.84 36.7331395,12.624 L28.4139535,4.248 C28.1994186,4.008 27.8180233,3.816 27.3174419,3.648 Z M37.5197674,44.568 L37.5197674,17.136 L26.4593023,17.136 C25.744186,17.136 25.1482558,16.896 24.6476744,16.392 C24.147093,15.888 23.9087209,15.288 23.9087209,14.568 L23.9087209,3.432 L3.48023256,3.432 L3.48023256,44.568 L37.5197674,44.568 Z M23.8610465,28.68 C24.4569767,29.136 25.1959302,29.64 26.1017442,30.168 C27.1505814,30.048 28.1755814,29.976 29.2244186,29.976 C31.8226744,29.976 33.3959302,30.408 33.944186,31.296 C34.2302326,31.68 34.2540698,32.16 33.9918605,32.688 C33.9918605,32.712 33.9918605,32.712 33.9680233,32.736 L33.9203488,32.784 L33.9203488,32.808 C33.825,33.48 33.1813953,33.816 32.0372093,33.816 C31.1790698,33.816 30.177907,33.648 28.9860465,33.288 C27.794186,32.928 26.65,32.448 25.5296512,31.872 C21.6203488,32.304 18.1401163,33.048 15.0889535,34.104 C12.3715116,38.784 10.2261628,41.112 8.65290698,41.112 C8.39069767,41.112 8.12848837,41.04 7.91395349,40.92 L7.27034884,40.608 C7.24651163,40.584 7.19883721,40.536 7.10348837,40.464 C6.93662791,40.296 6.86511628,39.96 6.93662791,39.504 C7.10348837,38.784 7.60406977,37.968 8.41453488,37.056 C9.24883721,36.144 10.4168605,35.28 11.9186047,34.464 C12.1569767,34.296 12.3715116,34.368 12.5383721,34.632 C12.5622093,34.656 12.5860465,34.704 12.5860465,34.728 C13.5156977,33.216 14.4453488,31.44 15.4226744,29.448 C16.6383721,27.024 17.544186,24.672 18.1877907,22.44 C17.7587209,20.976 17.4965116,19.56 17.3773256,18.168 C17.2581395,16.776 17.3296512,15.648 17.544186,14.76 C17.7348837,14.04 18.1162791,13.68 18.6645349,13.68 L19.2604651,13.68 C19.6656977,13.68 19.9755814,13.824 20.1901163,14.088 C20.5,14.472 20.5953488,15.072 20.4284884,15.912 C20.4046512,16.008 20.3569767,16.08 20.3331395,16.128 C20.3569767,16.176 20.3569767,16.248 20.3569767,16.344 L20.3569767,17.136 C20.3331395,19.344 20.1901163,21.048 19.9755814,22.272 C20.952907,25.248 22.2401163,27.36 23.8610465,28.68 Z M8.53372093,39.696 C9.46337209,39.264 10.6790698,37.848 12.180814,35.472 C11.275,36.192 10.5122093,36.936 9.84476744,37.728 C9.20116279,38.496 8.74825581,39.168 8.53372093,39.696 Z M19.1174419,15.048 C18.8552326,15.792 18.8313953,16.968 19.0697674,18.576 C19.0936047,18.456 19.1412791,18.048 19.2604651,17.4 C19.2604651,17.352 19.3319767,16.968 19.4511628,16.248 C19.475,16.176 19.4988372,16.104 19.5465116,16.032 C19.5226744,16.008 19.5226744,16.008 19.5226744,15.984 C19.5226744,15.96 19.5226744,15.96 19.4988372,15.936 C19.4988372,15.936 19.475,15.912 19.475,15.888 C19.4511628,15.504 19.3319767,15.168 19.1174419,14.928 C19.1174419,14.952 19.1174419,14.952 19.0936047,14.976 L19.0936047,15.048 L19.1174419,15.048 Z M15.827907,32.76 C18.2116279,31.8 20.7383721,31.08 23.3843023,30.6 C23.3604651,30.576 23.2412791,30.504 23.0267442,30.336 C22.8122093,30.168 22.6930233,30.072 22.5976744,29.976 C21.2389535,28.776 20.1186047,27.216 19.2127907,25.272 C18.7360465,26.808 17.997093,28.56 16.9959302,30.552 C16.4715116,31.536 16.0901163,32.28 15.827907,32.76 Z M33.0145349,32.328 C32.5854651,31.896 31.3459302,31.68 29.2959302,31.68 C30.6546512,32.184 31.7511628,32.424 32.5854651,32.424 C32.8238372,32.424 32.9906977,32.424 33.0622093,32.4 C33.0622093,32.4 33.0383721,32.376 33.0145349,32.328 Z" id="Shape"></path>
        </g>
    </g>
</svg>