<?xml version="1.0" encoding="UTF-8" standalone="no"?>
<svg width="41px" height="48px" viewBox="0 0 41 48" version="1.1" xmlns="http://www.w3.org/2000/svg" xmlns:xlink="http://www.w3.org/1999/xlink">
    <!-- Generator: Sketch 49.3 (51167) - http://www.bohemiancoding.com/sketch -->
    <title>file-code-o</title>
    <desc>Created with Sketch.</desc>
    <defs></defs>
    <g id="Page-1" stroke="none" stroke-width="1" fill="none" fill-rule="evenodd">
        <g id="file-code-o" fill="#000000" fill-rule="nonzero">
            <path d="M39.1168605,10.176 C39.6174419,10.68 40.0465116,11.352 40.4040698,12.216 C40.7616279,13.08 40.9284884,13.848 40.9284884,14.568 L40.9284884,45.432 C40.9284884,46.152 40.6901163,46.752 40.1895349,47.256 C39.6889535,47.76 39.0930233,48 38.377907,48 L2.62209302,48 C1.90697674,48 1.31104651,47.76 0.810465116,47.256 C0.309883721,46.752 0.0715116279,46.152 0.0715116279,45.432 L0.0715116279,2.568 C0.0715116279,1.848 0.309883721,1.248 0.810465116,0.744 C1.31104651,0.24 1.90697674,0 2.62209302,0 L26.4593023,0 C27.1744186,0 27.9372093,0.168 28.7953488,0.528 C29.6534884,0.888 30.3209302,1.32 30.8215116,1.824 L39.1168605,10.176 Z M27.3174419,3.648 L27.3174419,13.728 L37.3290698,13.728 C37.1622093,13.2 36.9476744,12.84 36.7331395,12.624 L28.4139535,4.248 C28.1994186,4.008 27.8180233,3.816 27.3174419,3.648 Z M37.5197674,44.568 L37.5197674,17.136 L26.4593023,17.136 C25.744186,17.136 25.1482558,16.896 24.6476744,16.392 C24.147093,15.888 23.9087209,15.288 23.9087209,14.568 L23.9087209,3.432 L3.48023256,3.432 L3.48023256,44.568 L37.5197674,44.568 Z M12.8482558,20.568 C12.9912791,20.376 13.1819767,20.256 13.3965116,20.232 C13.6348837,20.208 13.8494186,20.256 14.0401163,20.4 L15.3988372,21.408 C15.5895349,21.552 15.7087209,21.744 15.7325581,21.96 C15.7563953,22.2 15.7087209,22.416 15.5656977,22.608 L10.7267442,29.112 L15.5656977,35.616 C15.7087209,35.808 15.7563953,36.024 15.7325581,36.264 C15.7087209,36.504 15.5895349,36.672 15.3988372,36.816 L14.0401163,37.824 C13.8494186,37.968 13.6348837,38.016 13.3965116,37.992 C13.1581395,37.968 12.9912791,37.848 12.8482558,37.656 L6.84127907,29.592 C6.60290698,29.256 6.60290698,28.92 6.84127907,28.584 L12.8482558,20.568 Z M34.1825581,28.632 C34.4209302,28.968 34.4209302,29.304 34.1825581,29.64 L28.1755814,37.704 C28.0325581,37.896 27.8418605,38.016 27.6273256,38.04 C27.4127907,38.064 27.1744186,38.016 26.9837209,37.872 L25.625,36.864 C25.4343023,36.72 25.3151163,36.528 25.2912791,36.312 C25.2674419,36.072 25.3151163,35.856 25.4581395,35.664 L30.297093,29.16 L25.4581395,22.656 C25.3151163,22.464 25.2674419,22.248 25.2912791,22.008 C25.3151163,21.768 25.4343023,21.6 25.625,21.456 L26.9837209,20.448 C27.1744186,20.304 27.3889535,20.256 27.6273256,20.28 C27.8656977,20.304 28.0325581,20.424 28.1755814,20.616 L34.1825581,28.632 Z M17.6872093,40.992 C17.4488372,40.968 17.2819767,40.848 17.1389535,40.632 C16.9959302,40.44 16.9482558,40.224 16.9959302,39.984 L20.6668605,17.736 C20.6906977,17.496 20.8098837,17.328 21.0244186,17.184 C21.2151163,17.04 21.4296512,16.992 21.6680233,17.04 L23.3366279,17.304 C23.575,17.328 23.7418605,17.448 23.8848837,17.664 C24.027907,17.856 24.0755814,18.072 24.027907,18.312 L20.3331395,40.56 C20.3093023,40.8 20.1901163,40.968 19.9755814,41.112 C19.7848837,41.256 19.5703488,41.304 19.3319767,41.256 L17.6872093,40.992 Z" id="Shape"></path>
        </g>
    </g>
</svg>