<?xml version="1.0" encoding="utf-8"?>
<!-- Generator: Adobe Illustrator 18.1.1, SVG Export Plug-In . SVG Version: 6.00 Build 0)  -->
<svg version="1.1" id="Layer_1" xmlns="http://www.w3.org/2000/svg" xmlns:xlink="http://www.w3.org/1999/xlink" x="0px" y="0px"
	 viewBox="0 0 200 200" enable-background="new 0 0 200 200" xml:space="preserve">
<path d="M178.1,42.4c2.1,2.1,3.9,4.9,5.4,8.5c1.5,3.6,2.2,6.8,2.2,9.8v128.6c0,3-1,5.5-3.1,7.6S178,200,175,200H25
	c-3,0-5.5-1-7.6-3.1s-3.1-4.6-3.1-7.6V10.7c0-3,1-5.5,3.1-7.6S22,0,25,0h100c3,0,6.2,0.7,9.8,2.2s6.4,3.3,8.5,5.4L178.1,42.4z
	 M128.6,15.2v42h42c-0.7-2.2-1.6-3.7-2.5-4.6l-34.9-34.9C132.3,16.7,130.7,15.9,128.6,15.2z M171.4,185.7V71.4H125
	c-3,0-5.5-1-7.6-3.1s-3.1-4.6-3.1-7.6V14.3H28.6v171.4H171.4z M114.1,119.5c2.5,1.9,5.6,4,9.4,6.2c4.4-0.5,8.7-0.8,13.1-0.8
	c10.9,0,17.5,1.8,19.8,5.5c1.2,1.6,1.3,3.6,0.2,5.8c0,0.1,0,0.1-0.1,0.2l-0.2,0.2v0.1c-0.4,2.8-3.1,4.2-7.9,4.2
	c-3.6,0-7.8-0.7-12.8-2.2c-5-1.5-9.8-3.5-14.5-5.9c-16.4,1.8-31,4.9-43.8,9.3c-11.4,19.5-20.4,29.2-27,29.2c-1.1,0-2.2-0.3-3.1-0.8
	l-2.7-1.3c-0.1-0.1-0.3-0.3-0.7-0.6c-0.7-0.7-1-2.1-0.7-4c0.7-3,2.8-6.4,6.2-10.2c3.5-3.8,8.4-7.4,14.7-10.8c1-0.7,1.9-0.4,2.6,0.7
	c0.1,0.1,0.2,0.3,0.2,0.4c3.9-6.3,7.8-13.7,11.9-22c5.1-10.1,8.9-19.9,11.6-29.2c-1.8-6.1-2.9-12-3.4-17.8s-0.2-10.5,0.7-14.2
	c0.8-3,2.4-4.5,4.7-4.5h2.5c1.7,0,3,0.6,3.9,1.7c1.3,1.6,1.7,4.1,1,7.6c-0.1,0.4-0.3,0.7-0.4,0.9c0.1,0.2,0.1,0.5,0.1,0.9v3.3
	c-0.1,9.2-0.7,16.3-1.6,21.4C101.9,105.2,107.3,114,114.1,119.5z M49.8,165.4c3.9-1.8,9-7.7,15.3-17.6c-3.8,3-7,6.1-9.8,9.4
	C52.6,160.4,50.7,163.2,49.8,165.4z M94.2,62.7c-1.1,3.1-1.2,8-0.2,14.7c0.1-0.5,0.3-2.2,0.8-4.9c0-0.2,0.3-1.8,0.8-4.8
	c0.1-0.3,0.2-0.6,0.4-0.9c-0.1-0.1-0.1-0.1-0.1-0.2s0-0.1-0.1-0.2c0,0-0.1-0.1-0.1-0.2c-0.1-1.6-0.6-3-1.5-4c0,0.1,0,0.1-0.1,0.2
	V62.7z M80.4,136.5c10-4,20.6-7,31.7-9c-0.1-0.1-0.6-0.4-1.5-1.1s-1.4-1.1-1.8-1.5c-5.7-5-10.4-11.5-14.2-19.6
	c-2,6.4-5.1,13.7-9.3,22C83.1,131.4,81.5,134.5,80.4,136.5z M152.5,134.7c-1.8-1.8-7-2.7-15.6-2.7c5.7,2.1,10.3,3.1,13.8,3.1
	c1,0,1.7,0,2-0.1C152.7,135,152.6,134.9,152.5,134.7z"/>
</svg>
