<?xml version="1.0" encoding="utf-8"?>
<!-- Generator: Adobe Illustrator 18.1.1, SVG Export Plug-In . SVG Version: 6.00 Build 0)  -->
<svg version="1.1" id="Layer_1" xmlns="http://www.w3.org/2000/svg" xmlns:xlink="http://www.w3.org/1999/xlink" x="0px" y="0px"
	 viewBox="0 0 200 200" enable-background="new 0 0 200 200" xml:space="preserve">
<path d="M178.1,42.4c2.1,2.1,3.9,4.9,5.4,8.5c1.5,3.6,2.2,6.8,2.2,9.8v128.6c0,3-1,5.5-3.1,7.6S178,200,175,200H25
	c-3,0-5.5-1-7.6-3.1s-3.1-4.6-3.1-7.6V10.7c0-3,1-5.5,3.1-7.6S22,0,25,0h100c3,0,6.2,0.7,9.8,2.2s6.4,3.3,8.5,5.4L178.1,42.4z
	 M128.6,15.2v42h42c-0.7-2.2-1.6-3.7-2.5-4.6l-34.9-34.9C132.3,16.7,130.7,15.9,128.6,15.2z M171.4,185.7V71.4H125
	c-3,0-5.5-1-7.6-3.1s-3.1-4.6-3.1-7.6V14.3H28.6v171.4H171.4z M67.9,85.7c0.6-0.8,1.4-1.3,2.3-1.4c1-0.1,1.9,0.1,2.7,0.7l5.7,4.2
	c0.8,0.6,1.3,1.4,1.4,2.3c0.1,1-0.1,1.9-0.7,2.7l-20.3,27.1l20.3,27.1c0.6,0.8,0.8,1.7,0.7,2.7c-0.1,1-0.6,1.7-1.4,2.3l-5.7,4.2
	c-0.8,0.6-1.7,0.8-2.7,0.7c-1-0.1-1.7-0.6-2.3-1.4l-25.2-33.6c-1-1.4-1-2.8,0-4.2L67.9,85.7z M157.4,119.3c1,1.4,1,2.8,0,4.2
	l-25.2,33.6c-0.6,0.8-1.4,1.3-2.3,1.4s-1.9-0.1-2.7-0.7l-5.7-4.2c-0.8-0.6-1.3-1.4-1.4-2.3c-0.1-1,0.1-1.9,0.7-2.7l20.3-27.1
	l-20.3-27.1c-0.6-0.8-0.8-1.7-0.7-2.7c0.1-1,0.6-1.7,1.4-2.3l5.7-4.2c0.8-0.6,1.7-0.8,2.7-0.7c1,0.1,1.7,0.6,2.3,1.4L157.4,119.3z
	 M88.2,170.8c-1-0.1-1.7-0.6-2.3-1.5c-0.6-0.8-0.8-1.7-0.6-2.7l15.4-92.7c0.1-1,0.6-1.7,1.5-2.3c0.8-0.6,1.7-0.8,2.7-0.6l7,1.1
	c1,0.1,1.7,0.6,2.3,1.5c0.6,0.8,0.8,1.7,0.6,2.7L99.3,169c-0.1,1-0.6,1.7-1.5,2.3c-0.8,0.6-1.7,0.8-2.7,0.6L88.2,170.8z"/>
</svg>
