<?xml version="1.0" encoding="UTF-8" standalone="no"?>
<svg width="42px" height="48px" viewBox="0 0 42 48" version="1.1" xmlns="http://www.w3.org/2000/svg" xmlns:xlink="http://www.w3.org/1999/xlink">
    <!-- Generator: Sketch 49.3 (51167) - http://www.bohemiancoding.com/sketch -->
    <title>file-text-o</title>
    <desc>Created with Sketch.</desc>
    <defs></defs>
    <g id="Page-1" stroke="none" stroke-width="1" fill="none" fill-rule="evenodd">
        <g id="file-text-o" fill="#000000" fill-rule="nonzero">
            <path d="M39.75,10.2 C40.275,10.725 40.65,11.4 41.025,12.225 C41.4,13.05 41.55,13.875 41.55,14.55 L41.55,45.375 C41.55,46.125 41.325,46.725 40.8,47.175 C40.275,47.7 39.675,47.925 39,47.925 L3,47.925 C2.25,47.925 1.65,47.7 1.2,47.175 C0.75,46.65 0.45,46.05 0.45,45.375 L0.45,2.55 C0.45,1.8 0.675,1.2 1.2,0.75 C1.725,0.3 2.25,0 3,0 L27,0 C27.75,0 28.5,0.15 29.325,0.525 C30.15,0.9 30.825,1.275 31.35,1.8 L39.75,10.2 Z M27.825,3.675 L27.825,13.725 L37.875,13.725 C37.725,13.2 37.5,12.825 37.275,12.6 L28.95,4.2 C28.725,4.05 28.35,3.825 27.825,3.675 Z M38.175,44.55 L38.175,17.175 L27,17.175 C26.25,17.175 25.65,16.95 25.2,16.425 C24.675,15.9 24.45,15.3 24.45,14.625 L24.45,3.45 L3.825,3.45 L3.825,44.625 L38.175,44.625 L38.175,44.55 Z M10.725,21.45 C10.725,21.225 10.8,21 10.95,20.85 C11.1,20.7 11.325,20.625 11.55,20.625 L30.375,20.625 C30.6,20.625 30.825,20.7 30.975,20.85 C31.125,21 31.2,21.225 31.2,21.45 L31.2,23.175 C31.2,23.4 31.125,23.625 30.975,23.775 C30.825,23.925 30.6,24 30.375,24 L11.55,24 C11.325,24 11.1,23.925 10.95,23.775 C10.8,23.625 10.725,23.4 10.725,23.175 L10.725,21.45 Z M30.45,27.45 C30.675,27.45 30.9,27.525 31.05,27.675 C31.2,27.825 31.275,28.05 31.275,28.275 L31.275,30 C31.275,30.225 31.2,30.45 31.05,30.6 C30.9,30.75 30.675,30.825 30.45,30.825 L11.55,30.825 C11.325,30.825 11.1,30.75 10.95,30.6 C10.8,30.45 10.725,30.225 10.725,30 L10.725,28.275 C10.725,28.05 10.8,27.825 10.95,27.675 C11.1,27.525 11.325,27.45 11.55,27.45 L30.45,27.45 Z M30.45,34.275 C30.675,34.275 30.9,34.35 31.05,34.5 C31.2,34.65 31.275,34.875 31.275,35.1 L31.275,36.825 C31.275,37.05 31.2,37.275 31.05,37.425 C30.9,37.575 30.675,37.65 30.45,37.65 L11.55,37.65 C11.325,37.65 11.1,37.575 10.95,37.425 C10.8,37.275 10.725,37.05 10.725,36.825 L10.725,35.1 C10.725,34.875 10.8,34.65 10.95,34.5 C11.1,34.35 11.325,34.275 11.55,34.275 L30.45,34.275 Z" id="Shape"></path>
        </g>
    </g>
</svg>