<?xml version="1.0" encoding="utf-8"?><!DOCTYPE svg PUBLIC "-//W3C//DTD SVG 1.1//EN" "http://www.w3.org/Graphics/SVG/1.1/DTD/svg11.dtd"><svg version="1.1" xmlns="http://www.w3.org/2000/svg" xmlns:xlink="http://www.w3.org/1999/xlink" width="22" height="28" viewBox="0 0 22 28" data-code="61616" data-tags="filter"><g fill="#444" transform="scale(0.02734375 0.02734375)"><path d="M801.714 168.571c5.714 13.714 2.857 29.714-8 40l-281.714 281.714v424c0 14.857-9.143 28-22.286 33.714-4.571 1.714-9.714 2.857-14.286 2.857-9.714 0-18.857-3.429-25.714-10.857l-146.286-146.286c-6.857-6.857-10.857-16-10.857-25.714v-277.714l-281.714-281.714c-10.857-10.286-13.714-26.286-8-40 5.714-13.143 18.857-22.286 33.714-22.286h731.429c14.857 0 28 9.143 33.714 22.286z" /></g></svg>
