<?xml version="1.0" encoding="utf-8"?>
<!-- Generator: Adobe Illustrator 16.0.0, SVG Export Plug-In . SVG Version: 6.00 Build 0)  -->
<!DOCTYPE svg PUBLIC "-//W3C//DTD SVG 1.1//EN" "http://www.w3.org/Graphics/SVG/1.1/DTD/svg11.dtd">
<svg version="1.1" id="Layer_1" xmlns="http://www.w3.org/2000/svg" xmlns:xlink="http://www.w3.org/1999/xlink" x="0px" y="0px"
	 width="48px" height="48px" viewBox="0 0 48 48" enable-background="new 0 0 48 48" xml:space="preserve">
<g>
	<g>
		<path fill="#333439" d="M46.242,23.027l-9.232-5.024l9.202-4.623c0.982-0.494,0.996-1.328,0.03-1.854L25.866,0.439
			c-0.485-0.264-1.127-0.396-1.767-0.396c-0.635,0-1.269,0.13-1.751,0.39L1.759,11.534c-0.968,0.522-0.955,1.35,0.03,1.84l9.3,4.629
			l-9.331,5.031c-0.968,0.522-0.955,1.351,0.03,1.841l10.265,5.108L1.759,35.534c-0.968,0.522-0.955,1.351,0.03,1.841l20.529,10.217
			c0.49,0.244,1.135,0.366,1.78,0.366c0.652,0,1.304-0.124,1.798-0.372l20.315-10.205c0.982-0.494,0.996-1.328,0.03-1.854
			l-10.188-5.544l10.158-5.103C47.194,24.387,47.208,23.553,46.242,23.027z M8.691,12.341l15.39-8.298c0.006,0,0.012,0,0.012,0
			c0.014,0,0.021,0,0.021,0l15.256,8.298l-15.148,7.609c-0.03,0.004-0.072,0.007-0.123,0.007c-0.049,0-0.089-0.003-0.117-0.007
			L8.691,12.341z M39.37,36.342l-15.148,7.609c-0.03,0.004-0.072,0.007-0.123,0.007c-0.049,0-0.089-0.003-0.117-0.007L8.691,36.342
			l7.746-4.178l5.881,2.928c0.985,0.49,2.595,0.488,3.578-0.006l5.806-2.917L39.37,36.342z"/>
	</g>
</g>
</svg>
