<?xml version="1.0" encoding="utf-8"?>
<!-- Generator: Adobe Illustrator 16.0.0, SVG Export Plug-In . SVG Version: 6.00 Build 0)  -->
<!DOCTYPE svg PUBLIC "-//W3C//DTD SVG 1.1//EN" "http://www.w3.org/Graphics/SVG/1.1/DTD/svg11.dtd">
<svg version="1.1" id="Layer_1" xmlns="http://www.w3.org/2000/svg" xmlns:xlink="http://www.w3.org/1999/xlink" x="0px" y="0px"
	 width="48px" height="48px" viewBox="0 0 48 48" enable-background="new 0 0 48 48" xml:space="preserve">
<g>
	<path  d="M46,10H22.337L20,6H1C0.448,6,0,6.448,0,7v33c0,1.1,0.9,2,2,2h44c1.1,0,2-0.9,2-2V12C48,10.9,47.1,10,46,10
		z M41,19H7c-1.104,0-2-0.896-2-2s0.896-2,2-2h34c1.104,0,2,0.896,2,2S42.104,19,41,19z"/>
</g>
</svg>
