<?xml version="1.0" encoding="utf-8"?>
<!-- Generator: Adobe Illustrator 19.1.0, SVG Export Plug-In . SVG Version: 6.00 Build 0)  -->
<svg version="1.1" id="Layer_1" xmlns="http://www.w3.org/2000/svg" xmlns:xlink="http://www.w3.org/1999/xlink" x="0px" y="0px"
	 width="48px" height="48px" viewBox="-281 373 48 48" style="enable-background:new -281 373 48 48;" xml:space="preserve">

<g>
	<path d="M-235,373h-28c-1.1,0-2,0.9-2,2v10h4v-4h24v32h-24v-4h-4v10c0,1.1,0.9,2,2,2h28c1.1,0,2-0.9,2-2v-44
		C-233,373.9-233.9,373-235,373z"/>
	<path d="M-263.4,399.2l3,3c0.5,0.5,1,0.3,1.1-0.3l2.3-11.9l-11.9,2.3c-0.7,0.1-0.8,0.6-0.3,1.1l3,3l0,0l-5.7,5.7
		l-5.7-5.7c-0.8-0.8-2-0.8-2.8,0c-0.8,0.8-0.8,2,0,2.8l8.5,8.5L-263.4,399.2L-263.4,399.2z"/>
</g>
</svg>
