<?xml version="1.0" encoding="utf-8"?>
<!-- Generator: Adobe Illustrator 16.0.0, SVG Export Plug-In . SVG Version: 6.00 Build 0)  -->
<!DOCTYPE svg PUBLIC "-//W3C//DTD SVG 1.1//EN" "http://www.w3.org/Graphics/SVG/1.1/DTD/svg11.dtd">
<svg version="1.1" id="Layer_1" xmlns="http://www.w3.org/2000/svg" xmlns:xlink="http://www.w3.org/1999/xlink" x="0px" y="0px"
	 width="48px" height="48px" viewBox="0 0 48 48" enable-background="new 0 0 48 48" xml:space="preserve">
<g>
	<path  d="M46,8h-9V8c-1.104,0-2,0.896-2,2s0.896,2,2,2h7v7c0,1.104,0.896,2,2,2s2-0.896,2-2V10
		C48,8.895,47.104,8,46,8z"/>
	<path  d="M11,8L11,8L2,8c-1.104,0-2,0.896-2,2V19c0,1.104,0.896,2,2,2s2-0.896,2-2v-7h7c1.104,0,2-0.896,2-2
		S12.104,8,11,8z"/>
	<path  d="M11,36H4v-7c0-1.104-0.896-2-2-2s-2,0.896-2,2v9c0,1.105,0.896,2,2,2h9c1.104,0,2-0.895,2-2
		C13,36.896,12.104,36,11,36z"/>
	<path  d="M46,27c-1.104,0-2,0.896-2,2v7h-7c-1.104,0-2,0.896-2,2c0,1.105,0.896,2,2,2h9c1.104,0,2-0.895,2-2v-9
		C48,27.896,47.104,27,46,27z"/>
</g>
</svg>
