<?xml version="1.0" encoding="utf-8"?>
<!-- Generator: Adobe Illustrator 19.1.0, SVG Export Plug-In . SVG Version: 6.00 Build 0)  -->
<svg version="1.1" id="Layer_1" xmlns="http://www.w3.org/2000/svg" xmlns:xlink="http://www.w3.org/1999/xlink" x="0px" y="0px"
	 width="48px" height="48px" viewBox="-281 373 48 48" style="enable-background:new -281 373 48 48;" xml:space="preserve">

<g>
	<path d="M-233.6,376.4c0.8-0.8,0.8-2,0-2.8c-0.8-0.8-2-0.8-2.8,0l-5.1,5.1c-4.2-3.5-9.6-5.7-15.5-5.7
		c-12.6,0-22.9,9.7-23.9,22l18.9,0v-6.1c0-0.9,0.6-1.2,1.3-0.7l5.7,3.9l-6.8,6.8h-19.1c0.4,5.1,2.5,9.8,5.6,13.5l-5.1,5.1
		c-0.8,0.8-0.8,2,0,2.8c0.4,0.4,0.9,0.6,1.4,0.6s1-0.2,1.4-0.6L-233.6,376.4z"/>
	<path d="M-269.2,417.7c3.6,2.1,7.7,3.3,12.2,3.3c13.3,0,24-10.7,24-24c0-4.5-1.2-8.6-3.3-12.2L-269.2,417.7z"/>
</g>
</svg>
