<?xml version="1.0" encoding="utf-8"?>
<!-- Generator: Adobe Illustrator 19.0.0, SVG Export Plug-In . SVG Version: 6.00 Build 0)  -->
<svg version="1.1" id="Layer_1" xmlns="http://www.w3.org/2000/svg" xmlns:xlink="http://www.w3.org/1999/xlink" x="0px" y="0px"
	 viewBox="-551 364 48 48" style="enable-background:new -551 364 48 48;" xml:space="preserve">

<g>
	<g>
		<path d="M-512.3,380.1c-0.5,0-0.9-0.1-1.4-0.2l-9.3,14.2c0.7,0.9,1.1,1.9,1.1,3.1c0,2.8-2.3,5.1-5.1,5.1
			c-2.8,0-5.1-2.3-5.1-5.1c0-0.3,0-0.7,0.1-1l-6.1-3.5c-0.9,0.9-2.1,1.4-3.5,1.4c-0.9,0-1.7-0.2-2.4-0.6l-7,6.5v7.8
			c0,2.3,1.9,4.2,4.2,4.2h39.5c2.3,0,4.2-1.9,4.2-4.2v-24.6l-6.2-4.2C-510,379.7-511.1,380.1-512.3,380.1z"/>
		<path d="M-507.2,364h-39.5c-2.3,0-4.2,1.9-4.2,4.2v27.1l4.7-4.3c-0.3-0.6-0.4-1.3-0.4-2c0-2.8,2.3-5.1,5.1-5.1
			c2.8,0,5.1,2.3,5.1,5.1c0,0.2,0,0.5-0.1,0.7l6.3,3.6c0.9-0.8,2-1.2,3.3-1.2c0.4,0,0.8,0.1,1.2,0.1l9.4-14.3c-0.6-0.8-1-1.9-1-3
			c0-2.8,2.3-5.1,5.1-5.1c2.8,0,5.1,2.3,5.1,5.1c0,0.4-0.1,0.8-0.1,1.2l4.3,2.9v-10.8C-503,365.9-504.9,364-507.2,364z"/>
	</g>
	<path d="M-509.2,379c-0.9,0.7-1.9,1.1-3.1,1.1c-0.5,0-0.9-0.1-1.4-0.2l-9.3,14.2c0.7,0.9,1.1,1.9,1.1,3.1
		c0,2.8-2.3,5.1-5.1,5.1c-2.8,0-5.1-2.3-5.1-5.1c0-0.3,0-0.7,0.1-1l-6.1-3.5c-0.9,0.9-2.1,1.4-3.5,1.4c-0.9,0-1.7-0.2-2.4-0.6
		l-7,6.5v7.8c0,2.3,1.9,4.2,4.2,4.2h39.5c2.3,0,4.2-1.9,4.2-4.2v-24.6L-509.2,379z"/>
</g>
</svg>
