<?xml version="1.0" encoding="utf-8"?>
<!-- Generator: Adobe Illustrator 18.1.1, SVG Export Plug-In . SVG Version: 6.00 Build 0)  -->
<svg version="1.1" id="Layer_1" xmlns="http://www.w3.org/2000/svg" xmlns:xlink="http://www.w3.org/1999/xlink" x="0px" y="0px"
	 viewBox="0 0 64 64" enable-background="new 0 0 64 64" xml:space="preserve">
<g>
	<path d="M8,56v4v2c0,0.5-0.2,1-0.6,1.4C7,63.8,6.5,64,6,64s-1-0.2-1.4-0.6C4.2,63,4,62.5,4,62V4H2C1.5,4,1,3.8,0.6,3.4
		C0.2,3,0,2.5,0,2s0.2-1,0.6-1.4C1,0.2,1.5,0,2,0h4c0.2,0,0.3,0,0.4,0.1c0.5,0.1,0.8,0.3,1.2,0.7C7.8,1.1,8,1.5,8,2v8v2L8,56L8,56z
		 M62,56h-2v6c0,0.5-0.2,1-0.6,1.4C59,63.8,58.6,64,58,64s-1-0.2-1.4-0.6C56.2,63,56,62.5,56,62v-6h-4v6c0,0.5-0.2,1-0.6,1.4
		C51,63.8,50.6,64,50,64s-1-0.2-1.4-0.6C48.2,63,48,62.5,48,62v-6h-4v6c0,0.5-0.2,1-0.6,1.4C43,63.8,42.5,64,42,64s-1-0.2-1.4-0.6
		C40.2,63,40,62.5,40,62v-6h-4v6c0,0.5-0.2,1-0.6,1.4C35,63.8,34.5,64,34,64s-1-0.2-1.4-0.6C32.2,63,32,62.5,32,62v-6h-4v6
		c0,0.5-0.2,1-0.6,1.4C27,63.8,26.5,64,26,64s-1-0.2-1.4-0.6C24.2,63,24,62.5,24,62v-6h-4v6c0,0.5-0.2,1-0.6,1.4
		C19,63.8,18.5,64,18,64c-0.5,0-1-0.2-1.4-0.6C16.2,63,16,62.5,16,62v-6h-4V12h50c0.5,0,1,0.2,1.4,0.6S64,13.5,64,14v40
		c0,0.5-0.2,1-0.6,1.4C63,55.8,62.6,56,62,56z M60,20c0-1.1-0.4-2-1.2-2.8S57.1,16,56,16H28c-1.1,0-2,0.4-2.8,1.2
		C24.4,18,24,18.9,24,20v24c0,1.1,0.4,2.1,1.2,2.8C26,47.6,26.9,48,28,48h28c1.1,0,2.1-0.4,2.8-1.2S60,45.1,60,44V20z M54,44H30
		c-0.5,0-1-0.2-1.4-0.6C28.2,43,28,42.5,28,42V22c0-0.5,0.2-1,0.6-1.4C29,20.2,29.5,20,30,20h24c0.5,0,1,0.2,1.4,0.6S56,21.5,56,22
		v20c0,0.5-0.2,1-0.6,1.4C55,43.8,54.6,44,54,44z M49.7,26.3C48.1,24.8,46.2,24,44,24c-2.2,0-4.1,0.8-5.7,2.3
		C36.8,27.9,36,29.8,36,32s0.8,4.1,2.3,5.7c1.6,1.6,3.4,2.3,5.7,2.3c2.2,0,4.1-0.8,5.7-2.3c1.6-1.6,2.3-3.4,2.3-5.7
		S51.2,27.9,49.7,26.3z M46.9,34.8C46.1,35.6,45.1,36,44,36s-2.1-0.4-2.8-1.2C40.4,34.1,40,33.1,40,32c0-1.1,0.4-2.1,1.2-2.8
		C42,28.4,42.9,28,44,28s2,0.4,2.8,1.2c0.8,0.8,1.2,1.7,1.2,2.8S47.6,34.1,46.9,34.8z"/>
</g>
</svg>
