<?xml version="1.0" encoding="utf-8"?>
<!-- Generator: Adobe Illustrator 18.1.1, SVG Export Plug-In . SVG Version: 6.00 Build 0)  -->
<svg version="1.1" id="Layer_1" xmlns="http://www.w3.org/2000/svg" xmlns:xlink="http://www.w3.org/1999/xlink" x="0px" y="0px"
	 viewBox="0 0 48 48" enable-background="new 0 0 48 48" xml:space="preserve">
<g>
	<path  d="M20,2H4C2.9,2,2,2.9,2,4v16c0,1.1,0.9,2,2,2h16c1.1,0,2-0.9,2-2V4C22,2.9,21.1,2,20,2z"/>
	<path  d="M2,28v16c0,1.1,0.9,2,2,2h16c1.1,0,2-0.9,2-2V28c0-1.1-0.9-2-2-2H4C2.9,26,2,26.9,2,28z"/>
	<path  d="M26,4v16c0,1.1,0.9,2,2,2h16c1.1,0,2-0.9,2-2V4c0-1.1-0.9-2-2-2H28C26.9,2,26,2.9,26,4z"/>
	<path  d="M28,46h16c1.1,0,2-0.9,2-2V28c0-1.1-0.9-2-2-2H28c-1.1,0-2,0.9-2,2v16C26,45.1,26.9,46,28,46z"/>
</g>
</svg>
