<?xml version="1.0" encoding="utf-8"?>
<!-- Generator: Adobe Illustrator 19.1.0, SVG Export Plug-In . SVG Version: 6.00 Build 0)  -->
<!DOCTYPE svg PUBLIC "-//W3C//DTD SVG 1.1//EN" "http://www.w3.org/Graphics/SVG/1.1/DTD/svg11.dtd">
<svg version="1.1" id="Layer_1" xmlns="http://www.w3.org/2000/svg" xmlns:xlink="http://www.w3.org/1999/xlink" x="0px" y="0px"
	 viewBox="-281 373 48 48" style="enable-background:new -281 373 48 48;" xml:space="preserve">

<g>
	<path d="M-248,397c1.1,0,2-0.9,2-2v-1v-17c0-1.1-0.9-2-2-2h-29c-1.1,0-2,0.9-2,2v18c0,1.1,0.9,2,2,2h4v4v4l4-4l4-4h2
		H-248z"/>
	<path d="M-237,394h-5v1c0,3.3-2.7,6-6,6h-15v10c0,1.1,0.9,2,2,2h16l6,6v-6h2c1.1,0,2-0.9,2-2v-15
		C-235,394.9-235.9,394-237,394z"/>
</g>
</svg>
