<?xml version="1.0" encoding="utf-8"?>
<!-- Generator: Adobe Illustrator 16.0.0, SVG Export Plug-In . SVG Version: 6.00 Build 0)  -->
<!DOCTYPE svg PUBLIC "-//W3C//DTD SVG 1.1//EN" "http://www.w3.org/Graphics/SVG/1.1/DTD/svg11.dtd">
<svg version="1.1" id="Layer_1" xmlns="http://www.w3.org/2000/svg" xmlns:xlink="http://www.w3.org/1999/xlink" x="0px" y="0px"
	 width="48px" height="48px" viewBox="0 0 48 48" enable-background="new 0 0 48 48" xml:space="preserve">
<path  d="M29.888,24V4c0-1.104-0.896-2-2-2s-2,0.896-2,2v20H11.584L2.096,43.11C1.605,44.1,2.008,45.3,2.998,45.791
	c0.989,0.493,2.19,0.087,2.681-0.901L14.065,28h10.597l-7.503,15.11c-0.491,0.989-0.088,2.189,0.901,2.681
	C18.346,45.934,18.649,46,18.948,46c0.736,0,1.444-0.407,1.793-1.11L29.128,28h10.534l-7.503,15.11
	c-0.491,0.989-0.088,2.189,0.901,2.681C33.347,45.934,33.649,46,33.948,46c0.736,0,1.444-0.407,1.793-1.11L46.113,24H29.888z"/>
</svg>
