<?xml version="1.0" encoding="utf-8"?>
<!-- Generator: Adobe Illustrator 16.0.0, SVG Export Plug-In . SVG Version: 6.00 Build 0)  -->
<!DOCTYPE svg PUBLIC "-//W3C//DTD SVG 1.1//EN" "http://www.w3.org/Graphics/SVG/1.1/DTD/svg11.dtd">
<svg version="1.1" id="Layer_1" xmlns="http://www.w3.org/2000/svg" xmlns:xlink="http://www.w3.org/1999/xlink" x="0px" y="0px"
	 width="48px" height="48px" viewBox="0 0 48 48" enable-background="new 0 0 48 48" xml:space="preserve">
<path  d="M47,26c0-4.104-2.474-7.625-6.008-9.167C40.9,7.537,33.318,0,24,0C14.682,0,7.099,7.537,7.008,16.833
	C3.473,18.375,1,21.896,1,26c0,5.523,4.477,10,10,10v-6V17c0-7.168,5.832-13,13-13s13,5.832,13,13v12
	c0,6.07-4.189,11.169-9.825,12.592C26.444,40.631,25.301,40,24,40c-2.209,0-4,1.791-4,4s1.791,4,4,4
	c1.643,0,3.052-0.992,3.668-2.409c5.406-1.194,9.858-4.962,11.983-9.958C43.885,34.471,47,30.604,47,26z"/>
</svg>
