<?xml version="1.0" encoding="utf-8"?>
<!-- Generator: Adobe Illustrator 16.0.0, SVG Export Plug-In . SVG Version: 6.00 Build 0)  -->
<!DOCTYPE svg PUBLIC "-//W3C//DTD SVG 1.1//EN" "http://www.w3.org/Graphics/SVG/1.1/DTD/svg11.dtd">
<svg version="1.1" id="Layer_1" xmlns="http://www.w3.org/2000/svg" xmlns:xlink="http://www.w3.org/1999/xlink" x="0px" y="0px"
	 width="48px" height="48px" viewBox="0 0 48 48" enable-background="new 0 0 48 48" xml:space="preserve">
<g>
	
		<rect x="36.015" y="12.558" transform="matrix(0.7071 -0.7071 0.7071 0.7071 2.3289 30.7392)"  width="4.509" height="0"/>
	<g>
		<path  d="M47.414,0.586c-0.781-0.781-2.047-0.781-2.828,0L37.91,7.261C34.836,2.877,29.752,0,24,0
			C14.682,0,7.099,7.537,7.008,16.833C3.473,18.375,1,21.896,1,26c0,4.95,3.601,9.049,8.323,9.849l-8.737,8.737
			c-0.781,0.781-0.781,2.047,0,2.828C0.977,47.805,1.488,48,2,48s1.023-0.195,1.414-0.586l44-44
			C48.195,2.633,48.195,1.367,47.414,0.586z M11,34.172V30V17c0-7.168,5.832-13,13-13c4.651,0,8.729,2.463,11.025,6.146L11,34.172z"
			/>
		<path  d="M40.992,16.833c-0.005-0.427-0.041-0.846-0.076-1.264L37,19.485V29c0,6.07-4.189,11.169-9.825,12.592
			C26.444,40.631,25.301,40,24,40c-2.209,0-4,1.791-4,4s1.791,4,4,4c1.643,0,3.052-0.992,3.668-2.409
			c5.406-1.194,9.858-4.962,11.983-9.958C43.885,34.471,47,30.604,47,26C47,21.896,44.526,18.375,40.992,16.833z"/>
	</g>
</g>
</svg>
