<?xml version="1.0" encoding="utf-8"?>
<!-- Generator: Adobe Illustrator 18.1.1, SVG Export Plug-In . SVG Version: 6.00 Build 0)  -->
<svg version="1.1" id="Layer_1" xmlns="http://www.w3.org/2000/svg" xmlns:xlink="http://www.w3.org/1999/xlink" x="0px" y="0px"
	 viewBox="0 0 48 48" enable-background="new 0 0 48 48" xml:space="preserve">
<circle  cx="24.6" cy="41.2" r="3.4"/>
<path  d="M32.2,22.7l-4.1,3.9c0,0-0.1,0.1-0.1,0.2v2.4c0,1.9-1.5,3.4-3.4,3.4s-3.4-1.5-3.4-3.4v-2.4
	c0-1.9,0.8-3.8,2.2-5.1l4-3.8c0.7-0.7,1.2-1.9,1.2-3c0-2.5-2-4.5-4.5-4.5c-2.5,0-4.5,2-4.5,4.5c0,1.9-1.5,3.4-3.4,3.4
	s-3.4-1.5-3.4-3.4c0-6.3,5.1-11.4,11.4-11.4c6.3,0,11.4,5.1,11.4,11.4C35.4,17.8,34.3,20.6,32.2,22.7z"/>
</svg>
