<?xml version="1.0" encoding="utf-8"?>
<!-- Generator: Adobe Illustrator 19.1.0, SVG Export Plug-In . SVG Version: 6.00 Build 0)  -->
<svg version="1.1" id="Layer_1" xmlns="http://www.w3.org/2000/svg" xmlns:xlink="http://www.w3.org/1999/xlink" x="0px" y="0px"
	 width="40px" height="40px" viewBox="-285 377 40 40" style="enable-background:new -285 377 40 40;" xml:space="preserve">
<style type="text/css">
	.st1{fill:none;}
</style>
<g>
	<g>
		<g>
			<path id="SVGID_1_" d="M-265,410.3c-7.4,0-13.3-6-13.3-13.3c0-7.4,6-13.3,13.3-13.3c7.4,0,13.3,6,13.3,13.3
				C-251.7,404.4-257.6,410.3-265,410.3z M-265,381c-8.8,0-16,7.2-16,16c0,8.8,7.2,16,16,16s16-7.2,16-16
				C-249,388.2-256.2,381-265,381z"/>
		</g>
		<g>
			<defs>
				<path id="SVGID_2_" d="M-265,410.3c-7.4,0-13.3-6-13.3-13.3c0-7.4,6-13.3,13.3-13.3c7.4,0,13.3,6,13.3,13.3
					C-251.7,404.4-257.6,410.3-265,410.3z M-265,381c-8.8,0-16,7.2-16,16c0,8.8,7.2,16,16,16s16-7.2,16-16
					C-249,388.2-256.2,381-265,381z"/>
			</defs>
			<clipPath id="SVGID_4_">
				<use xlink:href="#SVGID_2_"  style="overflow:visible;"/>
			</clipPath>
		</g>
	</g>
</g>
<g>
	<path id="SVGID_3_" d="M-264.8,405c-0.7,0-1.3-0.6-1.3-1.3c0-0.7,0.6-1.3,1.3-1.3c0.7,0,1.3,0.6,1.3,1.3
		C-263.5,404.4-264.1,405-264.8,405"/>
</g>
<path class="st1" d="M-264.8,405c-0.7,0-1.3-0.6-1.3-1.3c0-0.7,0.6-1.3,1.3-1.3c0.7,0,1.3,0.6,1.3,1.3
	C-263.5,404.4-264.1,405-264.8,405"/>
<g>
	<path id="SVGID_5_" d="M-261.8,396.5l-1.6,1.5c0,0,0,0,0,0.1v0.9c0,0.7-0.6,1.3-1.3,1.3s-1.3-0.6-1.3-1.3v-0.9
		c0-0.8,0.3-1.5,0.9-2l1.6-1.5c0.3-0.3,0.4-0.7,0.4-1.2c0-1-0.8-1.8-1.8-1.8c-1,0-1.8,0.8-1.8,1.8c0,0.7-0.6,1.3-1.3,1.3
		c-0.7,0-1.3-0.6-1.3-1.3c0-2.4,2-4.4,4.4-4.4c2.4,0,4.4,2,4.4,4.4C-260.6,394.6-261,395.7-261.8,396.5"/>
</g>
<path class="st1" d="M-261.8,396.5l-1.6,1.5c0,0,0,0,0,0.1v0.9c0,0.7-0.6,1.3-1.3,1.3s-1.3-0.6-1.3-1.3v-0.9c0-0.8,0.3-1.5,0.9-2
	l1.6-1.5c0.3-0.3,0.4-0.7,0.4-1.2c0-1-0.8-1.8-1.8-1.8c-1,0-1.8,0.8-1.8,1.8c0,0.7-0.6,1.3-1.3,1.3c-0.7,0-1.3-0.6-1.3-1.3
	c0-2.4,2-4.4,4.4-4.4c2.4,0,4.4,2,4.4,4.4C-260.6,394.6-261,395.7-261.8,396.5"/>
</svg>
