<?xml version="1.0" encoding="utf-8"?>
<!-- Generator: Adobe Illustrator 16.0.0, SVG Export Plug-In . SVG Version: 6.00 Build 0)  -->
<!DOCTYPE svg PUBLIC "-//W3C//DTD SVG 1.1//EN" "http://www.w3.org/Graphics/SVG/1.1/DTD/svg11.dtd">
<svg version="1.1" id="Layer_1" xmlns="http://www.w3.org/2000/svg" xmlns:xlink="http://www.w3.org/1999/xlink" x="0px" y="0px"
	 width="48px" height="48px" viewBox="0 0 48 48" enable-background="new 0 0 48 48" xml:space="preserve">
<g>
	<path  d="M24,0C10.745,0,0,10.745,0,24s10.745,24,24,24s24-10.745,24-24S37.255,0,24,0z M24,36c-1.104,0-2-0.896-2-2
		s0.896-2,2-2s2,0.896,2,2S25.104,36,24,36z M28.436,23.242l-2.392,2.286C26.016,25.555,26,25.592,26,25.631V27c0,1.104-0.896,2-2,2
		s-2-0.896-2-2v-1.369c0-1.126,0.467-2.218,1.282-2.996l2.331-2.225c0.412-0.432,0.673-1.082,0.673-1.768
		c0-1.457-1.186-2.643-2.642-2.643C22.186,16,21,17.186,21,18.643c0,1.104-0.896,2-2,2s-2-0.896-2-2C17,14.979,19.98,12,23.643,12
		c3.663,0,6.642,2.979,6.642,6.643C30.285,20.366,29.629,21.999,28.436,23.242z"/>
</g>
</svg>
