<?xml version="1.0" encoding="utf-8"?>
<!-- Generator: Adobe Illustrator 14.0.0, SVG Export Plug-In . SVG Version: 6.00 Build 43363)  -->
<!DOCTYPE svg PUBLIC "-//W3C//DTD SVG 1.1//EN" "http://www.w3.org/Graphics/SVG/1.1/DTD/svg11.dtd">
<svg version="1.1" xmlns="http://www.w3.org/2000/svg" xmlns:xlink="http://www.w3.org/1999/xlink" x="0px" y="0px" width="48px"
	 height="48px" viewBox="0 0 48 48" enable-background="new 0 0 48 48" xml:space="preserve">
<g id="icon-view-split" display="none">
	<path display="inline"  d="M0,10v28c0,1.105,0.896,2,2,2h20V8H2C0.896,8,0,8.896,0,10z M46,8H26v32h20
		c1.104,0,2-0.895,2-2V10C48,8.896,47.104,8,46,8z"/>
</g>
<g id="show-editor7037-editor" display="none">
	<path display="inline"  d="M24,9C14.626,9,4.869,18.676,0,24c4.869,5.323,14.626,15,24,15s19.131-9.677,24-15
		C43.131,18.676,33.374,9,24,9 M24,30c-3.313,0-6-2.688-6-6c0-3.314,2.687-6.001,6-6.001s6,2.687,6,6.001C30,27.313,27.313,30,24,30
		"/>
</g>
<g id="hide-editor7038-editor">
	<path  d="M47.414,0.586c-0.78-0.781-2.048-0.781-2.828,0l-11.19,11.189C30.354,10.112,27.158,9,24,9
		C14.626,9,4.869,18.676,0,24c2.589,2.829,6.57,6.863,11.129,10.043L0.586,44.586c-0.781,0.78-0.781,2.047,0,2.828
		C0.977,47.805,1.488,48,2,48s1.024-0.195,1.414-0.586l44-44C48.195,2.633,48.195,1.366,47.414,0.586z M18.591,26.581
		C18.216,25.799,18,24.926,18,24c0-3.314,2.687-6.001,6-6.001c0.927,0,1.8,0.215,2.582,0.591L18.591,26.581z M40.097,16.388
		L18.499,37.986C20.321,38.621,22.168,39,24,39c9.375,0,19.131-9.677,24-15C46.044,21.86,43.29,19.022,40.097,16.388z"/>
</g>
</svg>
