<?xml version="1.0" encoding="UTF-8"?>
<svg width="47px" height="42px" viewBox="0 0 47 42" version="1.1" xmlns="http://www.w3.org/2000/svg" xmlns:xlink="http://www.w3.org/1999/xlink">
    <!-- Generator: Sketch 52.3 (67297) - http://www.bohemiancoding.com/sketch -->
    <title>-project-history</title>
    <desc>Created with Sketch.</desc>
    <g id="Page-1" stroke="none" stroke-width="1" fill="none" fill-rule="evenodd">
        <g id="-project-history" transform="translate(0.000000, -1.000000)" fill="#000000" fill-rule="nonzero">
            <path d="M11.9076923,7.64316667 C19.9033846,-0.297 32.8615385,-0.297 40.8461538,7.64316667 C48.8658462,15.6291667 48.8418462,28.5431667 40.8110769,36.5071667 C36.9692308,40.3113333 31.7649231,42.4545 26.3298462,42.4655 C20.5144615,42.5571667 14.9538462,40.0583333 11.1803077,35.6601667 L13.4658462,32.395 C19.2461538,39.4533333 29.7009231,40.5313333 36.8086154,34.7893333 C43.9163077,29.0473333 45.0018462,18.667 39.2196923,11.6086667 C36.0701538,7.75866667 31.3384615,5.52383333 26.3538462,5.52383333 C21.9581538,5.43216667 17.7230769,7.17383333 14.6658462,10.3125 C11.4461538,13.3375 9.70338462,17.6 9.87692308,21.989 L14.7913846,21.989 C15.7033846,21.989 15.888,22.4125 15.3341538,23.1348333 L7.84615385,33.6875 L0.358153846,23.1238333 C-0.0683076923,22.4015 0.116307692,21.989 0.912,21.989 L5.93169231,21.989 C5.97784615,16.6155 8.12492308,11.4711667 11.9076923,7.64316667 Z M32.3187692,27.3276667 C33,27.775 33.1846154,28.6806667 32.7341538,29.3553333 C32.6307692,29.5148333 32.4812308,29.6541667 32.3187692,29.7678333 C31.9956923,30.0886667 31.5452308,30.261 31.0836923,30.261 C30.6110769,30.272 30.1384615,30.1015 29.7913846,29.7678333 L24.8750769,24.8856667 L24.8750769,13.7243333 C24.8861538,13.266 25.0947692,12.8186667 25.4289231,12.4978333 C25.752,12.1531667 26.1913846,11.9716667 26.664,11.9716667 C27.1476923,11.9606667 27.6221538,12.155 27.9673846,12.4978333 C28.3144615,12.8186667 28.5212308,13.2531667 28.5452308,13.7243333 L28.5452308,23.4868333 L32.3187692,27.3258333 L32.3187692,27.3276667 Z" id="Shape"></path>
        </g>
    </g>
</svg>