<?xml version="1.0" encoding="UTF-8"?>
<svg width="48px" height="44px" viewBox="0 0 48 44" version="1.1" xmlns="http://www.w3.org/2000/svg" xmlns:xlink="http://www.w3.org/1999/xlink">
    <!-- Generator: Sketch 52.3 (67297) - http://www.bohemiancoding.com/sketch -->
    <title>home</title>
    <desc>Created with Sketch.</desc>
    <g id="Page-1" stroke="none" stroke-width="1" fill="none" fill-rule="evenodd">
        <g id="home" fill="#000000">
            <path d="M23.8899692,8.325 C7.38461538,21.318364 7.38461538,20.818364 7.38461538,20.818364 C7.38461538,36.5 7.38461538,44 7.38461538,44 C19.4885354,44 18.9885354,44 18.9885354,44 C18.9885354,37.2792969 18.9885354,32.2792969 18.9885354,32.2792969 C18.9885354,29.8150395 21.5792123,27.7114258 24,27.7114258 C26.6408492,27.7114258 29.0114646,29.8150395 29.0114646,32.2792969 C29.0114646,36.7597656 29.0114646,40.6666667 29.0114646,44 C36.7474113,44 40.6153846,44 40.6153846,44 C40.6153846,28.318364 40.6153846,20.818364 40.6153846,20.818364 L23.8899692,8.325 Z" id="Fill-1"></path>
            <path d="M24.0000001,4.26688946 L3.31360985,19.9076095 C2.87179477,20.35 2.42998062,20.35 2.20907262,20.35 C1.54635138,20.35 0.883629138,20.1288048 0.662721877,19.6864143 C-5.99520433e-15,18.8016332 0.220907262,17.6956477 0.883629138,17.032062 C22.5325477,0.66358575 22.5325477,0.66358575 22.5325477,0.66358575 C22.992972,0.317815625 23.5133751,0.212269624 24,0.31565476 C24.4866249,0.212269624 25.007028,0.317815625 25.4674523,0.66358575 C47.1163754,17.032062 47.1163754,17.032062 47.1163754,17.032062 C47.7790892,17.6956477 48,18.8016332 47.3372769,19.6864143 C47.1163754,20.1288048 46.4536523,20.35 45.7909292,20.35 C45.5700185,20.35 45.1282062,20.35 44.6863938,19.9076095 L24.0000001,4.26688946 Z" id="Combined-Shape"></path>
        </g>
    </g>
</svg>