<?xml version="1.0" encoding="utf-8"?>
<!-- Generator: Adobe Illustrator 16.0.0, SVG Export Plug-In . SVG Version: 6.00 Build 0)  -->
<!DOCTYPE svg PUBLIC "-//W3C//DTD SVG 1.1//EN" "http://www.w3.org/Graphics/SVG/1.1/DTD/svg11.dtd">
<svg version="1.1" id="Layer_1" xmlns="http://www.w3.org/2000/svg" xmlns:xlink="http://www.w3.org/1999/xlink" x="0px" y="0px"
	 width="48px" height="48px" viewBox="0 0 48 48" enable-background="new 0 0 48 48" xml:space="preserve">
<g>
	<polygon  points="37.049,32.792 24.191,19.933 19.948,24.176 32.807,37.034 42.07,44.054 44.07,42.054 	"/>
	<path  d="M23.105,13.19c-0.777-0.778-2.051-0.778-2.828,0l-0.826,0.826L10.505,5.07
		c-1.499-1.499-3.952-1.499-5.451,0s-1.499,3.952,0,5.451L14,19.467l-0.794,0.794c-0.777,0.778-0.777,2.05,0,2.828
		c0.778,0.778,2.051,0.778,2.828,0l7.071-7.071C23.883,15.241,23.883,13.968,23.105,13.19z"/>
</g>
</svg>
