<?xml version="1.0" encoding="utf-8"?>
<!-- Generator: Adobe Illustrator 19.1.0, SVG Export Plug-In . SVG Version: 6.00 Build 0)  -->
<svg version="1.1" id="Layer_1" xmlns="http://www.w3.org/2000/svg" xmlns:xlink="http://www.w3.org/1999/xlink" x="0px" y="0px"
	 width="48px" height="48px" viewBox="-281 373 48 48" style="enable-background:new -281 373 48 48;" xml:space="preserve">

<path d="M-237,386h-9v-9c0-1.1-0.9-2-2-2h-29c-1.1,0-2,0.9-2,2v29c0,1.1,0.9,2,2,2h9v9c0,1.1,0.9,2,2,2h29
	c1.1,0,2-0.9,2-2v-29C-235,386.9-235.9,386-237,386z M-275,404v-25h25v7h-16c-1.1,0-2,0.9-2,2v16H-275z M-239,415h-25v-7h16
	c1.1,0,2-0.9,2-2v-16h7V415z"/>
</svg>
