<?xml version="1.0" encoding="utf-8"?>
<!-- Generator: Adobe Illustrator 16.0.0, SVG Export Plug-In . SVG Version: 6.00 Build 0)  -->
<!DOCTYPE svg PUBLIC "-//W3C//DTD SVG 1.1//EN" "http://www.w3.org/Graphics/SVG/1.1/DTD/svg11.dtd">
<svg version="1.1" id="Layer_1" xmlns="http://www.w3.org/2000/svg" xmlns:xlink="http://www.w3.org/1999/xlink" x="0px" y="0px"
	 width="48px" height="48px" viewBox="0 0 48 48" enable-background="new 0 0 48 48" xml:space="preserve">
<g>
	<path  d="M46,7H2C0.9,7,0,7.9,0,9v30c0,1.1,0.9,2,2,2h44c1.1,0,2-0.9,2-2V9C48,7.9,47.1,7,46,7z M38,36.551
		C38,37.348,37.348,38,36.551,38h-4.102C31.652,38,31,37.348,31,36.551v-0.102C31,35.652,31.652,35,32.449,35h4.102
		C37.348,35,38,35.652,38,36.449V36.551z M42.5,38c-0.828,0-1.5-0.672-1.5-1.5s0.672-1.5,1.5-1.5s1.5,0.672,1.5,1.5
		S43.328,38,42.5,38z M44,32H4V11h40V32z"/>
</g>
</svg>
