<?xml version="1.0" encoding="utf-8"?>
<!-- Generator: Adobe Illustrator 16.0.0, SVG Export Plug-In . SVG Version: 6.00 Build 0)  -->
<!DOCTYPE svg PUBLIC "-//W3C//DTD SVG 1.1//EN" "http://www.w3.org/Graphics/SVG/1.1/DTD/svg11.dtd">
<svg version="1.1" id="Layer_1" xmlns="http://www.w3.org/2000/svg" xmlns:xlink="http://www.w3.org/1999/xlink" x="0px" y="0px"
	 width="48px" height="48px" viewBox="0 0 48 48" enable-background="new 0 0 48 48" xml:space="preserve">
<g>
	<path  d="M46,8H2c-1.104,0-2,0.896-2,2v28c0,1.104,0.896,2,2,2h44c1.104,0,2-0.896,2-2V10C48,8.896,47.104,8,46,8z
		 M34.002,33H13.733c-0.593,0-0.887-0.445-0.653-0.99l6.632-10.495L24,28.041l2.988-4.449l7.33,8.646
		C34.737,32.656,34.595,33,34.002,33z M31.854,21.292c-1.736,0-3.146-1.409-3.146-3.146c0-1.738,1.409-3.146,3.146-3.146
		C33.592,15,35,16.408,35,18.146C35,19.883,33.592,21.292,31.854,21.292z"/>
</g>
</svg>
