<?xml version="1.0" encoding="utf-8"?>
<!-- Generator: Adobe Illustrator 16.0.0, SVG Export Plug-In . SVG Version: 6.00 Build 0)  -->
<!DOCTYPE svg PUBLIC "-//W3C//DTD SVG 1.1//EN" "http://www.w3.org/Graphics/SVG/1.1/DTD/svg11.dtd">
<svg version="1.1" id="Layer_1" xmlns="http://www.w3.org/2000/svg" xmlns:xlink="http://www.w3.org/1999/xlink" x="0px" y="0px"
	 width="40px" height="40px" viewBox="0 0 40 40" enable-background="new 0 0 40 40" xml:space="preserve">
<g id="Layer_1_1_">
</g>
<g>
	<path fill="#333439" d="M20,4C11.164,4,4,11.164,4,20c0,8.837,7.164,16,16,16c8.837,0,16-7.163,16-16C36,11.164,28.837,4,20,4z
		 M20,33.333c-7.352,0-13.333-5.979-13.333-13.333c0-7.352,5.982-13.333,13.333-13.333c7.352,0,13.333,5.981,13.333,13.333
		C33.333,27.354,27.352,33.333,20,33.333z"/>
	<path fill="#333439" d="M20,12.667c-0.354,0-0.693,0.14-0.947,0.394c-0.247,0.247-0.387,0.586-0.387,0.94s0.14,0.693,0.394,0.947
		c0.493,0.493,1.38,0.493,1.885,0c0.248-0.253,0.388-0.6,0.388-0.947c0-0.346-0.14-0.693-0.388-0.947
		C20.693,12.807,20.354,12.667,20,12.667z"/>
	<path fill="#333439" d="M20,18c-0.736,0-1.333,0.597-1.333,1.333v7.333C18.667,27.402,19.264,28,20,28
		c0.736,0,1.333-0.598,1.333-1.333v-7.333C21.333,18.597,20.736,18,20,18z"/>
</g>
</svg>
