<?xml version="1.0" encoding="utf-8"?>
<!-- Generator: Adobe Illustrator 16.0.0, SVG Export Plug-In . SVG Version: 6.00 Build 0)  -->
<!DOCTYPE svg PUBLIC "-//W3C//DTD SVG 1.1//EN" "http://www.w3.org/Graphics/SVG/1.1/DTD/svg11.dtd">
<svg version="1.1" id="Layer_1" xmlns="http://www.w3.org/2000/svg" xmlns:xlink="http://www.w3.org/1999/xlink" x="0px" y="0px"
	 width="48px" height="48px" viewBox="0 0 48 48" enable-background="new 0 0 48 48" xml:space="preserve">
<g>
	<path  d="M24,48c13.255,0,24-10.745,24-24S37.255,0,24,0S0,10.745,0,24S10.745,48,24,48z M22.58,14.59
		C22.96,14.21,23.47,14,24,14s1.04,0.21,1.42,0.58C25.79,14.96,26,15.48,26,16c0,0.521-0.21,1.04-0.58,1.42
		c-0.76,0.74-2.09,0.74-2.83,0C22.21,17.04,22,16.53,22,16S22.21,14.96,22.58,14.59z M22,24c0-1.104,0.896-2,2-2s2,0.896,2,2v10
		c0,1.104-0.896,2-2,2s-2-0.896-2-2V24z"/>
</g>
</svg>
