<?xml version="1.0" encoding="utf-8"?>
<!-- Generator: Adobe Illustrator 18.1.1, SVG Export Plug-In . SVG Version: 6.00 Build 0)  -->
<svg version="1.1" id="Layer_1" xmlns="http://www.w3.org/2000/svg" xmlns:xlink="http://www.w3.org/1999/xlink" x="0px" y="0px"
	 viewBox="0 0 48 48" enable-background="new 0 0 48 48" xml:space="preserve">
<g>
	<path  d="M24,48c13.3,0,24-10.7,24-24S37.3,0,24,0C10.7,0,0,10.7,0,24C0,37.3,10.7,48,24,48z M22.6,14.6
		C23,14.2,23.5,14,24,14s1,0.2,1.4,0.6C25.8,15,26,15.5,26,16c0,0.5-0.2,1-0.6,1.4c-0.8,0.7-2.1,0.7-2.8,0C22.2,17,22,16.5,22,16
		S22.2,15,22.6,14.6z M22,24c0-1.1,0.9-2,2-2s2,0.9,2,2v10c0,1.1-0.9,2-2,2s-2-0.9-2-2V24z"/>
</g>
</svg>
