<?xml version="1.0" encoding="UTF-8" standalone="no"?>
<svg width="48px" height="48px" viewBox="0 0 48 48" version="1.1" xmlns="http://www.w3.org/2000/svg" xmlns:xlink="http://www.w3.org/1999/xlink">
    <!-- Generator: Sketch 46.2 (44496) - http://www.bohemiancoding.com/sketch -->
    <title>info-outline</title>
    <desc>Created with Sketch.</desc>
    <defs></defs>
    <g id="Page-1" stroke="none" stroke-width="1" fill="none" fill-rule="evenodd">
        <g id="info-outline" fill-rule="nonzero" fill="#000000">
            <path d="M24,0 C10.746,0 0,10.746 0,24 C0,37.2555 10.746,48 24,48 C37.2555,48 48,37.2555 48,24 C48,10.746 37.2555,0 24,0 Z M24,43.9995 C12.972,43.9995 4.0005,35.031 4.0005,24 C4.0005,12.972 12.9735,4.0005 24,4.0005 C35.028,4.0005 43.9995,12.972 43.9995,24 C43.9995,35.031 35.028,43.9995 24,43.9995 Z" id="Shape"></path>
            <path d="M24,13.0005 C23.469,13.0005 22.9605,13.2105 22.5795,13.5915 C22.209,13.962 21.999,14.4705 21.999,15.0015 C21.999,15.5325 22.209,16.041 22.59,16.422 C23.3295,17.1615 24.66,17.1615 25.4175,16.422 C25.7895,16.0425 25.9995,15.522 25.9995,15.0015 C25.9995,14.4825 25.7895,13.962 25.4175,13.581 C25.0395,13.2105 24.531,13.0005 24,13.0005 Z" id="Shape"></path>
            <path d="M24,21 C22.896,21 22.0005,21.8955 22.0005,22.9995 L22.0005,33.999 C22.0005,35.103 22.896,36 24,36 C25.104,36 25.9995,35.103 25.9995,34.0005 L25.9995,23.001 C25.9995,21.8955 25.104,21 24,21 Z" id="Shape"></path>
        </g>
    </g>
</svg>