<?xml version="1.0" encoding="UTF-8"?>
<svg width="42px" height="43px" viewBox="0 0 42 43" version="1.1" xmlns="http://www.w3.org/2000/svg" xmlns:xlink="http://www.w3.org/1999/xlink">
    <!-- Generator: Sketch 52.3 (67297) - http://www.bohemiancoding.com/sketch -->
    <title>exit</title>
    <desc>Created with Sketch.</desc>
    <g id="Page-1" stroke="none" stroke-width="1" fill="none" fill-rule="evenodd">
        <g id="exit" fill="#000000">
            <path d="M36.2031992,20.2851681 C36.653368,19.3720179 37.595221,18.7435897 38.6842105,18.7435897 C40.2102605,18.7435897 41.4473684,19.9776767 41.4473684,21.5 C41.4473684,23.0223233 40.2102605,24.2564103 38.6842105,24.2564103 C37.4589936,24.2564103 36.4200279,23.4609212 36.0580146,22.3594458 L27.5714324,21.915769 C27.2937958,24.1313674 26.074717,26.0551242 24.3262215,27.2760198 L27.0789474,33.0769231 L25.2057669,33.9883032 L22.4723015,28.2279881 C21.6660519,28.5120877 20.7984905,28.6666667 19.8947368,28.6666667 C18.2760115,28.6666667 16.7733939,28.1707639 15.5312225,27.3229441 L10.3142178,32.5272089 C10.7838625,33.337717 11.0526316,34.2785736 11.0526316,35.2820513 C11.0526316,38.326698 8.57841572,40.7948718 5.52631579,40.7948718 C2.47421586,40.7948718 0,38.326698 0,35.2820513 C0,32.2374046 2.47421586,29.7692308 5.52631579,29.7692308 C6.81768074,29.7692308 8.00559314,30.2110822 8.9464164,30.9514991 L13.9827361,25.9274781 C12.8442251,24.5835197 12.1578947,22.8460736 12.1578947,20.9487179 C12.1578947,19.0638669 12.8352084,17.3368245 13.960285,15.9965812 L9.31530268,11.1983073 C8.37816457,11.7873895 7.26845428,12.1282051 6.07894737,12.1282051 C2.72163744,12.1282051 0,9.41321393 0,6.06410256 C0,2.7149912 2.72163744,0 6.07894737,0 C9.43625729,0 12.1578947,2.7149912 12.1578947,6.06410256 C12.1578947,7.47562507 11.6744501,8.77450878 10.8637252,9.80497078 L15.5009661,14.5952478 C16.7489597,13.7347713 18.2628462,13.2307692 19.8947368,13.2307692 C21.6554944,13.2307692 23.2788749,13.8175141 24.5791146,14.805694 L31.593038,7.80889857 C31.1834171,7.14008584 30.9473684,6.35395192 30.9473684,5.51282051 C30.9473684,3.07710315 32.9267411,1.1025641 35.3684211,1.1025641 C37.810101,1.1025641 39.7894737,3.07710315 39.7894737,5.51282051 C39.7894737,7.94853787 37.810101,9.92307692 35.3684211,9.92307692 C34.5252306,9.92307692 33.7371722,9.68760472 33.0667222,9.27898404 L26.0527988,16.2757794 C26.829676,17.2930024 27.359047,18.5084871 27.5513085,19.832849 L36.2031992,20.2851681 Z M19.8947368,25.3589744 C22.3364168,25.3589744 24.3157895,23.3844353 24.3157895,20.9487179 C24.3157895,18.5130006 22.3364168,16.5384615 19.8947368,16.5384615 C17.4530569,16.5384615 15.4736842,18.5130006 15.4736842,20.9487179 C15.4736842,23.3844353 17.4530569,25.3589744 19.8947368,25.3589744 Z M35.3684211,7.71794872 C36.589261,7.71794872 37.5789474,6.73067919 37.5789474,5.51282051 C37.5789474,4.29496183 36.589261,3.30769231 35.3684211,3.30769231 C34.1475811,3.30769231 33.1578947,4.29496183 33.1578947,5.51282051 C33.1578947,6.73067919 34.1475811,7.71794872 35.3684211,7.71794872 Z M28.7368421,43 C26.2951622,43 24.3157895,41.0254609 24.3157895,38.5897436 C24.3157895,36.1540262 26.2951622,34.1794872 28.7368421,34.1794872 C31.1785221,34.1794872 33.1578947,36.1540262 33.1578947,38.5897436 C33.1578947,41.0254609 31.1785221,43 28.7368421,43 Z M28.7368421,40.7948718 C29.9576821,40.7948718 30.9473684,39.8076023 30.9473684,38.5897436 C30.9473684,37.3718849 29.9576821,36.3846154 28.7368421,36.3846154 C27.5160021,36.3846154 26.5263158,37.3718849 26.5263158,38.5897436 C26.5263158,39.8076023 27.5160021,40.7948718 28.7368421,40.7948718 Z" id="Combined-Shape"></path>
        </g>
    </g>
</svg>