<?xml version="1.0" encoding="utf-8"?>
<!-- Generator: Adobe Illustrator 19.1.0, SVG Export Plug-In . SVG Version: 6.00 Build 0)  -->
<svg version="1.1" id="Layer_1" xmlns="http://www.w3.org/2000/svg" xmlns:xlink="http://www.w3.org/1999/xlink" x="0px" y="0px"
	 width="48px" height="48px" viewBox="-281 373 48 48" style="enable-background:new -281 373 48 48;" xml:space="preserve">

<g>
	<path d="M-237,375h-40c-1.1,0-2,0.9-2,2v40c0,1.1,0.9,2,2,2h40c1.1,0,2-0.9,2-2v-40C-235,375.9-235.9,375-237,375z
		 M-257,408c-6.1,0-11-4.9-11-11c0-6.1,4.9-11,11-11s11,4.9,11,11C-246,403.1-250.9,408-257,408z"/>
	<path d="M-253.8,391.6c0-0.1-0.1-0.3-0.2-0.4c-0.4-0.5-1.1-0.7-1.3-0.8c-0.6-0.2-1.3-0.3-2-0.3c-1.2,0-2.3,0.3-3.3,0.9
		c-1,0.6-1.9,1.4-2.5,2.5c0,0,0,0,0,0.1c0,0,0,0,0,0.1c-0.8,1.3-1,2.8-0.8,4.4c0.2,1.5,1,2.8,2.1,3.9c0.2,0.1,0.7,0.6,1.3,0.7
		c0.2,0,0.3,0,0.5,0c0,0,0.1,0,0.1,0c1.1-0.5,2.8-1.8,4.3-4.5c0,0,0,0,0,0l0-0.1c1.6-2.8,1.8-4.8,1.7-6L-253.8,391.6z"/>
</g>
</svg>
