<?xml version="1.0" encoding="utf-8"?>
<!-- Generator: Adobe Illustrator 19.1.0, SVG Export Plug-In . SVG Version: 6.00 Build 0)  -->
<svg version="1.1" id="Layer_1" xmlns="http://www.w3.org/2000/svg" xmlns:xlink="http://www.w3.org/1999/xlink" x="0px" y="0px"
	 width="48px" height="48px" viewBox="-281 373 48 48" style="enable-background:new -281 373 48 48;" xml:space="preserve">

<g>
	<path d="M-237,399h-16c-1.1,0-2,0.9-2,2s0.9,2,2,2h16c1.1,0,2-0.9,2-2S-235.9,399-237,399z"/>
	<path d="M-273,387h32c1.1,0,2-0.9,2-2s-0.9-2-2-2h-32c-1.1,0-2,0.9-2,2S-274.1,387-273,387z"/>
	<path d="M-252,415h-10c-1.1,0-2,0.9-2,2s0.9,2,2,2h10c1.1,0,2-0.9,2-2S-250.9,415-252,415z"/>
	<path d="M-262,379h10c1.1,0,2-0.9,2-2s-0.9-2-2-2h-10c-1.1,0-2,0.9-2,2S-263.1,379-262,379z"/>
	<path d="M-241,407h-32c-1.1,0-2,0.9-2,2s0.9,2,2,2h32c1.1,0,2-0.9,2-2S-239.9,407-241,407z"/>
	<path d="M-255,393c0,1.1,0.9,2,2,2h16c1.1,0,2-0.9,2-2s-0.9-2-2-2h-16C-254.1,391-255,391.9-255,393z"/>
	<path d="M-268,403.3V399h7c1.1,0,2-0.9,2-2s-0.9-2-2-2h-7v-4.2c0-0.7-0.5-0.9-1-0.5l-10,6.8l10,6.8
		C-268.5,404.2-268,404-268,403.3z"/>
</g>
</svg>
