<?xml version="1.0" encoding="utf-8"?>
<!-- Generator: Adobe Illustrator 19.1.0, SVG Export Plug-In . SVG Version: 6.00 Build 0)  -->
<svg version="1.1" id="Layer_1" xmlns="http://www.w3.org/2000/svg" xmlns:xlink="http://www.w3.org/1999/xlink" x="0px" y="0px"
	 width="48px" height="48px" viewBox="-281 373 48 48" style="enable-background:new -281 373 48 48;" xml:space="preserve">

<g>
	<path d="M-237,403h-40c-1.1,0-2-0.9-2-2s0.9-2,2-2h40c1.1,0,2,0.9,2,2S-235.9,403-237,403z"/>
	<path d="M-241,387h-32c-1.1,0-2-0.9-2-2s0.9-2,2-2h32c1.1,0,2,0.9,2,2S-239.9,387-241,387z"/>
	<path d="M-252,419h-10c-1.1,0-2-0.9-2-2s0.9-2,2-2h10c1.1,0,2,0.9,2,2S-250.9,419-252,419z"/>
	<path d="M-252,379h-10c-1.1,0-2-0.9-2-2s0.9-2,2-2h10c1.1,0,2,0.9,2,2S-250.9,379-252,379z"/>
	<path d="M-241,411h-32c-1.1,0-2-0.9-2-2s0.9-2,2-2h32c1.1,0,2,0.9,2,2S-239.9,411-241,411z"/>
	<path d="M-237,395h-40c-1.1,0-2-0.9-2-2s0.9-2,2-2h40c1.1,0,2,0.9,2,2S-235.9,395-237,395z"/>
</g>
</svg>
