<?xml version="1.0" encoding="utf-8"?>
<!-- Generator: Adobe Illustrator 19.1.0, SVG Export Plug-In . SVG Version: 6.00 Build 0)  -->
<svg version="1.1" id="Layer_1" xmlns="http://www.w3.org/2000/svg" xmlns:xlink="http://www.w3.org/1999/xlink" x="0px" y="0px"
	 width="48px" height="48px" viewBox="-281 373 48 48" style="enable-background:new -281 373 48 48;" xml:space="preserve">

<g>
	<path d="M-235,388h-4v-13c0-0.6-0.4-1-1-1h-34c-0.6,0-1,0.4-1,1v13h-4c-1.1,0-2,0.9-2,2v28c0,1.1,0.9,2,2,2h44
		c1.1,0,2-0.9,2-2v-28C-233,388.9-233.9,388-235,388z M-243,388v12l-7,7h-14l-7-7v-12v-10h28V388z"/>
	<path d="M-248.5,396.6c0-0.2-0.2-0.4-0.3-0.4l-5.2-3c-0.1-0.1-0.3-0.3-0.4-0.4l-0.6-1.4c0.7-0.5,1.3-2.2,1.4-3.3
		c0-0.1,0-0.3,0-0.4v-2.2c0-1.9-1.5-3.4-3.4-3.4c-1.9,0-3.4,1.5-3.4,3.4v2.2c0,0.1,0,0.2,0,0.4c0.1,1.2,0.6,2.8,1.4,3.4l-0.6,1.4
		c-0.1,0.2-0.2,0.3-0.4,0.4l-5.2,3c-0.1,0.1-0.3,0.3-0.3,0.4l-0.5,3.4h18L-248.5,396.6z"/>
</g>
</svg>
