<?xml version="1.0" encoding="UTF-8" standalone="no"?>
<svg width="73px" height="77px" viewBox="0 0 73 77" version="1.1" xmlns="http://www.w3.org/2000/svg" xmlns:xlink="http://www.w3.org/1999/xlink">
    <!-- Generator: Sketch 3.8.3 (29802) - http://www.bohemiancoding.com/sketch -->
    <title>jump-out</title>
    <desc>Created with Sketch.</desc>
    <defs></defs>
    <g id="icons" stroke="none" stroke-width="1" fill="none" fill-rule="evenodd">
        <g id="jump-out" fill="#333439">
            <path d="M42.7147278,11 L19.9112791,11 C8.9156391,11 0,19.8657363 0,30.8021762 L0,57.1978238 C0,68.1332137 8.91458332,77 19.9112791,77 L46.4523572,77 C57.4479973,77 66.3636364,68.1342637 66.3636364,57.1978238 L66.3636364,30.8021762 C66.3636364,30.4419961 66.3539654,30.0840602 66.3348675,29.7286113 L56.4090909,39.6 L56.4090909,61.5959783 C56.4090909,64.6357655 53.9279162,67.1 50.874744,67.1 L15.4888924,67.1 C12.432357,67.1 9.95454545,64.6324208 9.95454545,61.5959783 L9.95454545,26.4040217 C9.95454545,23.3642345 12.4357202,20.9 15.4888924,20.9 L32.7601824,20.9 L42.7147278,11 L42.7147278,11 Z" id="Combined-Shape"></path>
            <path d="M65.1827012,22.0744643 L72.2731383,29.1260497 C72.7197303,28.7221463 73,28.1396061 73,27.4919371 L73,2.20806293 C73,0.98817215 72.0059698,0 70.7797714,0 L45.3565922,0 C44.7052137,0 44.1195405,0.27878265 43.7134785,0.722881183 L51.888926,8.85353173 L26.5454545,34.0581349 L39.8392297,47.2790674 L65.1827012,22.0744643 L65.1827012,22.0744643 Z" id="Combined-Shape"></path>
        </g>
    </g>
</svg>