<?xml version="1.0" encoding="UTF-8" standalone="no"?>
<svg width="45px" height="45px" viewBox="0 0 45 45" version="1.1" xmlns="http://www.w3.org/2000/svg" xmlns:xlink="http://www.w3.org/1999/xlink">
    <!-- Generator: Sketch 46.2 (44496) - http://www.bohemiancoding.com/sketch -->
    <title>jump_out</title>
    <desc>Created with Sketch.</desc>
    <defs></defs>
    <g id="Page-1" stroke="none" stroke-width="1" fill="none" fill-rule="evenodd">
        <g id="jump_out" fill-rule="nonzero" >
            <path d="M29.8,2.8 C28.9,2.9 28.8,3.6 29.4,4.2 L33.7,8.5 L24.6,17.6 C23.8,18.4 23.8,19.7 24.6,20.4 C25.4,21.2 26.7,21.2 27.4,20.4 L36.5,11.3 L40.8,15.6 C41.4,16.2 42,16 42.2,15.2 L45,0 L29.8,2.8 Z" id="Shape"></path>
            <path d="M4,41 L4,11 L24,11 L24,7 L2,7 C0.9,7 0,7.9 0,9 L0,43 C0,44.1 0.9,45 2,45 L36,45 C37.1,45 38,44.1 38,43 L38,21 L34,21 L34,41 L4,41 Z" id="Shape"></path>
        </g>
    </g>
</svg>