<?xml version="1.0" encoding="utf-8"?>
<!-- Generator: Adobe Illustrator 19.1.0, SVG Export Plug-In . SVG Version: 6.00 Build 0)  -->
<svg version="1.1" id="Layer_1" xmlns="http://www.w3.org/2000/svg" xmlns:xlink="http://www.w3.org/1999/xlink" x="0px" y="0px"
	 width="48px" height="48px" viewBox="-281 373 48 48" style="enable-background:new -281 373 48 48;" xml:space="preserve">

<g>
	<path d="M-247,373h-20c-1.1,0-2,0.9-2,2v44c0,1.1,0.9,2,2,2h20c1.1,0,2-0.9,2-2v-44C-245,373.9-245.9,373-247,373z
		 M-257,403v2h-8v-2v-26h8V403z M-251,397c-1.1,0-2-0.9-2-2c0-1.1,0.9-2,2-2s2,0.9,2,2C-249,396.1-249.9,397-251,397z M-251,389
		c-1.1,0-2-0.9-2-2c0-1.1,0.9-2,2-2s2,0.9,2,2C-249,388.1-249.9,389-251,389z M-251,381c-1.1,0-2-0.9-2-2c0-1.1,0.9-2,2-2s2,0.9,2,2
		C-249,380.1-249.9,381-251,381z"/>
</g>
</svg>
