<?xml version="1.0" encoding="utf-8"?>
<!-- Generator: Adobe Illustrator 19.1.0, SVG Export Plug-In . SVG Version: 6.00 Build 0)  -->
<!DOCTYPE svg PUBLIC "-//W3C//DTD SVG 1.1//EN" "http://www.w3.org/Graphics/SVG/1.1/DTD/svg11.dtd">
<svg version="1.1" id="Layer_1" xmlns="http://www.w3.org/2000/svg" xmlns:xlink="http://www.w3.org/1999/xlink" x="0px" y="0px"
	 viewBox="-281 373 48 48" style="enable-background:new -281 373 48 48;" xml:space="preserve">

<g>
	<path d="M-250.3,407h-12.5c-0.7,0-0.9,0.5-0.5,1l6.8,10l6.8-10C-249.4,407.5-249.6,407-250.3,407z"/>
	<circle cx="-256.6" cy="379" r="3"/>
	<circle cx="-276.6" cy="379" r="3"/>
	<circle cx="-266.6" cy="379" r="3"/>
	<circle cx="-246.6" cy="379" r="3"/>
	<circle cx="-236.6" cy="379" r="3"/>
	<circle cx="-276.6" cy="399" r="3"/>
	<path d="M-246.6,396h-20c-1.7,0-3,1.3-3,3s1.3,3,3,3h20c1.7,0,3-1.3,3-3S-244.9,396-246.6,396z"/>
	<circle cx="-236.6" cy="399" r="3"/>
	<circle cx="-256.6" cy="389" r="3"/>
	<circle cx="-276.6" cy="389" r="3"/>
	<circle cx="-266.6" cy="389" r="3"/>
	<circle cx="-246.6" cy="389" r="3"/>
	<circle cx="-236.6" cy="389" r="3"/>
</g>
</svg>
