<?xml version="1.0" encoding="utf-8"?>
<!-- Generator: Adobe Illustrator 16.0.0, SVG Export Plug-In . SVG Version: 6.00 Build 0)  -->
<!DOCTYPE svg PUBLIC "-//W3C//DTD SVG 1.1//EN" "http://www.w3.org/Graphics/SVG/1.1/DTD/svg11.dtd">
<svg version="1.1" id="Layer_1" xmlns="http://www.w3.org/2000/svg" xmlns:xlink="http://www.w3.org/1999/xlink" x="0px" y="0px"
	 width="48px" height="48px" viewBox="0 0 48 48" enable-background="new 0 0 48 48" xml:space="preserve">
<g>
	<path  d="M17.548,7.659L2,46h4.366l4.1-10.277h18.853L33.311,46h4.635L22.449,7.659H17.548z M11.796,32.26
		l8.15-20.449l7.985,20.449H11.796z"/>
	<path  d="M45.689,8.863c0.493-0.378,0.388-0.688-0.234-0.688h-4.673c-0.622,0-1.282-0.486-1.466-1.08l-1.467-4.65
		c-0.185-0.594-0.486-0.594-0.672-0.001L35.7,7.091c-0.186,0.593-0.847,1.079-1.468,1.079h-4.658c-0.622,0-0.726,0.308-0.23,0.684
		l3.799,2.969c0.495,0.376,0.751,1.17,0.568,1.765l0,0l-1.483,4.588l-0.063,0.205c-0.182,0.594,0.074,0.773,0.569,0.398l0,0
		l3.904-2.92c0.496-0.375,1.305-0.373,1.798,0.006l3.86,2.912c0.493,0.378,0.747,0.202,0.562-0.392l-1.54-4.758
		c-0.184-0.594,0.069-1.389,0.562-1.768L45.689,8.863z"/>
</g>
</svg>
