<?xml version="1.0" encoding="utf-8"?>
<!-- Generator: Adobe Illustrator 16.0.0, SVG Export Plug-In . SVG Version: 6.00 Build 0)  -->
<!DOCTYPE svg PUBLIC "-//W3C//DTD SVG 1.1//EN" "http://www.w3.org/Graphics/SVG/1.1/DTD/svg11.dtd">
<svg version="1.1" id="Layer_1" xmlns="http://www.w3.org/2000/svg" xmlns:xlink="http://www.w3.org/1999/xlink" x="0px" y="0px"
	 width="48px" height="48px" viewBox="0 0 48 48" enable-background="new 0 0 48 48" xml:space="preserve">
<path  d="M24,0C10.767,0,0,10.767,0,24c0,13.234,10.767,24,24,24s24-10.766,24-24C48,10.767,37.233,0,24,0z
	 M39.809,36.205c-1.102-0.848-2.283-1.587-3.521-2.236c0.891-2.51,1.461-5.191,1.645-7.969h5.967
	C43.518,29.823,42.041,33.32,39.809,36.205z M4.102,26h5.967c0.183,2.777,0.754,5.459,1.645,7.969
	c-1.238,0.649-2.419,1.389-3.521,2.236C5.959,33.32,4.482,29.823,4.102,26z M8.191,11.796c1.102,0.848,2.284,1.587,3.521,2.235
	c-0.891,2.51-1.461,5.191-1.645,7.969H4.102C4.482,18.178,5.959,14.681,8.191,11.796z M22,12.911
	c-1.718-0.148-3.391-0.504-4.995-1.016c1.303-2.39,2.998-4.465,4.995-6.102V12.911z M22,16.913V22h-7.916
	c0.168-2.231,0.617-4.385,1.309-6.404C17.493,16.3,19.708,16.75,22,16.913z M22,26v5.088c-2.292,0.163-4.507,0.613-6.607,1.317
	c-0.692-2.021-1.141-4.174-1.309-6.405H22z M22,35.09v7.117c-1.997-1.637-3.692-3.712-4.995-6.102
	C18.609,35.594,20.282,35.238,22,35.09z M26,35.09c1.718,0.148,3.391,0.504,4.995,1.016c-1.304,2.39-2.998,4.465-4.995,6.102V35.09z
	 M26,31.088V26h7.916c-0.168,2.231-0.617,4.385-1.309,6.405C30.507,31.701,28.293,31.251,26,31.088z M26,22v-5.087
	c2.293-0.163,4.507-0.613,6.607-1.317c0.691,2.02,1.141,4.173,1.309,6.404H26z M26,12.911V5.795
	c1.996,1.637,3.691,3.711,4.994,6.101C29.391,12.407,27.718,12.763,26,12.911z M31.314,5.404c2.107,0.833,4.039,2.009,5.727,3.466
	c-0.744,0.544-1.541,1.026-2.365,1.47C33.73,8.547,32.605,6.887,31.314,5.404z M13.324,10.34c-0.824-0.443-1.621-0.926-2.365-1.47
	c1.688-1.457,3.618-2.633,5.726-3.465C15.394,6.887,14.269,8.547,13.324,10.34z M13.324,37.66c0.945,1.794,2.069,3.453,3.36,4.936
	c-2.107-0.832-4.038-2.008-5.725-3.465C11.704,38.586,12.5,38.104,13.324,37.66z M34.676,37.66c0.824,0.443,1.621,0.926,2.365,1.471
	c-1.688,1.457-3.617,2.633-5.725,3.465C32.606,41.113,33.73,39.454,34.676,37.66z M37.932,22c-0.184-2.777-0.754-5.459-1.645-7.969
	c1.237-0.648,2.42-1.388,3.521-2.235c2.232,2.885,3.709,6.382,4.09,10.204H37.932z"/>
</svg>
