<?xml version="1.0" encoding="utf-8"?>
<!-- Generator: Adobe Illustrator 16.0.0, SVG Export Plug-In . SVG Version: 6.00 Build 0)  -->
<!DOCTYPE svg PUBLIC "-//W3C//DTD SVG 1.1//EN" "http://www.w3.org/Graphics/SVG/1.1/DTD/svg11.dtd">
<svg version="1.1" id="Layer_1" xmlns="http://www.w3.org/2000/svg" xmlns:xlink="http://www.w3.org/1999/xlink" x="0px" y="0px"
	 width="48px" height="48px" viewBox="0 0 48 48" enable-background="new 0 0 48 48" xml:space="preserve">
<g>
	<path  d="M48,24.045c0-13.255-10.745-24-24-24s-24,10.745-24,24c0,12.58,9.682,22.893,22,23.91V27.49
		c-1.19-0.693-2-1.969-2-3.445c0-2.209,1.791-4,4-4s4,1.791,4,4c0,1.477-0.81,2.752-2,3.445v20.465
		C38.318,46.938,48,36.625,48,24.045z M6,26.045c-1.104,0-2-0.896-2-2s0.896-2,2-2h10.262c-0.166,0.641-0.262,1.309-0.262,2
		s0.097,1.359,0.262,2H6z M15.414,35.459c-0.391,0.391-0.902,0.586-1.414,0.586s-1.023-0.195-1.414-0.586
		c-0.781-0.781-0.781-2.047,0-2.828l4.528-4.528c0.688,1.166,1.662,2.14,2.828,2.828L15.414,35.459z M17.114,19.987l-4.528-4.528
		c-0.781-0.781-0.781-2.048,0-2.828c0.781-0.781,2.047-0.781,2.828,0l4.528,4.528C18.776,17.848,17.803,18.821,17.114,19.987z
		 M26,16.307c-0.641-0.165-1.309-0.262-2-0.262c-0.692,0-1.359,0.097-2,0.262V6.045c0-1.104,0.896-2,2-2s2,0.896,2,2V16.307z
		 M42,22.045c1.104,0,2,0.896,2,2s-0.896,2-2,2H31.738c0.164-0.641,0.262-1.309,0.262-2s-0.098-1.359-0.262-2H42z M32.586,12.631
		c0.781-0.781,2.047-0.781,2.828,0c0.781,0.78,0.781,2.047,0,2.828l-4.528,4.528c-0.688-1.166-1.662-2.14-2.828-2.828L32.586,12.631
		z M35.414,35.459c-0.391,0.391-0.902,0.586-1.414,0.586s-1.023-0.195-1.414-0.586l-4.528-4.528c1.166-0.688,2.14-1.662,2.828-2.828
		l4.528,4.528C36.195,33.412,36.195,34.678,35.414,35.459z"/>
</g>
</svg>
