<?xml version="1.0" encoding="utf-8"?>
<!-- Generator: Adobe Illustrator 18.1.1, SVG Export Plug-In . SVG Version: 6.00 Build 0)  -->
<svg version="1.1" id="Layer_1" xmlns="http://www.w3.org/2000/svg" xmlns:xlink="http://www.w3.org/1999/xlink" x="0px" y="0px"
	 viewBox="0 0 64 64" enable-background="new 0 0 64 64" xml:space="preserve">
<g>
	<path d="M61.6,19L37.9,30.8C36.3,31.6,34.3,32,32,32s-4.3-0.4-5.9-1.2L2.4,19C0.8,18.1,0,17.1,0,16s0.8-2.1,2.4-3L26.1,1.2
		C27.7,0.4,29.7,0,32,0s4.3,0.4,5.9,1.2L61.6,13c1.6,0.8,2.4,1.8,2.4,3S63.2,18.1,61.6,19z M61.6,35L37.9,46.7
		C36.3,47.6,34.3,48,32,48s-4.3-0.4-5.9-1.3L2.4,35C0.8,34.1,0,33.1,0,32s0.8-2.1,2.4-3L4.6,28l21.5,10.8c1.7,0.8,3.6,1.2,5.9,1.2
		s4.3-0.4,5.9-1.2L59.4,28l2.1,1.1c1.6,0.8,2.4,1.8,2.4,3C64,33.1,63.2,34.1,61.6,35z M2.4,45L4.6,44l21.5,10.7
		c1.7,0.8,3.6,1.3,5.9,1.3s4.3-0.4,5.9-1.3L59.4,44l2.1,1.1c1.6,0.8,2.4,1.8,2.4,3c0,1.1-0.8,2.1-2.4,3L37.9,62.7
		C36.3,63.5,34.3,64,32,64s-4.3-0.4-5.9-1.3L2.4,51C0.8,50.1,0,49.1,0,48C0,46.9,0.8,45.9,2.4,45z"/>
</g>
</svg>
