<?xml version="1.0" encoding="UTF-8"?>
<svg width="47px" height="40px" viewBox="0 0 47 40" version="1.1" xmlns="http://www.w3.org/2000/svg" xmlns:xlink="http://www.w3.org/1999/xlink">
    <!-- Generator: Sketch 52.3 (67297) - http://www.bohemiancoding.com/sketch -->
    <title>-learning</title>
    <desc>Created with Sketch.</desc>
    <g id="Page-1" stroke="none" stroke-width="1" fill="none" fill-rule="evenodd">
        <g id="-learning" fill="#000000" fill-rule="nonzero">
            <path d="M42.8196923,15.7365455 L23.3778462,26.4282273 L0.00184615385,13.5225455 L23.3778462,0.616863636 L46.7427692,13.5225455 L42.8196923,15.7365455 Z M37.9033846,31.2979091 L37.6153846,32.1253636 C37.1316923,32.8596364 36.5889231,33.5342727 35.9649231,34.1511364 C35.0990769,35.0475455 34.1649231,35.875 33.1735385,36.6316364 C31.8812308,37.5634545 30.4393846,38.2623182 28.9033846,38.7058636 C27.1033846,39.2649545 25.2221538,39.5445 23.3427692,39.5333182 C21.4504615,39.5445 19.5821538,39.2537727 17.7821538,38.6592727 C16.2812308,38.2045455 14.8504615,37.5299091 13.536,36.6670455 C12.4855385,35.9458182 11.5273846,35.1183636 10.6633846,34.1865455 C10.0633846,33.5808636 9.49846154,32.9285909 8.96676923,32.2520909 C8.71384615,31.9837273 8.50523077,31.6818182 8.36676923,31.3314545 L8.36676923,21.9312727 L23.1249231,30.9810909 L37.8830769,21.9536364 L37.8830769,31.3072273 L37.9052308,31.2960455 L37.9033846,31.2979091 Z" id="Shape"></path>
        </g>
    </g>
</svg>