<?xml version="1.0" encoding="UTF-8"?>
<svg width="49px" height="53px" viewBox="0 0 49 53" version="1.1" xmlns="http://www.w3.org/2000/svg" xmlns:xlink="http://www.w3.org/1999/xlink">
    <!-- Generator: Sketch 52.3 (67297) - http://www.bohemiancoding.com/sketch -->
    <title>Combined Shape</title>
    <desc>Created with Sketch.</desc>
    <g id="Page-1" stroke="none" stroke-width="1" fill="none" fill-rule="evenodd">
        <path d="M42.8362805,35.726426 C43.5892179,33.6236315 43.9995,31.3589766 43.9995,29 C43.9995,20.5882138 38.7797705,13.3729248 31.4090974,10.4229186 C30.2698074,13.1129629 27.6054049,15 24.5,15 C21.2713192,15 18.5188871,12.9597073 17.4621317,10.0978837 C9.63559803,12.8128134 4.0005,20.2606595 4.0005,29 C4.0005,31.4664799 4.44902891,33.8298453 5.2687866,36.0128969 C6.11515374,35.6817724 7.03636501,35.5 8,35.5 C12.1423438,35.5 15.5,38.858125 15.5,43 C15.5,44.3172831 15.1604512,45.5552134 14.564097,46.6310473 C17.3764562,48.1419525 20.5899092,48.9995 24,48.9995 C27.7277367,48.9995 31.2204963,47.9747528 34.211201,46.1919883 C33.755026,45.2234821 33.5,44.1415368 33.5,43 C33.5,38.858125 36.858125,35.5 41,35.5 C41.6335149,35.5 42.2486763,35.5785449 42.8362805,35.726426 Z M36.8699692,49.2613883 C33.1507494,51.6286537 28.7356172,53 24,53 C19.4729149,53 15.2384275,51.7464848 11.624812,49.5675494 C10.5504313,50.1617615 9.31473899,50.5 8,50.5 C3.858125,50.5 0.5,47.1423438 0.5,43 C0.5,41.3291336 1.04649519,39.7858132 1.97047805,38.5390464 C0.702749065,35.6153704 0,32.3897903 0,29 C0,18.125461 7.23393523,8.93924408 17.1517841,5.99137089 C17.8500202,2.57231056 20.8746124,0 24.5,0 C28.2455254,0 31.3497776,2.74561744 31.9099036,6.33399951 C41.2787672,9.60323225 48,18.5171752 48,29 C48,32.0873503 47.4171379,35.0384852 46.3554426,37.7493758 C47.6820205,39.1022829 48.5,40.9556743 48.5,43 C48.5,47.1423438 45.1423438,50.5 41,50.5 C39.4740241,50.5 38.0544328,50.0442385 36.8699692,49.2613883 Z M24.5000002,12.2498442 C27.1191297,12.2498442 29.2498442,10.1198422 29.2498442,7.50000025 C29.2498442,4.88087079 27.1191297,2.75015625 24.5000002,2.75015625 C21.881227,2.75015625 19.7501562,4.88087079 19.7501562,7.50000025 C19.7501562,10.1198422 21.8808708,12.2498442 24.5000002,12.2498442 Z M8.099844,47.799688 C10.7189735,47.799688 12.849688,45.669686 12.849688,43.049844 C12.849688,40.4307145 10.7189735,38.3 8.099844,38.3 C5.48107079,38.3 3.35,40.4307145 3.35,43.049844 C3.35,45.669686 5.48071454,47.799688 8.099844,47.799688 Z M40.949844,47.799688 C43.5689735,47.799688 45.699688,45.669686 45.699688,43.049844 C45.699688,40.4307145 43.5689735,38.3 40.949844,38.3 C38.3310708,38.3 36.2,40.4307145 36.2,43.049844 C36.2,45.669686 38.3307145,47.799688 40.949844,47.799688 Z" id="Combined-Shape" fill="#000000" fill-rule="nonzero"></path>
    </g>
</svg>