<?xml version="1.0" encoding="utf-8"?>
<!-- Generator: Adobe Illustrator 16.0.0, SVG Export Plug-In . SVG Version: 6.00 Build 0)  -->
<!DOCTYPE svg PUBLIC "-//W3C//DTD SVG 1.1//EN" "http://www.w3.org/Graphics/SVG/1.1/DTD/svg11.dtd">
<svg version="1.1" id="Layer_1" xmlns="http://www.w3.org/2000/svg" xmlns:xlink="http://www.w3.org/1999/xlink" x="0px" y="0px"
	 width="48px" height="48px" viewBox="0 0 48 48" enable-background="new 0 0 48 48" xml:space="preserve">
<g>
	<path  d="M16.785,42.124C17.492,45.546,20.506,48,24,48s6.508-2.454,7.215-5.876L32.481,36H15.519L16.785,42.124z"/>
	<g>
		<path  d="M24,0c-7.732,0-14,6.268-14,14c0,3.16,1.049,6.742,2.816,9.876c0.175,0.312,0.313,0.641,0.4,0.986
			L14.691,32H22V18c0-1.104,0.896-2,2-2s2,0.896,2,2v14h7.309l1.476-7.138c0.087-0.346,0.225-0.675,0.399-0.986
			C36.951,20.742,38,17.16,38,14C38,6.268,31.732,0,24,0z"/>
	</g>
</g>
</svg>
