<?xml version="1.0" encoding="UTF-8"?>
<svg width="48px" height="53px" viewBox="0 0 48 53" version="1.1" xmlns="http://www.w3.org/2000/svg" xmlns:xlink="http://www.w3.org/1999/xlink">
    <!-- Generator: Sketch 52.3 (67297) - http://www.bohemiancoding.com/sketch -->
    <title>noun_thumbs up_16300</title>
    <desc>Created with Sketch.</desc>
    <g id="Page-1" stroke="none" stroke-width="1" fill="none" fill-rule="evenodd">
        <g id="noun_thumbs-up_16300" fill="#000000" fill-rule="nonzero">
            <path d="M47.9282637,32.2538901 C47.9282637,29.797978 46.6802637,27.6886154 44.8594286,26.8931868 C45.1052308,26.1832088 45.2323516,25.4178462 45.2323516,24.6382418 C45.2323516,21.4322637 43.1773187,18.9214945 40.5536703,18.9214945 L34.2456264,18.9214945 C37.8261099,14.4516923 39.4697143,10.6665495 39.1358242,7.65520879 C38.4954725,1.90523077 33.9945495,0.255296703 31.6752527,0.186197802 C31.0871209,0.191472527 30.536967,0.432527473 30.1677363,0.845538462 C29.7747692,1.28334066 29.5996484,1.86778022 29.6808791,2.43903297 C29.6961758,2.55824176 30.0110769,5.39446154 27.2086154,8.41054945 C26.7871648,8.86364835 26.1758242,9.24026374 25.3260659,9.76404396 C24.0168791,10.5673846 22.2255824,11.6692747 19.9363516,13.8308571 C17.2109011,16.4065055 12.941011,19.650989 11.0352527,21.0688352 L2.33406593,21.0688352 C1.80342857,21.0688352 1.30443956,21.2761319 0.932043956,21.6506374 C0.556483516,22.0256703 0.349714286,22.5251868 0.351296703,23.0558242 L0.393494505,43.0201319 C0.394549451,44.1114725 1.28386813,44.9992088 2.37573626,44.9992088 L10.0974066,44.9992088 C13.4663736,49.9484835 18.2479121,52.8928352 22.9556044,52.8928352 L30.4826374,52.8928352 C30.6245275,52.8928352 30.7690549,52.8775385 30.9114725,52.8427253 C31.189978,52.9023297 31.4684835,52.933978 31.7385495,52.933978 L37.7786374,52.933978 C40.4028132,52.933978 42.4583736,50.4221538 42.4583736,47.2161758 C42.4583736,46.4792967 42.3470769,45.7677363 42.125011,45.0925714 C43.9653626,44.3113846 45.2302418,42.1935824 45.2302418,39.7181538 C45.2302418,38.9870769 45.1194725,38.2802637 44.9005714,37.6061538 C46.7203516,36.8001758 47.9282637,34.724044 47.9282637,32.2538901 Z M42.0005275,39.7170989 C42.0005275,41.1396923 41.2367473,42.2014945 40.5536703,42.2014945 L29.9831209,42.2014945 C29.298989,42.2014945 28.5352088,41.1396923 28.5352088,39.7170989 C28.5352088,38.3108571 29.2815824,37.2596044 29.9593846,37.2353407 L40.5779341,37.2353407 C41.2546813,37.2596044 42.0005275,38.3108571 42.0005275,39.7170989 Z M37.7796923,49.7016264 L31.7401319,49.7016264 C31.056,49.7016264 30.2927473,48.6382418 30.2927473,47.2156484 C30.2927473,46.8632967 30.3396923,46.5330989 30.4209231,46.2371868 C30.6208352,45.7666813 30.9199121,45.3541978 31.3155165,45.0593407 C31.4283956,44.976 31.5180659,44.8726154 31.5892747,44.7613187 C31.6393846,44.7497143 31.6905495,44.7328352 31.7401319,44.7328352 L37.7796923,44.7328352 C38.4627692,44.7328352 39.2281319,45.7951648 39.2281319,47.2161758 C39.2281319,48.6382418 38.4627692,49.7016264 37.7796923,49.7016264 Z M40.6254066,34.7388132 C40.6016703,34.7388132 40.5784615,34.7340659 40.5536703,34.7340659 L29.9831209,34.7340659 C29.9593846,34.7340659 29.9356484,34.7388132 29.9108571,34.7388132 L28.7978901,34.7388132 C28.1132308,34.7388132 27.3483956,33.6743736 27.3483956,32.2538901 C27.3483956,30.8312967 28.1132308,29.7679121 28.7978901,29.7679121 L43.2485275,29.7679121 C43.9331868,29.7679121 44.698022,30.8312967 44.698022,32.2538901 C44.698022,33.6743736 43.9331868,34.7388132 43.2485275,34.7388132 L40.6254066,34.7388132 Z M40.5536703,27.1226374 L29.9831209,27.1226374 C29.298989,27.1226374 28.5352088,26.0592527 28.5352088,24.6387692 C28.5352088,23.2167033 29.298989,22.1538462 29.9831209,22.1538462 L40.5536703,22.1538462 C41.2378022,22.1538462 42.0010549,23.2167033 42.0010549,24.6387692 C42.0005275,26.0592527 41.2367473,27.1226374 40.5536703,27.1226374 Z M29.6429011,19.3281758 C28.0251429,19.6214505 26.6932747,20.7676484 26.0022857,22.3036484 C25.7643956,22.5568352 25.6346374,22.9039121 25.6689231,23.2731429 C25.5607912,23.7146374 25.4853626,24.1709011 25.4853626,24.6472088 C25.4853626,25.1398681 25.5581538,25.6167033 25.6741978,26.0771868 C25.3861978,29.077978 23.9847033,33.5398681 18.298022,34.3521758 C17.6165275,34.4492308 17.1407473,35.0816703 17.2388571,35.7647473 C17.3264176,36.3882198 17.8602198,36.8365714 18.4715604,36.8365714 C18.5311648,36.8365714 18.5907692,36.8318242 18.6503736,36.8228571 C21.2112527,36.4567912 23.1286154,35.4804396 24.5522637,34.1796923 C24.9172747,35.2235604 25.5708132,36.1234286 26.4195165,36.7469011 C25.8181978,37.6499341 25.4832527,38.7423297 25.4832527,39.8938022 C25.4832527,42.018989 26.6162637,43.8572308 28.2989011,44.7428571 C28.2092308,44.9448791 28.1311648,45.1558681 28.0631209,45.3747692 C27.7962198,46.0436044 27.6516923,46.7704615 27.6516923,47.52 C27.6516923,48.2642637 27.7962198,48.9921758 28.0647033,49.6604835 L22.954022,49.6604835 C18.471033,49.6604835 14.5941099,46.0662857 12.4045714,42.6271648 C12.2421099,42.1276484 11.7710769,41.7668571 11.2172308,41.7668571 L3.62004396,41.7668571 L3.58364835,24.2990769 L11.6893187,24.2990769 C11.9567473,24.2990769 12.2152088,24.2130989 12.4309451,24.0548571 C13.9141978,22.9598242 19.0006154,19.1583297 22.1554286,16.1786374 C24.1988571,14.2491429 25.7612308,13.2880879 27.0171429,12.5153407 C28.002989,11.9092747 28.8543297,11.386022 29.5764396,10.6085275 C32.007033,7.99068132 32.6996044,5.34487912 32.8705055,3.68756044 C34.0309451,4.11586813 35.6117802,5.21037363 35.9235165,8.01178022 C36.2004396,10.5025055 33.858989,14.7143736 29.6429011,19.3281758 Z" id="Shape"></path>
        </g>
    </g>
</svg>