<?xml version="1.0" encoding="utf-8"?>
<!-- Generator: Adobe Illustrator 19.1.0, SVG Export Plug-In . SVG Version: 6.00 Build 0)  -->
<svg version="1.1" id="Layer_1" xmlns="http://www.w3.org/2000/svg" xmlns:xlink="http://www.w3.org/1999/xlink" x="0px" y="0px"
	 width="48px" height="48px" viewBox="-281 373 48 48" style="enable-background:new -281 373 48 48;" xml:space="preserve">

<path d="M-236.4,400.2L-236.4,400.2l-2.1-5c-0.7-1.5-2.8-2.3-4.5-2.3h-14c2.5-4.5,1.5-12.5,1.5-12.5
	c-0.6-4.4-3.4-7.5-7.5-7.5v11l-7,12h-8v21l20.3,3.4c1.6,0.3,4.3,0.6,5.9,0.6h1.6h1.5c0.8,0,1.9-0.6,2.3-1.2l0.8-1.2l8.7-13
	C-235.9,404.1-235.7,401.8-236.4,400.2z"/>
</svg>
