<?xml version="1.0" encoding="utf-8"?>
<!-- Generator: Adobe Illustrator 16.0.0, SVG Export Plug-In . SVG Version: 6.00 Build 0)  -->
<!DOCTYPE svg PUBLIC "-//W3C//DTD SVG 1.1//EN" "http://www.w3.org/Graphics/SVG/1.1/DTD/svg11.dtd">
<svg version="1.1" id="Layer_1" xmlns="http://www.w3.org/2000/svg" xmlns:xlink="http://www.w3.org/1999/xlink" x="0px" y="0px"
	 width="48px" height="48px" viewBox="0 0 48 48" enable-background="new 0 0 48 48" xml:space="preserve">
<g>
	<path  d="M38,33c4.971,0,9-4.029,9-9s-4.029-9-9-9s-9,4.029-9,9S33.029,33,38,33z M38,19c2.757,0,5,2.243,5,5
		s-2.243,5-5,5s-5-2.243-5-5S35.243,19,38,19z"/>
	<path  d="M16.94,33H23c1.1,0,2-0.9,2-2V17c0-1.1-0.9-2-2-2h-6.06L1,0v48L16.94,33z"/>
</g>
</svg>
