<?xml version="1.0" encoding="utf-8"?>
<!-- Generator: Adobe Illustrator 16.0.0, SVG Export Plug-In . SVG Version: 6.00 Build 0)  -->
<!DOCTYPE svg PUBLIC "-//W3C//DTD SVG 1.1//EN" "http://www.w3.org/Graphics/SVG/1.1/DTD/svg11.dtd">
<svg version="1.1" id="Layer_1" xmlns="http://www.w3.org/2000/svg" xmlns:xlink="http://www.w3.org/1999/xlink" x="0px" y="0px"
	 width="48px" height="48px" viewBox="0 0 48 48" enable-background="new 0 0 48 48" xml:space="preserve">
<g>
	<path  d="M10,15c-4.971,0-9,4.029-9,9s4.029,9,9,9s9-4.029,9-9S14.971,15,10,15z M10,29c-2.757,0-5-2.243-5-5
		s2.243-5,5-5s5,2.243,5,5S12.757,29,10,29z"/>
	<path  d="M31.06,15H25c-1.1,0-2,0.9-2,2v14c0,1.1,0.9,2,2,2h6.06L47,48V0L31.06,15z"/>
</g>
</svg>
