<?xml version="1.0" encoding="UTF-8" standalone="no"?>
<svg width="48px" height="48px" viewBox="0 0 48 48" version="1.1" xmlns="http://www.w3.org/2000/svg" xmlns:xlink="http://www.w3.org/1999/xlink">
    <!-- Generator: Sketch 46.2 (44496) - http://www.bohemiancoding.com/sketch -->
    <title>link</title>
    <desc>Created with Sketch.</desc>
    <defs></defs>
    <g id="Page-1" stroke="none" stroke-width="1" fill="none" fill-rule="evenodd">
        <g id="link" fill-rule="nonzero" fill="#000000">
            <path d="M45.232,2.768 C43.388,0.922 40.955,0 38.523,0 C36.091,0 33.66,0.922 31.814,2.768 L25.433,9.149 C22.225,12.356 21.81,17.336 24.179,21.008 C23.9881242,21.1988758 23.8477907,21.3392093 23.7579994,21.4290006 C23.7296229,21.4573771 23.6876222,21.4993778 23.6319971,21.5550029 L26.419327,24.4234866 L24.3227008,26.5194535 C22.4654357,24.6066158 21.5266279,23.6603721 21.5062775,23.6807225 C21.395327,23.791673 21.2289011,23.9580989 21.007,24.18 C19.447,23.173 17.653,22.666 15.857,22.666 C13.425,22.666 10.993,23.589 9.149,25.434 L2.768,31.815 C-0.922,35.505 -0.922,41.544 2.768,45.233 C4.612,47.078 7.044,48 9.476,48 C11.908,48 14.34,47.078 16.185,45.232 L22.566,38.851 C25.768,35.648 26.187,30.68 23.832,27.01 C24.0500893,26.7919793 24.2136562,26.6284638 24.3227008,26.5194535 C24.8170856,26.0252242 25.515961,25.3265686 26.419327,24.4234866 C26.5450875,24.2977657 26.7426452,24.1002701 27.012,23.831 C28.567,24.829 30.354,25.333 32.143,25.333 C34.575,25.333 37.006,24.41 38.852,22.565 L45.233,16.184 C48.922,12.495 48.922,6.457 45.232,2.768 Z M21.334,32.143 C21.334,33.616 20.767,34.995 19.738,36.024 L13.357,42.405 C12.328,43.434 10.95,44 9.476,44 C8.003,44 6.625,43.434 5.596,42.404 C3.456,40.264 3.456,36.783 5.596,34.643 L11.977,28.261 C13.006,27.232 14.384,26.665 15.857,26.665 C16.63,26.665 17.374,26.83 18.058,27.128 L11.576,33.609 C10.795,34.389 10.795,35.657 11.576,36.437 C11.967,36.828 12.478,37.023 12.99,37.023 C13.502,37.023 14.013,36.828 14.404,36.437 L20.882,29.959 C21.174,30.64 21.334,31.377 21.334,32.143 Z M42.404,13.356 L36.023,19.737 C34.994,20.767 33.615,21.333 32.142,21.333 C31.376,21.333 30.639,21.173 29.96,20.881 L36.403,14.438 C37.184,13.657 37.184,12.391 36.403,11.61 C35.622,10.829 34.356,10.829 33.575,11.61 L27.128,18.058 C26.83,17.374 26.665,16.631 26.665,15.857 C26.665,14.384 27.231,13.006 28.261,11.977 L34.643,5.596 C35.672,4.567 37.051,4 38.523,4 C39.997,4 41.375,4.567 42.404,5.596 C43.434,6.625 44,8.003 44,9.476 C44,10.949 43.434,12.327 42.404,13.356 Z" id="Shape"></path>
            <path d="M18.003,13.007 C19.107,13.007 20.003,12.111 20.003,11.007 L20.003,5.007 C20.003,3.903 19.107,3.007 18.003,3.007 C16.899,3.007 16.003,3.903 16.003,5.007 L16.003,11.007 C16.003,12.111 16.899,13.007 18.003,13.007 Z" id="Shape"></path>
            <path d="M10.589,14.421 C10.98,14.812 11.491,15.007 12.003,15.007 C12.515,15.007 13.026,14.812 13.417,14.421 C14.198,13.64 14.198,12.374 13.417,11.593 L9.175,7.35 C8.394,6.569 7.128,6.569 6.347,7.35 C5.566,8.131 5.566,9.397 6.347,10.178 L10.589,14.421 Z" id="Shape"></path>
            <path d="M5.968,21.007 L11.968,21.007 C13.072,21.007 13.968,20.111 13.968,19.007 C13.968,17.903 13.072,17.007 11.968,17.007 L5.968,17.007 C4.864,17.007 3.968,17.903 3.968,19.007 C3.968,20.111 4.864,21.007 5.968,21.007 Z" id="Shape"></path>
            <path d="M30,36 C28.896,36 28,36.896 28,38 L28,44 C28,45.104 28.896,46 30,46 C31.104,46 32,45.104 32,44 L32,38 C32,36.895 31.105,36 30,36 Z" id="Shape"></path>
            <path d="M37.41375,34.58575 C36.63275,33.80475 35.36675,33.80475 34.58575,34.58575 C33.80475,35.36675 33.80475,36.63275 34.58575,37.41375 L38.82775,41.65575 C39.21875,42.04675 39.72975,42.24175 40.24175,42.24175 C40.75375,42.24175 41.26475,42.04675 41.65575,41.65575 C42.43675,40.87475 42.43675,39.60875 41.65575,38.82775 L37.41375,34.58575 Z" id="Shape"></path>
            <path d="M42,28 L36,28 C34.896,28 34,28.896 34,30 C34,31.104 34.896,32 36,32 L42,32 C43.104,32 44,31.104 44,30 C44,28.896 43.105,28 42,28 Z" id="Shape"></path>
        </g>
    </g>
</svg>