<?xml version="1.0" encoding="utf-8"?>
<!-- Generator: Adobe Illustrator 16.0.0, SVG Export Plug-In . SVG Version: 6.00 Build 0)  -->
<!DOCTYPE svg PUBLIC "-//W3C//DTD SVG 1.1//EN" "http://www.w3.org/Graphics/SVG/1.1/DTD/svg11.dtd">
<svg version="1.1" id="Layer_1" xmlns="http://www.w3.org/2000/svg" xmlns:xlink="http://www.w3.org/1999/xlink" x="0px" y="0px"
	 width="48px" height="48px" viewBox="0 0 48 48" enable-background="new 0 0 48 48" xml:space="preserve">
<path  d="M45.232,2.768C43.388,0.922,40.955,0,38.523,0s-4.863,0.922-6.709,2.768l-6.381,6.381
	c-3.208,3.207-3.623,8.187-1.254,11.859l-3.172,3.172c-1.56-1.007-3.354-1.514-5.15-1.514c-2.432,0-4.864,0.923-6.708,2.768
	l-6.381,6.381c-3.69,3.69-3.69,9.729,0,13.418C4.612,47.078,7.044,48,9.476,48c2.432,0,4.864-0.922,6.709-2.768l6.381-6.381
	c3.202-3.203,3.621-8.171,1.266-11.841l3.18-3.179c1.555,0.998,3.342,1.502,5.131,1.502c2.432,0,4.863-0.923,6.709-2.768
	l6.381-6.381C48.922,12.495,48.922,6.457,45.232,2.768z M21.334,32.143c0,1.473-0.567,2.852-1.596,3.881l-6.381,6.381
	C12.328,43.434,10.95,44,9.476,44c-1.473,0-2.851-0.566-3.88-1.596c-2.14-2.14-2.14-5.621,0-7.761l6.381-6.382
	c1.029-1.029,2.407-1.596,3.88-1.596c0.773,0,1.517,0.165,2.201,0.463l-6.482,6.481c-0.781,0.78-0.781,2.048,0,2.828
	c0.391,0.391,0.902,0.586,1.414,0.586s1.023-0.195,1.414-0.586l6.478-6.478C21.174,30.64,21.334,31.377,21.334,32.143z
	 M42.404,13.356l-6.381,6.381c-1.029,1.03-2.408,1.596-3.881,1.596c-0.766,0-1.503-0.16-2.182-0.452l6.443-6.443
	c0.781-0.781,0.781-2.047,0-2.828c-0.781-0.781-2.047-0.781-2.828,0l-6.447,6.448c-0.298-0.684-0.463-1.427-0.463-2.201
	c0-1.473,0.566-2.851,1.596-3.88l6.382-6.381C35.672,4.567,37.051,4,38.523,4c1.474,0,2.852,0.567,3.881,1.596
	C43.434,6.625,44,8.003,44,9.476S43.434,12.327,42.404,13.356z"/>
</svg>
