<?xml version="1.0" encoding="utf-8"?>
<!-- Generator: Adobe Illustrator 16.0.0, SVG Export Plug-In . SVG Version: 6.00 Build 0)  -->
<!DOCTYPE svg PUBLIC "-//W3C//DTD SVG 1.1//EN" "http://www.w3.org/Graphics/SVG/1.1/DTD/svg11.dtd">
<svg version="1.1" id="Layer_1" xmlns="http://www.w3.org/2000/svg" xmlns:xlink="http://www.w3.org/1999/xlink" x="0px" y="0px"
	 width="48px" height="48px" viewBox="0 0 48 48" enable-background="new 0 0 48 48" xml:space="preserve">
<g>
	<path  d="M16,9h28c1.104,0,2-0.896,2-2s-0.896-2-2-2H16c-1.104,0-2,0.896-2,2S14.896,9,16,9z"/>
	<path  d="M44,39H16c-1.104,0-2,0.896-2,2s0.896,2,2,2h28c1.104,0,2-0.896,2-2S45.104,39,44,39z"/>
	<path  d="M44,22H16c-1.104,0-2,0.896-2,2s0.896,2,2,2h28c1.104,0,2-0.896,2-2S45.104,22,44,22z"/>
	<circle  cx="6" cy="7" r="4"/>
	<circle  cx="6" cy="24" r="4"/>
	<circle  cx="6" cy="41" r="4"/>
</g>
</svg>
