<?xml version="1.0" encoding="utf-8"?>
<!-- Generator: Adobe Illustrator 16.0.0, SVG Export Plug-In . SVG Version: 6.00 Build 0)  -->
<!DOCTYPE svg PUBLIC "-//W3C//DTD SVG 1.1//EN" "http://www.w3.org/Graphics/SVG/1.1/DTD/svg11.dtd">
<svg version="1.1" id="Layer_1" xmlns="http://www.w3.org/2000/svg" xmlns:xlink="http://www.w3.org/1999/xlink" x="0px" y="0px"
	 width="48px" height="48px" viewBox="0 0 48 48" enable-background="new 0 0 48 48" xml:space="preserve">
<g>
	<path  d="M11.585,0.586c-0.781,0.781-0.781,2.047,0,2.828c5.498,5.499,8.526,12.81,8.526,20.586
		s-3.028,15.087-8.526,20.586c-0.781,0.781-0.781,2.047,0,2.828C11.976,47.805,12.487,48,12.999,48s1.023-0.195,1.414-0.586
		C20.667,41.16,24.111,32.845,24.111,24S20.667,6.84,14.413,0.586C13.632-0.195,12.366-0.195,11.585,0.586z"/>
	<path  d="M0.586,11.586c-0.781,0.78-0.781,2.047,0,2.828c2.56,2.561,3.97,5.966,3.97,9.586s-1.41,7.025-3.97,9.586
		c-0.781,0.781-0.781,2.048,0,2.828C0.977,36.805,1.488,37,2,37s1.024-0.195,1.414-0.586C6.729,33.098,8.556,28.688,8.556,24
		s-1.826-9.098-5.142-12.414C2.633,10.805,1.367,10.805,0.586,11.586z"/>
	<path  d="M46,34.992v-3c0-4.4-3.6-8-8-8s-8,3.6-8,8v3h-2v10.992c0,1.1,0.9,2,2,2h16c1.1,0,2-0.9,2-2V34.992H46z
		 M34,31.992c0-2.205,1.795-4,4-4s4,1.795,4,4v3h-8V31.992z"/>
</g>
</svg>
