<?xml version="1.0" encoding="utf-8"?>
<!-- Generator: Adobe Illustrator 16.0.0, SVG Export Plug-In . SVG Version: 6.00 Build 0)  -->
<!DOCTYPE svg PUBLIC "-//W3C//DTD SVG 1.1//EN" "http://www.w3.org/Graphics/SVG/1.1/DTD/svg11.dtd">
<svg version="1.1" id="Layer_1" xmlns="http://www.w3.org/2000/svg" xmlns:xlink="http://www.w3.org/1999/xlink" x="0px" y="0px"
	 width="48px" height="48px" viewBox="0 0 48 48" enable-background="new 0 0 48 48" xml:space="preserve">
<g>
	<path  d="M24,17c-2.206,0-4,1.794-4,4v1h8v-1C28,18.794,26.205,17,24,17z"/>
	<path  d="M32,8H16C7.2,8,0,15.2,0,24l0,0c0,8.8,7.2,16,16,16h16c8.8,0,16-7.2,16-16l0,0C48,15.2,40.8,8,32,8z M34,33
		c0,1.1-0.9,2-2,2H16c-1.1,0-2-0.9-2-2V22h2v-1c0-4.4,3.6-8,8-8c4.4,0,8,3.6,8,8v1h2V33z"/>
</g>
</svg>
