<?xml version="1.0" encoding="utf-8"?>
<!-- Generator: Adobe Illustrator 16.0.0, SVG Export Plug-In . SVG Version: 6.00 Build 0)  -->
<!DOCTYPE svg PUBLIC "-//W3C//DTD SVG 1.1//EN" "http://www.w3.org/Graphics/SVG/1.1/DTD/svg11.dtd">
<svg version="1.1" id="Layer_1" xmlns="http://www.w3.org/2000/svg" xmlns:xlink="http://www.w3.org/1999/xlink" x="0px" y="0px"
	 width="48px" height="48px" viewBox="0 0 48 48" enable-background="new 0 0 48 48" xml:space="preserve">
<path  d="M37,0v5c0,1.469,0.812,2.746,2,3.441v29.066C39,41.088,36.075,44,32.48,44C28.907,44,26,41.088,26,37.507
	V10.493C26,4.707,21.287,0,15.493,0C9.707,0,5,4.707,5,10.493v29.014h0.096C3.855,40.188,3,41.492,3,43v5h8v-5
	c0-1.508-0.855-2.812-2.096-3.493H9V10.493C9,6.913,11.913,4,15.493,4C19.081,4,22,6.913,22,10.493v27.014
	C22,43.293,26.701,48,32.48,48C38.281,48,43,43.293,43,37.507V8.441C44.188,7.746,45,6.469,45,5V0H37z"/>
</svg>
