<?xml version="1.0" encoding="utf-8"?>
<!-- Generator: Adobe Illustrator 16.0.0, SVG Export Plug-In . SVG Version: 6.00 Build 0)  -->
<!DOCTYPE svg PUBLIC "-//W3C//DTD SVG 1.1//EN" "http://www.w3.org/Graphics/SVG/1.1/DTD/svg11.dtd">
<svg version="1.1" id="Layer_1" xmlns="http://www.w3.org/2000/svg" xmlns:xlink="http://www.w3.org/1999/xlink" x="0px" y="0px"
	 width="48px" height="48px" viewBox="0 0 48 48" enable-background="new 0 0 48 48" xml:space="preserve">
<g>
	<path  d="M19.577,25.596l-9.08,9.08l-4.31-4.311c-0.61-0.609-1.229-0.412-1.377,0.438l-2.8,15.186l15.188-2.799
		c0.85-0.146,1.046-0.766,0.437-1.377l-4.31-4.309l9.081-9.08c0.778-0.779,0.778-2.051,0-2.828
		C21.628,24.816,20.355,24.816,19.577,25.596z"/>
	<path  d="M30.802,4.81c-0.85,0.147-1.046,0.767-0.436,1.376l4.328,4.329l-9.084,9.084
		c-0.778,0.778-0.778,2.051,0,2.828c0.777,0.778,2.051,0.778,2.828,0l9.084-9.083l4.291,4.29c0.609,0.61,1.229,0.414,1.376-0.436
		l2.8-15.187L30.802,4.81z"/>
</g>
</svg>
