<?xml version="1.0" encoding="utf-8"?>
<!-- Generator: Adobe Illustrator 16.0.0, SVG Export Plug-In . SVG Version: 6.00 Build 0)  -->
<!DOCTYPE svg PUBLIC "-//W3C//DTD SVG 1.1//EN" "http://www.w3.org/Graphics/SVG/1.1/DTD/svg11.dtd">
<svg version="1.1" id="Layer_1" xmlns="http://www.w3.org/2000/svg" xmlns:xlink="http://www.w3.org/1999/xlink" x="0px" y="0px"
	 width="48px" height="48px" viewBox="0 0 48 48" enable-background="new 0 0 48 48" xml:space="preserve">
<g>
	<path  d="M26,0.045v21.911h21.91C46.947,10.297,37.658,1.008,26,0.045z"/>
	<path  d="M0,23.956c0,12.58,9.682,22.894,22,23.91V0.045C9.682,1.062,0,11.375,0,23.956z"/>
	<path  d="M45,25.955v2h-4v-2h-8v2h-4v-2h-3v22h3v-2h4v2h8v-2h4v2h3v-22H45z M33,41.955h-4v-3h4V41.955z M33,34.955
		h-4v-3h4V34.955z M45,41.955h-4v-3h4V41.955z M45,34.955h-4v-3h4V34.955z"/>
</g>
</svg>
