<?xml version="1.0" encoding="utf-8"?>
<!-- Generator: Adobe Illustrator 19.1.0, SVG Export Plug-In . SVG Version: 6.00 Build 0)  -->
<svg version="1.1" id="Layer_1" xmlns="http://www.w3.org/2000/svg" xmlns:xlink="http://www.w3.org/1999/xlink" x="0px" y="0px"
	 width="48px" height="48px" viewBox="-281 373 48 48" style="enable-background:new -281 373 48 48;" xml:space="preserve">

<g>
	<path d="M-237,375h-40c-1.1,0-2,0.9-2,2v40c0,1.1,0.9,2,2,2h40c1.1,0,2-0.9,2-2v-40C-235,375.9-235.9,375-237,375z
		 M-276,408l0.5-2.8c0-0.1,0.1-0.3,0.3-0.4l4.3-2.5c0.1-0.1,0.3-0.2,0.3-0.4l0.5-1.1c-0.7-0.5-1.2-2.2-1.2-3.1v-1.9
		c0-1.5,1.3-2.8,2.8-2.8c1.5,0,2.8,1.3,2.8,2.8v1.9c0,0.9-0.5,2.6-1.2,3.1l0.5,1.1c0,0.1,0.2,0.3,0.3,0.4l0.4,0.2l5-2.9
		c0.2-0.1,0.4-0.3,0.4-0.5l0.7-1.7c-1.1-0.7-1.7-3.2-1.7-4.6v-2.7c0-2.3,1.9-4.1,4.1-4.1c2.3,0,4.1,1.9,4.1,4.1v2.7
		c0,1.4-0.7,3.8-1.7,4.6l0.7,1.7c0.1,0.2,0.3,0.4,0.4,0.5l5,2.9l0.4-0.2c0.1-0.1,0.3-0.2,0.3-0.4l0.5-1.1c-0.7-0.5-1.2-2.2-1.2-3.1
		v-1.9c0-1.5,1.3-2.8,2.8-2.8c1.5,0,2.8,1.3,2.8,2.8v1.9c0,0.9-0.5,2.6-1.2,3.1l0.5,1.1c0,0.1,0.2,0.3,0.3,0.4l4.3,2.5
		c0.1,0.1,0.2,0.2,0.3,0.4l0.5,2.8H-276z"/>
</g>
</svg>
