<?xml version="1.0" encoding="utf-8"?>
<!-- Generator: Adobe Illustrator 19.1.0, SVG Export Plug-In . SVG Version: 6.00 Build 0)  -->
<svg version="1.1" id="Layer_1" xmlns="http://www.w3.org/2000/svg" xmlns:xlink="http://www.w3.org/1999/xlink" x="0px" y="0px"
	 width="48px" height="48px" viewBox="-281 373 48 48" style="enable-background:new -281 373 48 48;" xml:space="preserve">

<g>
	<path d="M-238,395h-8v-4.2c0-0.7-0.5-0.9-1-0.5l-10,6.8l10,6.8c0.6,0.4,1,0.2,1-0.5V399h8c1.1,0,2-0.9,2-2
		S-236.9,395-238,395z"/>
	<path d="M-250,417h-24l12-12v-28h12v9h4v-11c0-1.1-0.9-2-2-2h-28c-1.1,0-2,0.9-2,2v44c0,1.1,0.9,2,2,2h28
		c1.1,0,2-0.9,2-2v-11h-4V417z"/>
</g>
</svg>
