<?xml version="1.0" encoding="UTF-8" standalone="no"?>
<svg width="48px" height="48px" viewBox="0 0 48 48" version="1.1" xmlns="http://www.w3.org/2000/svg" xmlns:xlink="http://www.w3.org/1999/xlink">
    <!-- Generator: Sketch 46.2 (44496) - http://www.bohemiancoding.com/sketch -->
    <title>Artboard</title>
    <desc>Created with Sketch.</desc>
    <defs></defs>
    <g id="Page-1" stroke="none" stroke-width="1" fill="none" fill-rule="evenodd">
        <g id="Artboard" fill-rule="nonzero" fill="#000000">
            <g id="memory-ram" transform="translate(0.000000, 9.000000)">
                <path d="M45.910909,23.5276365 L2.0890909,23.5276365 C0.939272727,23.5276365 0,22.5883635 0,21.4385453 L0,2.70763635 C0,1.55781818 0.939272727,0.618545453 2.0890909,0.618545453 L45.910909,0.618545453 C47.0607273,0.618545453 48,1.55781818 48,2.70763635 L48,21.4385453 C48,22.5883635 47.0607273,23.5276365 45.910909,23.5276365 Z" id="Shape"></path>
                <path d="M12.2386371,27.5113629 C12.2386371,26.2895446 11.4886371,25.3295446 10.5340917,25.3295446 L3.03409164,25.3295446 L3.03409164,29.6931809 L10.5340917,29.6931809 C11.4886371,29.6931809 12.2386371,28.7331809 12.2386371,27.5113629 Z" id="Shape" transform="translate(7.636364, 27.511363) rotate(90.000000) translate(-7.636364, -27.511363) "></path>
                <path d="M23.1477275,27.511364 C23.1477275,26.2895458 22.3977275,25.3295458 21.4431822,25.3295458 L13.9431822,25.3295458 L13.9431822,29.6931821 L21.4431822,29.6931821 C22.3977275,29.6931821 23.1477275,28.7331821 23.1477275,27.511364 Z" id="Shape" transform="translate(18.545455, 27.511364) rotate(90.000000) translate(-18.545455, -27.511364) "></path>
                <path d="M34.0568182,27.5113621 C34.0568182,26.2895439 33.3068182,25.3295439 32.3522729,25.3295439 L24.8522729,25.3295439 L24.8522729,29.6931804 L32.3522729,29.6931804 C33.3068182,29.6931804 34.0568182,28.7331804 34.0568182,27.5113621 Z" id="Shape" transform="translate(29.454546, 27.511362) rotate(90.000000) translate(-29.454546, -27.511362) "></path>
                <path d="M44.9659099,27.5113643 C44.9659099,26.2895463 44.2159099,25.3295463 43.2613645,25.3295463 L35.7613645,25.3295463 L35.7613645,29.6931825 L43.2613645,29.6931825 C44.2159099,29.6931825 44.9659099,28.7331825 44.9659099,27.5113643 Z" id="Shape" transform="translate(40.363637, 27.511364) rotate(90.000000) translate(-40.363637, -27.511364) "></path>
            </g>
        </g>
    </g>
</svg>