<?xml version="1.0" encoding="utf-8"?>
<!-- Generator: Adobe Illustrator 19.1.0, SVG Export Plug-In . SVG Version: 6.00 Build 0)  -->
<svg version="1.1" id="Layer_1" xmlns="http://www.w3.org/2000/svg" xmlns:xlink="http://www.w3.org/1999/xlink" x="0px" y="0px"
	 width="48px" height="48px" viewBox="-281 373 48 48" style="enable-background:new -281 373 48 48;" xml:space="preserve">

<g>
	<path d="M-244,403.3V399h9c1.1,0,2-0.9,2-2s-0.9-2-2-2h-9v-4.2c0-0.7-0.5-0.9-1-0.5l-10,6.8l10,6.8
		C-244.5,404.2-244,404-244,403.3z"/>
	<path d="M-270,390.7v4.3h-9c-1.1,0-2,0.9-2,2s0.9,2,2,2h9v4.2c0,0.7,0.5,0.9,1,0.5l10-6.8l-10-6.8
		C-269.5,389.8-270,390-270,390.7z"/>
</g>
</svg>
