<?xml version="1.0" encoding="utf-8"?>
<!-- Generator: Adobe Illustrator 16.0.0, SVG Export Plug-In . SVG Version: 6.00 Build 0)  -->
<!DOCTYPE svg PUBLIC "-//W3C//DTD SVG 1.1//EN" "http://www.w3.org/Graphics/SVG/1.1/DTD/svg11.dtd">
<svg version="1.1" id="Layer_1" xmlns="http://www.w3.org/2000/svg" xmlns:xlink="http://www.w3.org/1999/xlink" x="0px" y="0px"
	 width="48px" height="48px" viewBox="0 0 48 48" enable-background="new 0 0 48 48" xml:space="preserve">
<path  d="M47.974,13.531c0-0.438-0.364-0.619-0.81-0.401L34.17,19.81C32.521,15.814,28.591,13,24,13
	c-4.595,0-8.528,2.82-10.173,6.822L0.826,13.13c-0.445-0.218-0.81-0.037-0.81,0.401l0.011,20.975c0,0.439,0.365,0.621,0.81,0.402
	l13.006-6.686C15.499,32.201,19.421,35,24,35c4.583,0,8.508-2.805,10.162-6.789l13.012,6.697c0.445,0.219,0.811,0.037,0.811-0.402
	L47.974,13.531z M24,31c-3.023,0-5.597-1.93-6.574-4.619L22,24.029l-4.591-2.363C18.373,18.952,20.959,17,24,17
	c3.035,0,5.618,1.945,6.586,4.652L26,24.009l4.579,2.358C29.605,29.062,27.028,31,24,31z"/>
</svg>
