<?xml version="1.0" encoding="utf-8"?>
<!-- Generator: Adobe Illustrator 16.0.0, SVG Export Plug-In . SVG Version: 6.00 Build 0)  -->
<!DOCTYPE svg PUBLIC "-//W3C//DTD SVG 1.1//EN" "http://www.w3.org/Graphics/SVG/1.1/DTD/svg11.dtd">
<svg version="1.1" id="Layer_1" xmlns="http://www.w3.org/2000/svg" xmlns:xlink="http://www.w3.org/1999/xlink" x="0px" y="0px"
	 width="48px" height="48px" viewBox="0 0 48 48" enable-background="new 0 0 48 48" xml:space="preserve">
<g>
	<path  d="M23.99,38c4.95,0,9-4.05,9-9V9c0-4.95-4.051-9-9-9c-4.95,0-9,4.05-9,9v20C14.99,33.95,19.04,38,23.99,38z"
		/>
	<path  d="M31.51,45L26,44.27V42h-4v2.263L16.49,45c-0.825,0-1.5,0.675-1.5,1.5s0.675,1.5,1.5,1.5h15.02
		c0.826,0,1.5-0.675,1.5-1.5S32.336,45,31.51,45z"/>
</g>
</svg>
