<?xml version="1.0" encoding="utf-8"?>
<!-- Generator: Adobe Illustrator 16.0.0, SVG Export Plug-In . SVG Version: 6.00 Build 0)  -->
<!DOCTYPE svg PUBLIC "-//W3C//DTD SVG 1.1//EN" "http://www.w3.org/Graphics/SVG/1.1/DTD/svg11.dtd">
<svg version="1.1" id="Layer_1" xmlns="http://www.w3.org/2000/svg" xmlns:xlink="http://www.w3.org/1999/xlink" x="0px" y="0px"
	 width="48px" height="48px" viewBox="0 0 48 48" enable-background="new 0 0 48 48" xml:space="preserve">
<g>
	<path  d="M45.397,2.583c-0.777-0.778-2.051-0.778-2.828,0l-9.081,9.081l-4.31-4.31
		c-0.609-0.609-1.229-0.413-1.376,0.437l-2.8,15.187l15.188-2.799c0.85-0.147,1.046-0.767,0.436-1.377l-4.309-4.31l9.08-9.08
		C46.175,4.634,46.175,3.361,45.397,2.583z"/>
	<path  d="M7.357,29.176l4.329,4.328l-9.084,9.084c-0.778,0.778-0.778,2.051,0,2.828c0.778,0.778,2.05,0.778,2.829,0
		l9.084-9.084l4.29,4.291c0.609,0.609,1.229,0.413,1.377-0.437L22.981,25L7.794,27.799C6.944,27.946,6.748,28.565,7.357,29.176z"/>
</g>
</svg>
