<?xml version="1.0" encoding="utf-8"?>
<!-- Generator: Adobe Illustrator 15.0.0, SVG Export Plug-In . SVG Version: 6.00 Build 0)  -->
<!DOCTYPE svg PUBLIC "-//W3C//DTD SVG 1.1//EN" "http://www.w3.org/Graphics/SVG/1.1/DTD/svg11.dtd">
<svg version="1.1" id="Layer_1" xmlns="http://www.w3.org/2000/svg" xmlns:xlink="http://www.w3.org/1999/xlink" x="0px" y="0px"
	 width="48px" height="48px" viewBox="0 0 48 48" enable-background="new 0 0 48 48" xml:space="preserve">
<g id="XMLID_624_">
	<g id="XMLID_625_">
		<path id="XMLID_626_"  d="M47.699,42.375l-22.2-38.3c-0.8-1.4-2.2-1.4-3,0l-22.2,38.3c-0.8,1.399-0.1,2.6,1.6,2.6
			h44.3C47.799,44.975,48.499,43.774,47.699,42.375z"/>
	</g>
	<g id="XMLID_604_">
		<path id="XMLID_652_" fill="#FFFFFF" d="M20.999,31.574c0.3,1.2,1.3,2.101,3,2.101s3.1-1.2,3.1-3.4c0-2.1-1.199-3.2-3-3.2
			c-1,0-2.1,0.4-2.8,1.301h-1.7l0.3-7.6h8.7v1.6h-7l-0.2,4.199c0.8-0.6,1.8-1,3.1-1c2.5,0,4.6,1.601,4.6,4.801
			c0,2.6-1.899,4.899-5.1,4.899c-2.9,0-4.7-1.8-5.1-3.8h2.1V31.574z"/>
	</g>
</g>
</svg>
