<?xml version="1.0" encoding="utf-8"?>
<!-- Generator: Adobe Illustrator 15.0.0, SVG Export Plug-In . SVG Version: 6.00 Build 0)  -->
<!DOCTYPE svg PUBLIC "-//W3C//DTD SVG 1.1//EN" "http://www.w3.org/Graphics/SVG/1.1/DTD/svg11.dtd">
<svg version="1.1" id="Layer_1" xmlns="http://www.w3.org/2000/svg" xmlns:xlink="http://www.w3.org/1999/xlink" x="0px" y="0px"
	 width="48px" height="48px" viewBox="0 0 48 48" enable-background="new 0 0 48 48" xml:space="preserve">
<g id="XMLID_656_">
	<g id="XMLID_564_">
		<path id="XMLID_565_"  d="M47.699,42.375l-22.2-38.3c-0.8-1.4-2.2-1.4-3,0l-22.2,38.3c-0.8,1.399-0.1,2.6,1.6,2.6
			h44.3C47.799,44.975,48.499,43.774,47.699,42.375z"/>
	</g>
	<g id="XMLID_517_">
		<path id="XMLID_645_" fill="#FFFFFF" d="M19.099,24.574c0.3-2.299,2.2-3.999,5-3.999c2.6,0,4.6,1.5,4.6,3.999
			c0,1.9-0.8,3.2-3.4,5.601l-3.2,3.1h6.6v1.8h-9.2v-1.8l4.6-4.399c1.9-1.801,2.7-2.801,2.7-4.2c0-1.4-1-2.4-2.7-2.4
			c-1.6,0-2.7,0.9-2.9,2.4h-2.1V24.574z"/>
	</g>
</g>
</svg>
