<?xml version="1.0" encoding="utf-8"?>
<!-- Generator: Adobe Illustrator 15.0.0, SVG Export Plug-In . SVG Version: 6.00 Build 0)  -->
<!DOCTYPE svg PUBLIC "-//W3C//DTD SVG 1.1//EN" "http://www.w3.org/Graphics/SVG/1.1/DTD/svg11.dtd">
<svg version="1.1" id="Layer_1" xmlns="http://www.w3.org/2000/svg" xmlns:xlink="http://www.w3.org/1999/xlink" x="0px" y="0px"
	 width="48px" height="48px" viewBox="0 0 48 48" enable-background="new 0 0 48 48" xml:space="preserve">
<g id="XMLID_655_">
	<g id="XMLID_585_">
		<path id="XMLID_586_"  d="M47.699,42.375l-22.2-38.3c-0.8-1.4-2.2-1.4-3,0l-22.2,38.3c-0.8,1.399-0.1,2.6,1.6,2.6
			h44.3C47.799,44.975,48.499,43.774,47.699,42.375z"/>
	</g>
	<g id="XMLID_563_">
		<path id="XMLID_647_" fill="#FFFFFF" d="M23.999,35.375c-3,0-4.8-1.5-5.1-3.801h2.1c0.3,1.4,1.3,2.2,3,2.2c2,0,3.1-1.1,3.1-2.6
			c0-1.9-1.5-2.7-2.8-2.7h-1.2v-1.7h1.1c1.1,0,2.399-0.7,2.399-2.399c0-1.5-1.3-2.2-2.7-2.2c-1.6,0-2.7,0.8-2.9,2h-2.1
			c0.3-2.2,2.3-3.7,5-3.7c2.4,0,4.6,1.2,4.6,3.7c0,1.5-1.1,2.799-2.6,3.2c1.6,0.3,3,1.5,3,3.699
			C29.099,33.574,27.099,35.375,23.999,35.375z"/>
	</g>
</g>
</svg>
