<?xml version="1.0" encoding="utf-8"?>
<!-- Generator: Adobe Illustrator 19.1.0, SVG Export Plug-In . SVG Version: 6.00 Build 0)  -->
<svg version="1.1" id="Layer_1" xmlns="http://www.w3.org/2000/svg" xmlns:xlink="http://www.w3.org/1999/xlink" x="0px" y="0px"
	 width="48px" height="48px" viewBox="-281 373 48 48" style="enable-background:new -281 373 48 48;" xml:space="preserve">

<g>
	<path d="M-243,373h-28c-1.1,0-2,0.9-2,2v44c0,1.1,0.9,2,2,2h28c1.1,0,2-0.9,2-2v-44C-241,373.9-241.9,373-243,373z
		 M-269,413v-32h24v32H-269z"/>
	<path d="M-264.4,389.1c-0.3-0.2-0.6,0-0.6,0.3l0,15.2c0,0.3,0.3,0.4,0.6,0.3l15.4-7.9L-264.4,389.1z"/>
</g>
</svg>
