<?xml version="1.0" encoding="utf-8"?>
<!-- Generator: Adobe Illustrator 19.1.0, SVG Export Plug-In . SVG Version: 6.00 Build 0)  -->
<svg version="1.1" id="Layer_1" xmlns="http://www.w3.org/2000/svg" xmlns:xlink="http://www.w3.org/1999/xlink" x="0px" y="0px"
	 width="48px" height="48px" viewBox="-281 373 48 48" style="enable-background:new -281 373 48 48;" xml:space="preserve">

<path d="M-237,375h-6v2c0,1.1-0.9,2-2,2s-2-0.9-2-2v-2h-20v2c0,1.1-0.9,2-2,2s-2-0.9-2-2v-2h-6c-1.1,0-2,0.9-2,2v40
	c0,1.1,0.9,2,2,2h40c1.1,0,2-0.9,2-2v-40C-235,375.9-235.9,375-237,375z M-269,410c-1.1,0-2-0.9-2-2s0.9-2,2-2s2,0.9,2,2
	S-267.9,410-269,410z M-269,401c-1.1,0-2-0.9-2-2s0.9-2,2-2s2,0.9,2,2S-267.9,401-269,401z M-269,392c-1.1,0-2-0.9-2-2s0.9-2,2-2
	s2,0.9,2,2S-267.9,392-269,392z M-261,410c-1.1,0-2-0.9-2-2s0.9-2,2-2s2,0.9,2,2S-259.9,410-261,410z M-261,401c-1.1,0-2-0.9-2-2
	s0.9-2,2-2s2,0.9,2,2S-259.9,401-261,401z M-261,392c-1.1,0-2-0.9-2-2s0.9-2,2-2s2,0.9,2,2S-259.9,392-261,392z M-253,410
	c-1.1,0-2-0.9-2-2s0.9-2,2-2s2,0.9,2,2S-251.9,410-253,410z M-253,401c-1.1,0-2-0.9-2-2s0.9-2,2-2s2,0.9,2,2S-251.9,401-253,401z
	 M-253,392c-1.1,0-2-0.9-2-2s0.9-2,2-2s2,0.9,2,2S-251.9,392-253,392z M-245,401c-1.1,0-2-0.9-2-2s0.9-2,2-2s2,0.9,2,2
	S-243.9,401-245,401z M-245,392c-1.1,0-2-0.9-2-2s0.9-2,2-2s2,0.9,2,2S-243.9,392-245,392z"/>
</svg>
