<?xml version="1.0" encoding="utf-8"?>
<!-- Generator: Adobe Illustrator 16.0.0, SVG Export Plug-In . SVG Version: 6.00 Build 0)  -->
<!DOCTYPE svg PUBLIC "-//W3C//DTD SVG 1.1//EN" "http://www.w3.org/Graphics/SVG/1.1/DTD/svg11.dtd">
<svg version="1.1" id="Layer_1" xmlns="http://www.w3.org/2000/svg" xmlns:xlink="http://www.w3.org/1999/xlink" x="0px" y="0px"
	 width="48px" height="48px" viewBox="0 0 48 48" enable-background="new 0 0 48 48" xml:space="preserve">
<g>
	<path  d="M30,0H10C8.9,0,8,0.9,8,2v44c0,1.1,0.9,2,2,2h28c1.1,0,2-0.9,2-2V10L30,0z M25.008,36.765
		C24.453,37.154,24,36.92,24,36.242v-4.25h-9c-1.104,0-2-0.896-2-2s0.896-2,2-2h9v-4.281c0-0.678,0.453-0.912,1.008-0.522L35,29.994
		L25.008,36.765z"/>
</g>
</svg>
