<?xml version="1.0" encoding="utf-8"?>
<!-- Generator: Adobe Illustrator 16.0.0, SVG Export Plug-In . SVG Version: 6.00 Build 0)  -->
<!DOCTYPE svg PUBLIC "-//W3C//DTD SVG 1.1//EN" "http://www.w3.org/Graphics/SVG/1.1/DTD/svg11.dtd">
<svg version="1.1" id="Layer_1" xmlns="http://www.w3.org/2000/svg" xmlns:xlink="http://www.w3.org/1999/xlink" x="0px" y="0px"
	 width="48px" height="48px" viewBox="0 0 48 48" enable-background="new 0 0 48 48" xml:space="preserve">
<path  d="M41.631,2.035l-26,3.25C14.686,5.462,14,6.288,14,7.25v25.432C13.09,32.25,12.075,32,11,32
	c-3.866,0-7,3.134-7,7s3.134,7,7,7c3.866,0,7-3.134,7-7V13.841l22-2.5v16.342C39.09,27.25,38.075,27,37,27c-3.866,0-7,3.134-7,7
	s3.134,7,7,7c3.865,0,7-3.134,7-7V4C44,2.748,42.862,1.804,41.631,2.035z"/>
</svg>
