<?xml version="1.0" encoding="utf-8"?>
<!-- Generator: Adobe Illustrator 16.0.0, SVG Export Plug-In . SVG Version: 6.00 Build 0)  -->
<!DOCTYPE svg PUBLIC "-//W3C//DTD SVG 1.1//EN" "http://www.w3.org/Graphics/SVG/1.1/DTD/svg11.dtd">
<svg version="1.1" id="Layer_1" xmlns="http://www.w3.org/2000/svg" xmlns:xlink="http://www.w3.org/1999/xlink" x="0px" y="0px"
	 width="48px" height="48px" viewBox="0 0 48 48" enable-background="new 0 0 48 48" xml:space="preserve">
<g>
	<path  d="M31.5,45l-5.511-0.73V42h-4v2.263L16.479,45c-0.825,0-1.5,0.675-1.5,1.5s0.675,1.5,1.5,1.5H31.5
		c0.825,0,1.5-0.675,1.5-1.5S32.325,45,31.5,45z"/>
	<path  d="M24,38c4.95,0,9-4.05,9-9V18.484L16.939,34.545C18.589,36.643,21.14,38,24,38z"/>
	<path  d="M42.414,3.414c0.781-0.781,0.781-2.047,0-2.828s-2.047-0.781-2.828,0l-6.748,6.748
		C32.051,3.174,28.381,0,24,0c-4.95,0-9,4.05-9,9v16.172l-9.414,9.414c-0.781,0.781-0.781,2.047,0,2.828C5.977,37.805,6.488,38,7,38
		s1.023-0.195,1.414-0.586L33,12.828L42.414,3.414z"/>
</g>
</svg>
