<?xml version="1.0" encoding="utf-8"?>
<!-- Generator: Adobe Illustrator 15.0.0, SVG Export Plug-In . SVG Version: 6.00 Build 0)  -->
<!DOCTYPE svg PUBLIC "-//W3C//DTD SVG 1.1//EN" "http://www.w3.org/Graphics/SVG/1.1/DTD/svg11.dtd">
<svg version="1.1" id="Layer_1" xmlns="http://www.w3.org/2000/svg" xmlns:xlink="http://www.w3.org/1999/xlink" x="0px" y="0px"
	 width="48px" height="48px" viewBox="0 0 48 48" enable-background="new 0 0 48 48" xml:space="preserve">
<g id="XMLID_1_">
	<path id="XMLID_701_"  d="M10,48H2.2c-1.1,0-2-0.9-2-2v-8c0-1.1,0.9-2,2-2H10c1.1,0,2,0.9,2,2v8
		C12,47.1,11.1,48,10,48z"/>
	<path id="XMLID_730_"  d="M45.8,48H38c-1.1,0-2-0.9-2-2v-8c0-1.1,0.9-2,2-2h7.8c1.101,0,2,0.9,2,2v8
		C47.8,47.1,46.9,48,45.8,48z"/>
	<path id="XMLID_731_"  d="M28.3,12h-7.8c-1.1,0-2-0.9-2-2V2c0-1.1,0.9-2,2-2h7.8c1.101,0,2,0.9,2,2v8
		C30.3,11.1,29.4,12,28.3,12z"/>
	<line id="XMLID_729_" fill="none" stroke="#333439" stroke-width="4" stroke-miterlimit="10" x1="24" y1="16" x2="24" y2="24"/>
	<path id="XMLID_765_" fill="none" stroke="#333439" stroke-width="4" stroke-miterlimit="10" d="M6.1,32.2v-6.3c0-1.101,0.9-2,2-2
		h31.8c1.1,0,2,0.9,2,2V32.1"/>
</g>
</svg>
