<?xml version="1.0" encoding="utf-8"?>
<!-- Generator: Adobe Illustrator 15.0.0, SVG Export Plug-In . SVG Version: 6.00 Build 0)  -->
<!DOCTYPE svg PUBLIC "-//W3C//DTD SVG 1.1//EN" "http://www.w3.org/Graphics/SVG/1.1/DTD/svg11.dtd">
<svg version="1.1" id="Layer_1" xmlns="http://www.w3.org/2000/svg" xmlns:xlink="http://www.w3.org/1999/xlink" x="0px" y="0px"
	 width="48px" height="48px" viewBox="0 0 48 48" enable-background="new 0 0 48 48" xml:space="preserve">
<g id="XMLID_1_">
	<g id="XMLID_686_">
		
			<line id="XMLID_685_" fill="none" stroke="#333439" stroke-width="4" stroke-linecap="round" stroke-linejoin="round" stroke-miterlimit="10" x1="36.2" y1="5.95" x2="36.2" y2="19.95"/>
		
			<line id="XMLID_698_" fill="none" stroke="#333439" stroke-width="4" stroke-linecap="round" stroke-linejoin="round" stroke-miterlimit="10" x1="43.2" y1="12.95" x2="29.2" y2="12.95"/>
	</g>
	<g id="XMLID_78_">
		<polygon id="XMLID_340_"  points="17,11.15 17,11.15 17,11.25 		"/>
		<path id="XMLID_182_"  d="M40.3,37.351l-8.699-4.9c-1-0.6-2.301-0.8-3.4-0.5l-4.601,1.1c-2-2.1-3.8-4.399-5.5-6.899
			c-1.699-2.5-3.199-5.1-4.399-7.7l2.7-3.9c0.699-1,0.899-2.2,0.8-3.4l-1.4-9.9c-0.1-0.5-0.5-0.8-0.899-0.9L4.8-0.05l0,0l0,0
			c0,1.3,0.2,2.6,0.4,4c1.1,8,4.3,16.5,9.7,24.4C20.3,36.25,27,42.25,34.101,46.25c1.199,0.7,2.399,1.2,3.5,1.8l0,0l0,0L40.8,38.65
			C40.9,38.05,40.7,37.55,40.3,37.351z"/>
	</g>
</g>
</svg>
