<?xml version="1.0" encoding="utf-8"?>
<!-- Generator: Adobe Illustrator 16.0.0, SVG Export Plug-In . SVG Version: 6.00 Build 0)  -->
<!DOCTYPE svg PUBLIC "-//W3C//DTD SVG 1.1//EN" "http://www.w3.org/Graphics/SVG/1.1/DTD/svg11.dtd">
<svg version="1.1" id="Layer_1" xmlns="http://www.w3.org/2000/svg" xmlns:xlink="http://www.w3.org/1999/xlink" x="0px" y="0px"
	 width="48px" height="48px" viewBox="0 0 48 48" enable-background="new 0 0 48 48" xml:space="preserve">
<g>
	<path  d="M38,0h-4v2c0,1.104-0.896,2-2,2s-2-0.896-2-2V0H18v2c0,1.104-0.896,2-2,2s-2-0.896-2-2V0h-4
		C8.9,0,8,0.9,8,2v44c0,1.1,0.9,2,2,2h28c1.1,0,2-0.9,2-2V2C40,0.9,39.1,0,38,0z M22,37h-6c-1.104,0-2-0.896-2-2s0.896-2,2-2h6
		c1.104,0,2,0.896,2,2S23.104,37,22,37z M32,28H16c-1.104,0-2-0.896-2-2s0.896-2,2-2h16c1.104,0,2,0.896,2,2S33.104,28,32,28z
		 M32,19H16c-1.104,0-2-0.896-2-2s0.896-2,2-2h16c1.104,0,2,0.896,2,2S33.104,19,32,19z"/>
</g>
</svg>
