<?xml version="1.0" encoding="utf-8"?>
<!-- Generator: Adobe Illustrator 16.0.0, SVG Export Plug-In . SVG Version: 6.00 Build 0)  -->
<!DOCTYPE svg PUBLIC "-//W3C//DTD SVG 1.1//EN" "http://www.w3.org/Graphics/SVG/1.1/DTD/svg11.dtd">
<svg version="1.1" id="Layer_1" xmlns="http://www.w3.org/2000/svg" xmlns:xlink="http://www.w3.org/1999/xlink" x="0px" y="0px"
	 width="48px" height="48px" viewBox="0 0 48 48" enable-background="new 0 0 48 48" xml:space="preserve">
<g>
	<path  d="M47.697,32.877L45,29.318V14c0-1.104-0.896-2-2-2H20c-1.104,0-2,0.896-2,2v15.318l-2.698,3.559
		C15.136,33.097,15,33.501,15,33.775V35c0,0.55,0.45,1,1,1h31c0.55,0,1-0.45,1-1v-1.225C48,33.501,47.863,33.097,47.697,32.877z
		 M41,28H22V16h19V28z"/>
	<path  d="M9.993,17.235L0,24.006l9.993,6.806C10.547,31.201,11,30.967,11,30.289V17.758
		C11,17.08,10.547,16.845,9.993,17.235z"/>
</g>
</svg>
