<?xml version="1.0" encoding="utf-8"?>
<!-- Generator: Adobe Illustrator 16.0.0, SVG Export Plug-In . SVG Version: 6.00 Build 0)  -->
<!DOCTYPE svg PUBLIC "-//W3C//DTD SVG 1.1//EN" "http://www.w3.org/Graphics/SVG/1.1/DTD/svg11.dtd">
<svg version="1.1" id="Layer_1" xmlns="http://www.w3.org/2000/svg" xmlns:xlink="http://www.w3.org/1999/xlink" x="0px" y="0px"
	 width="48px" height="48px" viewBox="0 0 48 48" enable-background="new 0 0 48 48" xml:space="preserve">
<g>
	<path  d="M28.642,4.642c-7.449,0-13.906,4.214-17.143,10.382l3.334,2.297c2.491-5.127,7.736-8.679,13.809-8.679
		C37.11,8.642,44,15.531,44,23.999c0,8.469-6.89,15.359-15.358,15.359c-5.86,0-10.961-3.303-13.549-8.141l-3.31,2.279
		c3.321,5.883,9.621,9.861,16.858,9.861C39.333,43.358,48,34.69,48,23.999C48,13.309,39.333,4.642,28.642,4.642z"/>
	<path  d="M1.648,13.096c-0.297-0.209-0.577-0.309-0.818-0.309C0.335,12.787,0,13.205,0,13.951v20.813
		c0,0.745,0.335,1.164,0.831,1.164c0.242,0,0.521-0.1,0.818-0.309L18,24.358L1.648,13.096z"/>
	<path  d="M33.72,20.411c0-2.55-2.02-4.33-4.911-4.33c-2.81,0-4.927,1.714-5.268,4.264l-0.054,0.396h2.734
		l0.034-0.312c0.14-1.271,1.079-2.029,2.513-2.029c1.435,0,2.291,0.76,2.291,2.031c0,1.163-0.563,2.04-2.513,3.907l-4.669,4.484
		v2.26h9.781v-2.459h-5.954l2.565-2.438C32.656,23.913,33.72,22.542,33.72,20.411z"/>
</g>
</svg>
