<?xml version="1.0" encoding="utf-8"?>
<!-- Generator: Adobe Illustrator 16.0.0, SVG Export Plug-In . SVG Version: 6.00 Build 0)  -->
<!DOCTYPE svg PUBLIC "-//W3C//DTD SVG 1.1//EN" "http://www.w3.org/Graphics/SVG/1.1/DTD/svg11.dtd">
<svg version="1.1" id="Layer_1" xmlns="http://www.w3.org/2000/svg" xmlns:xlink="http://www.w3.org/1999/xlink" x="0px" y="0px"
	 width="48px" height="48px" viewBox="0 0 48 48" enable-background="new 0 0 48 48" xml:space="preserve">
<g>
	<path  d="M22.891,20.411c0-2.55-2.02-4.33-4.911-4.33c-2.81,0-4.927,1.714-5.268,4.264l-0.054,0.396h2.734
		l0.034-0.312c0.14-1.271,1.079-2.029,2.513-2.029c1.435,0,2.291,0.76,2.291,2.031c0,1.163-0.563,2.04-2.513,3.907l-4.669,4.484
		v2.26h9.781v-2.459h-5.954l2.565-2.438C21.827,23.913,22.891,22.542,22.891,20.411z"/>
	<path  d="M29.849,7.659C26.854,5.758,23.311,4.642,19.5,4.642c-10.691,0-19.358,8.667-19.358,19.357
		c0,10.691,8.667,19.359,19.358,19.359c3.646,0,7.043-1.026,9.955-2.779l-2.936-2.936c-2.106,1.089-4.489,1.715-7.02,1.715
		c-8.469,0-15.358-6.891-15.358-15.359c0-8.468,6.89-15.357,15.358-15.357c2.697,0,5.231,0.704,7.437,1.931L29.849,7.659z"/>
	<path  d="M31.507,13.127c-0.297-0.209-0.576-0.309-0.818-0.309c-0.188,0-0.344,0.079-0.477,0.196
		c-0.215,0.189-0.354,0.507-0.354,0.968v20.813c0,0.173,0.021,0.323,0.056,0.459c0.112,0.453,0.395,0.705,0.774,0.705
		c0.242,0,0.521-0.1,0.818-0.309L47.858,24.39L31.507,13.127z"/>
</g>
</svg>
