<?xml version="1.0" encoding="utf-8"?>
<!-- Generator: Adobe Illustrator 19.1.0, SVG Export Plug-In . SVG Version: 6.00 Build 0)  -->
<svg version="1.1" id="Layer_1" xmlns="http://www.w3.org/2000/svg" xmlns:xlink="http://www.w3.org/1999/xlink" x="0px" y="0px"
	 width="48px" height="48px" viewBox="-281 373 48 48" style="enable-background:new -281 373 48 48;" xml:space="preserve">

<g>
	<path d="M-272,379v36c0,3.3,2.7,6,6,6v-48C-269.3,373-272,375.7-272,379z"/>
	<path d="M-249,380c-0.8-0.8-2-0.8-2.8,0c-0.8,0.8-0.8,2,0,2.8c3.8,3.8,5.9,8.8,5.9,14.1s-2.1,10.4-5.9,14.1
		c-0.8,0.8-0.8,2,0,2.8c0.4,0.4,0.9,0.6,1.4,0.6s1-0.2,1.4-0.6c4.5-4.5,7-10.6,7-17S-244.5,384.6-249,380z"/>
	<path d="M-260.3,388.5c-0.8,0.8-0.8,2,0,2.8c1.5,1.5,2.3,3.5,2.3,5.7s-0.8,4.1-2.3,5.7c-0.8,0.8-0.8,2,0,2.8
		c0.4,0.4,0.9,0.6,1.4,0.6s1-0.2,1.4-0.6c2.3-2.3,3.5-5.3,3.5-8.5s-1.2-6.2-3.5-8.5C-258.3,387.7-259.6,387.7-260.3,388.5z"/>
</g>
</svg>
