<?xml version="1.0" encoding="utf-8"?>
<!-- Generator: Adobe Illustrator 19.1.0, SVG Export Plug-In . SVG Version: 6.00 Build 0)  -->
<svg version="1.1" id="Layer_1" xmlns="http://www.w3.org/2000/svg" xmlns:xlink="http://www.w3.org/1999/xlink" x="0px" y="0px"
	 width="48px" height="48px" viewBox="-281 373 48 48" style="enable-background:new -281 373 48 48;" xml:space="preserve">

<g>
	<g>
		<path d="M-281,373.1L-281,373.1c0,1.3,0.2,2.6,0.4,3.9c1.1,8,4.3,16.5,9.7,24.3c5.4,7.8,12.1,13.9,19.1,17.8
			c1.2,0.7,2.4,1.2,3.5,1.8l0,0l0,0l3.2-9.4c0.2-0.5,0-1-0.5-1.2l-8.7-4.9c-1-0.6-2.3-0.8-3.4-0.5l-4.6,1.1c-2-2.1-3.8-4.4-5.5-6.9
			c-1.7-2.5-3.2-5.1-4.4-7.7l2.7-3.9c0.7-1,0.9-2.2,0.8-3.4l0,0l-1.4-9.9c-0.1-0.5-0.5-0.8-0.9-0.9L-281,373.1L-281,373.1z"/>
	</g>
	<g>
		<path d="M-239.5,386.7c-0.3,0-0.6-0.1-0.9-0.3c-2-1.6-4.5-2.4-7.1-2.4s-5,0.8-7.1,2.4c-0.7,0.5-1.6,0.4-2.1-0.3
			c-0.5-0.7-0.4-1.6,0.3-2.1c2.6-2,5.7-3.1,8.9-3.1s6.3,1.1,8.9,3.1c0.7,0.5,0.8,1.5,0.3,2.1C-238.6,386.5-239.1,386.7-239.5,386.7z
			"/>
		<path d="M-239.5,385.2C-239.5,385.3-239.5,385.3-239.5,385.2"/>
		<path d="M-255.6,385.3C-255.6,385.3-255.5,385.3-255.6,385.3"/>
	</g>
	<path d="M-260.5,380.5c-0.4,0-0.9-0.2-1.2-0.6c-0.5-0.7-0.4-1.6,0.3-2.1c4-3.1,8.9-4.8,13.9-4.8s9.9,1.7,13.9,4.8
		c0.7,0.5,0.8,1.5,0.3,2.1c-0.5,0.7-1.5,0.8-2.1,0.3c-3.5-2.7-7.7-4.1-12.1-4.1s-8.6,1.4-12.1,4.1
		C-259.9,380.4-260.2,380.5-260.5,380.5z"/>
	<path d="M-247.5,392c1.9,0,3.5,1.6,3.5,3.5s-1.6,3.5-3.5,3.5s-3.5-1.6-3.5-3.5S-249.4,392-247.5,392 M-247.5,389
		c-3.6,0-6.5,2.9-6.5,6.5s2.9,6.5,6.5,6.5s6.5-2.9,6.5-6.5S-243.9,389-247.5,389L-247.5,389z"/>
</g>
</svg>
