<?xml version="1.0" encoding="utf-8"?>
<!-- Generator: Adobe Illustrator 19.1.0, SVG Export Plug-In . SVG Version: 6.00 Build 0)  -->
<svg version="1.1" id="Layer_1" xmlns="http://www.w3.org/2000/svg" xmlns:xlink="http://www.w3.org/1999/xlink" x="0px" y="0px"
	 width="48px" height="48px" viewBox="-281 373 48 48" style="enable-background:new -281 373 48 48;" xml:space="preserve">

<g>
	<circle cx="-264.3" cy="403.3" r="3.1"/>
	<path d="M-247.6,393.1v-10.7c0-1.2-0.9-2.1-2.1-2.1h-29.2c-1.2,0-2.1,0.9-2.1,2.1v29.2c0,1.2,0.9,2.1,2.1,2.1h29.2
		c1.2,0,2.1-0.9,2.1-2.1v-10.7c5.1,3,14.6,8.6,14.6,8.6v-25C-233,384.5-242.5,390.1-247.6,393.1z M-264.3,408.5
		c-2.9,0-5.2-2.3-5.2-5.2c0-2.9,2.3-5.2,5.2-5.2c2.9,0,5.2,2.3,5.2,5.2C-259.1,406.1-261.4,408.5-264.3,408.5z M-257,395.7
		c-0.2,0.3-0.5,0.4-0.8,0.4c-0.2,0-0.5-0.1-0.6-0.2c-1.7-1.3-3.7-2-5.8-2c-2.1,0-4.1,0.7-5.8,2c-0.5,0.4-1.1,0.3-1.5-0.2
		c-0.4-0.5-0.3-1.1,0.2-1.5c2-1.6,4.5-2.5,7.1-2.5c2.6,0,5.1,0.9,7.1,2.5C-256.7,394.6-256.7,395.3-257,395.7z M-253.1,390.8
		c-0.2,0.3-0.5,0.4-0.8,0.4c-0.2,0-0.5-0.1-0.6-0.2c-2.8-2.2-6.1-3.4-9.7-3.4s-6.9,1.2-9.7,3.4c-0.5,0.4-1.1,0.3-1.5-0.2
		c-0.4-0.5-0.3-1.1,0.2-1.5c3.2-2.5,7-3.8,11-3.8c4,0,7.8,1.3,11,3.8C-252.9,389.7-252.8,390.4-253.1,390.8z"/>
</g>
</svg>
