<?xml version="1.0" encoding="utf-8"?>
<!-- Generator: Adobe Illustrator 16.0.0, SVG Export Plug-In . SVG Version: 6.00 Build 0)  -->
<!DOCTYPE svg PUBLIC "-//W3C//DTD SVG 1.1//EN" "http://www.w3.org/Graphics/SVG/1.1/DTD/svg11.dtd">
<svg version="1.1" id="Layer_1" xmlns="http://www.w3.org/2000/svg" xmlns:xlink="http://www.w3.org/1999/xlink" x="0px" y="0px"
	 width="48px" height="48px" viewBox="0 0 48 48" enable-background="new 0 0 48 48" xml:space="preserve">
<g>
	<path  d="M30.467,33.194l-9.228-5.354c-0.254-0.147-0.547-0.492-0.651-0.766l-1.115-2.507
		c1.476-1.087,2.529-4.594,2.529-6.566v-4c0-3.299-2.706-5.999-6.005-5.999c-3.298,0-5.994,2.7-5.994,5.999v4
		c0,2.017,0.963,5.558,2.494,6.639l-1.087,2.435c-0.104,0.273-0.397,0.618-0.651,0.766l-9.228,5.354
		c-0.254,0.147-0.501,0.504-0.55,0.793l-0.977,6.011h31.992l-0.979-6.011C30.969,33.698,30.721,33.342,30.467,33.194z"/>
	<path  d="M27.996,15.998h18c1.104,0,2-0.896,2-2s-0.896-2-2-2h-18c-1.105,0-2,0.896-2,2S26.891,15.998,27.996,15.998
		z"/>
	<path  d="M45.996,21.998h-18c-1.105,0-2,0.896-2,2s0.895,2,2,2h18c1.104,0,2-0.896,2-2S47.1,21.998,45.996,21.998z"
		/>
	<path  d="M45.996,31.998h-9c-1.105,0-2,0.896-2,2s0.895,2,2,2h9c1.104,0,2-0.896,2-2S47.1,31.998,45.996,31.998z"/>
</g>
</svg>
