<?xml version="1.0" encoding="utf-8"?>
<!-- Generator: Adobe Illustrator 19.1.0, SVG Export Plug-In . SVG Version: 6.00 Build 0)  -->
<svg version="1.1" id="Layer_1" xmlns="http://www.w3.org/2000/svg" xmlns:xlink="http://www.w3.org/1999/xlink" x="0px" y="0px"
	 width="48px" height="48px" viewBox="-281 373 48 48" style="enable-background:new -281 373 48 48;" xml:space="preserve">

<g>
	<path d="M-256.4,396.4c-3.1-3.1-8.3-3.1-11.4,0l-8.8,8.8c-3.1,3.1-3.1,8.3,0,11.4l0,0c3.1,3.1,8.3,3.1,11.4,0l8.8-8.8
		C-253.3,404.7-253.3,399.5-256.4,396.4L-256.4,396.4z M-259.6,402.4l-3,3c-0.8,0.8-2.1,0.8-2.8,0c-0.8-0.8-0.8-2.1,0-2.8l3-3
		c0.8-0.8,2.1-0.8,2.8,0S-258.8,401.6-259.6,402.4z"/>
	<path d="M-235,397.1c-0.8-5.6-3.3-10.7-7.4-14.7c-4-4-9.1-6.6-14.7-7.4c-0.6-0.1-1.3,0.1-1.7,0.6
		c-0.3,0.3-0.5,0.7-0.6,1.1c-0.2,1.1,0.6,2.1,1.7,2.3c4.7,0.7,9,2.8,12.4,6.2c3.4,3.4,5.5,7.7,6.2,12.4c0.2,1.1,1.2,1.9,2.3,1.7
		C-235.6,399.2-234.9,398.2-235,397.1z"/>
	<path d="M-249.5,389.5c-2-2-4.6-3.5-7.4-4.2c-0.7-0.2-1.4,0-1.9,0.5c-0.2,0.2-0.4,0.6-0.5,0.9
		c-0.3,1.1,0.4,2.2,1.5,2.4c2.1,0.5,4,1.6,5.6,3.1c1.5,1.5,2.6,3.4,3.1,5.6c0.3,1.1,1.4,1.7,2.4,1.5c1.1-0.3,1.7-1.4,1.5-2.4
		C-246,394.1-247.4,391.5-249.5,389.5z"/>
</g>
</svg>
