<?xml version="1.0" encoding="utf-8"?>
<!-- Generator: Adobe Illustrator 16.0.0, SVG Export Plug-In . SVG Version: 6.00 Build 0)  -->
<!DOCTYPE svg PUBLIC "-//W3C//DTD SVG 1.1//EN" "http://www.w3.org/Graphics/SVG/1.1/DTD/svg11.dtd">
<svg version="1.1" id="Layer_1" xmlns="http://www.w3.org/2000/svg" xmlns:xlink="http://www.w3.org/1999/xlink" x="0px" y="0px"
	 width="48px" height="48px" viewBox="0 0 48 48" enable-background="new 0 0 48 48" xml:space="preserve">
<g>
	<path  d="M47.288,43.68c-0.034-0.208-0.213-0.465-0.396-0.57l-6.632-3.848c-0.183-0.106-0.394-0.354-0.469-0.551
		l-0.8-1.801c1.06-0.782,1.816-3.303,1.816-4.721v-2.874c0-2.371-1.944-4.312-4.315-4.312c-2.37,0-4.308,1.94-4.308,4.312v2.874
		c0,1.449,0.692,3.994,1.793,4.771l-0.781,1.75c-0.075,0.197-0.285,0.444-0.469,0.551l-4.782,2.774l-8.703-5.056
		c-0.23-0.133-0.496-0.444-0.59-0.693l-1.011-2.271c1.337-0.985,2.292-4.162,2.292-5.951V24.44c0-2.989-2.452-5.437-5.441-5.437
		s-5.432,2.447-5.432,5.437v3.624c0,1.828,0.873,5.037,2.26,6.018l-0.984,2.205c-0.095,0.249-0.36,0.561-0.591,0.693l-8.362,4.854
		c-0.23,0.133-0.454,0.457-0.498,0.719L0,48h24.999h3.993h19L47.288,43.68z"/>
	<path  d="M46,0H22c-1.104,0-2,0.896-2,2v15c0,1.104,0.896,2,2,2h3v6l6-6h15c1.105,0,2-0.896,2-2V2
		C48,0.896,47.105,0,46,0z"/>
</g>
</svg>
