<?xml version="1.0" encoding="utf-8"?>
<!-- Generator: Adobe Illustrator 16.0.0, SVG Export Plug-In . SVG Version: 6.00 Build 0)  -->
<!DOCTYPE svg PUBLIC "-//W3C//DTD SVG 1.1//EN" "http://www.w3.org/Graphics/SVG/1.1/DTD/svg11.dtd">
<svg version="1.1" id="Layer_1" xmlns="http://www.w3.org/2000/svg" xmlns:xlink="http://www.w3.org/1999/xlink" x="0px" y="0px"
	 width="48px" height="48px" viewBox="0 0 48 48" enable-background="new 0 0 48 48" xml:space="preserve">
<g>
	<path  d="M41.34,37.282l-8.688-4.86c-1.045-0.584-2.259-0.76-3.405-0.49l-4.597,1.075
		c-0.188-0.2-0.37-0.413-0.555-0.617l-2.723,2.724c4.19,4.581,8.858,8.298,13.695,10.99c1.175,0.653,2.356,1.246,3.545,1.779
		l0.006-0.016l0.017,0.014l3.17-9.408C41.957,38.021,41.761,37.518,41.34,37.282z"/>
	<path  d="M47.414,0.586c-0.781-0.781-2.047-0.781-2.828,0L19.099,26.073c-1.705-2.496-3.171-5.059-4.414-7.643
		l2.671-3.893c0.666-0.971,0.944-2.166,0.778-3.352l0.007,0.047L16.76,1.327c-0.066-0.477-0.464-0.843-0.94-0.865L5.902,0
		l0.007,0.021l-0.018,0c0.065,1.3,0.189,2.618,0.372,3.95c1.098,8.002,4.307,16.468,9.665,24.305
		c0.132,0.192,0.274,0.371,0.407,0.561l-15.75,15.75c-0.781,0.781-0.781,2.047,0,2.828C0.977,47.805,1.488,48,2,48
		s1.023-0.195,1.414-0.586l15.348-15.348l0,0l2.737-2.737v-0.001L47.414,3.414C48.195,2.633,48.195,1.367,47.414,0.586z"/>
</g>
</svg>
