<?xml version="1.0" encoding="utf-8"?>
<!-- Generator: Adobe Illustrator 16.0.0, SVG Export Plug-In . SVG Version: 6.00 Build 0)  -->
<!DOCTYPE svg PUBLIC "-//W3C//DTD SVG 1.1//EN" "http://www.w3.org/Graphics/SVG/1.1/DTD/svg11.dtd">
<svg version="1.1" id="Layer_1" xmlns="http://www.w3.org/2000/svg" xmlns:xlink="http://www.w3.org/1999/xlink" x="0px" y="0px"
	 width="48px" height="48px" viewBox="0 0 48 48" enable-background="new 0 0 48 48" xml:space="preserve">
<g>
	<path  d="M6.035,0.079L6.018,0.078c0.065,1.301,0.189,2.619,0.372,3.95c1.099,8.003,4.308,16.468,9.665,24.305
		s12.082,13.899,19.139,17.828c1.174,0.653,2.357,1.247,3.545,1.78l0.006-0.017l0.018,0.014l3.17-9.407
		c0.152-0.452-0.045-0.955-0.465-1.19l-8.688-4.86c-1.045-0.584-2.26-0.76-3.406-0.491l-4.596,1.076
		c-1.965-2.103-3.825-4.407-5.537-6.91c-1.711-2.504-3.183-5.074-4.43-7.667l2.672-3.893c0.666-0.971,0.943-2.166,0.778-3.352
		l0.007,0.047l-1.382-9.906c-0.066-0.477-0.464-0.843-0.94-0.865L6.028,0.059L6.035,0.079z"/>
</g>
</svg>
