<?xml version="1.0" encoding="utf-8"?>
<!-- Generator: Adobe Illustrator 16.0.0, SVG Export Plug-In . SVG Version: 6.00 Build 0)  -->
<!DOCTYPE svg PUBLIC "-//W3C//DTD SVG 1.1//EN" "http://www.w3.org/Graphics/SVG/1.1/DTD/svg11.dtd">
<svg version="1.1" id="Layer_1" xmlns="http://www.w3.org/2000/svg" xmlns:xlink="http://www.w3.org/1999/xlink" x="0px" y="0px"
	 width="48px" height="48px" viewBox="0 0 48 48" enable-background="new 0 0 48 48" xml:space="preserve">
<g>
	<g>
		<path  d="M4,6h40c1.104,0,2-0.896,2-2s-0.896-2-2-2H4C2.896,2,2,2.896,2,4S2.896,6,4,6z"/>
	</g>
	<g>
		<path  d="M16,42H4c-1.104,0-2,0.896-2,2s0.896,2,2,2h12c1.104,0,2-0.896,2-2S17.104,42,16,42z"/>
	</g>
	<g>
		<path  d="M44,15.333H4c-1.104,0-2,0.896-2,2s0.896,2,2,2h40c1.104,0,2-0.896,2-2S45.104,15.333,44,15.333z"/>
	</g>
	<g>
		<path  d="M16,28.666H4c-1.104,0-2,0.896-2,2c0,1.105,0.896,2,2,2h12c1.104,0,2-0.895,2-2
			C18,29.562,17.104,28.666,16,28.666z"/>
	</g>
	<g>
		<path  d="M35,24c-6.075,0-11,4.925-11,11s4.925,11,11,11s11-4.925,11-11S41.075,24,35,24z M31.461,39.947
			C31.207,40.071,31,39.969,31,39.719v-9.43c0-0.249,0.201-0.352,0.454-0.229l9.537,4.947L31.461,39.947z"/>
	</g>
</g>
</svg>
