<?xml version="1.0" encoding="utf-8"?>
<!-- Generator: Adobe Illustrator 16.0.0, SVG Export Plug-In . SVG Version: 6.00 Build 0)  -->
<!DOCTYPE svg PUBLIC "-//W3C//DTD SVG 1.1//EN" "http://www.w3.org/Graphics/SVG/1.1/DTD/svg11.dtd">
<svg version="1.1" id="Layer_1" xmlns="http://www.w3.org/2000/svg" xmlns:xlink="http://www.w3.org/1999/xlink" x="0px" y="0px"
	 width="48px" height="48px" viewBox="0 0 48 48" enable-background="new 0 0 48 48" xml:space="preserve">
<path  d="M41,17c-1.96,0-3.729,0.808-5,2.105V10c0-1.1-0.9-2-2-2H2c-1.1,0-2,0.9-2,2v4.75v4.355
	C1.271,17.808,3.04,17,5,17c3.866,0,7,3.134,7,7s-3.134,7-7,7c-1.96,0-3.729-0.807-5-2.105v3.189V38c0,1.101,0.9,2,2,2h32
	c1.1,0,2-0.899,2-2v-9.105C37.271,30.193,39.04,31,41,31c3.866,0,7-3.134,7-7S44.866,17,41,17z"/>
</svg>
