<?xml version="1.0" encoding="utf-8"?>
<!-- Generator: Adobe Illustrator 16.0.0, SVG Export Plug-In . SVG Version: 6.00 Build 0)  -->
<!DOCTYPE svg PUBLIC "-//W3C//DTD SVG 1.1//EN" "http://www.w3.org/Graphics/SVG/1.1/DTD/svg11.dtd">
<svg version="1.1" id="Layer_1" xmlns="http://www.w3.org/2000/svg" xmlns:xlink="http://www.w3.org/1999/xlink" x="0px" y="0px"
	 width="48px" height="48px" viewBox="0 0 48 48" enable-background="new 0 0 48 48" xml:space="preserve">
<g>
	<path  d="M44,2H4C2.896,2,2,2.896,2,4v40c0,1.104,0.896,2,2,2h40c1.104,0,2-0.896,2-2V4C46,2.896,45.104,2,44,2z
		 M37.864,19.712c-0.116,0.667-0.603,0.821-1.081,0.343l-3.006-3.005l-6.364,6.365c-0.78,0.78-2.048,0.78-2.828,0
		c-0.781-0.781-0.781-2.048,0-2.829l6.364-6.364l-3.027-3.027c-0.479-0.479-0.325-0.966,0.343-1.082l11.878-2.254L37.864,19.712z"/>
</g>
</svg>
