<?xml version="1.0" encoding="utf-8"?>
<!-- Generator: Adobe Illustrator 16.0.0, SVG Export Plug-In . SVG Version: 6.00 Build 0)  -->
<!DOCTYPE svg PUBLIC "-//W3C//DTD SVG 1.1//EN" "http://www.w3.org/Graphics/SVG/1.1/DTD/svg11.dtd">
<svg version="1.1" id="Layer_1" xmlns="http://www.w3.org/2000/svg" xmlns:xlink="http://www.w3.org/1999/xlink" x="0px" y="0px"
	 width="48px" height="48px" viewBox="0 0 48 48" enable-background="new 0 0 48 48" xml:space="preserve">
<g>
	<path  d="M46,3H18c-1.104,0-2,0.896-2,2v13H2c-1.104,0-2,0.896-2,2v23c0,1.104,0.896,2,2,2h28c1.104,0,2-0.896,2-2
		V30h14c1.104,0,2-0.896,2-2V5C48,3.896,47.104,3,46,3z M28,36v5H4V25h24V36z M44,26H32v-6c0-1.104-0.896-2-2-2H20v-8h24V26z"/>
</g>
</svg>
