<?xml version="1.0" encoding="utf-8"?>
<!-- Generator: Adobe Illustrator 16.0.0, SVG Export Plug-In . SVG Version: 6.00 Build 0)  -->
<!DOCTYPE svg PUBLIC "-//W3C//DTD SVG 1.1//EN" "http://www.w3.org/Graphics/SVG/1.1/DTD/svg11.dtd">
<svg version="1.1" id="Layer_1" xmlns="http://www.w3.org/2000/svg" xmlns:xlink="http://www.w3.org/1999/xlink" x="0px" y="0px"
	 width="48px" height="48px" viewBox="0 0 48 48" enable-background="new 0 0 48 48" xml:space="preserve">
<g>
	<path  d="M36.003,3.213c-0.957-0.554-2.18-0.227-2.733,0.729c-0.553,0.956-0.227,2.179,0.729,2.732
		C40.168,10.244,44,16.882,44,24c0,11.027-8.972,20-20,20S4,35.027,4,24c0-7.076,3.799-13.695,9.913-17.274
		c0.954-0.558,1.274-1.783,0.717-2.736c-0.559-0.953-1.781-1.274-2.736-0.716C4.558,7.567,0,15.509,0,24c0,13.234,10.767,24,24,24
		s24-10.766,24-24C48,15.459,43.403,7.494,36.003,3.213z"/>
	<path  d="M24,24c1.104,0,2-0.896,2-2V2c0-1.104-0.896-2-2-2s-2,0.896-2,2v20C22,23.104,22.896,24,24,24z"/>
</g>
</svg>
