<?xml version="1.0" encoding="utf-8"?>
<!-- Generator: Adobe Illustrator 16.0.0, SVG Export Plug-In . SVG Version: 6.00 Build 0)  -->
<!DOCTYPE svg PUBLIC "-//W3C//DTD SVG 1.1//EN" "http://www.w3.org/Graphics/SVG/1.1/DTD/svg11.dtd">
<svg version="1.1" id="Layer_1" xmlns="http://www.w3.org/2000/svg" xmlns:xlink="http://www.w3.org/1999/xlink" x="0px" y="0px"
	 width="48px" height="48px" viewBox="0 0 48 48" enable-background="new 0 0 48 48" xml:space="preserve">
<g>
	<path  d="M44.004,2H3.996c-1.104,0-2,0.896-2,2v40c0,1.104,0.896,2,2,2h40.008c1.104,0,2-0.896,2-2V4
		C46.004,2.896,45.108,2,44.004,2z M35.275,23.537l-3.695,3.08c-1.973,1.643-5.131,1.726-7.184,0.184l-3.2-2.4
		c-0.583-0.437-1.665-0.41-2.225,0.057l-3.695,3.08C14.902,27.849,14.448,28,13.997,28c-0.573,0-1.142-0.244-1.537-0.719
		c-0.707-0.85-0.593-2.109,0.256-2.817l3.695-3.079c1.972-1.645,5.129-1.728,7.185-0.185l3.2,2.401
		c0.586,0.437,1.666,0.409,2.225-0.059l3.695-3.079c0.848-0.708,2.109-0.592,2.816,0.257C36.238,21.568,36.125,22.83,35.275,23.537z
		"/>
</g>
</svg>
