<?xml version="1.0" encoding="utf-8"?>
<!-- Generator: Adobe Illustrator 15.0.0, SVG Export Plug-In . SVG Version: 6.00 Build 0)  -->
<!DOCTYPE svg PUBLIC "-//W3C//DTD SVG 1.1//EN" "http://www.w3.org/Graphics/SVG/1.1/DTD/svg11.dtd">
<svg version="1.1" id="Layer_1" xmlns="http://www.w3.org/2000/svg" xmlns:xlink="http://www.w3.org/1999/xlink" x="0px" y="0px"
	 width="48px" height="48px" viewBox="0 0 48 48" enable-background="new 0 0 48 48" xml:space="preserve">
<g id="XMLID_1_">
	<path id="XMLID_314_"  d="M24,0C10.7,0,0,10.7,0,24s10.7,24,24,24s24-10.7,24-24S37.3,0,24,0z M24,44
		C13,44,4,35,4,24S13,4,24,4s20,9,20,20S35,44,24,44z"/>
	<path id="XMLID_669_"  d="M31.4,31.4c-0.801,0.8-2,0.8-2.801,0L24,26.8L19.4,31.4c-0.8,0.8-2,0.8-2.8,0
		c-0.8-0.801-0.8-2,0-2.801l4.6-4.6l-4.6-4.6c-0.8-0.8-0.8-2,0-2.8c0.8-0.8,2-0.8,2.8,0l4.6,4.6l4.6-4.6c0.801-0.8,2-0.8,2.801,0
		c0.8,0.8,0.8,2,0,2.8L26.8,24l4.601,4.6C32.2,29.4,32.2,30.6,31.4,31.4z"/>
</g>
</svg>
