<?xml version="1.0" encoding="utf-8"?>
<!-- Generator: Adobe Illustrator 16.0.0, SVG Export Plug-In . SVG Version: 6.00 Build 0)  -->
<!DOCTYPE svg PUBLIC "-//W3C//DTD SVG 1.1//EN" "http://www.w3.org/Graphics/SVG/1.1/DTD/svg11.dtd">
<svg version="1.1" id="Layer_1" xmlns="http://www.w3.org/2000/svg" xmlns:xlink="http://www.w3.org/1999/xlink" x="0px" y="0px"
	 width="48px" height="48px" viewBox="0 0 48 48" enable-background="new 0 0 48 48" xml:space="preserve">
<path  d="M44,2H4C2.896,2,2,2.896,2,4v40c0,1.104,0.896,2,2,2h40c1.104,0,2-0.896,2-2V4C46,2.896,45.104,2,44,2z
	 M15.586,14.414c-0.781-0.781-0.781-2.047,0-2.828c0.78-0.781,2.048-0.781,2.828,0L24,17.172l5.586-5.586
	c0.78-0.781,2.048-0.781,2.828,0c0.781,0.781,0.781,2.047,0,2.828L26.828,20l5.586,5.586c0.781,0.781,0.781,2.047,0,2.828
	C32.023,28.805,31.512,29,31,29s-1.023-0.195-1.414-0.586L24,22.828l-5.586,5.586C18.024,28.805,17.512,29,17,29
	s-1.024-0.195-1.414-0.586c-0.781-0.781-0.781-2.047,0-2.828L21.172,20L15.586,14.414z M37,39H11c-1.104,0-2-0.896-2-2s0.896-2,2-2
	h26c1.104,0,2,0.896,2,2S38.104,39,37,39z"/>
</svg>
