<?xml version="1.0" encoding="utf-8"?>
<!-- Generator: Adobe Illustrator 16.0.0, SVG Export Plug-In . SVG Version: 6.00 Build 0)  -->
<!DOCTYPE svg PUBLIC "-//W3C//DTD SVG 1.1//EN" "http://www.w3.org/Graphics/SVG/1.1/DTD/svg11.dtd">
<svg version="1.1" id="Layer_1" xmlns="http://www.w3.org/2000/svg" xmlns:xlink="http://www.w3.org/1999/xlink" x="0px" y="0px"
	 width="48px" height="48px" viewBox="0 0 48 48" enable-background="new 0 0 48 48" xml:space="preserve">
<g>
	<path  d="M46,12H36V2c0-1.104-0.896-2-2-2H14c-1.104,0-2,0.896-2,2v10H2c-1.104,0-2,0.896-2,2v20
		c0,1.104,0.896,2,2,2h6v-8h32v8h6c1.104,0,2-0.896,2-2V14C48,12.896,47.104,12,46,12z M42,20c-1.104,0-2-0.896-2-2s0.896-2,2-2
		s2,0.896,2,2S43.104,20,42,20z"/>
	<path  d="M12,46c0,1.104,0.896,2,2,2h20c1.104,0,2-0.896,2-2V32H12V46z"/>
</g>
</svg>
