<?xml version="1.0" encoding="utf-8"?>
<!-- Generator: Adobe Illustrator 16.0.0, SVG Export Plug-In . SVG Version: 6.00 Build 0)  -->
<!DOCTYPE svg PUBLIC "-//W3C//DTD SVG 1.1//EN" "http://www.w3.org/Graphics/SVG/1.1/DTD/svg11.dtd">
<svg version="1.1" id="Layer_1" xmlns="http://www.w3.org/2000/svg" xmlns:xlink="http://www.w3.org/1999/xlink" x="0px" y="0px"
	 width="48px" height="48px" viewBox="0 0 48 48" enable-background="new 0 0 48 48" xml:space="preserve">
<g>
	<path  d="M24,0C10.745,0,0,10.745,0,24s10.745,24,24,24s24-10.745,24-24S37.255,0,24,0z M25.42,34.41
		C25.04,34.79,24.53,35,24,35s-1.04-0.21-1.42-0.58C22.21,34.04,22,33.52,22,33c0-0.521,0.21-1.04,0.58-1.42
		c0.76-0.74,2.09-0.74,2.83,0C25.79,31.96,26,32.47,26,33S25.79,34.04,25.42,34.41z M26,25c0,1.104-0.896,2-2,2s-2-0.896-2-2V14
		c0-1.104,0.896-2,2-2s2,0.896,2,2V25z"/>
</g>
</svg>
