<?xml version="1.0" encoding="utf-8"?>
<!-- Generator: Adobe Illustrator 16.0.0, SVG Export Plug-In . SVG Version: 6.00 Build 0)  -->
<!DOCTYPE svg PUBLIC "-//W3C//DTD SVG 1.1//EN" "http://www.w3.org/Graphics/SVG/1.1/DTD/svg11.dtd">
<svg version="1.1" id="Layer_1" xmlns="http://www.w3.org/2000/svg" xmlns:xlink="http://www.w3.org/1999/xlink" x="0px" y="0px"
	 width="48px" height="48px" viewBox="0 0 48 48" enable-background="new 0 0 48 48" xml:space="preserve">
<g>
	<circle  cx="27.5" cy="20.5" r="2.5"/>
	<path  d="M24,0C10.745,0,0,10.745,0,24s10.745,24,24,24s24-10.745,24-24S37.255,0,24,0z M27.5,27
		c-1.062,0-2.063-0.26-2.949-0.713l-3.104,3.115l2.014,2.014l-3.005,3.005l-2.01-2.01l-1.014,1.017
		c-0.391,0.392-0.903,0.588-1.416,0.588c-0.511,0-1.022-0.194-1.412-0.584c-0.782-0.78-0.784-2.046-0.004-2.828l7.119-7.142
		C21.263,22.573,21,21.568,21,20.5c0-3.59,2.91-6.5,6.5-6.5s6.5,2.91,6.5,6.5S31.09,27,27.5,27z"/>
</g>
</svg>
