<?xml version="1.0" encoding="utf-8"?>
<!-- Generator: Adobe Illustrator 16.0.0, SVG Export Plug-In . SVG Version: 6.00 Build 0)  -->
<!DOCTYPE svg PUBLIC "-//W3C//DTD SVG 1.1//EN" "http://www.w3.org/Graphics/SVG/1.1/DTD/svg11.dtd">
<svg version="1.1" id="Layer_1" xmlns="http://www.w3.org/2000/svg" xmlns:xlink="http://www.w3.org/1999/xlink" x="0px" y="0px"
	 width="48px" height="48px" viewBox="0 0 48 48" enable-background="new 0 0 48 48" xml:space="preserve">
<g>
	<path  d="M29.297,27.273L26.271,30.3C29.018,31.246,31,33.85,31,36.914c0,3.859-3.141,7-7,7
		c-3.064,0-5.668-1.982-6.614-4.729l-3.025,3.025c1.872,3.398,5.485,5.703,9.64,5.703c6.074,0,11-4.925,11-11
		C35,32.76,32.695,29.146,29.297,27.273z"/>
	<path  d="M47.414,0.672c-0.781-0.781-2.047-0.781-2.828,0l-3.457,3.457C35.873,1.388,29.984-0.086,24-0.086
		c-8.445,0-16.705,2.921-23.258,8.223c-0.859,0.695-0.992,1.954-0.297,2.813c0.695,0.858,1.954,0.99,2.812,0.296
		C9.102,6.519,16.468,3.914,24,3.914c4.912,0,9.752,1.114,14.146,3.197l-6.918,6.919c-2.314-0.729-4.74-1.116-7.229-1.116
		c-5.251,0-10.24,1.667-14.428,4.819c-0.882,0.664-1.059,1.918-0.395,2.801c0.663,0.882,1.918,1.062,2.8,0.395
		c3.489-2.626,7.646-4.015,12.022-4.015c1.34,0,2.656,0.146,3.941,0.402L0.586,44.672c-0.781,0.78-0.781,2.047,0,2.828
		C0.977,47.891,1.489,48.086,2,48.086s1.023-0.195,1.414-0.586l44-44C48.195,2.719,48.195,1.452,47.414,0.672z"/>
</g>
</svg>
