<?xml version="1.0" encoding="utf-8"?>
<!-- Generator: Adobe Illustrator 16.0.0, SVG Export Plug-In . SVG Version: 6.00 Build 0)  -->
<!DOCTYPE svg PUBLIC "-//W3C//DTD SVG 1.1//EN" "http://www.w3.org/Graphics/SVG/1.1/DTD/svg11.dtd">
<svg version="1.1" id="Layer_1" xmlns="http://www.w3.org/2000/svg" xmlns:xlink="http://www.w3.org/1999/xlink" x="0px" y="0px"
	 width="48px" height="48px" viewBox="0 0 48 48" enable-background="new 0 0 48 48" xml:space="preserve">
<g>
	<path  d="M47.258,8.223C40.705,2.92,32.445,0,24,0S7.295,2.92,0.742,8.223c-0.859,0.695-0.992,1.954-0.297,2.813
		c0.695,0.858,1.954,0.991,2.812,0.296C9.102,6.604,16.468,4,24,4s14.898,2.604,20.742,7.332c0.37,0.3,0.814,0.445,1.257,0.445
		c0.583,0,1.16-0.253,1.556-0.742C48.25,10.177,48.117,8.917,47.258,8.223z"/>
	<path  d="M24,26c-6.075,0-11,4.925-11,11s4.925,11,11,11s11-4.925,11-11S30.075,26,24,26z M24,44
		c-3.86,0-7-3.141-7-7s3.14-7,7-7c3.859,0,7,3.141,7,7S27.859,44,24,44z"/>
	<path  d="M38.428,17.819C34.24,14.667,29.251,13,24,13s-10.24,1.667-14.428,4.819
		c-0.882,0.664-1.059,1.918-0.395,2.801c0.663,0.882,1.918,1.062,2.801,0.395C15.467,18.388,19.624,17,24,17
		s8.533,1.388,12.021,4.015c0.36,0.271,0.783,0.402,1.201,0.402c0.607,0,1.207-0.274,1.6-0.797
		C39.486,19.737,39.31,18.483,38.428,17.819z"/>
</g>
</svg>
