<?xml version="1.0" encoding="utf-8"?>
<!-- Generator: Adobe Illustrator 19.1.0, SVG Export Plug-In . SVG Version: 6.00 Build 0)  -->
<svg version="1.1" id="Layer_1" xmlns="http://www.w3.org/2000/svg" xmlns:xlink="http://www.w3.org/1999/xlink" x="0px" y="0px"
	 width="48px" height="48px" viewBox="-281 373 48 48" style="enable-background:new -281 373 48 48;" xml:space="preserve">

<path d="M-238.5,388c0-1.7-1.3-3-3-3c-1.7,0-3,1.3-3,3v-9c0-1.7-1.3-3-3-3c-1.7,0-3,1.3-3,3v-3c0-1.7-1.3-3-3-3
	c-1.7,0-3,1.3-3,3v3c0-1.7-1.3-3-3-3c-1.7,0-3,1.3-3,3l-2.8,23.5c-0.2-0.3-2-3.8-3.2-5.8c-0.5-0.9-0.8-1.5-0.8-1.5
	c-0.8-1.7-2.7-2.4-4.4-1.6c-1.7,0.8-2.4,2.8-1.6,4.5l8,21.5c0.3,0.8,1.2,1.4,2,1.4h22.5c0.5,0,0.9-0.3,1-0.7h0
	C-238.2,413-238.5,388-238.5,388z"/>
</svg>
