<?xml version="1.0" encoding="utf-8"?>
<!-- Generator: Adobe Illustrator 16.0.0, SVG Export Plug-In . SVG Version: 6.00 Build 0)  -->
<!DOCTYPE svg PUBLIC "-//W3C//DTD SVG 1.1//EN" "http://www.w3.org/Graphics/SVG/1.1/DTD/svg11.dtd">
<svg version="1.1" id="Layer_1" xmlns="http://www.w3.org/2000/svg" xmlns:xlink="http://www.w3.org/1999/xlink" x="0px" y="0px"
	 width="48px" height="48px" viewBox="0 0 48 48" enable-background="new 0 0 48 48" xml:space="preserve">
<g>
	<path  d="M45,5H11C9.35,5,8,6.35,8,8v1h36v26h1c1.649,0,3-1.35,3-3V8C48,6.35,46.649,5,45,5z"/>
	<path  d="M37,13H4H3c-1.649,0-3,1.35-3,3v24c0,1.65,1.351,3,3,3h34c1.65,0,3-1.35,3-3V16C40,14.35,38.65,13,37,13z
		 M36,39H4V17h32V39z"/>
</g>
</svg>
