<?xml version="1.0" encoding="utf-8"?>
<!-- Generator: Adobe Illustrator 19.1.0, SVG Export Plug-In . SVG Version: 6.00 Build 0)  -->
<svg version="1.1" id="Layer_1" xmlns="http://www.w3.org/2000/svg" xmlns:xlink="http://www.w3.org/1999/xlink" x="0px" y="0px"
	 width="48px" height="48px" viewBox="-281 373 48 48" style="enable-background:new -281 373 48 48;" xml:space="preserve">

<path d="M-257,378.9v-5.1c0-0.7-0.5-1-1.1-0.6l-10.9,7.7l10.9,7.7c0.6,0.4,1.1,0.2,1.1-0.6v-5.1c9.4,0,17,7.6,17,17
	s-7.6,17-17,17s-17-7.6-17-17c0-5.3,2.5-10.1,6.3-13.2l-3.4-2.4c-4.3,3.8-6.9,9.4-6.9,15.6c0,11.6,9.4,21,21,21c11.6,0,21-9.4,21-21
	S-245.4,378.9-257,378.9z"/>
</svg>
