<?xml version="1.0" encoding="utf-8"?>
<!-- Generator: Adobe Illustrator 16.0.0, SVG Export Plug-In . SVG Version: 6.00 Build 0)  -->
<!DOCTYPE svg PUBLIC "-//W3C//DTD SVG 1.1//EN" "http://www.w3.org/Graphics/SVG/1.1/DTD/svg11.dtd">
<svg version="1.1" id="Layer_1" xmlns="http://www.w3.org/2000/svg" xmlns:xlink="http://www.w3.org/1999/xlink" x="0px" y="0px"
	 width="48px" height="48px" viewBox="0 0 48 48" enable-background="new 0 0 48 48" xml:space="preserve">
<g>
	<path  d="M24,5.938V0.843c0-0.744-0.494-1.001-1.099-0.573L12,7.929l10.901,7.677C23.506,16.034,24,15.776,24,15.032
		V9.938c9.374,0,17,7.626,17,17c0,9.373-7.626,17-17,17s-17-7.627-17-17c0-5.323,2.463-10.078,6.305-13.197l-3.365-2.37
		C5.688,15.213,3,20.754,3,26.938c0,11.598,9.402,21,21,21c11.598,0,21-9.402,21-21C45,15.339,35.598,5.938,24,5.938z"/>
	<circle  cx="24" cy="27.062" r="3"/>
</g>
</svg>
