<?xml version="1.0" encoding="utf-8"?>
<!-- Generator: Adobe Illustrator 16.0.0, SVG Export Plug-In . SVG Version: 6.00 Build 0)  -->
<!DOCTYPE svg PUBLIC "-//W3C//DTD SVG 1.1//EN" "http://www.w3.org/Graphics/SVG/1.1/DTD/svg11.dtd">
<svg version="1.1" id="Layer_1" xmlns="http://www.w3.org/2000/svg" xmlns:xlink="http://www.w3.org/1999/xlink" x="0px" y="0px"
	 width="48px" height="48px" viewBox="0 0 48 48" enable-background="new 0 0 48 48" xml:space="preserve">
<g>
	<path  d="M24,0C10.745,0,0,10.746,0,24c0,13.255,10.745,24,24,24s24-10.745,24-24C48,10.746,37.255,0,24,0z M24,44
		C12.972,44,4,35.027,4,24C4,12.972,12.972,4,24,4s20,8.972,20,20C44,35.027,35.028,44,24,44z"/>
	<path  d="M20.507,17C20.205,17,20,17.255,20,17.711v12.531c0,0.455,0.205,0.711,0.508,0.711
		c0.147,0,0.318-0.061,0.5-0.188L31,23.993l-9.993-6.805C20.826,17.061,20.655,17,20.507,17z"/>
</g>
</svg>
