<?xml version="1.0" encoding="utf-8"?>
<!-- Generator: Adobe Illustrator 16.0.0, SVG Export Plug-In . SVG Version: 6.00 Build 0)  -->
<!DOCTYPE svg PUBLIC "-//W3C//DTD SVG 1.1//EN" "http://www.w3.org/Graphics/SVG/1.1/DTD/svg11.dtd">
<svg version="1.1" id="Layer_1" xmlns="http://www.w3.org/2000/svg" xmlns:xlink="http://www.w3.org/1999/xlink" x="0px" y="0px"
	 width="48px" height="48px" viewBox="0 0 48 48" enable-background="new 0 0 48 48" xml:space="preserve">
<g>
	<path  d="M20,12c-0.512,0-1.023,0.195-1.414,0.586c-0.781,0.781-0.781,2.047,0,2.828L27.172,24l-8.586,8.586
		c-0.781,0.781-0.781,2.047,0,2.828C18.977,35.805,19.488,36,20,36s1.023-0.195,1.414-0.586L32.828,24L21.414,12.586
		C21.023,12.195,20.512,12,20,12z"/>
	<path  d="M24,0C10.745,0,0,10.746,0,24c0,13.255,10.745,24,24,24s24-10.745,24-24C48,10.746,37.255,0,24,0z M24,44
		C12.972,44,4,35.027,4,24C4,12.972,12.972,4,24,4s20,8.972,20,20C44,35.027,35.028,44,24,44z"/>
</g>
</svg>
