<?xml version="1.0" encoding="utf-8"?>
<!-- Generator: Adobe Illustrator 16.0.0, SVG Export Plug-In . SVG Version: 6.00 Build 0)  -->
<!DOCTYPE svg PUBLIC "-//W3C//DTD SVG 1.1//EN" "http://www.w3.org/Graphics/SVG/1.1/DTD/svg11.dtd">
<svg version="1.1" id="Layer_1" xmlns="http://www.w3.org/2000/svg" xmlns:xlink="http://www.w3.org/1999/xlink" x="0px" y="0px"
	 width="48px" height="48px" viewBox="0 0 48 48" enable-background="new 0 0 48 48" xml:space="preserve">
<g>
	<path  d="M30.102,32.815l-3.497-4.663c-0.24-0.32-0.517-0.9-0.614-1.289c0,0-1.42-5.309-1.426-5.317
		C23.773,16.701,21.046,13,15.978,13c-5.114,0-7.888,3.768-8.625,8.676c-0.005,0.01-1.406,5.188-1.406,5.188
		c-0.097,0.389-0.374,0.969-0.614,1.289l-3.497,4.663c-0.24,0.321-0.517,0.901-0.614,1.29L0,39.25h32.084l-1.244-5.176
		C30.618,33.717,30.342,33.137,30.102,32.815z"/>
	<circle  cx="16.042" cy="45.083" r="2.917"/>
	<path  d="M28,6h0.555C29.248,7.19,30.523,8,32,8s2.752-0.81,3.445-2H46c1.1,0,2-0.9,2-2c0-1.1-0.9-2-2-2H35.445
		C34.752,0.809,33.477,0,32,0s-2.752,0.809-3.445,2H28c-1.1,0-2,0.9-2,2C26,5.1,26.9,6,28,6z"/>
	<path  d="M46,16h-0.555c-0.693-1.191-1.969-2-3.445-2s-2.752,0.809-3.445,2H28c-1.1,0-2,0.9-2,2c0,1.1,0.9,2,2,2
		h10.555c0.693,1.19,1.969,2,3.445,2s2.752-0.81,3.445-2H46c1.1,0,2-0.9,2-2C48,16.9,47.1,16,46,16z"/>
</g>
</svg>
