<?xml version="1.0" encoding="utf-8"?>
<!-- Generator: Adobe Illustrator 19.1.0, SVG Export Plug-In . SVG Version: 6.00 Build 0)  -->
<svg version="1.1" id="Layer_1" xmlns="http://www.w3.org/2000/svg" xmlns:xlink="http://www.w3.org/1999/xlink" x="0px" y="0px"
	 width="48px" height="48px" viewBox="-281 373 48 48" style="enable-background:new -281 373 48 48;" xml:space="preserve">

<g>
	<path d="M-239.6,394.7c-1.1-9-8.8-15.8-17.9-15.8v-5.1c0-0.7-0.5-1-1.1-0.6l-10.9,7.7l10.9,7.8
		c0.6,0.4,1.1,0.2,1.1-0.6v-5.2c7,0,13,5.3,13.9,12.2c0.1,1,1,1.8,2,1.8c0.1,0,0.2,0,0.2,0C-240.2,396.8-239.4,395.8-239.6,394.7z"
		/>
	<path d="M-252.2,396.9h-20.6c-0.9,0-1.7,0.8-1.7,1.7v20.6c0,0.9,0.8,1.7,1.7,1.7h20.6c0.9,0,1.7-0.8,1.7-1.7v-20.6
		C-250.4,397.7-251.2,396.9-252.2,396.9z"/>
</g>
</svg>
