<?xml version="1.0" encoding="utf-8"?>
<!-- Generator: Adobe Illustrator 16.0.0, SVG Export Plug-In . SVG Version: 6.00 Build 0)  -->
<!DOCTYPE svg PUBLIC "-//W3C//DTD SVG 1.1//EN" "http://www.w3.org/Graphics/SVG/1.1/DTD/svg11.dtd">
<svg version="1.1" id="Layer_1" xmlns="http://www.w3.org/2000/svg" xmlns:xlink="http://www.w3.org/1999/xlink" x="0px" y="0px"
	 width="48px" height="48px" viewBox="0 0 48 48" enable-background="new 0 0 48 48" xml:space="preserve">
<path  d="M24,0C10.745,0,0,10.745,0,24s10.745,24,24,24s24-10.745,24-24S37.255,0,24,0z M24,37
	c-7.168,0-13-5.832-13-13c0-6.134,4.276-11.277,10-12.637V6.742c0-0.707,0.471-0.953,1.045-0.545l10.372,7.287l-10.372,7.303
	C21.471,21.195,21,20.949,21,20.242v-4.717c-3.49,1.24-6,4.566-6,8.475c0,4.963,4.037,9,9,9s9-4.037,9-9
	c0-1.839-0.563-3.543-1.516-4.968l3.235-2.278l0.04-0.028C36.17,18.804,37,21.305,37,24C37,31.168,31.168,37,24,37z"/>
</svg>
