<?xml version="1.0" encoding="utf-8"?>
<!-- Generator: Adobe Illustrator 19.1.0, SVG Export Plug-In . SVG Version: 6.00 Build 0)  -->
<svg version="1.1" id="Layer_1" xmlns="http://www.w3.org/2000/svg" xmlns:xlink="http://www.w3.org/1999/xlink" x="0px" y="0px"
	 width="48px" height="48px" viewBox="-281 373 48 48" style="enable-background:new -281 373 48 48;" xml:space="preserve">

<g>
	<path d="M-237,375h-6v2c0,1.1-0.9,2-2,2s-2-0.9-2-2v-2h-20v2c0,1.1-0.9,2-2,2s-2-0.9-2-2v-2h-6c-1.1,0-2,0.9-2,2v40
		c0,1.1,0.9,2,2,2h40c1.1,0,2-0.9,2-2v-40C-235,375.9-235.9,375-237,375z M-248,401h-7v7c0,1.1-0.9,2-2,2s-2-0.9-2-2v-7h-7
		c-1.1,0-2-0.9-2-2s0.9-2,2-2h7v-7c0-1.1,0.9-2,2-2s2,0.9,2,2v7h7c1.1,0,2,0.9,2,2S-246.9,401-248,401z"/>
</g>
</svg>
