<?xml version="1.0" encoding="utf-8"?>
<!-- Generator: Adobe Illustrator 16.0.0, SVG Export Plug-In . SVG Version: 6.00 Build 0)  -->
<!DOCTYPE svg PUBLIC "-//W3C//DTD SVG 1.1//EN" "http://www.w3.org/Graphics/SVG/1.1/DTD/svg11.dtd">
<svg version="1.1" id="Layer_1" xmlns="http://www.w3.org/2000/svg" xmlns:xlink="http://www.w3.org/1999/xlink" x="0px" y="0px"
	 width="48px" height="48px" viewBox="0 0 48 48" enable-background="new 0 0 48 48" xml:space="preserve">
<g>
	<path  d="M46,31h-4v-4c0-1.1-0.9-2-2-2s-2,0.9-2,2v4h-4c-1.1,0-2,0.9-2,2s0.9,2,2,2h4v4c0,1.1,0.9,2,2,2s2-0.9,2-2
		v-4h4c1.1,0,2-0.9,2-2S47.1,31,46,31z"/>
	<path  d="M4,11h34v10h4V9c0-1.1-0.9-2-2-2H2C0.9,7,0,7.9,0,9v24c0,1.1,0.9,2,2,2h26v-4H4V11z"/>
</g>
</svg>
