<?xml version="1.0" encoding="utf-8"?>
<!-- Generator: Adobe Illustrator 19.1.0, SVG Export Plug-In . SVG Version: 6.00 Build 0)  -->
<svg version="1.1" id="Layer_1" xmlns="http://www.w3.org/2000/svg" xmlns:xlink="http://www.w3.org/1999/xlink" x="0px" y="0px"
	 width="48px" height="48px" viewBox="-281 373 48 48" style="enable-background:new -281 373 48 48;" xml:space="preserve">

<g>
	<path d="M-250.1,399.4h-3v12.7h3.1c3.6,0,5.7-2.2,5.7-6.3C-244.4,401.5-246.5,399.4-250.1,399.4z"/>
	<path d="M-246,373h-30c-1.1,0-2,0.9-2,2v44c0,1.1,0.9,2,2,2h38c1.1,0,2-0.9,2-2v-36L-246,373z M-264.6,414.4
		c-3.5,0-6.2-1.9-6.7-5h2.4c0.3,1.9,1.8,3,4.2,3c2.7,0,4.1-1.3,4.1-2.9c0-1.5-0.8-2.2-5.2-3.5c-3.8-1.1-5-2.4-5-4.7
		c0-2.4,2.1-4.2,5.9-4.2c3.5,0,6.1,1.7,6.5,4.5h-2.4c-0.3-1.6-1.6-2.5-4.1-2.5c-2.5,0-3.6,1-3.6,2.2c0,1.3,0.5,1.9,4.3,2.9
		c4.6,1.3,5.9,2.6,5.9,5.2C-258.2,412-260.5,414.4-264.6,414.4z M-250.3,414h-5.2v-16.5h5.3c4.8,0,8.1,2.6,8.1,8.2
		C-242,411.1-245.4,414-250.3,414z"/>
</g>
</svg>
