<?xml version="1.0" encoding="utf-8"?>
<!-- Generator: Adobe Illustrator 16.0.0, SVG Export Plug-In . SVG Version: 6.00 Build 0)  -->
<!DOCTYPE svg PUBLIC "-//W3C//DTD SVG 1.1//EN" "http://www.w3.org/Graphics/SVG/1.1/DTD/svg11.dtd">
<svg version="1.1" id="Layer_1" xmlns="http://www.w3.org/2000/svg" xmlns:xlink="http://www.w3.org/1999/xlink" x="0px" y="0px"
	 width="48px" height="48px" viewBox="0 0 48 48" enable-background="new 0 0 48 48" xml:space="preserve">
<path  d="M45.415,42.587l-14.78-14.795C32.736,25.084,34,21.693,34,18c0-8.836-7.163-16-16-16C9.164,2,2,9.164,2,18
	s7.164,16,16,16c3.701,0,7.099-1.269,9.809-3.378l14.776,14.791C42.976,45.805,43.487,46,44,46c0.512,0,1.023-0.195,1.413-0.585
	C46.195,44.634,46.195,43.368,45.415,42.587z M6,18c0-6.617,5.383-12,12-12c6.616,0,12,5.383,12,12s-5.384,12-12,12
	C11.383,30,6,24.617,6,18z"/>
</svg>
