<?xml version="1.0" encoding="utf-8"?>
<!-- Generator: Adobe Illustrator 16.0.0, SVG Export Plug-In . SVG Version: 6.00 Build 0)  -->
<!DOCTYPE svg PUBLIC "-//W3C//DTD SVG 1.1//EN" "http://www.w3.org/Graphics/SVG/1.1/DTD/svg11.dtd">
<svg version="1.1" id="Layer_1" xmlns="http://www.w3.org/2000/svg" xmlns:xlink="http://www.w3.org/1999/xlink" x="0px" y="0px"
	 width="48px" height="48px" viewBox="0 0 48 48" enable-background="new 0 0 48 48" xml:space="preserve">
<g>
	<path  d="M46,8H2c-1.1,0-2,0.9-2,2v28c0,1.1,0.9,2,2,2h44c1.1,0,2-0.9,2-2V10C48,8.9,47.1,8,46,8z M12.002,36
		l0.733-4.508c0.037-0.218,0.222-0.485,0.413-0.596l6.922-4.017c0.19-0.11,0.41-0.368,0.488-0.574l0.815-1.825
		c-1.148-0.812-1.9-3.432-1.9-4.944V16.48c0-2.474,2.051-4.48,4.525-4.48s4.574,2.006,4.574,4.48v3.057
		c0,1.48-0.86,4.073-1.967,4.889l0.835,1.88c0.079,0.206,0.298,0.464,0.489,0.574l6.922,4.017c0.19,0.11,0.376,0.378,0.412,0.596
		L35.998,36H12.002z"/>
</g>
</svg>
