<?xml version="1.0" encoding="utf-8"?>
<!-- Generator: Adobe Illustrator 16.0.0, SVG Export Plug-In . SVG Version: 6.00 Build 0)  -->
<!DOCTYPE svg PUBLIC "-//W3C//DTD SVG 1.1//EN" "http://www.w3.org/Graphics/SVG/1.1/DTD/svg11.dtd">
<svg version="1.1" id="Layer_1" xmlns="http://www.w3.org/2000/svg" xmlns:xlink="http://www.w3.org/1999/xlink" x="0px" y="0px"
	 width="48px" height="48px" viewBox="0 0 48 48" enable-background="new 0 0 48 48" xml:space="preserve">
<g>
	<rect x="11.619" y="34.118"  width="0" height="5.123"/>
	<path  d="M35.322,12.977L35.322,12.977l7.62-7.621c0.708-0.708,0.708-1.854,0-2.562
		c-0.707-0.708-1.854-0.708-2.562,0l-6.729,6.729C33.604,9.52,33.559,9.51,33.511,9.51H8.152c-1,0-1.812,0.811-1.812,1.811v25.358
		c0,0.049,0.011,0.094,0.014,0.142l-5.823,5.823c-0.708,0.708-0.708,1.854,0,2.562c0.354,0.354,0.817,0.53,1.28,0.53
		c0.464,0,0.927-0.177,1.281-0.53l6.715-6.715l3.623-3.622h0l9.981-9.982L35.322,12.977z M10.287,32.89l0.342-2.104
		c0.033-0.197,0.201-0.439,0.373-0.539l4.593-2.666L10.287,32.89z M16.73,19.958v-2.768c0-2.241,1.857-4.057,4.098-4.057
		s4.144,1.816,4.144,4.057v1.015l-6.755,6.754l0.234-0.523C17.412,23.7,16.73,21.327,16.73,19.958z"/>
	<polygon  points="24.973,18.204 18.645,24.53 18.452,24.435 18.218,24.958 	"/>
	<path  d="M35.322,18.1l-9.399,9.399l4.735,2.747c0.173,0.1,0.341,0.342,0.373,0.539l0.665,4.083H18.554l-3.623,3.622
		h18.58c1,0,1.812-0.811,1.812-1.812v-9.267c4.419,2.602,12.676,7.461,12.676,7.456V13.132c0-0.005-8.257,4.854-12.676,7.456V18.1z"
		/>
</g>
</svg>
