<?xml version="1.0" encoding="utf-8"?>
<!-- Generator: Adobe Illustrator 16.0.0, SVG Export Plug-In . SVG Version: 6.00 Build 0)  -->
<!DOCTYPE svg PUBLIC "-//W3C//DTD SVG 1.1//EN" "http://www.w3.org/Graphics/SVG/1.1/DTD/svg11.dtd">
<svg version="1.1" id="Layer_1" xmlns="http://www.w3.org/2000/svg" xmlns:xlink="http://www.w3.org/1999/xlink" x="0px" y="0px"
	 width="48px" height="48px" viewBox="0 0 48 48" enable-background="new 0 0 48 48" xml:space="preserve">
<path  d="M33.002,20.232V10c0-1.104-0.896-2-2-2h-28c-1.104,0-2,0.896-2,2v28c0,1.104,0.896,2,2,2h28
	c1.104,0,2-0.896,2-2V27.768C37.881,30.64,46.998,36.006,46.998,36V12C46.998,11.994,37.881,17.36,33.002,20.232z M5.003,36
	l0.733-4.508c0.036-0.218,0.222-0.485,0.412-0.596l6.922-4.017c0.19-0.11,0.41-0.368,0.488-0.574l0.815-1.825
	c-1.148-0.812-1.9-3.432-1.9-4.944V16.48c0-2.474,2.051-4.48,4.525-4.48s4.575,2.006,4.575,4.48v3.057
	c0,1.48-0.861,4.073-1.968,4.889l0.835,1.88c0.079,0.206,0.298,0.464,0.489,0.574l6.921,4.017c0.191,0.11,0.377,0.378,0.412,0.596
	L28.998,36H5.003z"/>
</svg>
