<?xml version="1.0" encoding="utf-8"?>
<!-- Generator: Adobe Illustrator 16.0.0, SVG Export Plug-In . SVG Version: 6.00 Build 0)  -->
<!DOCTYPE svg PUBLIC "-//W3C//DTD SVG 1.1//EN" "http://www.w3.org/Graphics/SVG/1.1/DTD/svg11.dtd">
<svg version="1.1" id="Layer_1" xmlns="http://www.w3.org/2000/svg" xmlns:xlink="http://www.w3.org/1999/xlink" x="0px" y="0px"
	 width="48px" height="48px" viewBox="0 0 48 48" enable-background="new 0 0 48 48" xml:space="preserve">
<path  d="M24,0C10.745,0,0,10.745,0,24s10.745,24,24,24s24-10.745,24-24S37.255,0,24,0z M35.819,22h-4.083
	c-0.726-2.804-2.932-5.011-5.736-5.737v-4.083C31.014,13.027,34.973,16.986,35.819,22z M22,12.181v4.083
	c-2.804,0.726-5.011,2.933-5.737,5.737h-4.083C13.027,16.986,16.986,13.027,22,12.181z M12.181,26h4.083
	c0.726,2.805,2.933,5.011,5.737,5.736v4.083C16.986,34.973,13.027,31.014,12.181,26z M26,35.819v-4.083
	c2.805-0.726,5.011-2.932,5.736-5.736h4.083C34.973,31.014,31.014,34.973,26,35.819z"/>
</svg>
