<?xml version="1.0" encoding="utf-8"?>
<!-- Generator: Adobe Illustrator 16.0.0, SVG Export Plug-In . SVG Version: 6.00 Build 0)  -->
<!DOCTYPE svg PUBLIC "-//W3C//DTD SVG 1.1//EN" "http://www.w3.org/Graphics/SVG/1.1/DTD/svg11.dtd">
<svg version="1.1" id="Layer_1" xmlns="http://www.w3.org/2000/svg" xmlns:xlink="http://www.w3.org/1999/xlink" x="0px" y="0px"
	 width="48px" height="48px" viewBox="0 0 48 48" enable-background="new 0 0 48 48" xml:space="preserve">
<g>
	<path  d="M30,0H10C8.9,0,8,0.9,8,2v44c0,1.1,0.9,2,2,2h28c1.1,0,2-0.9,2-2V10L30,0z M17.188,23.992L23.994,14
		l6.771,9.992C31.155,24.547,30.92,25,30.242,25h-4.25v9c0,1.104-0.896,2-2,2s-2-0.896-2-2v-9h-4.281
		C17.033,25,16.798,24.547,17.188,23.992z M34,44H14c-1.1,0-2-0.9-2-2s0.9-2,2-2h20c1.1,0,2,0.9,2,2S35.1,44,34,44z"/>
</g>
</svg>
