<?xml version="1.0" encoding="utf-8"?>
<!-- Generator: Adobe Illustrator 16.0.0, SVG Export Plug-In . SVG Version: 6.00 Build 0)  -->
<!DOCTYPE svg PUBLIC "-//W3C//DTD SVG 1.1//EN" "http://www.w3.org/Graphics/SVG/1.1/DTD/svg11.dtd">
<svg version="1.1" id="Layer_1" xmlns="http://www.w3.org/2000/svg" xmlns:xlink="http://www.w3.org/1999/xlink" x="0px" y="0px"
	 width="48px" height="48px" viewBox="0 0 48 48" enable-background="new 0 0 48 48" xml:space="preserve">
<g>
	<path  d="M44,42H4c-1.104,0-2,0.896-2,2s0.896,2,2,2h40c1.104,0,2-0.896,2-2S45.104,42,44,42z"/>
	<path  d="M15.906,16h6.095v13c0,1.104,0.896,2,2,2s2-0.896,2-2V16h6.094c0.862,0,1.162-0.577,0.665-1.282L24.002,2
		l-8.761,12.718C14.745,15.423,15.044,16,15.906,16z"/>
</g>
</svg>
