<?xml version="1.0" encoding="utf-8"?>
<!-- Generator: Adobe Illustrator 14.0.0, SVG Export Plug-In . SVG Version: 6.00 Build 43363)  -->
<!DOCTYPE svg PUBLIC "-//W3C//DTD SVG 1.1//EN" "http://www.w3.org/Graphics/SVG/1.1/DTD/svg11.dtd">
<svg version="1.1" id="Layer_1" xmlns="http://www.w3.org/2000/svg" xmlns:xlink="http://www.w3.org/1999/xlink" x="0px" y="0px"
	 width="48px" height="48px" viewBox="0 0 48 48" enable-background="new 0 0 48 48" xml:space="preserve">
<g id="Layer_1_1_">
</g>
<g id="icons">
	<path  d="M45.994,0.002H2.006c-1.103,0-2.006,0.9-2.006,2v11h48v-11C48,0.902,47.098,0.002,45.994,0.002z M0,45.998
		c0,1.1,0.901,2,2,2h44c1.102,0,2-0.9,2-2v-29H0V45.998z M15.971,23.747c0-0.961,0.788-1.749,1.75-1.749h24.5
		c0.963,0,1.75,0.788,1.75,1.749v17.501c0,0.961-0.787,1.75-1.75,1.75h-24.5c-0.962,0-1.75-0.789-1.75-1.75V23.747z M21.971,38.998
		c1.104,0,2-0.896,2-2c0-1.105-0.896-2-2-2s-2,0.895-2,2C19.971,38.102,20.866,38.998,21.971,38.998z M21.971,29.998
		c1.104,0,2-0.896,2-2c0-1.105-0.896-2-2-2s-2,0.895-2,2C19.971,29.102,20.866,29.998,21.971,29.998z M29.971,38.998h8
		c1.104,0,2-0.896,2-2c0-1.105-0.896-2-2-2h-8c-1.104,0-2,0.895-2,2C27.971,38.102,28.866,38.998,29.971,38.998z M29.971,29.998h8
		c1.104,0,2-0.896,2-2c0-1.105-0.896-2-2-2h-8c-1.104,0-2,0.895-2,2C27.971,29.102,28.866,29.998,29.971,29.998z"/>
</g>
<g id="_x3C_Layer_x3E_">
</g>
</svg>
