<?xml version="1.0" encoding="utf-8"?>
<!-- Generator: Adobe Illustrator 16.0.0, SVG Export Plug-In . SVG Version: 6.00 Build 0)  -->
<!DOCTYPE svg PUBLIC "-//W3C//DTD SVG 1.1//EN" "http://www.w3.org/Graphics/SVG/1.1/DTD/svg11.dtd">
<svg version="1.1" id="Layer_1" xmlns="http://www.w3.org/2000/svg" xmlns:xlink="http://www.w3.org/1999/xlink" x="0px" y="0px"
	 width="48px" height="48px" viewBox="0 0 48 48" enable-background="new 0 0 48 48" xml:space="preserve">
<g>
	<path  d="M43.5,34.5c-1.375,0-2.5,1.125-2.5,2.5s1.125,2.5,2.5,2.5S46,38.375,46,37S44.875,34.5,43.5,34.5z"/>
	<path  d="M30.5,8.5C29.125,8.5,28,9.625,28,11v26c0,1.375,1.125,2.5,2.5,2.5S33,38.375,33,37V11
		C33,9.625,31.875,8.5,30.5,8.5z"/>
	<path  d="M17.5,15.5c-1.375,0-2.5,1.125-2.5,2.5v19c0,1.375,1.125,2.5,2.5,2.5S20,38.375,20,37V18
		C20,16.625,18.875,15.5,17.5,15.5z"/>
	<path  d="M4.5,23.5C3.125,23.5,2,24.625,2,26v11c0,1.375,1.125,2.5,2.5,2.5S7,38.375,7,37V26
		C7,24.625,5.875,23.5,4.5,23.5z"/>
</g>
</svg>
