<?xml version="1.0" encoding="utf-8"?>
<!-- Generator: Adobe Illustrator 16.0.0, SVG Export Plug-In . SVG Version: 6.00 Build 0)  -->
<!DOCTYPE svg PUBLIC "-//W3C//DTD SVG 1.1//EN" "http://www.w3.org/Graphics/SVG/1.1/DTD/svg11.dtd">
<svg version="1.1" id="Layer_1" xmlns="http://www.w3.org/2000/svg" xmlns:xlink="http://www.w3.org/1999/xlink" x="0px" y="0px"
	 width="48px" height="48px" viewBox="0 0 48 48" enable-background="new 0 0 48 48" xml:space="preserve">
<g>
	<path  d="M43.5,31c-1.375,0-2.5,1.125-2.5,2.5s1.125,2.5,2.5,2.5s2.5-1.125,2.5-2.5S44.875,31,43.5,31z"/>
	<path  d="M30.5,31c-1.375,0-2.5,1.125-2.5,2.5s1.125,2.5,2.5,2.5s2.5-1.125,2.5-2.5S31.875,31,30.5,31z"/>
	<path  d="M17.5,12c-1.375,0-2.5,1.125-2.5,2.5v19c0,1.375,1.125,2.5,2.5,2.5s2.5-1.125,2.5-2.5v-19
		C20,13.125,18.875,12,17.5,12z"/>
	<path  d="M4.5,20C3.125,20,2,21.125,2,22.5v11C2,34.875,3.125,36,4.5,36S7,34.875,7,33.5v-11
		C7,21.125,5.875,20,4.5,20z"/>
</g>
</svg>
