<?xml version="1.0" encoding="utf-8"?>
<!-- Generator: Adobe Illustrator 16.0.0, SVG Export Plug-In . SVG Version: 6.00 Build 0)  -->
<!DOCTYPE svg PUBLIC "-//W3C//DTD SVG 1.1//EN" "http://www.w3.org/Graphics/SVG/1.1/DTD/svg11.dtd">
<svg version="1.1" id="Layer_1" xmlns="http://www.w3.org/2000/svg" xmlns:xlink="http://www.w3.org/1999/xlink" x="0px" y="0px"
	 width="48px" height="48px" viewBox="0 0 48 48" enable-background="new 0 0 48 48" xml:space="preserve">
<g>
	<path  d="M9.993,17.228L0,23.999l9.993,6.805C10.546,31.193,11,30.959,11,30.281V26h13c1.104,0,2-0.896,2-2
		s-0.896-2-2-2H11v-4.25C11,17.072,10.546,16.837,9.993,17.228z"/>
	<path  d="M24,0C17.589,0,11.562,2.497,7.029,7.03l2.828,2.828C13.635,6.081,18.658,4,24,4c11.028,0,20,8.972,20,20
		c0,11.027-8.972,20-20,20c-5.342,0-10.364-2.08-14.143-5.857l-2.828,2.828C11.562,45.504,17.59,48,24,48c13.233,0,24-10.766,24-24
		C48,10.766,37.233,0,24,0z"/>
</g>
</svg>
