<?xml version="1.0" encoding="utf-8"?>
<!-- Generator: Adobe Illustrator 16.0.0, SVG Export Plug-In . SVG Version: 6.00 Build 0)  -->
<!DOCTYPE svg PUBLIC "-//W3C//DTD SVG 1.1//EN" "http://www.w3.org/Graphics/SVG/1.1/DTD/svg11.dtd">
<svg version="1.1" id="Layer_1" xmlns="http://www.w3.org/2000/svg" xmlns:xlink="http://www.w3.org/1999/xlink" x="0px" y="0px"
	 width="48px" height="48px" viewBox="0 0 48 48" enable-background="new 0 0 48 48" xml:space="preserve">
<g>
	<path  d="M16.007,30.804L26,24.033l-9.993-6.806C15.453,16.837,15,17.072,15,17.75v4.281H2c-1.104,0-2,0.896-2,2
		s0.896,2,2,2h13v4.25C15,30.959,15.453,31.193,16.007,30.804z"/>
	<path  d="M24,0C17.589,0,11.562,2.497,7.029,7.03l2.828,2.828C13.635,6.081,18.658,4,24,4c11.028,0,20,8.972,20,20
		c0,11.027-8.972,20-20,20c-5.342,0-10.364-2.08-14.143-5.857l-2.828,2.828C11.562,45.504,17.59,48,24,48c13.233,0,24-10.766,24-24
		C48,10.766,37.233,0,24,0z"/>
</g>
</svg>
