<?xml version="1.0" encoding="utf-8"?>
<!-- Generator: Adobe Illustrator 19.1.0, SVG Export Plug-In . SVG Version: 6.00 Build 0)  -->
<svg version="1.1" id="Layer_1" xmlns="http://www.w3.org/2000/svg" xmlns:xlink="http://www.w3.org/1999/xlink" x="0px" y="0px"
	 width="48px" height="48px" viewBox="-281 373 48 48" style="enable-background:new -281 373 48 48;" xml:space="preserve">

<path d="M-235,377h-33c-1.1,0-2,0.9-2,2v11h-9c-1.1,0-2,0.9-2,2v23c0,1.1,0.9,2,2,2h31c1.1,0,2-0.9,2-2v-11h11
	c1.1,0,2-0.9,2-2v-23C-233,377.9-233.9,377-235,377z M-237,400h-9v-8c0-1.1-0.9-2-2-2h-18v-9h29V400z"/>
</svg>
