<?xml version="1.0" encoding="UTF-8"?>
<svg width="47px" height="48px" viewBox="0 0 47 48" version="1.1" xmlns="http://www.w3.org/2000/svg" xmlns:xlink="http://www.w3.org/1999/xlink">
    <!-- Generator: Sketch 52.3 (67297) - http://www.bohemiancoding.com/sketch -->
    <title>-social-linkedin</title>
    <desc>Created with Sketch.</desc>
    <g id="Page-1" stroke="none" stroke-width="1" fill="none" fill-rule="evenodd">
        <g id="-social-linkedin" fill="#000000" fill-rule="nonzero">
            <path d="M39.5454545,27.7090909 C39.696,25.1454545 38.8909091,22.6232727 37.296,20.6312727 C35.7141818,19.0625455 33.5607273,18.2181818 31.3374545,18.2727273 C28.7738182,18.2181818 26.3738182,19.5272727 25.0101818,21.7090909 L25.0101818,19.3767273 L18.0152727,19.3767273 L18.0152727,39.7221818 L24.9709091,39.7221818 L24.9709091,27.9687273 C24.9447273,27.4101818 25.0385455,26.8516364 25.2567273,26.3454545 C25.5163636,25.6101818 25.992,24.9818182 26.6203636,24.5323636 C27.192,24 27.9709091,23.7403636 28.7476364,23.8101818 C31.1192727,23.8101818 32.2254545,25.3789091 32.2254545,28.5294545 L32.2254545,39.7374545 L39.4930909,39.7374545 L39.4930909,27.7112727 L39.5476364,27.7112727 L39.5454545,27.7090909 Z M14.7010909,12.2596364 C14.7141818,11.2647273 14.3192727,10.3243636 13.6101818,9.62836364 C12.8181818,8.96072727 11.8232727,8.60509091 10.7869091,8.61818182 C9.73745455,8.60509091 8.70109091,8.95854545 7.88290909,9.62836364 C6.42327273,11.088 6.42327273,13.4465455 7.88290909,14.9061818 C8.67490909,15.5738182 9.66981818,15.9294545 10.7061818,15.9163636 C11.7709091,15.9425455 12.792,15.5890909 13.6101818,14.9061818 C14.3192727,14.2101818 14.7141818,13.2698182 14.7010909,12.2749091 L14.7010909,12.2596364 Z M14.8232727,19.3898182 L7.55563636,19.3898182 L7.55563636,39.7352727 L14.8232727,39.7352727 L14.8232727,19.3898182 Z M46.8130909,9.20509091 L46.8130909,38.6181818 C46.8130909,40.9090909 45.8443636,43.0909091 44.1534545,44.6312727 C42.4756364,46.2545455 40.1978182,47.112 37.8545455,47.0181818 L8.78181818,47.0181818 C4.24145455,47.1687273 0.436363636,43.608 0.285818182,39.0676364 L0.285818182,9.55854545 C0.205090909,7.2 1.07563636,4.92218182 2.712,3.21818182 C4.26763636,1.51418182 6.46254545,0.532363636 8.77963636,0.519272727 L37.8523636,0.519272727 C42.7876364,0.628363636 46.7563636,4.63854545 46.8109091,9.57381818 L46.8130909,9.20509091 Z" id="Shape"></path>
        </g>
    </g>
</svg>