<?xml version="1.0" encoding="UTF-8"?>
<svg width="46px" height="46px" viewBox="0 0 46 46" version="1.1" xmlns="http://www.w3.org/2000/svg" xmlns:xlink="http://www.w3.org/1999/xlink">
    <!-- Generator: Sketch 52.3 (67297) - http://www.bohemiancoding.com/sketch -->
    <title>-social-facebook</title>
    <desc>Created with Sketch.</desc>
    <g id="Page-1" stroke="none" stroke-width="1" fill="none" fill-rule="evenodd">
        <g id="-social-facebook" transform="translate(-1.000000, 0.000000)" fill="#000000" fill-rule="nonzero">
            <path d="M39.312,17.1977273 L33.4810435,17.1977273 L33.4810435,14.2056364 C33.456,13.4989091 33.6250435,12.7942727 33.9631304,12.167 C34.5892174,11.7362727 35.3467826,11.5397273 36.0897391,11.6191818 L39.0386087,11.6191818 L39.0386087,4.65436364 L34.2636522,4.65436364 C31.9805217,4.52263636 29.7495652,5.39872727 28.1718261,7.07145455 C26.8925217,8.47027273 26.5147826,10.7953636 26.5147826,13.593 L26.5147826,17.1872727 L22.3408696,17.1872727 L22.3408696,24.1520909 L26.5147826,24.1520909 L26.5147826,42.2635455 L33.4664348,42.2635455 L33.4664348,24.1646364 L38.6963478,24.1646364 L39.309913,17.1998182 L39.312,17.1977273 Z M46.0048696,8.83409091 L46.0048696,37.0216364 C45.9130435,39.2442727 44.9092174,41.3351818 43.2271304,42.7841818 C41.5304348,44.3523636 39.2744348,45.1615455 36.9662609,45.0716364 L9.15756522,45.0716364 C7.05808696,45.1636364 5.02330435,44.3272727 3.60208696,42.7841818 C2.11408696,41.2557273 1.34608696,39.1501818 1.51513043,37.0216364 L1.51513043,9.16027273 C1.34608696,6.93763636 2.10156522,4.74427273 3.60208696,3.08409091 C4.99826087,1.46363636 7.01843478,0.522727273 9.15756522,0.497636364 L36.9662609,0.497636364 C39.314087,0.510181818 41.5575652,1.43854545 43.2271304,3.08409091 C44.9238261,4.66481818 45.9151304,6.84772727 46.0048696,9.16027273 L46.0048696,8.83409091 Z" id="Shape"></path>
        </g>
    </g>
</svg>