<?xml version="1.0" encoding="UTF-8"?>
<svg width="48px" height="48px" viewBox="0 0 48 48" version="1.1" xmlns="http://www.w3.org/2000/svg" xmlns:xlink="http://www.w3.org/1999/xlink">
    <!-- Generator: Sketch 52.3 (67297) - http://www.bohemiancoding.com/sketch -->
    <title>-social-twitter</title>
    <desc>Created with Sketch.</desc>
    <g id="Page-1" stroke="none" stroke-width="1" fill="none" fill-rule="evenodd">
        <g id="-social-twitter" fill="#000000" fill-rule="nonzero">
            <path d="M36.9141818,18.7374545 C36.9141818,17.8930909 38.8909091,16.8021818 39.8181818,15.4647273 C38.5767273,15.9141818 37.2807273,16.2567273 35.9869091,16.4749091 C37.3505455,15.7243636 38.3454545,14.4436364 38.7556364,12.9294545 C37.5141818,13.68 36.1505455,14.1970909 34.7323636,14.4698182 C32.2909091,11.9061818 28.2414545,11.8101818 25.6909091,14.2516364 C24.504,15.384 23.7949091,16.9243636 23.7141818,18.5607273 L23.7141818,18.8465455 C23.7010909,19.3374545 23.7272727,19.8152727 23.7949091,20.3061818 C21.2596364,20.1556364 18.7767273,19.488 16.5272727,18.3163636 C14.2778182,17.1992727 12.2989091,15.6152727 10.7192727,13.68 C10.1061818,14.6356364 9.792,15.7396364 9.80509091,16.8567273 C9.70909091,18.9709091 10.7454545,20.9890909 12.5192727,22.1345455 C11.4829091,22.0930909 10.4596364,21.8487273 9.51927273,21.4123636 C9.57381818,24.48 11.7687273,27.0850909 14.7818182,27.672 C14.2778182,27.8356364 13.7585455,27.9316364 13.2414545,27.9447273 C12.8465455,27.9185455 12.4494545,27.8618182 12.0698182,27.768 C12.4385455,29.0487273 13.2414545,30.1810909 14.3323636,30.9447273 C15.3556364,31.7890909 16.6363636,32.2407273 17.9738182,32.2254545 C15.7243636,33.9992727 12.9272727,34.9527273 10.0647273,34.9396364 C9.54545455,34.9527273 9.02836364,34.9265455 8.52436364,34.8567273 C11.4567273,36.7243636 14.8647273,37.7061818 18.3425455,37.68 C20.4981818,37.6669091 22.6385455,37.3396364 24.696,36.672 C26.5374545,35.976 28.2414545,34.9941818 29.7818182,33.768 C31.1869091,32.5549091 32.4,31.1498182 33.4101818,29.5941818 C34.4749091,28.0930909 35.3192727,26.4436364 35.9061818,24.6981818 C36.4385455,23.0487273 36.7658182,21.3447273 36.8618182,19.6123636 L36.8618182,18.7941818 L36.9163636,18.7396364 L36.9141818,18.7374545 Z M47.0858182,9.23127273 L47.0858182,38.6443636 C47.1949091,43.1716364 43.608,46.9221818 39.0807273,47.0312727 C39.0807273,47.0312727 39.0807273,47.0312727 39.0807273,47.0312727 L9.55854545,47.0312727 C7.21309091,47.1272727 4.93527273,46.2676364 3.24436364,44.6443636 C1.55345455,43.104 0.571636364,40.9221818 0.571636364,38.6312727 L0.571636364,9.55854545 C0.652363636,4.62109091 4.62109091,0.626181818 9.55854545,0.517090909 L38.6312727,0.517090909 C40.9352727,0.545454545 43.1323636,1.512 44.6727273,3.216 C46.296,4.92 47.1687273,7.19781818 47.0858182,9.55636364 L47.0858182,9.23127273 Z" id="Shape"></path>
        </g>
    </g>
</svg>