<?xml version="1.0" encoding="utf-8"?>
<!-- Generator: Adobe Illustrator 16.0.0, SVG Export Plug-In . SVG Version: 6.00 Build 0)  -->
<!DOCTYPE svg PUBLIC "-//W3C//DTD SVG 1.1//EN" "http://www.w3.org/Graphics/SVG/1.1/DTD/svg11.dtd">
<svg version="1.1" id="Layer_1" xmlns="http://www.w3.org/2000/svg" xmlns:xlink="http://www.w3.org/1999/xlink" x="0px" y="0px"
	 width="48px" height="48px" viewBox="0 0 48 48" enable-background="new 0 0 48 48" xml:space="preserve">
<g>
	<path  d="M46,4H2C0.9,4,0,4.9,0,6v28c0,1.1,0.9,2,2,2h44c1.1,0,2-0.9,2-2V6C48,4.9,47.1,4,46,4z M44,32H4V8h40V32z"
		/>
	<path  d="M31.542,41l-7.546-1l-7.475,1c-0.825,0-1.5,0.675-1.5,1.5s0.675,1.5,1.5,1.5h15.021
		c0.825,0,1.5-0.675,1.5-1.5S32.367,41,31.542,41z"/>
	<path  d="M11.289,25.626c0.158,0.21,0.449,0.276,0.687,0.159l4.919-2.58c0.591-0.295,1.049-0.794,1.283-1.4
		l0.939-2.431c1.57-0.241,3.199-0.373,4.873-0.374c1.674-0.001,3.304,0.127,4.874,0.365l0.944,2.43
		c0.234,0.605,0.693,1.104,1.285,1.396l-0.023-0.011l4.947,2.582c0.238,0.118,0.529,0.05,0.688-0.159L40,20.254l-0.012-0.003
		l0.006-0.008c-0.613-0.375-1.252-0.728-1.916-1.059c-3.99-1.989-8.85-3.159-14.089-3.155c-5.24,0.005-10.096,1.184-14.083,3.18
		c-0.663,0.332-1.302,0.687-1.915,1.062l0.006,0.008l-0.012,0.004L11.289,25.626z"/>
</g>
</svg>
