<svg id="Layer_1" data-name="Layer 1" xmlns="http://www.w3.org/2000/svg" width="48" height="48" viewBox="0 0 48 48"><defs><style>.cls-1{fill:#333439;}</style></defs><title>Suggested software_48x48</title><path class="cls-1" d="M24,0A24,24,0,1,0,48,24,24,24,0,0,0,24,0ZM39.41,20.94l-7.18,5.65a3.29,3.29,0,0,0-1.06,3.33l2.9,9c.35,1.12-.13,1.45-1.06.74l-7.28-5.49a3,3,0,0,0-3.39,0L15,39.63h0c-.93.71-1.42.37-1.07-.75l.12-.39,2.8-8.65h0a3.29,3.29,0,0,0-1.07-3.33L8.6,20.92c-.93-.71-.74-1.29.43-1.29h8.78a3.09,3.09,0,0,0,2.77-2l2.78-8.76c.35-1.12.92-1.12,1.27,0l2.76,8.77a3.08,3.08,0,0,0,2.76,2H39C40.14,19.64,40.34,20.22,39.41,20.94Z"/></svg>