<svg id="Layer_1" data-name="Layer 1" xmlns="http://www.w3.org/2000/svg" width="24" height="24" viewBox="0 0 24 24"><defs><style>.cls-1{fill:#333439;}</style></defs><title>Suggested software_24x24</title><path class="cls-1" d="M12,0A12,12,0,1,0,24,12,12,12,0,0,0,12,0Zm7.7,10.47-3.59,2.82A1.65,1.65,0,0,0,15.58,15L17,19.44c.17.56-.06.73-.53.37l-3.64-2.74a1.48,1.48,0,0,0-1.69,0L7.49,19.81h0c-.47.35-.71.18-.54-.38L7,19.25l1.4-4.32h0a1.64,1.64,0,0,0-.54-1.66L4.3,10.46c-.47-.35-.37-.64.22-.64H8.91a1.55,1.55,0,0,0,1.38-1l1.39-4.38c.17-.56.46-.56.63,0L13.7,8.8a1.54,1.54,0,0,0,1.38,1h4.4C20.07,9.82,20.17,10.11,19.7,10.47Z"/></svg>