<svg id="Layer_1" data-name="Layer 1" xmlns="http://www.w3.org/2000/svg" width="16" height="16" viewBox="0 0 16 16"><defs><style>.cls-1{fill:#333439;}</style></defs><title>Suggested software_16x16</title><path class="cls-1" d="M8,0a8,8,0,1,0,8,8A8,8,0,0,0,8,0Zm4.71,7.06-2.2,1.73a1,1,0,0,0-.32,1l.89,2.74c.11.34,0,.44-.32.23L8.53,11.1a.91.91,0,0,0-1,0L5.24,12.78h0c-.29.22-.43.11-.33-.23l0-.12.86-2.65h0a1,1,0,0,0-.33-1L3.29,7.06c-.29-.22-.23-.39.13-.39H6.11A1,1,0,0,0,7,6l.85-2.68c.11-.34.28-.34.39,0L9,6a.94.94,0,0,0,.85.62h2.7C12.94,6.67,13,6.84,12.71,7.06Z"/></svg>