<?xml version="1.0" encoding="utf-8"?>
<!-- Generator: Adobe Illustrator 18.1.1, SVG Export Plug-In . SVG Version: 6.00 Build 0)  -->
<svg version="1.1" id="Layer_1" xmlns="http://www.w3.org/2000/svg" xmlns:xlink="http://www.w3.org/1999/xlink" x="0px" y="0px"
	 viewBox="0 0 48 48" enable-background="new 0 0 48 48" xml:space="preserve">
<g>
	<path  d="M43,43.5c0-1.4-1.1-2.5-2.5-2.5h-33C6.1,41,5,42.1,5,43.5S6.1,46,7.5,46h33C41.9,46,43,44.9,43,43.5z"/>
	<path  d="M36,30.5c0-1.4-1.1-2.5-2.5-2.5h-26C6.1,28,5,29.1,5,30.5S6.1,33,7.5,33h26C34.9,33,36,31.9,36,30.5z"/>
	<path  d="M29,17.5c0-1.4-1.1-2.5-2.5-2.5h-19C6.1,15,5,16.1,5,17.5S6.1,20,7.5,20h19C27.9,20,29,18.9,29,17.5z"/>
	<path  d="M21,4.5C21,3.1,19.9,2,18.5,2h-11C6.1,2,5,3.1,5,4.5S6.1,7,7.5,7h11C19.9,7,21,5.9,21,4.5z"/>
</g>
</svg>
