<?xml version="1.0" encoding="utf-8"?>
<!-- Generator: Adobe Illustrator 18.1.1, SVG Export Plug-In . SVG Version: 6.00 Build 0)  -->
<svg version="1.1" id="Layer_1" xmlns="http://www.w3.org/2000/svg" xmlns:xlink="http://www.w3.org/1999/xlink" x="0px" y="0px"
	 viewBox="0 0 48 48" enable-background="new 0 0 48 48" xml:space="preserve">
<g>
	<path  d="M43,4.5C43,5.9,41.9,7,40.5,7h-33C6.1,7,5,5.9,5,4.5S6.1,2,7.5,2h33C41.9,2,43,3.1,43,4.5z"/>
	<path  d="M36,17.5c0,1.4-1.1,2.5-2.5,2.5h-26C6.1,20,5,18.9,5,17.5S6.1,15,7.5,15h26C34.9,15,36,16.1,36,17.5z"/>
	<path  d="M29,30.5c0,1.4-1.1,2.5-2.5,2.5h-19C6.1,33,5,31.9,5,30.5S6.1,28,7.5,28h19C27.9,28,29,29.1,29,30.5z"/>
	<path  d="M21,43.5c0,1.4-1.1,2.5-2.5,2.5h-11C6.1,46,5,44.9,5,43.5S6.1,41,7.5,41h11C19.9,41,21,42.1,21,43.5z"/>
</g>
</svg>
