<?xml version="1.0" encoding="utf-8"?>
<!-- Generator: Adobe Illustrator 19.1.0, SVG Export Plug-In . SVG Version: 6.00 Build 0)  -->
<svg version="1.1" id="Layer_1" xmlns="http://www.w3.org/2000/svg" xmlns:xlink="http://www.w3.org/1999/xlink" x="0px" y="0px"
	 width="48px" height="48px" viewBox="-281 373 48 48" style="enable-background:new -281 373 48 48;" xml:space="preserve">

<path d="M-239.3,396c-2.1-3.8-4.6-8-9.7-8c-5.2,0-7.6,4.3-9.7,8c-2.1,3.7-3.6,6-6.3,6c-2.6,0-4.1-2.3-6.3-6
	c-2.1-3.8-4.6-8-9.7-8v4c2.6,0,4.1,2.3,6.3,6c2.1,3.8,4.6,8,9.7,8c5.2,0,7.6-4.3,9.7-8c2.1-3.7,3.6-6,6.3-6s4.1,2.3,6.3,6
	c2.1,3.8,4.6,8,9.7,8v-4C-235.6,402-237.1,399.7-239.3,396z"/>
</svg>
