<?xml version="1.0" encoding="utf-8"?>
<!-- Generator: Adobe Illustrator 16.0.0, SVG Export Plug-In . SVG Version: 6.00 Build 0)  -->
<!DOCTYPE svg PUBLIC "-//W3C//DTD SVG 1.1//EN" "http://www.w3.org/Graphics/SVG/1.1/DTD/svg11.dtd">
<svg version="1.1" id="Layer_1" xmlns="http://www.w3.org/2000/svg" xmlns:xlink="http://www.w3.org/1999/xlink" x="0px" y="0px"
	 width="48px" height="48px" viewBox="0 0 48 48" enable-background="new 0 0 48 48" xml:space="preserve">
<g>
	<path  d="M46,3H2C0.896,3,0,3.896,0,5v38c0,1.104,0.896,2,2,2h44c1.104,0,2-0.896,2-2V5C48,3.896,47.104,3,46,3z
		 M34,36H12.5C8.91,36,6,33.09,6,29.5c0-3.494,2.759-6.336,6.216-6.486C12.078,22.533,12,22.025,12,21.5c0-3.038,2.462-5.5,5.5-5.5
		c1.151,0,2.219,0.355,3.102,0.959C21.799,14.05,24.658,12,28,12c4.418,0,8,3.582,8,8c0,0.087-0.01,0.172-0.014,0.259
		C39.442,21.144,42,24.27,42,28C42,32.418,38.418,36,34,36z"/>
</g>
</svg>
