<?xml version="1.0" encoding="utf-8"?>
<!-- Generator: Adobe Illustrator 19.1.0, SVG Export Plug-In . SVG Version: 6.00 Build 0)  -->
<svg version="1.1" id="Layer_1" xmlns="http://www.w3.org/2000/svg" xmlns:xlink="http://www.w3.org/1999/xlink" x="0px" y="0px"
	 width="48px" height="48px" viewBox="-281 373 48 48" style="enable-background:new -281 373 48 48;" xml:space="preserve">

<g>
	<path d="M-257,406c3.9,0,7-3.1,7-7c0-1.2-0.3-2.3-0.8-3.3l-9.5,9.5C-259.3,405.7-258.2,406-257,406z"/>
	<path d="M-257,392c-3.9,0-7,3.1-7,7c0,1.2,0.3,2.3,0.8,3.3l9.5-9.5C-254.7,392.3-255.8,392-257,392z"/>
	<path d="M-235,383h-23.7l-2.3-4h-5h-4h-10c-0.6,0-1,0.4-1,1v33c0,1.1,0.9,2,2,2h44c1.1,0,2-0.9,2-2v-28
		C-233,383.9-233.9,383-235,383z M-257,410c-6.1,0-11-4.9-11-11s4.9-11,11-11s11,4.9,11,11S-250.9,410-257,410z"/>
</g>
</svg>
