<?xml version="1.0" encoding="utf-8"?>
<!-- Generator: Adobe Illustrator 16.0.0, SVG Export Plug-In . SVG Version: 6.00 Build 0)  -->
<!DOCTYPE svg PUBLIC "-//W3C//DTD SVG 1.1//EN" "http://www.w3.org/Graphics/SVG/1.1/DTD/svg11.dtd">
<svg version="1.1" id="Layer_1" xmlns="http://www.w3.org/2000/svg" xmlns:xlink="http://www.w3.org/1999/xlink" x="0px" y="0px"
	 width="48px" height="48px" viewBox="0 0 48 48" enable-background="new 0 0 48 48" xml:space="preserve">
<path fill="#231F20" d="M47.315,20.148l-14.318-0.181l3.361-3.178c0.728-0.688,0.946-1.76,0.548-2.681l-3.093-7.111
	c-0.511-1.173-2.057-1.438-2.931-0.502l-4.703,5.047V3.167c0-1.21-1.225-2.035-2.346-1.581l-5.816,2.362
	c-0.574,0.233-0.959,0.78-0.984,1.399l-0.31,7.262L6.42,0.807C5.743,0.03,4.494,0.192,4.041,1.117L0.61,8.1
	c-0.465,0.947-0.29,2.083,0.435,2.849l8.295,8.72l-5.042-0.063c-0.753-0.009-1.434,0.446-1.711,1.146l-2.426,6.113
	c-0.417,1.054,0.319,2.208,1.453,2.271l7.769,0.434l-7.116,7.635c-0.856,0.918-0.456,2.412,0.74,2.784l5.435,1.682
	c0.748,0.229,1.562,0.039,2.13-0.495l5.138-4.858l-0.453,10.599c-0.02,0.508,0.464,0.888,0.952,0.741l8.3-2.489
	c0.99-0.3,1.671-1.212,1.671-2.249v-5.542l5.236,5.508c0.738,0.772,2.015,0.615,2.541-0.315l2.559-4.522
	c0.567-1.004,0.439-2.259-0.317-3.125l-3.533-4.05l10.025,0.562c0.676,0.038,1.302-0.362,1.547-0.995l3.674-9.406
	C48.077,20.611,47.77,20.154,47.315,20.148"/>
</svg>
