<?xml version="1.0" encoding="utf-8"?>
<!-- Generator: Adobe Illustrator 16.0.0, SVG Export Plug-In . SVG Version: 6.00 Build 0)  -->
<!DOCTYPE svg PUBLIC "-//W3C//DTD SVG 1.1//EN" "http://www.w3.org/Graphics/SVG/1.1/DTD/svg11.dtd">
<svg version="1.1" id="Layer_1" xmlns="http://www.w3.org/2000/svg" xmlns:xlink="http://www.w3.org/1999/xlink" x="0px" y="0px"
	 width="48px" height="48px" viewBox="0 0 48 48" enable-background="new 0 0 48 48" xml:space="preserve">
<g>
	<path  d="M47.414,0.586c-0.781-0.781-2.047-0.781-2.828,0L36,9.172V0L20.06,15H14c-1.1,0-2,0.9-2,2v14
		c0,0.594,0.268,1.123,0.682,1.49L0.586,44.586c-0.781,0.781-0.781,2.047,0,2.828C0.977,47.805,1.488,48,2,48
		s1.023-0.195,1.414-0.586l44-44C48.195,2.633,48.195,1.367,47.414,0.586z"/>
	<polygon  points="36,48 36,20.485 21.824,34.66 	"/>
</g>
</svg>
