<?xml version="1.0" encoding="utf-8"?>
<!-- Generator: Adobe Illustrator 16.0.0, SVG Export Plug-In . SVG Version: 6.00 Build 0)  -->
<!DOCTYPE svg PUBLIC "-//W3C//DTD SVG 1.1//EN" "http://www.w3.org/Graphics/SVG/1.1/DTD/svg11.dtd">
<svg version="1.1" id="Layer_1" xmlns="http://www.w3.org/2000/svg" xmlns:xlink="http://www.w3.org/1999/xlink" x="0px" y="0px"
	 width="48px" height="48px" viewBox="0 0 48 48" enable-background="new 0 0 48 48" xml:space="preserve">
<g>
	<path  d="M46,15c1.1,0,2,0.9,2,2v14c0,1.1-0.9,2-2,2h-6.06L24,48V0l15.94,15H46z"/>
	<path  d="M7.03,7.029c0.78-0.781,2.048-0.781,2.828,0c0.781,0.781,0.781,2.047,0,2.828C6.081,13.635,4,18.658,4,24
		s2.081,10.365,5.858,14.143c0.781,0.781,0.781,2.047,0,2.828c-0.39,0.391-0.902,0.586-1.414,0.586S7.42,41.361,7.03,40.971
		C2.497,36.438,0,30.411,0,24S2.497,11.562,7.03,7.029z"/>
	<path  d="M17.636,14.807c0.781,0.781,0.781,2.048,0,2.829C15.936,19.336,15,21.597,15,24
		c0,2.404,0.936,4.664,2.636,6.364c0.781,0.781,0.781,2.047,0,2.828c-0.39,0.391-0.902,0.586-1.414,0.586s-1.024-0.195-1.414-0.586
		C12.352,30.737,11,27.473,11,24c0-3.472,1.352-6.736,3.807-9.192C15.588,14.027,16.854,14.026,17.636,14.807z"/>
</g>
</svg>
