<?xml version="1.0" encoding="utf-8"?>
<!-- Generator: Adobe Illustrator 19.1.0, SVG Export Plug-In . SVG Version: 6.00 Build 0)  -->
<svg version="1.1" id="Layer_1" xmlns="http://www.w3.org/2000/svg" xmlns:xlink="http://www.w3.org/1999/xlink" x="0px" y="0px"
	 width="48px" height="48px" viewBox="-281 373 48 48" style="enable-background:new -281 373 48 48;" xml:space="preserve">

<g>
	<path d="M-239,379v36c0,3.3,2.7,6,6,6v-48C-236.3,373-239,375.7-239,379z"/>
	<path d="M-248,384h-31c-1.1,0-2,0.9-2,2s0.9,2,2,2h31c1.1,0,2-0.9,2-2S-246.9,384-248,384z"/>
	<path d="M-248,395h-21c-1.1,0-2,0.9-2,2s0.9,2,2,2h21c1.1,0,2-0.9,2-2S-246.9,395-248,395z"/>
	<path d="M-248,406h-11c-1.1,0-2,0.9-2,2s0.9,2,2,2h11c1.1,0,2-0.9,2-2S-246.9,406-248,406z"/>
</g>
</svg>
