<?xml version="1.0" encoding="utf-8"?>
<!-- Generator: Adobe Illustrator 18.1.1, SVG Export Plug-In . SVG Version: 6.00 Build 0)  -->
<svg version="1.1" id="Layer_1" xmlns="http://www.w3.org/2000/svg" xmlns:xlink="http://www.w3.org/1999/xlink" x="0px" y="0px"
	 viewBox="0 0 64 64" enable-background="new 0 0 64 64" xml:space="preserve">
<path d="M21.1,51.2c0,1.6-0.6,3-1.7,4.1c-1.1,1.1-2.5,1.7-4.1,1.7c-1.6,0-3-0.6-4.1-1.7c-1.1-1.1-1.7-2.5-1.7-4.1
	c0-1.6,0.6-3,1.7-4.1c1.1-1.1,2.5-1.7,4.1-1.7c1.6,0,2.9,0.6,4.1,1.7C20.6,48.2,21.1,49.6,21.1,51.2z M38.4,58.9
	c0,1.4-0.5,2.6-1.5,3.6S34.7,64,33.3,64c-1.4,0-2.6-0.5-3.6-1.5s-1.5-2.2-1.5-3.6c0-1.4,0.5-2.6,1.5-3.6s2.2-1.5,3.6-1.5
	c1.4,0,2.6,0.5,3.6,1.5S38.4,57.5,38.4,58.9z M14.1,33.3c0,1.8-0.6,3.3-1.9,4.5s-2.8,1.9-4.5,1.9s-3.3-0.6-4.5-1.9S1.3,35,1.3,33.3
	c0-1.8,0.6-3.3,1.9-4.5s2.8-1.9,4.5-1.9s3.3,0.6,4.5,1.9S14.1,31.5,14.1,33.3z M55.7,51.2c0,1.2-0.4,2.3-1.3,3.2s-1.9,1.3-3.2,1.3
	s-2.3-0.4-3.2-1.3c-0.9-0.9-1.3-1.9-1.3-3.2s0.4-2.3,1.3-3.2c0.9-0.9,1.9-1.3,3.2-1.3s2.3,0.4,3.2,1.3C55.2,48.9,55.7,50,55.7,51.2z
	 M22.4,15.4c0,1.9-0.7,3.6-2.1,5s-3,2.1-5,2.1s-3.6-0.7-5-2.1s-2.1-3-2.1-5s0.7-3.6,2.1-5s3-2.1,5-2.1s3.6,0.7,5,2.1
	S22.4,13.4,22.4,15.4z M41,7.7c0,2.1-0.7,3.9-2.2,5.4c-1.5,1.5-3.3,2.2-5.4,2.2c-2.1,0-3.9-0.7-5.4-2.2s-2.2-3.3-2.2-5.4
	s0.7-3.9,2.2-5.4S31.1,0,33.3,0c2.1,0,3.9,0.7,5.4,2.2C40.2,3.7,41,5.5,41,7.7z M62.7,33.3c0,1.1-0.4,2-1.1,2.7
	c-0.7,0.7-1.7,1.1-2.7,1.1s-2-0.4-2.7-1.1S55,34.3,55,33.3s0.4-2,1.1-2.7s1.7-1.1,2.7-1.1s2,0.4,2.7,1.1
	C62.3,31.3,62.7,32.2,62.7,33.3z M54.4,15.4c0,0.9-0.3,1.6-0.9,2.3c-0.6,0.6-1.4,0.9-2.3,0.9s-1.6-0.3-2.3-0.9
	C48.3,17,48,16.2,48,15.4s0.3-1.6,0.9-2.3c0.6-0.6,1.4-0.9,2.3-0.9s1.6,0.3,2.3,0.9C54.1,13.7,54.4,14.5,54.4,15.4z"/>
</svg>
