<?xml version="1.0" encoding="UTF-8"?>
<svg width="65px" height="64px" viewBox="0 0 65 64" version="1.1" xmlns="http://www.w3.org/2000/svg" xmlns:xlink="http://www.w3.org/1999/xlink">
    <!-- Generator: Sketch 52.3 (67297) - http://www.bohemiancoding.com/sketch -->
    <title>Combined Shape</title>
    <desc>Created with Sketch.</desc>
    <g id="Page-1" stroke="none" stroke-width="1" fill="none" fill-rule="evenodd">
        <path d="M51.3,5.8 L13.5,5.8 C11.5,5.8 9.8,6.5 8.4,7.9 C7,9.3 6.3,11 6.3,13 L6.3,50.8 C6.3,52.8 7,54.5 8.4,55.9 C9.8,57.3 11.5,58 13.5,58 L51.3,58 C53.3,58 55,57.3 56.4,55.9 C57.8,54.5 58.5,52.8 58.5,50.8 L58.5,13.1 C58.5,11.1 57.8,9.4 56.4,8 C55,6.6 53.3,5.8 51.3,5.8 Z M64.4,13.1 L64.4,50.9 C64.4,54.5 63.1,57.6 60.6,60.1 C58.1,62.6 54.9,64 51.3,64 L13.5,64 C9.9,64 6.8,62.7 4.3,60.2 C1.8,57.7 0.5,54.6 0.5,51 L0.5,13.1 C0.5,9.5 1.8,6.4 4.3,3.9 C6.8,1.4 9.9,0 13.5,0 L51.3,0 C54.9,0 58,1.3 60.5,3.8 C63,6.3 64.4,9.5 64.4,13.1 Z M27,45.414 L15.586,34 C14.805,33.219 14.805,31.953 15.586,31.172 C16.367,30.391 17.633,30.391 18.414,31.172 L27,39.758 L47.586,19.172 C48.367,18.391 49.633,18.391 50.414,19.172 C51.195,19.953 51.195,21.219 50.414,22 L27,45.414 Z" id="Combined-Shape" fill="#000000" fill-rule="nonzero"></path>
    </g>
</svg>