<?xml version="1.0" encoding="utf-8"?>
<!-- Generator: Adobe Illustrator 18.1.1, SVG Export Plug-In . SVG Version: 6.00 Build 0)  -->
<svg version="1.1" id="Layer_1" xmlns="http://www.w3.org/2000/svg" xmlns:xlink="http://www.w3.org/1999/xlink" x="0px" y="0px"
	 viewBox="0 0 64 64" enable-background="new 0 0 64 64" xml:space="preserve">
<path d="M51.3,5.8H13.5c-2,0-3.7,0.7-5.1,2.1s-2.1,3.1-2.1,5.1v37.8c0,2,0.7,3.7,2.1,5.1s3.1,2.1,5.1,2.1h37.8c2,0,3.7-0.7,5.1-2.1
	s2.1-3.1,2.1-5.1V13.1c0-2-0.7-3.7-2.1-5.1S53.3,5.8,51.3,5.8z M64.4,13.1v37.8c0,3.6-1.3,6.7-3.8,9.2S54.9,64,51.3,64H13.5
	c-3.6,0-6.7-1.3-9.2-3.8s-3.8-5.6-3.8-9.2V13.1c0-3.6,1.3-6.7,3.8-9.2S9.9,0,13.5,0h37.8c3.6,0,6.7,1.3,9.2,3.8S64.4,9.5,64.4,13.1z
	"/>
</svg>
