<?xml version="1.0" encoding="utf-8"?>
<!-- Generator: Adobe Illustrator 16.0.0, SVG Export Plug-In . SVG Version: 6.00 Build 0)  -->
<!DOCTYPE svg PUBLIC "-//W3C//DTD SVG 1.1//EN" "http://www.w3.org/Graphics/SVG/1.1/DTD/svg11.dtd">
<svg version="1.1" id="Layer_1" xmlns="http://www.w3.org/2000/svg" xmlns:xlink="http://www.w3.org/1999/xlink" x="0px" y="0px"
	 width="48px" height="48px" viewBox="0 0 48 48" enable-background="new 0 0 48 48" xml:space="preserve">
<path fill="#333439" d="M44.573,18.008H32.464c-1.611,0-3.32-1.259-3.798-2.798l-3.8-12.048c-0.477-1.539-1.261-1.54-1.742-0.001
	l-3.828,12.038c-0.48,1.538-2.192,2.796-3.804,2.796H3.423c-1.611,0-1.88,0.797-0.598,1.772l9.845,7.693
	c1.282,0.975,1.945,3.033,1.472,4.573v0.001l-3.844,11.888l-0.163,0.53c-0.473,1.541,0.19,2.005,1.475,1.032l0-0.001l10.116-7.566
	c1.284-0.973,3.381-0.966,4.659,0.015l10.001,7.544c1.278,0.981,1.934,0.525,1.457-1.015l-3.989-12.327
	c-0.478-1.539,0.179-3.6,1.457-4.58l9.867-7.763C46.457,18.811,46.185,18.008,44.573,18.008z"/>
</svg>
