<?xml version="1.0" encoding="utf-8"?>
<!-- Generator: Adobe Illustrator 16.0.0, SVG Export Plug-In . SVG Version: 6.00 Build 0)  -->
<!DOCTYPE svg PUBLIC "-//W3C//DTD SVG 1.1//EN" "http://www.w3.org/Graphics/SVG/1.1/DTD/svg11.dtd">
<svg version="1.1" id="Layer_1" xmlns="http://www.w3.org/2000/svg" xmlns:xlink="http://www.w3.org/1999/xlink" x="0px" y="0px"
	 width="48px" height="48px" viewBox="0 0 48 48" enable-background="new 0 0 48 48" xml:space="preserve">
<g>
	<path  d="M44,2H4C2.9,2,2,2.9,2,4v11h44V4C46,2.9,45.1,2,44,2z M8.5,11C7.119,11,6,9.88,6,8.5C6,7.119,7.119,6,8.5,6
		S11,7.119,11,8.5C11,9.88,9.881,11,8.5,11z"/>
	<path  d="M2,44c0,1.1,0.9,2,2,2h40c1.1,0,2-0.9,2-2V33H2V44z"/>
	<rect x="2" y="19"  width="44" height="10"/>
</g>
</svg>
