<?xml version="1.0" encoding="utf-8"?>
<!-- Generator: Adobe Illustrator 16.0.0, SVG Export Plug-In . SVG Version: 6.00 Build 0)  -->
<!DOCTYPE svg PUBLIC "-//W3C//DTD SVG 1.1//EN" "http://www.w3.org/Graphics/SVG/1.1/DTD/svg11.dtd">
<svg version="1.1" id="Layer_1" xmlns="http://www.w3.org/2000/svg" xmlns:xlink="http://www.w3.org/1999/xlink" x="0px" y="0px"
	 width="48px" height="48px" viewBox="0 0 48 48" enable-background="new 0 0 48 48" xml:space="preserve">
<path  d="M44,2H4C2.896,2,2,2.896,2,4v40c0,1.104,0.896,2,2,2h40c1.104,0,2-0.896,2-2V4C46,2.896,45.104,2,44,2z
	 M12,39c-1.657,0-3-1.344-3-3s1.343-3,3-3s3,1.344,3,3S13.657,39,12,39z M24.844,36c-1.004,0-1.827-0.742-1.97-1.705l0,0
	c-0.741-4.73-4.517-8.478-9.262-9.178l0,0C12.693,24.936,12,24.127,12,23.156c0-1.104,0.896-2,2-2c0.038,0,0.072,0.01,0.109,0.012
	h0.003c0.167,0.01,0.328,0.04,0.481,0.088c6.177,1.086,11.041,5.949,12.141,12.118c0.065,0.198,0.109,0.405,0.109,0.626
	C26.844,35.104,25.948,36,24.844,36z M36.922,36c-1.062,0-1.922-0.83-1.987-1.875l0,0c-0.911-11.196-9.889-20.151-21.091-21.044l0,0
	C12.813,13,12,12.129,12,11.078s0.813-1.903,1.844-1.984c0.042-0.003-0.083,0.009,0.042-0.003c0.149,0.011,0.379,0.018,0.527,0.031
	c12.961,1.155,23.306,11.499,24.463,24.459c0.014,0.152,0.031,0.304,0.042,0.456c0,0.035-0.008,0.068-0.01,0.104
	C38.834,35.178,37.979,36,36.922,36z"/>
</svg>
