<?xml version="1.0" encoding="utf-8"?>
<!-- Generator: Adobe Illustrator 19.1.0, SVG Export Plug-In . SVG Version: 6.00 Build 0)  -->
<svg version="1.1" id="Layer_1" xmlns="http://www.w3.org/2000/svg" xmlns:xlink="http://www.w3.org/1999/xlink" x="0px" y="0px"
	 width="48px" height="48px" viewBox="-281 373 48 48" style="enable-background:new -281 373 48 48;" xml:space="preserve">

<path d="M-233.2,383l-6.8-10l-6.8,10c-0.4,0.6-0.2,1,0.5,1h4.2v26.5c0,3.6-2.9,6.5-6.5,6.5s-6.5-2.9-6.5-6.5v-27
	c0-5.8-4.7-10.5-10.5-10.5s-10.5,4.7-10.5,10.5V410h-0.1h-4.2c-0.7,0-0.9,0.5-0.5,1l6.8,10l6.8-10c0.4-0.6,0.2-1-0.5-1h-4.2v-26.5
	c0-3.6,2.9-6.5,6.5-6.5s6.5,2.9,6.5,6.5v27c0,5.8,4.7,10.5,10.5,10.5s10.5-4.7,10.5-10.5V384h0.1h4.2
	C-233,384-232.8,383.5-233.2,383z"/>
</svg>
