<?xml version="1.0" encoding="utf-8"?>
<!-- Generator: Adobe Illustrator 16.0.0, SVG Export Plug-In . SVG Version: 6.00 Build 0)  -->
<!DOCTYPE svg PUBLIC "-//W3C//DTD SVG 1.1//EN" "http://www.w3.org/Graphics/SVG/1.1/DTD/svg11.dtd">
<svg version="1.1" id="Layer_1" xmlns="http://www.w3.org/2000/svg" xmlns:xlink="http://www.w3.org/1999/xlink" x="0px" y="0px"
	 width="48px" height="48px" viewBox="0 0 48 48" enable-background="new 0 0 48 48" xml:space="preserve">
<g>
	<path  d="M14,17h13c1.104,0,2-0.896,2-2v-4.512c2.869,1.779,6.996,4.337,6.996,4.337L36,2
		c0,0-0.014,0.008-0.037,0.022c-0.328,0.2-6.607,4.053-6.963,4.271V2c0-1.104-0.896-2-2-2H14c-1.104,0-2,0.896-2,2v13
		C12,16.104,12.896,17,14,17z"/>
	<path  d="M17.979,30.076c-0.029-0.012-0.057-0.02-0.086-0.028c-0.068-0.021-0.135-0.034-0.198-0.038
		C17.68,30.009,17.662,30,17.646,30c-0.011,0-0.019,0.006-0.029,0.007c-0.079,0.003-0.152,0.019-0.218,0.05
		c-0.006,0.002-0.013,0.002-0.018,0.005c-0.07,0.035-0.13,0.091-0.183,0.155c-0.015,0.02-0.027,0.042-0.041,0.062
		c-0.036,0.055-0.065,0.119-0.088,0.189c-0.009,0.027-0.02,0.055-0.027,0.086C17.017,30.657,17,30.77,17,30.899v6.166
		c-1.414-0.385-2.758-0.872-4-1.468C7.584,33,4,28.55,4,23.5c0-3.25,1.5-6.243,4-8.663V9.726c-4.906,3.39-8,8.308-8,13.774
		c0,7.146,5.287,13.354,13,16.434c1.272,0.508,2.608,0.934,4,1.262v5.905c0,0.13,0.017,0.242,0.042,0.346
		c0.007,0.03,0.018,0.058,0.027,0.085c0.023,0.07,0.053,0.135,0.088,0.189c0.013,0.021,0.025,0.043,0.041,0.062
		c0.053,0.064,0.112,0.119,0.183,0.155c0.005,0.003,0.012,0.003,0.018,0.005c0.066,0.031,0.14,0.047,0.218,0.05
		C17.627,47.994,17.635,48,17.646,48c0.016,0,0.034-0.009,0.05-0.01c0.063-0.004,0.129-0.018,0.198-0.038
		c0.029-0.009,0.057-0.017,0.086-0.028c0.098-0.039,0.198-0.09,0.303-0.162L31,39.013l-12.718-8.774
		C18.178,30.166,18.077,30.115,17.979,30.076z"/>
	<path  d="M40,9.726v5.1v0.011c2.5,2.42,4,5.414,4,8.663c0,5.402-4.104,10.115-10.164,12.61l3.784,2.61
		C43.885,35.379,48,29.805,48,23.5C48,18.034,44.906,13.115,40,9.726z"/>
</g>
</svg>
