<?xml version="1.0" encoding="UTF-8"?>
<svg width="46px" height="48px" viewBox="0 0 46 48" version="1.1" xmlns="http://www.w3.org/2000/svg" xmlns:xlink="http://www.w3.org/1999/xlink">
    <!-- Generator: Sketch 52.3 (67297) - http://www.bohemiancoding.com/sketch -->
    <title>syslog</title>
    <desc>Created with Sketch.</desc>
    <g id="Page-1" stroke="none" stroke-width="1" fill="none" fill-rule="evenodd">
        <path d="M45.5071429,19.2165833 L45.5071429,45.375 C45.5071429,46.125 45.2607143,46.725 44.6857143,47.175 C44.1107143,47.7 43.4535714,47.925 42.7142857,47.925 L3.28571429,47.925 C2.46428571,47.925 1.80714286,47.7 1.31428571,47.175 C0.821428571,46.65 0.492857143,46.05 0.492857143,45.375 L0.492857143,2.55 C0.492857143,1.8 0.739285714,1.2 1.31428571,0.75 C1.88928571,0.3 2.46428571,0 3.28571429,0 L24.51,0 L24.51,3.0045166 L3.63574219,3.0045166 L3.63574219,44.9206543 L42.4819336,44.9206543 L42.4819336,19.2165833 L45.5071429,19.2165833 Z M45.5071429,16.4241638 L42.0937788,16.4241638 L31.0289259,16.425 C30.0846663,16.425 29.1677295,16.1080773 28.425,15.525 C27.7014284,14.9569625 27.2796949,14.0874074 27.2816174,13.1675059 L27.3018115,3.5045166 L27.3024194,3.21362856 L27.3028564,3.0045166 L27.3024194,0 L29.5714286,0 C30.3928571,0 31.2142857,0.15 32.1178571,0.525 C33.0214286,0.9 33.7607143,1.275 34.3357143,1.8 L43.5357143,10.2 C44.1107143,10.725 44.5214286,11.4 44.9321429,12.225 C45.3428571,13.05 45.5071429,13.875 45.5071429,14.55 L45.5071429,16.4241638 Z M30.475,2.95458984 L30.475,13.225 C30.475,13.5011424 30.6988576,13.725 30.975,13.725 L42.5664063,13.725 C42.2311488,13.0675252 41.9629196,12.6408814 41.7617188,12.4450684 C36.8946879,7.70837024 33.7302415,5.18745885 32.5119019,4.12719727 C31.3751456,3.13793376 30.6165903,2.99152643 30.475,2.95458984 Z M14.0875,21.125 L31.8303571,21.125 C32.6242665,21.125 33.2678571,21.7685907 33.2678571,22.5625 C33.2678571,23.3564093 32.6242665,24 31.8303571,24 L14.0875,24 C13.2935907,24 12.65,23.3564093 12.65,22.5625 C12.65,21.7685907 13.2935907,21.125 14.0875,21.125 Z M33.35,29.3875 C33.35,30.1814093 32.7064093,30.825 31.9125,30.825 L14.0875,30.825 C13.2935907,30.825 12.65,30.1814093 12.65,29.3875 C12.65,28.5935907 13.2935907,27.95 14.0875,27.95 L31.9125,27.95 C32.7064093,27.95 33.35,28.5935907 33.35,29.3875 Z M33.35,36.2125 C33.35,37.0064093 32.7064093,37.65 31.9125,37.65 L14.0875,37.65 C13.2935907,37.65 12.65,37.0064093 12.65,36.2125 C12.65,35.4185907 13.2935907,34.775 14.0875,34.775 L31.9125,34.775 C32.7064093,34.775 33.35,35.4185907 33.35,36.2125 Z" id="syslog" fill="#000000" fill-rule="nonzero"></path>
    </g>
</svg>