<?xml version="1.0" encoding="utf-8"?>
<!-- Generator: Adobe Illustrator 18.1.1, SVG Export Plug-In . SVG Version: 6.00 Build 0)  -->
<svg version="1.1" id="Layer_1" xmlns="http://www.w3.org/2000/svg" xmlns:xlink="http://www.w3.org/1999/xlink" x="0px" y="0px"
	 viewBox="0 0 64 64" enable-background="new 0 0 64 64" xml:space="preserve">
<path d="M15.1,17.3c0-1.2-0.4-2.2-1.3-3.1c-0.8-0.8-1.9-1.3-3.1-1.3s-2.2,0.4-3.1,1.3c-0.8,0.8-1.3,1.9-1.3,3.1s0.4,2.2,1.3,3.1
	s1.9,1.3,3.1,1.3s2.2-0.4,3.1-1.3C14.7,19.5,15.1,18.4,15.1,17.3z M51.1,36.7c0,1.2-0.4,2.2-1.2,3L33.3,56.3
	c-0.9,0.8-1.9,1.2-3.1,1.2c-1.2,0-2.2-0.4-3-1.2L3.1,32.2c-0.9-0.8-1.6-2-2.2-3.4C0.3,27.3,0,26,0,24.8v-14c0-1.2,0.4-2.2,1.3-3
	s1.9-1.3,3-1.3h14c1.2,0,2.5,0.3,3.9,0.9c1.4,0.6,2.6,1.3,3.4,2.2l24.1,24.1C50.6,34.5,51.1,35.5,51.1,36.7z M64,36.7
	c0,1.2-0.4,2.2-1.2,3L46.2,56.3c-0.9,0.8-1.9,1.2-3.1,1.2c-0.8,0-1.5-0.2-2-0.5c-0.5-0.3-1.1-0.8-1.8-1.5l15.8-15.8
	c0.8-0.8,1.2-1.8,1.2-3c0-1.2-0.4-2.2-1.2-3.1L31.1,9.5c-0.9-0.9-2-1.6-3.4-2.2s-2.8-0.9-3.9-0.9h7.5c1.2,0,2.5,0.3,3.9,0.9
	c1.4,0.6,2.6,1.3,3.4,2.2l24.1,24.1C63.6,34.5,64,35.5,64,36.7z"/>
</svg>
