<?xml version="1.0" encoding="utf-8"?>
<!-- Generator: Adobe Illustrator 19.1.0, SVG Export Plug-In . SVG Version: 6.00 Build 0)  -->
<svg version="1.1" id="Layer_1" xmlns="http://www.w3.org/2000/svg" xmlns:xlink="http://www.w3.org/1999/xlink" x="0px" y="0px"
	 width="48px" height="48px" viewBox="-281 373 48 48" style="enable-background:new -281 373 48 48;" xml:space="preserve">
<style type="text/css">
	.st0{fill-rule:evenodd;clip-rule:evenodd;}
</style>
<path d="M-264.7,385.6h-11.5v22.7h11.5V385.6z M-251.2,385.6h-11.5v22.7h11.5V385.6z M-237.8,385.6h-11.5v22.7h11.5
	V385.6z"/>
<path d="M-235.9,413.3h-42.2c-1.6,0-2.9-1.3-2.9-2.9v-26.9c0-1.6,1.3-2.9,2.9-2.9h42.2c1.6,0,2.9,1.3,2.9,2.9v26.9
	C-233,412-234.3,413.3-235.9,413.3z M-278.1,382.6c-0.5,0-1,0.4-1,1v26.9c0,0.5,0.4,1,1,1h42.2c0.5,0,1-0.4,1-1v-26.9
	c0-0.5-0.4-1-1-1H-278.1z"/>
</svg>
