<?xml version="1.0" encoding="utf-8"?>
<!-- Generator: Adobe Illustrator 18.1.1, SVG Export Plug-In . SVG Version: 6.00 Build 0)  -->
<svg version="1.1" id="Layer_1" xmlns="http://www.w3.org/2000/svg" xmlns:xlink="http://www.w3.org/1999/xlink" x="0px" y="0px"
	 viewBox="0 0 64 64" enable-background="new 0 0 64 64" xml:space="preserve">
<g>
	<path d="M56,64H8c-2.2,0-4.1-0.8-5.7-2.3S0,58.2,0,56V8c0-2.2,0.8-4.1,2.3-5.7S5.8,0,8,0h48c2.2,0,4.1,0.8,5.7,2.3
		C63.2,3.9,64,5.8,64,8v48c0,2.2-0.8,4.1-2.3,5.7C60.1,63.2,58.2,64,56,64z M30.6,28.9L18.9,17.1c-0.8-0.8-1.8-1.2-2.9-1.2
		c-1.1,0-2.1,0.4-2.9,1.2c-0.8,0.8-1.2,1.8-1.2,2.9c0,1.1,0.4,2.1,1.2,2.9l8.8,8.9l-8.8,8.9c-0.8,0.8-1.2,1.8-1.2,3
		c0,1.1,0.4,2.1,1.2,2.9c0.8,0.8,1.8,1.2,2.9,1.2c1.1,0,2.1-0.4,2.9-1.2l11.7-11.7c0.7-0.7,1.1-1.6,1.2-2.6c0-1-0.2-2-0.9-2.8
		C31,29.4,30.9,29.2,30.6,28.9z M48,39.9H36c-1.1,0-2,0.4-2.8,1.2C32.4,41.9,32,42.9,32,44s0.4,2.1,1.2,2.8C34,47.6,34.9,48,36,48
		h12c1.1,0,2.1-0.4,2.8-1.2C51.6,46,52,45.1,52,44s-0.4-2.1-1.2-2.8C50.1,40.3,49.1,39.9,48,39.9z"/>
</g>
</svg>
