<?xml version="1.0" encoding="utf-8"?>
<!-- Generator: Adobe Illustrator 19.1.0, SVG Export Plug-In . SVG Version: 6.00 Build 0)  -->
<svg version="1.1" id="Layer_1" xmlns="http://www.w3.org/2000/svg" xmlns:xlink="http://www.w3.org/1999/xlink" x="0px" y="0px"
	 width="48px" height="48px" viewBox="-281 373 48 48" style="enable-background:new -281 373 48 48;" xml:space="preserve">

<g>
	<path d="M-240,382h-34c-1.1,0-2-0.9-2-2s0.9-2,2-2h34c1.1,0,2,0.9,2,2S-238.9,382-240,382z"/>
	<path d="M-259,416h-15c-1.1,0-2-0.9-2-2s0.9-2,2-2h15c1.1,0,2,0.9,2,2S-257.9,416-259,416z"/>
	<path d="M-240,399h-34c-1.1,0-2-0.9-2-2s0.9-2,2-2h34c1.1,0,2,0.9,2,2S-238.9,399-240,399z"/>
</g>
</svg>
