<?xml version="1.0" encoding="utf-8"?>
<!-- Generator: Adobe Illustrator 16.0.0, SVG Export Plug-In . SVG Version: 6.00 Build 0)  -->
<!DOCTYPE svg PUBLIC "-//W3C//DTD SVG 1.1//EN" "http://www.w3.org/Graphics/SVG/1.1/DTD/svg11.dtd">
<svg version="1.1" id="Layer_1" xmlns="http://www.w3.org/2000/svg" xmlns:xlink="http://www.w3.org/1999/xlink" x="0px" y="0px"
	 width="48px" height="48px" viewBox="0 0 48 48" enable-background="new 0 0 48 48" xml:space="preserve">
<g>
	<path  d="M20,2H4C2.896,2,2,2.896,2,4v16c0,1.104,0.896,2,2,2h16c1.104,0,2-0.896,2-2V4C22,2.896,21.104,2,20,2z"/>
	<path  d="M2,28v16c0,1.104,0.896,2,2,2h16c1.104,0,2-0.896,2-2V28c0-1.104-0.896-2-2-2H4C2.896,26,2,26.896,2,28z"/>
	<path  d="M26,4v16c0,1.104,0.896,2,2,2h16c1.104,0,2-0.896,2-2V4c0-1.104-0.896-2-2-2H28C26.896,2,26,2.896,26,4z"/>
	<path  d="M28,46h16c1.104,0,2-0.896,2-2V28c0-1.104-0.896-2-2-2H28c-1.104,0-2,0.896-2,2v16
		C26,45.104,26.896,46,28,46z"/>
</g>
</svg>
