<?xml version="1.0" encoding="utf-8"?>
<!-- Generator: Adobe Illustrator 19.1.0, SVG Export Plug-In . SVG Version: 6.00 Build 0)  -->
<svg version="1.1" id="Layer_1" xmlns="http://www.w3.org/2000/svg" xmlns:xlink="http://www.w3.org/1999/xlink" x="0px" y="0px"
	 width="48px" height="48px" viewBox="-281 373 48 48" style="enable-background:new -281 373 48 48;" xml:space="preserve">

<path d="M-243,373h-28c-1.1,0-2,0.9-2,2v25.5c0,1.5,0.5,3,1.5,4.3L-257,421l14.5-16.3c0.9-1.2,1.5-2.7,1.5-4.3V375
	C-241,373.9-241.9,373-243,373z M-250,391h-5v5c0,1.1-0.9,2-2,2s-2-0.9-2-2v-5h-5c-1.1,0-2-0.9-2-2s0.9-2,2-2h5v-5c0-1.1,0.9-2,2-2
	s2,0.9,2,2v5h5c1.1,0,2,0.9,2,2S-248.9,391-250,391z"/>
</svg>
