<?xml version="1.0" encoding="utf-8"?>
<!-- Generator: Adobe Illustrator 19.1.0, SVG Export Plug-In . SVG Version: 6.00 Build 0)  -->
<svg version="1.1" id="Layer_1" xmlns="http://www.w3.org/2000/svg" xmlns:xlink="http://www.w3.org/1999/xlink" x="0px" y="0px"
	 width="48px" height="48px" viewBox="-281 373 48 48" style="enable-background:new -281 373 48 48;" xml:space="preserve">

<g>
	<circle cx="-238" cy="378" r="5"/>
	<path d="M-262.5,417.4c-0.8,0.8-0.8,2.2,0,3c0.8,0.8,2,0.8,2.8,0.2l9.3-7.5h-7.6L-262.5,417.4z"/>
	<path d="M-235.1,393h-4.3l-1.7-7.9l-3.4-4.6l-7.3-5.2c-0.4-0.3-1-0.4-1.6-0.3l-9.9,2c-1,0.2-1.8,1.1-1.7,2.2
		c0.1,1.2,1.2,2,2.4,1.8l9.1-1.8l4.4,4l-11.3,8c-1.4,1-1.7,3-0.6,4.4l7.9,9.5h-9.9c-1,0-1.9,0.7-2.1,1.7c-0.2,1.3,0.8,2.3,2,2.3
		h15.9c0.7,0,1.2-0.8,0.9-1.5L-252,396l7.3-5.1l1.8,5.4c0.1,0.4,0.5,0.7,0.9,0.7h6.9c1.2,0,2.2-1.1,2-2.3
		C-233.2,393.7-234.1,393-235.1,393z"/>
	<path d="M-279,389h16c1.1,0,2-0.9,2-2s-0.9-2-2-2h-16c-1.1,0-2,0.9-2,2S-280.1,389-279,389z"/>
	<path d="M-271,405h-8c-1.1,0-2,0.9-2,2s0.9,2,2,2h8c1.1,0,2-0.9,2-2S-269.9,405-271,405z"/>
	<path d="M-267,395h-12c-1.1,0-2,0.9-2,2s0.9,2,2,2h12c1.1,0,2-0.9,2-2S-265.9,395-267,395z"/>
</g>
</svg>
