<?xml version="1.0" encoding="utf-8"?>
<!-- Generator: Adobe Illustrator 19.1.0, SVG Export Plug-In . SVG Version: 6.00 Build 0)  -->
<svg version="1.1" id="Layer_1" xmlns="http://www.w3.org/2000/svg" xmlns:xlink="http://www.w3.org/1999/xlink" x="0px" y="0px"
	 width="48px" height="48px" viewBox="-281 373 48 48" style="enable-background:new -281 373 48 48;" xml:space="preserve">

<g>
	<circle cx="-246" cy="378" r="5"/>
	<path d="M-234,397.2l-7.5-4.7l-4.2-7.3l-5.9-1.5l-7.8,7.8c-0.3,0.3-0.5,0.7-0.6,1.2l-0.9,7.1c-0.1,1.1,0.6,2.1,1.7,2.2
		c1.1,0.1,2.1-0.6,2.2-1.7l0.9-6.5l3.3-3.3c0,0-1.5,4.5-1.7,7c0,0.5,0.2,1.3,0.5,1.8c3.8,5.8,13.5,20.5,13.5,20.5
		c0.1,0.1,0.2,0.3,0.3,0.4c0,0,0.1,0.1,0.1,0.1c0.1,0.1,0.2,0.1,0.3,0.2c0,0,0.1,0.1,0.1,0.1c0.1,0,0.2,0.1,0.3,0.1c0,0,0.1,0,0.1,0
		c0.1,0,0.3,0.1,0.4,0.1c0,0,0,0,0,0c0,0,0,0,0,0c0.2,0,0.3,0,0.5-0.1c0,0,0.1,0,0.1,0c0.2-0.1,0.3-0.1,0.5-0.2
		c0.9-0.6,1.2-1.8,0.6-2.8l-9.7-16.8l1.4-7l0.7,1.2c0.1,0.1,0.2,0.3,0.3,0.4l8.2,5.1c1,0.6,2.3,0.3,2.9-0.8
		C-232.7,398.9-233.1,397.8-234,397.2z"/>
	<path d="M-257,410l-5,7.9c-0.5,0.9-0.3,2.1,0.5,2.7l0,0c0.9,0.7,2.3,0.5,2.9-0.5l6.2-8.8c0.2-0.2,0.3-0.5,0.3-0.7
		l0.1-0.5l-3.9-5.9L-257,410z"/>
	<path d="M-273,381c-0.9-0.7-2.1-0.5-2.8,0.4c-3.4,4.5-5.2,9.9-5.2,15.6s1.8,11.1,5.2,15.6c0.4,0.5,1,0.8,1.6,0.8
		c0.4,0,0.8-0.1,1.2-0.4c0.9-0.7,1.1-1.9,0.4-2.8c-2.9-3.8-4.4-8.4-4.4-13.2s1.5-9.4,4.4-13.2C-271.9,382.9-272.1,381.7-273,381z"/>
	<path d="M-266,388.1c-0.9-0.6-2.2-0.3-2.7,0.7c-1.5,2.5-2.3,5.3-2.3,8.2s0.8,5.7,2.3,8.2c0.4,0.6,1,1,1.7,1
		c0.3,0,0.7-0.1,1-0.3c0.9-0.6,1.3-1.8,0.7-2.7c-1.1-1.9-1.7-4-1.7-6.1s0.6-4.3,1.7-6.1C-264.7,389.9-265,388.7-266,388.1z"/>
</g>
</svg>
