<?xml version="1.0" encoding="UTF-8"?>
<svg width="48px" height="45px" viewBox="0 0 48 45" version="1.1" xmlns="http://www.w3.org/2000/svg" xmlns:xlink="http://www.w3.org/1999/xlink">
    <!-- Generator: Sketch 52.3 (67297) - http://www.bohemiancoding.com/sketch -->
    <title>tools</title>
    <desc>Created with Sketch.</desc>
    <g id="Page-1" stroke="none" stroke-width="1" fill="none" fill-rule="evenodd">
        <g id="tools" transform="translate(0.000000, -1.000000)" fill="#000000">
            <path d="M29.9553263,24.0641002 L29.943,24.077 L46.4455566,41.238 C47.3225566,42.135 47.3225566,43.604 46.4455566,44.5 C45.5705566,45.397 44.1385566,45.397 43.2635566,44.5 L26.795,27.374 L10.753,44.5 C9.878,45.396 8.445,45.396 7.57,44.5 C6.695,43.602 6.695,42.134 7.57,41.237 L22.2169046,25.5993909 L25.3944702,28.8500061 L26.795,27.374 L23.611,24.111 L14.912,15.194 L14.774,15.336 L9.487,20.746 C8.96,21.286 8.097,21.286 7.57,20.746 L0.395,13.392 C-0.132,12.852 -0.132,11.968 0.395,11.428 L5.86,5.836 C6.387,5.295 7.25,5.295 7.777,5.836 L9.091,7.182 L12.311,3.882 C16.062,0.038 22.199,0.038 25.949,3.882 L18.095,11.933 L26.7177434,20.7706653 L26.7140198,20.7745361 L29.9553263,24.0641002 Z M31.3608761,22.5931616 L28.1656249,19.3447326 L31.276,16.089 C29.239,12.551 29.693,7.924 32.658,4.885 C35.476,1.996 39.684,1.462 43.059,3.205 L36.884,9.534 C35.717,10.731 35.717,12.688 36.884,13.884 C38.051,15.08 39.96,15.08 41.127,13.884 L47.205,7.654 C48.688,11.045 48.104,15.151 45.389,17.935 C42.424,20.974 37.909,21.439 34.457,19.353 L31.3608761,22.5931616 Z" id="Combined-Shape"></path>
        </g>
    </g>
</svg>