<?xml version="1.0" encoding="utf-8"?>
<!-- Generator: Adobe Illustrator 16.0.0, SVG Export Plug-In . SVG Version: 6.00 Build 0)  -->
<!DOCTYPE svg PUBLIC "-//W3C//DTD SVG 1.1//EN" "http://www.w3.org/Graphics/SVG/1.1/DTD/svg11.dtd">
<svg version="1.1" id="Layer_1" xmlns="http://www.w3.org/2000/svg" xmlns:xlink="http://www.w3.org/1999/xlink" x="0px" y="0px"
	 width="48px" height="48px" viewBox="0 0 48 48" enable-background="new 0 0 48 48" xml:space="preserve">
<path  d="M45.389,20.935c2.715-2.784,3.299-6.89,1.816-10.281l-6.078,6.23c-1.167,1.196-3.076,1.196-4.243,0
	c-1.167-1.196-1.167-3.153,0-4.35l6.175-6.329c-3.375-1.743-7.583-1.209-10.401,1.68c-2.965,3.039-3.419,7.666-1.382,11.204
	l-4.515,4.726l-8.666-8.882l7.854-8.051c-3.75-3.844-9.887-3.844-13.638,0l-3.22,3.3L7.777,8.836c-0.527-0.541-1.39-0.541-1.917,0
	l-5.465,5.592c-0.527,0.54-0.527,1.424,0,1.964l7.175,7.354c0.527,0.54,1.39,0.54,1.917,0l5.287-5.41v0l0.138-0.142l8.699,8.917
	L11.238,40.064c-0.875,0.897-0.875,2.365,0,3.263c0.875,0.896,2.308,0.896,3.183,0l12.374-12.953l12.6,12.914
	c0.875,0.897,2.307,0.897,3.182,0c0.877-0.896,0.877-2.365,0-3.262L29.943,27.077l4.514-4.724
	C37.909,24.439,42.424,23.974,45.389,20.935z"/>
</svg>
