<?xml version="1.0" encoding="utf-8"?>
<!-- Generator: Adobe Illustrator 16.0.0, SVG Export Plug-In . SVG Version: 6.00 Build 0)  -->
<!DOCTYPE svg PUBLIC "-//W3C//DTD SVG 1.1//EN" "http://www.w3.org/Graphics/SVG/1.1/DTD/svg11.dtd">
<svg version="1.1" id="Layer_1" xmlns="http://www.w3.org/2000/svg" xmlns:xlink="http://www.w3.org/1999/xlink" x="0px" y="0px"
	 width="48px" height="48px" viewBox="0 0 48 48" enable-background="new 0 0 48 48" xml:space="preserve">
<path  d="M43,24.643c-0.044-0.785-0.628-1.557-1.374-1.752l-16.908-4.432L23.689,3.361
	c0-1.854-1.48-3.361-3.295-3.361c-1.82,0-3.299,1.507-3.299,3.361l-1.865,26.152c-0.161-0.26-2.05-3.77-3.153-5.822
	c-0.462-0.86-0.789-1.471-0.789-1.471c-0.768-1.682-2.728-2.415-4.379-1.635c-1.651,0.781-2.367,2.779-1.599,4.463l7.985,21.543
	C13.58,47.366,14.479,48,15.292,48h22.488c0.464,0,0.863-0.293,1.032-0.705h0.012C42.254,40.042,43.003,24.684,43,24.643z"/>
</svg>
