<?xml version="1.0" encoding="utf-8"?>
<!-- Generator: Adobe Illustrator 16.0.0, SVG Export Plug-In . SVG Version: 6.00 Build 0)  -->
<!DOCTYPE svg PUBLIC "-//W3C//DTD SVG 1.1//EN" "http://www.w3.org/Graphics/SVG/1.1/DTD/svg11.dtd">
<svg version="1.1" id="Layer_1" xmlns="http://www.w3.org/2000/svg" xmlns:xlink="http://www.w3.org/1999/xlink" x="0px" y="0px"
	 width="48px" height="48px" viewBox="0 0 48 48" enable-background="new 0 0 48 48" xml:space="preserve">
<path  d="M38.843,26.843l-14.238-3.734l-0.389-5.71C27.596,16.103,30,12.836,30,9c0-4.971-4.029-9-9-9s-9,4.029-9,9
	c0,3.8,2.358,7.042,5.688,8.362l-1.074,15.062c-0.136-0.219-1.726-3.176-2.655-4.906c-0.389-0.725-0.665-1.239-0.665-1.239
	c-0.646-1.417-2.297-2.034-3.688-1.378c-1.391,0.659-1.994,2.342-1.347,3.761l6.724,18.152C15.225,47.467,15.982,48,16.667,48
	h18.937c0.391,0,0.728-0.246,0.869-0.595h0.009c2.891-6.11,3.521-19.052,3.519-19.086C39.964,27.658,39.47,27.008,38.843,26.843z
	 M16,9c0-2.757,2.243-5,5-5s5,2.243,5,5c0,1.665-0.826,3.132-2.082,4.042l-0.18-2.654c0-1.563-1.247-2.832-2.775-2.832
	c-1.532,0-2.778,1.269-2.778,2.832L18,12.975C16.793,12.061,16,10.627,16,9z"/>
</svg>
