<?xml version="1.0" encoding="utf-8"?>
<!-- Generator: Adobe Illustrator 16.0.0, SVG Export Plug-In . SVG Version: 6.00 Build 0)  -->
<!DOCTYPE svg PUBLIC "-//W3C//DTD SVG 1.1//EN" "http://www.w3.org/Graphics/SVG/1.1/DTD/svg11.dtd">
<svg version="1.1" id="Layer_1" xmlns="http://www.w3.org/2000/svg" xmlns:xlink="http://www.w3.org/1999/xlink" x="0px" y="0px"
	 width="48px" height="48px" viewBox="0 0 48 48" enable-background="new 0 0 48 48" xml:space="preserve">
<g>
	<path  d="M36.625,22.891l-16.907-4.432L18.688,3.362C18.688,1.507,17.209,0,15.394,0c-1.82,0-3.3,1.507-3.3,3.362
		l-1.865,26.152c-0.162-0.26-2.05-3.77-3.153-5.822c-0.462-0.86-0.789-1.471-0.789-1.471c-0.768-1.682-2.728-2.415-4.379-1.635
		c-1.651,0.781-2.367,2.779-1.6,4.463l7.985,21.543C8.579,47.366,9.479,48,10.292,48h22.487c0.465,0,0.864-0.293,1.033-0.705h0.011
		c3.432-7.253,4.18-22.611,4.178-22.652C37.956,23.857,37.372,23.086,36.625,22.891z"/>
	<path  d="M38.007,0.188C37.453-0.202,37,0.033,37,0.711v4.281h-9c-1.104,0-2,0.896-2,2s0.896,2,2,2h9v4.25
		c0,0.678,0.453,0.913,1.007,0.522L48,6.993L38.007,0.188z"/>
</g>
</svg>
