<?xml version="1.0" encoding="utf-8"?>
<!-- Generator: Adobe Illustrator 14.0.0, SVG Export Plug-In . SVG Version: 6.00 Build 43363)  -->
<!DOCTYPE svg PUBLIC "-//W3C//DTD SVG 1.1//EN" "http://www.w3.org/Graphics/SVG/1.1/DTD/svg11.dtd">
<svg version="1.1" id="Layer_1" xmlns="http://www.w3.org/2000/svg" xmlns:xlink="http://www.w3.org/1999/xlink" x="0px" y="0px"
	 width="48px" height="48px" viewBox="0 0 48 48" enable-background="new 0 0 48 48" xml:space="preserve">
<g id="Layer_1_1_">
</g>
<g id="icons">
	<g>
		<path  d="M8.402,37.605c0,1.92,1.557,3.477,3.477,3.477s3.477-1.557,3.477-3.477s-1.557-3.478-3.477-3.478
			S8.402,35.686,8.402,37.605"/>
		<path  d="M33.094,37.605c0,1.92,1.559,3.477,3.479,3.477c1.921,0,3.478-1.557,3.478-3.477s-1.557-3.478-3.478-3.478
			C34.652,34.128,33.094,35.686,33.094,37.605"/>
		<path  d="M3.344,5.792c-1.1,0-2,0.899-2,2v27.914c0,1.103,0.9,2,2,2l1.063-0.015c0-0.026-0.004-0.057-0.004-0.086
			c0-4.123,3.354-7.477,7.477-7.477c4.1,0,7.436,3.316,7.473,7.408c2.393,0.014,6.893,0.035,9.745,0.051
			c0.01-4.113,3.358-7.459,7.477-7.459c4.123,0,7.477,3.354,7.477,7.477l0.008-0.004l-0.008,0.104h1.055c1.101,0,2-0.897,2-2v-0.099
			l0.004-0.002v-2h0.002l0.039-4.475V23.67c0.183-3.222-1.225-4.266-1.225-4.266l-4.68-4.682c-1.84-2.016-3.686-2.143-4.217-2.139
			H33.08V7.792c0-1.101-0.9-2-2-2H3.344 M33.08,16.583h3.973c0.096,0.015,0.6,0.127,1.256,0.855l0.072,0.077l4.584,4.585
			c0.078,0.142,0.291,0.581,0.207,1.138l-0.02,0.262H33.08V16.583z"/>
	</g>
</g>
</svg>
