<?xml version="1.0" encoding="utf-8"?>
<!-- Generator: Adobe Illustrator 19.1.0, SVG Export Plug-In . SVG Version: 6.00 Build 0)  -->
<svg version="1.1" id="Layer_1" xmlns="http://www.w3.org/2000/svg" xmlns:xlink="http://www.w3.org/1999/xlink" x="0px" y="0px"
	 width="48px" height="48px" viewBox="-281 373 48 48" style="enable-background:new -281 373 48 48;" xml:space="preserve">

<g>
	<g>
		<path d="M-237.5,373h-28c-1.1,0-2,0.9-2,2v10h4v-4h24v32h-24v-4h-4v10c0,1.1,0.9,2,2,2h28c1.1,0,2-0.9,2-2v-44
			C-235.5,373.9-236.4,373-237.5,373z"/>
	</g>
	<g>
		<path d="M-276.5,399h9v4.2c0,0.7,0.5,0.9,1,0.5l10-6.8l-10-6.8c-0.6-0.4-1-0.2-1,0.5v4.3h-9c-1.1,0-2,0.9-2,2
			S-277.6,399-276.5,399z"/>
	</g>
</g>
</svg>
