<?xml version="1.0" encoding="utf-8"?>
<!-- Generator: Adobe Illustrator 15.0.0, SVG Export Plug-In . SVG Version: 6.00 Build 0)  -->
<!DOCTYPE svg PUBLIC "-//W3C//DTD SVG 1.1//EN" "http://www.w3.org/Graphics/SVG/1.1/DTD/svg11.dtd">
<svg version="1.1" id="Layer_1" xmlns="http://www.w3.org/2000/svg" xmlns:xlink="http://www.w3.org/1999/xlink" x="0px" y="0px"
	 width="48px" height="48px" viewBox="0 0 48 48" enable-background="new 0 0 48 48" xml:space="preserve">
<g id="XMLID_92_">
	<g id="XMLID_402_">
		<path id="XMLID_431_"  d="M8.564,28.531c0,0.597,0.399,0.796,0.897,0.398l8.564-5.776l-8.564-5.777
			c-0.498-0.298-0.897-0.099-0.897,0.399v3.685H1.693C0.796,21.461,0,22.257,0,23.154c0,0.896,0.796,1.692,1.693,1.692h6.871V28.531
			z"/>
	</g>
	<g id="XMLID_144_">
		<path id="XMLID_396_"  d="M26.091,2.141L26.091,2.141L26.091,2.141z"/>
		<path id="XMLID_394_"  d="M46.705,37.693c-0.099-0.398-0.397-0.896-0.796-1.097l-12.647-7.368
			c-0.299-0.199-0.797-0.697-0.896-1.097l-1.493-3.286c2.091-1.493,3.186-6.373,3.186-9.062v-5.478c0-4.481-3.385-8.166-7.967-8.265
			c-4.48,0-7.966,3.685-7.966,8.265v5.478c0,2.788,1.095,7.568,3.186,9.062l-1.494,3.286c-0.1,0.399-0.498,0.897-0.896,1.097
			L6.274,36.597c-0.299,0.2-0.697,0.698-0.797,1.097l-1.294,8.266H48L46.705,37.693z"/>
	</g>
</g>
</svg>
