<?xml version="1.0" encoding="UTF-8"?>
<svg width="32px" height="32px" viewBox="0 0 32 32" version="1.1" xmlns="http://www.w3.org/2000/svg" xmlns:xlink="http://www.w3.org/1999/xlink">
    <!-- Generator: Sketch 51.3 (57544) - http://www.bohemiancoding.com/sketch -->
    <title>check-square-o</title>
    <desc>Created with Sketch.</desc>
    <defs></defs>
    <g id="Page-1" stroke="none" stroke-width="1" fill="none" fill-rule="evenodd">
        <g id="check-square-o" fill="#000000" fill-rule="nonzero">
            <path d="M30.1,1.9 C28.8,0.65 27.25,0 25.45,0 L6.55,0 C4.75,0 3.2,0.65 1.9,1.9 C0.6,3.15 0,4.75 0,6.55 L0,25.45 C0,27.25 0.65,28.8 1.9,30.05 C3.15,31.3 4.75,32 6.55,32 L25.45,32 C27.25,32 28.8,31.35 30.05,30.1 C31.3,28.85 31.95,27.3 31.95,25.5 L31.95,6.55 C32,4.75 31.35,3.2 30.1,1.9 Z M29,25.45 C29,26.45 28.7,27.25 28,27.95 C27.3,28.65 26.5,28.95 25.5,28.95 L6.55,28.95 C5.55,28.95 4.75,28.65 4.05,27.95 C3.35,27.25 3.05,26.45 3.05,25.45 L3.05,6.55 C3.05,5.55 3.35,4.75 4.05,4.05 C4.75,3.35 5.55,3.05 6.55,3.05 L25.45,3.05 C26.45,3.05 27.25,3.35 27.95,4.05 C28.65,4.75 28.95,5.55 28.95,6.55 L28.95,25.45 L29,25.45 Z" id="Shape"></path>
            <path d="M7.66410118,17.6666667 L14.3205059,17.6666667 L14.3205059,24.3333333 C14.3205059,25.2541667 15.0660232,26 15.9846071,26 C16.9031909,26 17.6487082,25.2533333 17.6487082,24.3333333 L17.6487082,17.6666667 L24.3358988,17.6666667 C25.2544827,17.6666667 26,16.92 26,16 C26,15.0791667 25.2544827,14.3333333 24.3358988,14.3333333 L17.6487082,14.3333333 L17.6487082,7.66666667 C17.6487082,6.74583333 16.9031909,6 15.9846071,6 C15.0660232,6 14.3205059,6.74666667 14.3205059,7.66666667 L14.3205059,14.3333333 L7.66410118,14.3333333 C6.74551733,14.3333333 6,15.08 6,16 C6,16.9208333 6.74551733,17.6666667 7.66410118,17.6666667 Z" id="Shape"></path>
        </g>
    </g>
</svg>