<?xml version="1.0" encoding="utf-8"?>
<!-- Generator: Adobe Illustrator 19.1.0, SVG Export Plug-In . SVG Version: 6.00 Build 0)  -->
<svg version="1.1" id="Layer_1" xmlns="http://www.w3.org/2000/svg" xmlns:xlink="http://www.w3.org/1999/xlink" x="0px" y="0px"
	 width="48px" height="48px" viewBox="-281 373 48 48" style="enable-background:new -281 373 48 48;" xml:space="preserve">

<g>
	<path d="M-257,395c3.9,0,7-3.1,7-7c0-3.9-3.1-7-7-7s-7,3.1-7,7C-264,391.9-260.9,395-257,395z M-257,385
		c1.7,0,3,1.3,3,3c0,1.7-1.3,3-3,3s-3-1.3-3-3C-260,386.3-258.7,385-257,385z"/>
	<path d="M-237,381v20h-40v-20c-2.2,0-4,1.8-4,4v26c0,1.1,0.9,2,2,2h44c1.1,0,2-0.9,2-2v-26
		C-233,382.8-234.8,381-237,381z"/>
</g>
</svg>
