<?xml version="1.0" encoding="utf-8"?>
<!-- Generator: Adobe Illustrator 16.0.0, SVG Export Plug-In . SVG Version: 6.00 Build 0)  -->
<!DOCTYPE svg PUBLIC "-//W3C//DTD SVG 1.1//EN" "http://www.w3.org/Graphics/SVG/1.1/DTD/svg11.dtd">
<svg version="1.1" id="Layer_1" xmlns="http://www.w3.org/2000/svg" xmlns:xlink="http://www.w3.org/1999/xlink" x="0px" y="0px"
	 width="48px" height="48px" viewBox="0 0 48 48" enable-background="new 0 0 48 48" xml:space="preserve">
<path  d="M12,22.008v-6c0-6.617,5.383-12,12-12c4.922,0,9.426,3.102,11.205,7.719
	c0.397,1.031,1.555,1.544,2.586,1.146c1.03-0.397,1.544-1.555,1.146-2.586C36.566,4.139,30.564,0.008,24,0.008
	c-8.822,0-16,7.178-16,16v6H4v23.984c0,1.1,0.9,2,2,2h36c1.1,0,2-0.9,2-2V22.008H12z"/>
</svg>
