<?xml version="1.0" encoding="utf-8"?>
<!-- Generator: Adobe Illustrator 16.0.0, SVG Export Plug-In . SVG Version: 6.00 Build 0)  -->
<!DOCTYPE svg PUBLIC "-//W3C//DTD SVG 1.1//EN" "http://www.w3.org/Graphics/SVG/1.1/DTD/svg11.dtd">
<svg version="1.1" id="Layer_1" xmlns="http://www.w3.org/2000/svg" xmlns:xlink="http://www.w3.org/1999/xlink" x="0px" y="0px"
	 width="48px" height="48px" viewBox="0 0 48 48" enable-background="new 0 0 48 48" xml:space="preserve">
<g>
	<path  d="M4,46h40c1.104,0,2-0.896,2-2V4c0-1.104-0.896-2-2-2H4C2.896,2,2,2.896,2,4v40C2,45.104,2.896,46,4,46z
		 M30.296,29H26v8c0,1.104-0.896,2-2,2s-2-0.896-2-2v-8h-4.296c-0.671,0-0.904-0.453-0.517-1.008L24,18l6.813,9.992
		C31.199,28.547,30.967,29,30.296,29z M11,9h26c1.104,0,2,0.896,2,2s-0.896,2-2,2H11c-1.104,0-2-0.896-2-2S9.896,9,11,9z"/>
</g>
</svg>
