<?xml version="1.0" encoding="utf-8"?>
<!-- Generator: Adobe Illustrator 19.1.0, SVG Export Plug-In . SVG Version: 6.00 Build 0)  -->
<svg version="1.1" id="Layer_1" xmlns="http://www.w3.org/2000/svg" xmlns:xlink="http://www.w3.org/1999/xlink" x="0px" y="0px"
	 width="48px" height="48px" viewBox="-281 373 48 48" style="enable-background:new -281 373 48 48;" xml:space="preserve">

<path d="M-243,387h-8v8h2v6h-6v-18h4.3c0.3,0,0.5-0.3,0.3-0.6l-6.6-9.4l-6.6,9.4c-0.2,0.2,0,0.6,0.3,0.6h4.3v18h-6v-6.6
	c1.2-0.7,2-2,2-3.4c0-2.2-1.8-4-4-4s-4,1.8-4,4c0,1.5,0.8,2.8,2,3.4v6.6c0,2.2,1.8,4,4,4h6v8.6c-1.2,0.7-2,2-2,3.4c0,2.2,1.8,4,4,4
	s4-1.8,4-4c0-1.5-0.8-2.8-2-3.4V405h6c2.2,0,4-1.8,4-4v-6h2V387z"/>
</svg>
