<?xml version="1.0" encoding="UTF-8" standalone="no"?>
<svg width="48px" height="31px" viewBox="0 0 48 31" version="1.1" xmlns="http://www.w3.org/2000/svg" xmlns:xlink="http://www.w3.org/1999/xlink">
    <!-- Generator: Sketch 50.2 (55047) - http://www.bohemiancoding.com/sketch -->
    <title>Group 2</title>
    <desc>Created with Sketch.</desc>
    <defs></defs>
    <g id="Page-1" stroke="none" stroke-width="1" fill="none" fill-rule="evenodd">
        <g id="Group-2" fill="#000000" fill-rule="nonzero">
            <g id="Group" transform="translate(30.000000, 1.000000)">
                <path d="M0.818181818,4 L17.1818182,4 C17.6334545,4 18,3.104 18,2 C18,0.896 17.6334545,0 17.1818182,0 L0.818181818,0 C0.366545455,0 0,0.896 0,2 C0,3.104 0.366545455,4 0.818181818,4 Z" id="Shape"></path>
                <path d="M17.1818182,18 L0.818181818,18 C0.366545455,18 0,18.896 0,20 C0,21.104 0.366545455,22 0.818181818,22 L17.1818182,22 C17.6334545,22 18,21.104 18,20 C18,18.896 17.6334545,18 17.1818182,18 Z" id="Shape"></path>
                <path d="M17.1818182,9 L0.818181818,9 C0.366545455,9 0,9.896 0,11 C0,12.104 0.366545455,13 0.818181818,13 L17.1818182,13 C17.6334545,13 18,12.104 18,11 C18,9.896 17.6334545,9 17.1818182,9 Z" id="Shape"></path>
            </g>
            <path d="M24.759074,20.4719262 L17.2577879,16.1206389 C17.0512146,16.0017716 16.8134324,15.7216904 16.7287225,15.4988142 L15.8229208,13.4624682 C17.0222349,12.5791354 17.8782509,9.72929108 17.8782509,8.12532503 L17.8782509,4.87504643 C17.8782509,2.19458811 15.6787654,0 12.9977708,0 C10.3167762,0 8.12620749,2.19458811 8.12620749,4.87504643 L8.12620749,8.12532503 C8.12620749,9.76420836 8.90940269,12.6415407 10.1533009,13.520416 L9.26979137,15.4988142 C9.18508145,15.7216904 8.94655616,16.0017716 8.73998285,16.1206389 L1.24092598,20.4719262 C1.03435267,20.5907935 0.843836389,20.7100574 0.793598171,21.1160385 C0.413448323,24.1880757 0.1489156,27.3160629 0,30.5 L26,30.5 C25.850135,27.3163968 25.5851069,24.1884096 25.2049157,21.1160385 C25.1547395,20.7105582 24.9641612,20.5907935 24.759074,20.4719262 Z" id="Shape"></path>
        </g>
    </g>
</svg>