<?xml version="1.0" encoding="utf-8"?>
<!-- Generator: Adobe Illustrator 16.0.0, SVG Export Plug-In . SVG Version: 6.00 Build 0)  -->
<!DOCTYPE svg PUBLIC "-//W3C//DTD SVG 1.1//EN" "http://www.w3.org/Graphics/SVG/1.1/DTD/svg11.dtd">
<svg version="1.1" id="Layer_1" xmlns="http://www.w3.org/2000/svg" xmlns:xlink="http://www.w3.org/1999/xlink" x="0px" y="0px"
	 width="48px" height="48px" viewBox="0 0 48 48" enable-background="new 0 0 48 48" xml:space="preserve">
<g>
	<path  d="M0.873,16.152l9.924,6.769l8.8-6l8.797,6l8.804-6.001l7.677,5.233c0.914,0.623,2.157,0.387,2.778-0.527
		c0.622-0.912,0.387-2.156-0.526-2.778l-9.929-6.768l-8.804,5.999l-8.797-6l-8.8,6l-7.67-5.231
		c-0.912-0.623-2.156-0.386-2.779,0.525C-0.274,14.285-0.039,15.53,0.873,16.152z"/>
	<path  d="M47.126,31.849l-9.929-6.768l-8.804,5.998l-8.797-6l-8.8,6l-7.67-5.23
		c-0.912-0.623-2.156-0.387-2.779,0.525c-0.622,0.912-0.387,2.156,0.525,2.779l9.924,6.768l8.8-6l8.797,6l8.804-6l7.677,5.232
		c0.914,0.623,2.157,0.387,2.778-0.527C48.274,33.714,48.039,32.47,47.126,31.849z"/>
</g>
</svg>
