<?xml version="1.0" encoding="utf-8"?>
<!-- Generator: Adobe Illustrator 16.0.0, SVG Export Plug-In . SVG Version: 6.00 Build 0)  -->
<!DOCTYPE svg PUBLIC "-//W3C//DTD SVG 1.1//EN" "http://www.w3.org/Graphics/SVG/1.1/DTD/svg11.dtd">
<svg version="1.1" id="Layer_1" xmlns="http://www.w3.org/2000/svg" xmlns:xlink="http://www.w3.org/1999/xlink" x="0px" y="0px"
	 width="48px" height="48px" viewBox="0 0 48 48" enable-background="new 0 0 48 48" xml:space="preserve">
<g>
	<circle  cx="16.991" cy="24.037" r="5"/>
	<path  d="M32.998,20.234V10c0-1.104-0.895-2-2-2H3.001c-1.104,0-2,0.896-2,2v28c0,1.104,0.896,2,2,2h27.997
		c1.105,0,2-0.896,2-2V27.766c4.879,2.872,14,8.24,14,8.234V12C46.998,11.994,37.877,17.362,32.998,20.234z M28.982,25.026
		l-4.99,1.65c-0.054,0.143-0.11,0.282-0.172,0.421l2.35,4.687l-1.412,1.413l-4.696-2.341c-0.138,0.062-0.278,0.118-0.42,0.172
		L17.991,36h-1.999l-1.665-4.977c-0.138-0.053-0.275-0.108-0.409-0.169L9.226,33.21l-1.413-1.413l2.345-4.709
		c-0.06-0.133-0.114-0.27-0.166-0.406l-4.991-1.655v-1.998L10,21.354c0.052-0.135,0.105-0.268,0.164-0.398l-2.351-4.702l1.413-1.413
		l4.706,2.354c0.13-0.059,0.262-0.11,0.396-0.162l1.665-4.995h1.999l1.665,4.995c0.134,0.051,0.266,0.104,0.396,0.162l4.718-2.354
		l1.414,1.413l-2.365,4.701c0.06,0.133,0.114,0.268,0.167,0.404l4.997,1.67V25.026z"/>
</g>
</svg>
