<?xml version="1.0" encoding="utf-8"?>
<!-- Generator: Adobe Illustrator 16.0.0, SVG Export Plug-In . SVG Version: 6.00 Build 0)  -->
<!DOCTYPE svg PUBLIC "-//W3C//DTD SVG 1.1//EN" "http://www.w3.org/Graphics/SVG/1.1/DTD/svg11.dtd">
<svg version="1.1" id="Layer_1" xmlns="http://www.w3.org/2000/svg" xmlns:xlink="http://www.w3.org/1999/xlink" x="0px" y="0px"
	 width="48px" height="48px" viewBox="0 0 48 48" enable-background="new 0 0 48 48" xml:space="preserve">
<g>
	<path  d="M35.281,20.601V18.12l-20.32,20.32h18.516c0.996,0,1.805-0.808,1.805-1.805v-9.236
		c4.403,2.592,12.635,7.437,12.635,7.432V13.17C47.916,13.165,39.685,18.01,35.281,20.601z"/>
	<path  d="M35.281,13.015l7.594-7.594c0.705-0.705,0.705-1.847,0-2.552s-1.848-0.705-2.553,0l-6.705,6.705
		c-0.048-0.003-0.093-0.014-0.141-0.014H8.207c-0.997,0-1.805,0.808-1.805,1.805v25.27c0,0.049,0.011,0.094,0.014,0.141
		l-5.803,5.803c-0.705,0.705-0.705,1.848,0,2.553c0.353,0.353,0.814,0.529,1.276,0.529c0.461,0,0.923-0.177,1.276-0.529l6.691-6.691
		L35.281,13.015z"/>
</g>
</svg>
