<?xml version="1.0" encoding="utf-8"?>
<!-- Generator: Adobe Illustrator 16.0.0, SVG Export Plug-In . SVG Version: 6.00 Build 0)  -->
<!DOCTYPE svg PUBLIC "-//W3C//DTD SVG 1.1//EN" "http://www.w3.org/Graphics/SVG/1.1/DTD/svg11.dtd">
<svg version="1.1" id="Layer_1" xmlns="http://www.w3.org/2000/svg" xmlns:xlink="http://www.w3.org/1999/xlink" x="0px" y="0px"
	 width="48px" height="48px" viewBox="0 0 48 48" enable-background="new 0 0 48 48" xml:space="preserve">
<g>
	<path  d="M46,8h-8l5.293,5.293c0.391,0.391,0.391,1.023,0,1.414L38,20h-5.656l6-6l-6-6H24l5.293,5.293
		c0.391,0.391,0.391,1.023,0,1.414L24,20h-5.656l6-6l-6-6H9.828l5.293,5.293c0.391,0.391,0.391,1.023,0,1.414L9.828,20H4.172l6-6
		l-6-6H2c-1.104,0-2,0.896-2,2v28c0,1.104,0.896,2,2,2h44c1.104,0,2-0.896,2-2V10C48,8.896,47.104,8,46,8z"/>
</g>
</svg>
