<?xml version="1.0" encoding="utf-8"?>
<!-- Generator: Adobe Illustrator 16.0.0, SVG Export Plug-In . SVG Version: 6.00 Build 0)  -->
<!DOCTYPE svg PUBLIC "-//W3C//DTD SVG 1.1//EN" "http://www.w3.org/Graphics/SVG/1.1/DTD/svg11.dtd">
<svg version="1.1" id="Layer_1" xmlns="http://www.w3.org/2000/svg" xmlns:xlink="http://www.w3.org/1999/xlink" x="0px" y="0px"
	 width="48px" height="48px" viewBox="0 0 48 48" enable-background="new 0 0 48 48" xml:space="preserve">
<g>
	<path  d="M46,4H2C0.9,4,0,4.9,0,6v6h4V8h40v24H4v-4H0v6c0,1.1,0.9,2,2,2h44c1.1,0,2-0.9,2-2V6C48,4.9,47.1,4,46,4z"
		/>
	<path  d="M31.542,41l-7.546-1l-7.476,1c-0.825,0-1.5,0.675-1.5,1.5s0.675,1.5,1.5,1.5h15.021
		c0.825,0,1.5-0.675,1.5-1.5S32.367,41,31.542,41z"/>
	<path  d="M12.007,26.812L22,20.04l-9.993-6.805C11.453,12.845,11,13.08,11,13.758v4.281H2c-1.104,0-2,0.896-2,2
		s0.896,2,2,2h9v4.25C11,26.967,11.453,27.201,12.007,26.812z"/>
</g>
</svg>
