<?xml version="1.0" encoding="utf-8"?>
<!-- Generator: Adobe Illustrator 14.0.0, SVG Export Plug-In . SVG Version: 6.00 Build 43363)  -->
<!DOCTYPE svg PUBLIC "-//W3C//DTD SVG 1.1//EN" "http://www.w3.org/Graphics/SVG/1.1/DTD/svg11.dtd">
<svg version="1.1" id="Layer_1" xmlns="http://www.w3.org/2000/svg" xmlns:xlink="http://www.w3.org/1999/xlink" x="0px" y="0px"
	 width="48px" height="48px" viewBox="0 0 48 48" enable-background="new 0 0 48 48" xml:space="preserve">
<path fill="#333439" d="M45.75,4.75h-27c-1.104,0-2,0.896-2,2v7.5H6.25c-1.104,0-2,0.896-2,2v18.958l-3.639,3.486
	c-0.199,0.189-0.361,0.57-0.361,0.846v2.71c0,0.55,0.45,1,1,1h38c0.55,0,1-0.45,1-1v-2.71c0-0.275-0.162-0.656-0.361-0.846
	l-3.639-3.486V29.75h9.5c1.104,0,2-0.896,2-2v-21C47.75,5.646,46.854,4.75,45.75,4.75z M32.25,34.25h-24v-16h24V34.25z M43.75,25.75
	h-7.5v-9.5c0-1.104-0.896-2-2-2h-13.5v-5.5h23V25.75z"/>
</svg>
