<?xml version="1.0" encoding="utf-8"?>
<!-- Generator: Adobe Illustrator 16.0.0, SVG Export Plug-In . SVG Version: 6.00 Build 0)  -->
<!DOCTYPE svg PUBLIC "-//W3C//DTD SVG 1.1//EN" "http://www.w3.org/Graphics/SVG/1.1/DTD/svg11.dtd">
<svg version="1.1" id="Layer_1" xmlns="http://www.w3.org/2000/svg" xmlns:xlink="http://www.w3.org/1999/xlink" x="0px" y="0px"
	 width="48px" height="48px" viewBox="0 0 48 48" enable-background="new 0 0 48 48" xml:space="preserve">
<g>
	<path  d="M38,24c0-2.205-1.795-4-4-4s-4,1.795-4,4s1.795,4,4,4S38,26.205,38,24z"/>
	<path  d="M46,8H2c-1.1,0-2,0.9-2,2v28c0,1.1,0.9,2,2,2h44c1.1,0,2-0.9,2-2V10C48,8.9,47.1,8,46,8z M34,32H14
		c-4.418,0-8-3.582-8-8c0-4.418,3.582-8,8-8s8,3.582,8,8c0,1.459-0.397,2.822-1.079,4h6.157C26.396,26.822,26,25.459,26,24
		c0-4.418,3.582-8,8-8s8,3.582,8,8C42,28.418,38.418,32,34,32z"/>
	<path  d="M18,24c0-2.205-1.794-4-4-4s-4,1.795-4,4s1.794,4,4,4S18,26.205,18,24z"/>
</g>
</svg>
