<?xml version="1.0" encoding="utf-8"?>
<!-- Generator: Adobe Illustrator 16.0.0, SVG Export Plug-In . SVG Version: 6.00 Build 0)  -->
<!DOCTYPE svg PUBLIC "-//W3C//DTD SVG 1.1//EN" "http://www.w3.org/Graphics/SVG/1.1/DTD/svg11.dtd">
<svg version="1.1" id="Layer_1" xmlns="http://www.w3.org/2000/svg" xmlns:xlink="http://www.w3.org/1999/xlink" x="0px" y="0px"
	 width="48px" height="48px" viewBox="0 0 48 48" enable-background="new 0 0 48 48" xml:space="preserve">
<g>
	<polygon  points="24,48 24,32.484 16.007,40.479 	"/>
	<path  d="M41.734,14.75C43.211,17.572,44,20.725,44,24c0,5.342-2.08,10.365-5.857,14.143
		c-0.781,0.781-0.781,2.047,0,2.828c0.39,0.391,0.902,0.586,1.414,0.586s1.023-0.195,1.414-0.586C45.504,36.438,48,30.411,48,24
		c0-4.359-1.157-8.539-3.32-12.194L41.734,14.75z"/>
	<path  d="M32.977,23.509C32.984,23.672,33,23.835,33,24c0,2.404-0.936,4.664-2.636,6.364
		c-0.781,0.781-0.781,2.047,0,2.828c0.39,0.391,0.902,0.586,1.414,0.586s1.024-0.195,1.414-0.586C35.648,30.737,37,27.473,37,24
		c0-1.348-0.209-2.662-0.603-3.913L32.977,23.509z"/>
	<path  d="M47.414,0.586c-0.781-0.781-2.047-0.781-2.828,0L24,21.172V0L8.06,15H2c-1.1,0-2,0.9-2,2v14
		c0,1.1,0.9,2,2,2h6.06l2.119,1.994l-9.592,9.592c-0.781,0.781-0.781,2.047,0,2.828C0.977,47.805,1.488,48,2,48
		s1.023-0.195,1.414-0.586l9.678-9.678h0L47.414,3.414C48.195,2.633,48.195,1.367,47.414,0.586z"/>
</g>
</svg>
