<?xml version="1.0" encoding="utf-8"?>
<!-- Generator: Adobe Illustrator 16.0.0, SVG Export Plug-In . SVG Version: 6.00 Build 0)  -->
<!DOCTYPE svg PUBLIC "-//W3C//DTD SVG 1.1//EN" "http://www.w3.org/Graphics/SVG/1.1/DTD/svg11.dtd">
<svg version="1.1" id="Layer_1" xmlns="http://www.w3.org/2000/svg" xmlns:xlink="http://www.w3.org/1999/xlink" x="0px" y="0px"
	 width="48px" height="48px" viewBox="0 0 48 48" enable-background="new 0 0 48 48" xml:space="preserve">
<g>
	<polygon  points="3,22 46,22 46,2 	"/>
	<path  d="M18,35H4c-1.1,0-2,0.9-2,2s0.9,2,2,2h14c1.1,0,2-0.9,2-2S19.1,35,18,35z"/>
	<path  d="M44,35h-5v-5c0-1.1-0.9-2-2-2s-2,0.9-2,2v5h-5c-1.1,0-2,0.9-2,2s0.9,2,2,2h5v5c0,1.1,0.9,2,2,2s2-0.9,2-2
		v-5h5c1.1,0,2-0.9,2-2S45.1,35,44,35z"/>
</g>
</svg>
