<?xml version="1.0" encoding="utf-8"?>
<!-- Generator: Adobe Illustrator 19.1.0, SVG Export Plug-In . SVG Version: 6.00 Build 0)  -->
<svg version="1.1" id="Layer_1" xmlns="http://www.w3.org/2000/svg" xmlns:xlink="http://www.w3.org/1999/xlink" x="0px" y="0px"
	 width="48px" height="48px" viewBox="-281 373 48 48" style="enable-background:new -281 373 48 48;" xml:space="preserve">

<path d="M-235,375h-44c-1.1,0-2,0.9-2,2v28c0,1.1,0.9,2,2,2h7v12l12-12h25c1.1,0,2-0.9,2-2v-28
	C-233,375.9-233.9,375-235,375z M-268,388c1.7,0,3,1.3,3,3c0,1.6-1.3,3-3,3s-3-1.4-3-3C-271,389.3-269.7,388-268,388z M-257,394
	c-1.7,0-3-1.4-3-3c0-1.7,1.3-3,3-3s3,1.3,3,3C-254,392.6-255.3,394-257,394z M-246,394c-1.7,0-3-1.4-3-3c0-1.7,1.3-3,3-3s3,1.3,3,3
	C-243,392.6-244.3,394-246,394z"/>
</svg>
