<?xml version="1.0" encoding="utf-8"?>
<!-- Generator: Adobe Illustrator 16.0.0, SVG Export Plug-In . SVG Version: 6.00 Build 0)  -->
<!DOCTYPE svg PUBLIC "-//W3C//DTD SVG 1.1//EN" "http://www.w3.org/Graphics/SVG/1.1/DTD/svg11.dtd">
<svg version="1.1" id="Layer_1" xmlns="http://www.w3.org/2000/svg" xmlns:xlink="http://www.w3.org/1999/xlink" x="0px" y="0px"
	 width="48px" height="48px" viewBox="0 0 48 48" enable-background="new 0 0 48 48" xml:space="preserve">
<g>
	<path  d="M46,8H2c-1.104,0-2,0.896-2,2v28c0,1.105,0.896,2,2,2h44c1.104,0,2-0.895,2-2V10C48,8.896,47.104,8,46,8z
		 M30.244,26.586c1.629,2.432,2.293,4.434,1.534,5.192s-2.761,0.095-5.192-1.534C26.02,33.115,25.072,35,24,35
		c-1.073,0-2.02-1.885-2.586-4.756c-2.432,1.629-4.434,2.293-5.192,1.534s-0.095-2.761,1.535-5.192C14.885,26.02,13,25.073,13,24
		c0-1.072,1.885-2.019,4.756-2.586c-1.629-2.432-2.293-4.434-1.535-5.192s2.761-0.095,5.192,1.535C21.98,14.885,22.927,13,24,13
		c1.072,0,2.02,1.885,2.586,4.757c2.432-1.63,4.434-2.294,5.192-1.535s0.095,2.761-1.534,5.192C33.115,21.981,35,22.928,35,24
		C35,25.073,33.115,26.02,30.244,26.586z"/>
	<circle  cx="24" cy="24" r="4"/>
</g>
</svg>
