<?xml version="1.0" encoding="utf-8"?>
<!-- Generator: Adobe Illustrator 16.0.0, SVG Export Plug-In . SVG Version: 6.00 Build 0)  -->
<!DOCTYPE svg PUBLIC "-//W3C//DTD SVG 1.1//EN" "http://www.w3.org/Graphics/SVG/1.1/DTD/svg11.dtd">
<svg version="1.1" id="Layer_1" xmlns="http://www.w3.org/2000/svg" xmlns:xlink="http://www.w3.org/1999/xlink" x="0px" y="0px"
	 width="48px" height="48px" viewBox="0 0 48 48" enable-background="new 0 0 48 48" xml:space="preserve">
<g>
	<path fill="#333439" d="M47.652,42.404L25.45,4.071c-0.819-1.428-2.16-1.428-2.979,0L0.348,42.404C-0.472,43.832,0.208,45,1.857,45
		h44.285C47.792,45,48.472,43.832,47.652,42.404z M25.41,38.41C25.04,38.79,24.53,39,24,39s-1.04-0.21-1.41-0.59
		C22.21,38.04,22,37.53,22,37c0-0.521,0.21-1.04,0.59-1.42c0.74-0.74,2.08-0.74,2.82,0C25.79,35.96,26,36.47,26,37
		S25.79,38.04,25.41,38.41z M26,30c0,1.104-0.896,2-2,2s-2-0.896-2-2V18c0-1.104,0.896-2,2-2s2,0.896,2,2V30z"/>
</g>
</svg>
