<?xml version="1.0" encoding="UTF-8" standalone="no"?>
<svg width="48px" height="48px" viewBox="0 0 48 48" version="1.1" xmlns="http://www.w3.org/2000/svg" xmlns:xlink="http://www.w3.org/1999/xlink">
    <!-- Generator: Sketch 46.2 (44496) - http://www.bohemiancoding.com/sketch -->
    <title>warning-outline</title>
    <desc>Created with Sketch.</desc>
    <defs></defs>
    <g id="Page-1" stroke="none" stroke-width="1" fill="none" fill-rule="evenodd">
        <g id="warning-outline" fill-rule="nonzero" fill="#000000">
            <path d="M47.0904341,39.7954822 L26.9752211,2.30684334 C25.3005761,-0.69493594 22.6912454,-0.69493594 21.0166004,2.30684334 L0.911123732,39.7954822 C-1.13350101,43.861325 0.356154158,47.075917 4.44540365,47.075917 L43.361428,47.075917 C47.6454037,47.075917 49.1350588,43.8724138 47.0904341,39.7954822 Z M42.1342115,43.3832828 L5.87753225,43.3832828 C4.01730683,43.3832828 3.33522417,41.8241348 4.35391904,40.0713671 L22.9916061,5.38297272 C23.4965244,4.21106407 24.5152193,4.21106407 25.1972134,5.38297272 L43.8349004,40.0713671 C44.6765196,41.8241348 43.9944369,43.3832828 42.1342115,43.3832828 Z" id="Shape"></path>
            <g id="Group" transform="translate(23.600000, 28.500000) rotate(180.000000) translate(-23.600000, -28.500000) translate(21.100000, 17.000000)">
                <path d="M2.001,0 C1.47,0 0.9615,0.21 0.5805,0.591 C0.21,0.9615 0,1.47 0,2.001 C0,2.532 0.21,3.0405 0.591,3.4215 C1.3305,4.161 2.661,4.161 3.4185,3.4215 C3.7905,3.042 4.0005,2.5215 4.0005,2.001 C4.0005,1.482 3.7905,0.9615 3.4185,0.5805 C3.0405,0.21 2.532,0 2.001,0 Z" id="Shape"></path>
                <path d="M1.9995,8 C0.8955,8 0,8.8955 0,9.9995 L0,20.999 C0,22.103 0.8955,23 1.9995,23 C3.1035,23 3.999,22.103 3.999,21.0005 L3.999,10.001 C3.999,8.8955 3.1035,8 1.9995,8 Z" id="Shape"></path>
            </g>
        </g>
    </g>
</svg>