<?xml version="1.0" encoding="utf-8"?>
<!-- Generator: Adobe Illustrator 16.0.0, SVG Export Plug-In . SVG Version: 6.00 Build 0)  -->
<!DOCTYPE svg PUBLIC "-//W3C//DTD SVG 1.1//EN" "http://www.w3.org/Graphics/SVG/1.1/DTD/svg11.dtd">
<svg version="1.1" id="Layer_1" xmlns="http://www.w3.org/2000/svg" xmlns:xlink="http://www.w3.org/1999/xlink" x="0px" y="0px"
	 width="48px" height="48px" viewBox="0 0 48 48" enable-background="new 0 0 48 48" xml:space="preserve">
<g>
	<path  d="M44,12H4c-1.104,0-2,0.896-2,2s0.896,2,2,2h40c1.104,0,2-0.896,2-2S45.104,12,44,12z"/>
	<path  d="M44,22H4c-1.104,0-2,0.896-2,2s0.896,2,2,2h40c1.104,0,2-0.896,2-2S45.104,22,44,22z"/>
	<path  d="M4,36h12c1.104,0,2-0.896,2-2s-0.896-2-2-2H4c-1.104,0-2,0.896-2,2S2.896,36,4,36z"/>
	<path  d="M17,42H4c-1.104,0-2,0.896-2,2s0.896,2,2,2h13c1.104,0,2-0.896,2-2S18.104,42,17,42z"/>
	<path  d="M4,6h40c1.104,0,2-0.896,2-2s-0.896-2-2-2H4C2.896,2,2,2.896,2,4S2.896,6,4,6z"/>
	<path  d="M22,39c0,0,7.029,7,12,7s12-7,12-7s-7.029-7-12-7S22,39,22,39z M37,39c0,1.656-1.344,3-3,3s-3-1.344-3-3
		s1.344-3,3-3S37,37.344,37,39z"/>
</g>
</svg>
