<?xml version="1.0" encoding="utf-8"?>
<!-- Generator: Adobe Illustrator 19.1.0, SVG Export Plug-In . SVG Version: 6.00 Build 0)  -->
<svg version="1.1" id="Layer_1" xmlns="http://www.w3.org/2000/svg" xmlns:xlink="http://www.w3.org/1999/xlink" x="0px" y="0px"
	 width="48px" height="48px" viewBox="-281 373 48 48" style="enable-background:new -281 373 48 48;" xml:space="preserve">

<g>
	<path d="M-235,377h-31c-1.1,0-2,0.9-2,2v7h20c3.3,0,6,2.7,6,6v12h7c1.1,0,2-0.9,2-2v-23C-233,377.9-233.9,377-235,377z
		"/>
	<path d="M-248,390h-20h-11c-1.1,0-2,0.9-2,2v23c0,1.1,0.9,2,2,2h31c1.1,0,2-0.9,2-2v-11v-12
		C-246,390.9-246.9,390-248,390z M-260.5,405.5c0.1,0.2,0.3,0.4,0.4,0.5l6.1,3.5c0.2,0.1,0.3,0.3,0.4,0.5l0.6,3.9h-21l0.6-3.9
		c0-0.2,0.2-0.4,0.4-0.5l6.1-3.5c0.2-0.1,0.4-0.3,0.4-0.5l0.7-1.5l0-0.1c-1-0.7-1.6-3-1.6-4.4v-2.6c0-2.2,1.8-3.9,3.9-3.9
		c2.2,0,3.9,1.8,3.9,3.9v2.6c0,1.3-0.7,3.6-1.7,4.3l0.1,0.1L-260.5,405.5z"/>
</g>
</svg>
