<?xml version="1.0" encoding="utf-8"?>
<!-- Generator: Adobe Illustrator 22.0.0, SVG Export Plug-In . SVG Version: 6.00 Build 0)  -->
<svg version="1.1" id="Layer_1" xmlns="http://www.w3.org/2000/svg" xmlns:xlink="http://www.w3.org/1999/xlink" x="0px" y="0px"
	 width="24px" height="24px" viewBox="0 0 24 24" style="enable-background:new 0 0 24 24;" xml:space="preserve">
<style type="text/css">
	.st0{fill:#2B2B2B;}
</style>
<g>
	<path class="st0" d="M12,18.9c1.9,0,3.6-0.7,4.9-2c2.6-2.6,2.7-6.8,0.3-9.5c0,2.5-1,5-2.9,6.9c-1.9,1.9-4.4,2.9-6.9,2.9
		C8.7,18.3,10.3,18.9,12,18.9z"/>
	<path class="st0" d="M3,16.9C3.5,16.3,4.3,16,5,16c0.2,0,0.3,0,0.5,0c-0.8-1.2-1.2-2.6-1.2-4.1c0-2,0.8-4,2.2-5.4
		c2.6-2.6,6.5-2.9,9.5-1.1c-0.1-0.9,0.1-1.8,0.8-2.5c0.5-0.5,1.2-0.8,1.9-0.8C14.2-1.1,7.7-0.7,3.5,3.5C1.2,5.8,0,8.8,0,12
		c0,2.5,0.8,4.9,2.1,6.8C2.2,18.1,2.4,17.4,3,16.9z"/>
	<path class="st0" d="M19,2.9c0.6,0,1.1,0.2,1.5,0.6c4.7,4.7,4.7,12.3,0,17C18.2,22.8,15.1,24,12,24c-3.1,0-6.1-1.2-8.5-3.5
		c-0.8-0.8-0.8-2.2,0-3.1c0.4-0.4,1-0.6,1.5-0.6s1.1,0.2,1.5,0.6c1.5,1.5,3.5,2.2,5.4,2.2c2,0,3.9-0.7,5.4-2.2c3-3,3-7.9,0-10.9
		c-0.8-0.8-0.8-2.2,0-3.1C17.9,3.1,18.4,2.9,19,2.9"/>
</g>
</svg>
