<?xml version="1.0" encoding="utf-8"?>
<!-- Generator: Adobe Illustrator 22.0.0, SVG Export Plug-In . SVG Version: 6.00 Build 0)  -->
<svg version="1.1" id="Layer_1" xmlns="http://www.w3.org/2000/svg" xmlns:xlink="http://www.w3.org/1999/xlink" x="0px" y="0px"
	 width="48px" height="48px" viewBox="0 0 48 48" style="enable-background:new 0 0 48 48;" xml:space="preserve">
<style type="text/css">
	.st0{fill:#2B2B2B;}
</style>
<g>
	<path class="st0" d="M24,37.8c3.7,0,7.2-1.4,9.8-4.1c5.2-5.2,5.4-13.5,0.6-18.9c0,5-2,10-5.8,13.8c-3.8,3.8-8.8,5.7-13.8,5.8
		C17.4,36.6,20.6,37.8,24,37.8z"/>
	<path class="st0" d="M6,33.8c1.1-1.1,2.6-1.7,4.1-1.7c0.3,0,0.6,0,0.9,0.1c-1.5-2.4-2.4-5.2-2.4-8.2c0-4.1,1.6-8,4.5-10.9
		c5.2-5.2,13.1-5.9,19-2.1c-0.3-1.8,0.3-3.7,1.6-5c1-1,2.4-1.6,3.9-1.7C28.3-2.2,15.4-1.3,7,7c-4.5,4.5-7,10.6-7,17
		c0,5,1.5,9.7,4.3,13.7C4.3,36.3,4.9,34.9,6,33.8z"/>
	<path class="st0" d="M37.9,5.7C39,5.7,40.1,6.2,41,7c9.4,9.4,9.4,24.6,0,34c-4.7,4.7-10.8,7-17,7c-6.1,0-12.3-2.3-17-7
		c-1.7-1.7-1.7-4.4,0-6.1c0.8-0.8,2-1.3,3.1-1.3s2.2,0.4,3.1,1.3c3,3,6.9,4.5,10.8,4.5c3.9,0,7.9-1.5,10.8-4.5c6-6,6-15.7,0-21.7
		c-1.7-1.7-1.7-4.4,0-6.1C35.7,6.2,36.8,5.7,37.9,5.7"/>
</g>
</svg>
