<?xml version="1.0" encoding="utf-8"?>
<!-- Generator: Adobe Illustrator 22.0.0, SVG Export Plug-In . SVG Version: 6.00 Build 0)  -->
<svg version="1.1" id="Layer_1" xmlns="http://www.w3.org/2000/svg" xmlns:xlink="http://www.w3.org/1999/xlink" x="0px" y="0px"
	 width="16px" height="16px" viewBox="0 0 16 16" style="enable-background:new 0 0 16 16;" xml:space="preserve">
<style type="text/css">
	.st0{fill:#2B2B2B;}
</style>
<g>
	<path class="st0" d="M11.5,5c0,1.7-0.7,3.3-1.9,4.6c-1.3,1.3-2.9,1.9-4.6,1.9c0.8,0.7,1.9,1.1,3,1.1c0.1,0,0.1,0,0.2,0
		c1.2-0.1,2.3-0.5,3.1-1.4c0.8-0.9,1.3-2,1.3-3.2C12.6,6.9,12.2,5.8,11.5,5z"/>
	<path class="st0" d="M9.5,0.2C9.8,0.5,10,1,10,1.5C10,2.1,9.6,2.7,9.2,3C11.1,3.5,12.6,5,13,6.9c0.4-0.5,0.9-0.8,1.6-0.8
		c0.5,0,1,0.2,1.3,0.5C15.3,3.3,12.7,0.8,9.5,0.2z"/>
	<path class="st0" d="M14.6,6.6c-0.8,0-1.4,0.6-1.4,1.4c0,2.4-1.7,4.4-4,5c0.5,0.4,0.8,0.9,0.8,1.6c0,0.5-0.2,1-0.5,1.3
		C13.2,15.2,16,11.9,16,8C16,7.2,15.4,6.6,14.6,6.6z"/>
	<path class="st0" d="M3.7,5.3c-0.1,0-0.2,0-0.3,0c-0.5,0-1-0.2-1.4-0.6C1.6,4.4,1.4,4,1.4,3.5C0.5,4.8,0,6.3,0,8s0.5,3.2,1.4,4.5
		c0-0.5,0.2-0.9,0.6-1.3c0.4-0.4,0.9-0.6,1.4-0.6c0.1,0,0.2,0,0.3,0C3.2,9.9,2.9,9,2.9,8C2.9,7,3.2,6.1,3.7,5.3z"/>
	<path class="st0" d="M3.4,4.8c-0.4,0-0.7-0.1-1-0.4c-0.6-0.6-0.6-1.5,0-2.1C3.8,0.8,5.9,0,8,0c0.8,0,1.5,0.7,1.5,1.5S8.8,2.9,8,2.9
		c-1.4,0-2.6,0.5-3.6,1.5C4.1,4.7,3.7,4.8,3.4,4.8z"/>
	<path class="st0" d="M3.4,11.2c0.4,0,0.7,0.1,1,0.4c1,1,2.2,1.5,3.6,1.5c0.8,0,1.5,0.7,1.5,1.5C9.5,15.3,8.8,16,8,16
		c-2.1,0-4.2-0.8-5.7-2.3c-0.6-0.6-0.6-1.5,0-2.1C2.6,11.3,3,11.2,3.4,11.2"/>
</g>
</svg>
