<?xml version="1.0" encoding="utf-8"?>
<!-- Generator: Adobe Illustrator 22.0.0, SVG Export Plug-In . SVG Version: 6.00 Build 0)  -->
<svg version="1.1" id="Layer_1" xmlns="http://www.w3.org/2000/svg" xmlns:xlink="http://www.w3.org/1999/xlink" x="0px" y="0px"
	 width="48px" height="48px" viewBox="0 0 48 48" style="enable-background:new 0 0 48 48;" xml:space="preserve">
<style type="text/css">
	.st0{fill:#2B2B2B;}
</style>
<g>
	<path class="st0" d="M34.4,14.9c0,5-2,9.9-5.8,13.7c-3.8,3.8-8.7,5.7-13.7,5.8c2.5,2.2,5.7,3.4,9.1,3.4c0.2,0,0.4,0,0.6,0
		c3.5-0.2,6.9-1.6,9.3-4.2c2.5-2.6,3.9-6,3.9-9.6C37.8,20.6,36.6,17.4,34.4,14.9z"/>
	<path class="st0" d="M28.4,0.5c0.9,1,1.5,2.4,1.5,3.9c0,1.9-1,3.7-2.4,4.7c5.7,1.3,10.2,5.8,11.5,11.5c1.1-1.5,2.8-2.4,4.7-2.4
		c1.5,0,2.9,0.6,3.9,1.5C45.8,10,38.1,2.3,28.4,0.5z"/>
	<path class="st0" d="M43.7,19.7c-2.4,0-4.3,1.9-4.3,4.3c0,7.3-5.1,13.3-11.9,14.9c1.5,1.1,2.4,2.8,2.4,4.7c0,1.5-0.6,2.9-1.5,3.9
		C39.5,45.5,48,35.7,48,24C48,21.6,46.1,19.7,43.7,19.7z"/>
	<path class="st0" d="M11,15.9c-0.3,0-0.6,0.1-0.9,0.1c-1.6,0-3-0.6-4.2-1.7c-1-1-1.6-2.4-1.7-3.8C1.6,14.3,0,19,0,24
		s1.6,9.7,4.2,13.6c0.1-1.4,0.7-2.8,1.7-3.8c1.1-1.1,2.6-1.7,4.2-1.7c0.3,0,0.6,0,0.9,0.1C9.5,29.7,8.7,27,8.7,24
		C8.7,21,9.5,18.3,11,15.9z"/>
	<path class="st0" d="M10.1,14.5c-1.1,0-2.2-0.4-3.1-1.3C5.3,11.5,5.3,8.7,7,7c4.5-4.5,10.6-7,17-7c2.4,0,4.4,2,4.4,4.4
		s-2,4.4-4.4,4.4c-4.1,0-7.9,1.6-10.8,4.5C12.3,14.1,11.2,14.5,10.1,14.5z"/>
	<path class="st0" d="M10.1,33.5c1.1,0,2.2,0.4,3.1,1.3c2.9,2.9,6.7,4.5,10.8,4.5c2.4,0,4.4,2,4.4,4.4c0,2.4-2,4.4-4.4,4.4
		c-6.4,0-12.5-2.5-17-7c-1.7-1.7-1.7-4.5,0-6.2C7.8,33.9,9,33.5,10.1,33.5"/>
</g>
</svg>
