<?xml version="1.0" encoding="utf-8"?>
<!-- Generator: Adobe Illustrator 22.0.0, SVG Export Plug-In . SVG Version: 6.00 Build 0)  -->
<svg version="1.1" id="Layer_1" xmlns="http://www.w3.org/2000/svg" xmlns:xlink="http://www.w3.org/1999/xlink" x="0px" y="0px"
	 width="24px" height="24px" viewBox="0 0 24 24" style="enable-background:new 0 0 24 24;" xml:space="preserve">
<style type="text/css">
	.st0{fill:#2B2B2B;}
</style>
<g>
	<path class="st0" d="M17.2,7.4c0,2.5-1,5-2.9,6.9c-1.9,1.9-4.4,2.8-6.8,2.9c1.3,1.1,2.8,1.7,4.5,1.7c0.1,0,0.2,0,0.3,0
		c1.8-0.1,3.4-0.8,4.7-2.1c1.3-1.3,1.9-3,1.9-4.8C18.9,10.3,18.3,8.7,17.2,7.4z"/>
	<path class="st0" d="M14.2,0.2c0.5,0.5,0.8,1.2,0.8,2c0,1-0.5,1.8-1.2,2.4c2.9,0.7,5.1,2.9,5.7,5.8c0.5-0.7,1.4-1.2,2.4-1.2
		c0.8,0,1.5,0.3,2,0.8C22.9,5,19.1,1.1,14.2,0.2z"/>
	<path class="st0" d="M21.8,9.8c-1.2,0-2.2,1-2.2,2.2c0,3.6-2.5,6.7-5.9,7.5c0.7,0.5,1.2,1.4,1.2,2.4c0,0.8-0.3,1.4-0.8,2
		c5.6-1,9.8-5.9,9.8-11.8C24,10.8,23,9.8,21.8,9.8z"/>
	<path class="st0" d="M5.5,8C5.3,8,5.2,8,5,8C4.3,8,3.5,7.7,3,7.1C2.5,6.6,2.2,5.9,2.1,5.2C0.8,7.2,0,9.5,0,12s0.8,4.8,2.1,6.8
		c0-0.7,0.3-1.4,0.9-1.9C3.5,16.3,4.3,16,5,16c0.2,0,0.3,0,0.4,0c-0.7-1.2-1.2-2.6-1.2-4C4.3,10.5,4.8,9.1,5.5,8z"/>
	<path class="st0" d="M5,7.2C4.5,7.2,3.9,7,3.5,6.6c-0.9-0.9-0.9-2.2,0-3.1C5.8,1.2,8.8,0,12,0c1.2,0,2.2,1,2.2,2.2s-1,2.2-2.2,2.2
		c-2,0-4,0.8-5.4,2.2C6.2,7,5.6,7.2,5,7.2z"/>
	<path class="st0" d="M5,16.8c0.6,0,1.1,0.2,1.5,0.6C8,18.8,10,19.6,12,19.6c1.2,0,2.2,1,2.2,2.2c0,1.2-1,2.2-2.2,2.2
		c-3.2,0-6.2-1.2-8.5-3.5c-0.9-0.9-0.9-2.2,0-3.1C3.9,17,4.5,16.8,5,16.8"/>
</g>
</svg>
