<?xml version="1.0" encoding="utf-8"?>
<!-- Generator: Adobe Illustrator 16.0.0, SVG Export Plug-In . SVG Version: 6.00 Build 0)  -->
<!DOCTYPE svg PUBLIC "-//W3C//DTD SVG 1.1//EN" "http://www.w3.org/Graphics/SVG/1.1/DTD/svg11.dtd">
<svg version="1.1" id="Layer_1" xmlns="http://www.w3.org/2000/svg" xmlns:xlink="http://www.w3.org/1999/xlink" x="0px" y="0px"
	 width="48px" height="48px" viewBox="0 0 48 48" enable-background="new 0 0 48 48" xml:space="preserve">
<g>
	<path  d="M24,0C10.745,0,0,10.745,0,24s10.745,24,24,24s24-10.745,24-24S37.255,0,24,0z M28.945,26.598l-0.088,0.154
		c-0.027,0.049-0.061,0.1-0.08,0.144c-4.689,8.107-9.551,11.688-12.807,13.267c-0.076,0.033-0.215,0.098-0.313,0.142
		c-0.438,0.159-0.904,0.199-1.445,0.114c-1.694-0.255-3.381-1.619-3.871-2.039c-3.226-2.97-5.389-7.006-6.088-11.363
		c-0.72-4.488,0.098-8.944,2.363-12.886c0.033-0.054,0.065-0.113,0.095-0.163c0.034-0.054,0.062-0.106,0.093-0.162
		c1.76-3.03,4.286-5.531,7.316-7.241c2.959-1.669,6.318-2.555,9.715-2.555c1.986,0,3.951,0.3,5.844,0.894
		c0.438,0.151,2.59,0.951,3.693,2.335c0.338,0.419,0.545,0.851,0.623,1.292l0.039,0.335C34.297,12.479,33.625,18.484,28.945,26.598z
		"/>
</g>
</svg>
