<?xml version="1.0" encoding="utf-8"?>
<!-- Generator: Adobe Illustrator 22.0.0, SVG Export Plug-In . SVG Version: 6.00 Build 0)  -->
<svg version="1.1" id="Layer_1" xmlns="http://www.w3.org/2000/svg" xmlns:xlink="http://www.w3.org/1999/xlink" x="0px" y="0px"
	 width="16px" height="16px" viewBox="0 0 16 16" style="enable-background:new 0 0 16 16;" xml:space="preserve">
<style type="text/css">
	.st0{fill:#2B2B2B;}
</style>
<g>
	<path class="st0" d="M8,12.6c1.2,0,2.4-0.5,3.3-1.4C13,9.5,13.1,6.8,11.5,5c0,1.7-0.7,3.3-1.9,4.6c-1.3,1.3-2.9,1.9-4.6,1.9
		C5.8,12.2,6.9,12.6,8,12.6z"/>
	<path class="st0" d="M2,11.3c0.4-0.4,0.9-0.6,1.4-0.6c0.1,0,0.2,0,0.3,0C3.2,9.9,2.9,9,2.9,8c0-1.4,0.5-2.7,1.5-3.6
		c1.7-1.7,4.4-2,6.3-0.7c-0.1-0.6,0.1-1.2,0.5-1.7c0.3-0.3,0.8-0.5,1.3-0.6C9.4-0.7,5.1-0.4,2.3,2.3C0.8,3.9,0,5.9,0,8
		c0,1.7,0.5,3.2,1.4,4.6C1.4,12.1,1.6,11.6,2,11.3z"/>
	<path class="st0" d="M12.6,1.9c0.4,0,0.7,0.1,1,0.4c3.1,3.1,3.1,8.2,0,11.3C12.1,15.2,10.1,16,8,16c-2,0-4.1-0.8-5.7-2.3
		c-0.6-0.6-0.6-1.5,0-2c0.3-0.3,0.7-0.4,1-0.4s0.7,0.1,1,0.4c1,1,2.3,1.5,3.6,1.5c1.3,0,2.6-0.5,3.6-1.5c2-2,2-5.2,0-7.2
		c-0.6-0.6-0.6-1.5,0-2C11.9,2.1,12.3,1.9,12.6,1.9"/>
</g>
</svg>
