<?xml version="1.0" encoding="utf-8"?>
<!-- Generator: Adobe Illustrator 16.0.0, SVG Export Plug-In . SVG Version: 6.00 Build 0)  -->
<!DOCTYPE svg PUBLIC "-//W3C//DTD SVG 1.1//EN" "http://www.w3.org/Graphics/SVG/1.1/DTD/svg11.dtd">
<svg version="1.1" id="Layer_1" xmlns="http://www.w3.org/2000/svg" xmlns:xlink="http://www.w3.org/1999/xlink" x="0px" y="0px"
	 width="64px" height="64px" viewBox="0 0 64 64" enable-background="new 0 0 64 64" xml:space="preserve">
<path fill="#333333" d="M44,30c-1.271,0-2.488,0.214-3.639,0.583C42.602,28.407,44,25.371,44,22c0-6.627-5.373-12-12-12
	s-12,5.373-12,12c0,3.368,1.404,6.396,3.639,8.574C22.492,30.205,21.271,30,20,30c-6.627,0-12,5.373-12,12s5.373,12,12,12
	c5.943,0,10.866-4.327,11.82-10h0.359c0.954,5.673,5.877,10,11.82,10c6.627,0,12-5.373,12-12S50.627,30,44,30 M44,50
	c-3.721,0-6.846-2.555-7.736-6h4.291c0.693,1.191,1.969,2,3.445,2c2.209,0,4-1.791,4-4s-1.791-4-4-4c-1.477,0-2.752,0.809-3.445,2
	H27.736C27.902,40.641,28,41.308,28,42s-0.098,1.359-0.264,2c-0.891,3.445-4.016,6-7.736,6c-4.411,0-8-3.589-8-8s3.589-8,8-8
	c0.789,0,1.547,0.122,2.266,0.336l-2.201,3.67C20.042,38.006,20.021,38,20,38c-2.209,0-4,1.791-4,4s1.791,4,4,4s4-1.791,4-4
	c0-0.701-0.195-1.351-0.514-1.924l6.246-10.408c-1.316-0.39-2.49-1.107-3.43-2.061C24.881,26.163,24,24.183,24,22
	c0-4.411,3.589-8,8-8c4.412,0,8,3.589,8,8c0,2.182-0.887,4.156-2.309,5.6l-2.205-3.676C35.805,23.351,36,22.701,36,22
	c0-2.209-1.791-4-4-4s-4,1.791-4,4s1.791,4,4,4c0.021,0,0.042-0.006,0.064-0.006l6.238,10.398c0.939-0.953,2.113-1.671,3.43-2.061
	C42.453,34.119,43.213,34,44,34c4.412,0,8,3.589,8,8S48.412,50,44,50"/>
</svg>
