<?xml version="1.0" encoding="utf-8"?>
<!-- Generator: Adobe Illustrator 19.1.0, SVG Export Plug-In . SVG Version: 6.00 Build 0)  -->
<svg version="1.1" id="Layer_1" xmlns="http://www.w3.org/2000/svg" xmlns:xlink="http://www.w3.org/1999/xlink" x="0px" y="0px"
	 width="48px" height="48px" viewBox="-281 373 48 48" style="enable-background:new -281 373 48 48;" xml:space="preserve">
<style type="text/css">
	.st0{fill:none;}
	.st1{fill:#333439;}
</style>
<g>
	<path class="st0" d="M-245,406h-24c-1.1,0-2,0.9-2,2s0.9,2,2,2h24c1.1,0,2-0.9,2-2S-243.9,406-245,406z"/>
	<path class="st0" d="M-245,397h-24c-1.1,0-2,0.9-2,2s0.9,2,2,2h24c1.1,0,2-0.9,2-2S-243.9,397-245,397z"/>
	<path class="st1" d="M-237,375h-6v2c0,1.1-0.9,2-2,2s-2-0.9-2-2v-2h-20v2c0,1.1-0.9,2-2,2s-2-0.9-2-2v-2h-6c-1.1,0-2,0.9-2,2v40
		c0,1.1,0.9,2,2,2h40c1.1,0,2-0.9,2-2v-40C-235,375.9-235.9,375-237,375z M-245,410h-24c-1.1,0-2-0.9-2-2s0.9-2,2-2h24
		c1.1,0,2,0.9,2,2S-243.9,410-245,410z M-245,401h-24c-1.1,0-2-0.9-2-2s0.9-2,2-2h24c1.1,0,2,0.9,2,2S-243.9,401-245,401z M-245,392
		h-24c-1.1,0-2-0.9-2-2s0.9-2,2-2h24c1.1,0,2,0.9,2,2S-243.9,392-245,392z"/>
</g>
</svg>
