<?xml version="1.0" encoding="UTF-8" standalone="no"?>
<svg width="44px" height="44px" viewBox="0 0 44 44" version="1.1" xmlns="http://www.w3.org/2000/svg" xmlns:xlink="http://www.w3.org/1999/xlink">
    <!-- Generator: Sketch 46.2 (44496) - http://www.bohemiancoding.com/sketch -->
    <title>calendar-weekly</title>
    <desc>Created with Sketch.</desc>
    <defs></defs>
    <g id="Page-1" stroke="none" stroke-width="1" fill="none" fill-rule="evenodd">
        <g id="calendar-weekly" fill="#000000">
            <path d="M42,0 L36,0 L36,2 C36,3.1 35.1,4 34,4 C32.9,4 32,3.1 32,2 L32,0 L12,0 L12,2 C12,3.1 11.1,4 10,4 C8.9,4 8,3.1 8,2 L8,0 L2,0 C0.9,0 0,0.9 0,2 L0,42 C0,43.1 0.9,44 2,44 L42,44 C43.1,44 44,43.1 44,42 L44,2 C44,0.9 43.1,0 42,0 Z M34,37 L10,37 C8.9,37 8,36.1 8,35 C8,33.9 8.9,33 10,33 L34,33 C35.1,33 36,33.9 36,35 C36,36.1 35.1,37 34,37 Z M34,26 L10,26 C8.9,26 8,25.1 8,24 C8,22.9 8.9,22 10,22 L34,22 C35.1,22 36,22.9 36,24 C36,25.1 35.1,26 34,26 Z M34,15 L10,15 C8.9,15 8,14.1 8,13 C8,11.9 8.9,11 10,11 L34,11 C35.1,11 36,11.9 36,13 C36,14.1 35.1,15 34,15 Z" id="Shape"></path>
        </g>
    </g>
</svg>