<?xml version="1.0" encoding="utf-8"?>
<!-- Generator: Adobe Illustrator 15.0.0, SVG Export Plug-In . SVG Version: 6.00 Build 0)  -->
<!DOCTYPE svg PUBLIC "-//W3C//DTD SVG 1.1//EN" "http://www.w3.org/Graphics/SVG/1.1/DTD/svg11.dtd">
<svg version="1.1" id="Layer_1" xmlns="http://www.w3.org/2000/svg" xmlns:xlink="http://www.w3.org/1999/xlink" x="0px" y="0px"
	 width="48px" height="48px" viewBox="0 0 48 48" enable-background="new 0 0 48 48" xml:space="preserve">
<g id="XMLID_441_">
	<path id="XMLID_542_"  d="M45.818,26.182H28.363c-1.199,0-2.182,0.982-2.182,2.182c0,1.2,0.982,2.183,2.182,2.183
		h17.455c1.199,0,2.182-0.982,2.182-2.183C48,27.164,47.018,26.182,45.818,26.182z"/>
	<path id="XMLID_541_"  d="M6.545,13.091h34.909c1.2,0,2.183-0.981,2.183-2.182s-0.982-2.182-2.183-2.182H6.545
		c-1.2,0-2.182,0.982-2.182,2.182S5.345,13.091,6.545,13.091z"/>
	<path id="XMLID_469_"  d="M29.454,43.637H18.545c-1.2,0-2.182,0.981-2.182,2.182c0,1.199,0.981,2.182,2.182,2.182
		h10.909c1.2,0,2.183-0.982,2.183-2.182C31.637,44.618,30.654,43.637,29.454,43.637z"/>
	<path id="XMLID_468_"  d="M18.545,4.364h10.909c1.2,0,2.183-0.982,2.183-2.182c0-1.2-0.982-2.182-2.183-2.182H18.545
		c-1.2,0-2.182,0.982-2.182,2.182C16.364,3.382,17.345,4.364,18.545,4.364z"/>
	<path id="XMLID_467_"  d="M41.454,34.909H6.545c-1.2,0-2.182,0.982-2.182,2.182s0.981,2.182,2.182,2.182h34.909
		c1.2,0,2.183-0.982,2.183-2.182S42.654,34.909,41.454,34.909z"/>
	<path id="XMLID_463_"  d="M26.182,19.636c0,1.2,0.982,2.182,2.182,2.182h17.455c1.199,0,2.182-0.982,2.182-2.182
		s-0.982-2.182-2.182-2.182H28.363C27.164,17.455,26.182,18.436,26.182,19.636z"/>
	<path id="XMLID_442_"  d="M12,30.872v-4.69h7.636c1.2,0,2.182-0.982,2.182-2.182c0-1.2-0.982-2.182-2.182-2.182H12
		v-4.582c0-0.764-0.545-0.982-1.091-0.545L0,24l10.909,7.418C11.455,31.854,12,31.637,12,30.872z"/>
</g>
</svg>
