<?xml version="1.0" encoding="utf-8"?>
<!-- Generator: Adobe Illustrator 19.1.0, SVG Export Plug-In . SVG Version: 6.00 Build 0)  -->
<svg version="1.1" id="Layer_1" xmlns="http://www.w3.org/2000/svg" xmlns:xlink="http://www.w3.org/1999/xlink" x="0px" y="0px"
	 width="48px" height="48px" viewBox="-281 373 48 48" style="enable-background:new -281 373 48 48;" xml:space="preserve">
<style type="text/css">
	.st0{fill:none;}
	.st1{fill:#333439;}
</style>
<g>
	<polygon points="-277,385 -277,409 -271.8,409 -247.8,385 	"/>
	<g>
		<polygon class="st1" points="-237,406 -233,410 -233,381.5 -237,385.5 		"/>
		<path class="st1" d="M-233.6,376.4c0.8-0.8,0.8-2,0-2.8s-2-0.8-2.8,0l-7.4,7.4H-279c-1.1,0-2,0.9-2,2v28c0,1.1,0.9,2,2,2h3.2
			l-4.6,4.6c-0.8,0.8-0.8,2,0,2.8c0.4,0.4,0.9,0.6,1.4,0.6s1-0.2,1.4-0.6L-233.6,376.4z M-271.8,409h-5.2v-24h29.2l-8.5,8.5
			l-7.4-3.3l3.3,7.4L-271.8,409z"/>
		<path class="st1" d="M-250.1,398.6l-5.3,5.3l5.2,5.2h-10.4l-4,4h18.4l6.8,6.8c1,1,2.5,1.3,3.8,0.9c0.5-0.2,1-0.5,1.5-0.9
			c1.5-1.4,1.5-3.8,0-5.2L-250.1,398.6z"/>
	</g>
</g>
</svg>
