<?xml version="1.0" encoding="utf-8"?>
<!-- Generator: Adobe Illustrator 19.1.0, SVG Export Plug-In . SVG Version: 6.00 Build 0)  -->
<svg version="1.1" id="Layer_1" xmlns="http://www.w3.org/2000/svg" xmlns:xlink="http://www.w3.org/1999/xlink" x="0px" y="0px"
	 width="48px" height="48px" viewBox="-281 373 48 48" style="enable-background:new -281 373 48 48;" xml:space="preserve">

<path d="M-233,410.1v-27c0-1.1-0.9-2-2-2h-44c-1.1,0-2,0.9-2,2v28c0,1.1,0.9,2,2,2h32.8l6.8,6.8c1,1,2.5,1.3,3.8,0.9
	c0.5-0.2,1-0.5,1.5-0.9c1.5-1.4,1.5-3.8,0-5.2l-20.2-20.2l-9.4-4.2l4.1,9.4l9.4,9.4H-277v-24h40v21L-233,410.1z"/>
</svg>
