<?xml version="1.0" encoding="utf-8"?>
<!-- Generator: Adobe Illustrator 15.0.0, SVG Export Plug-In . SVG Version: 6.00 Build 0)  -->
<!DOCTYPE svg PUBLIC "-//W3C//DTD SVG 1.1//EN" "http://www.w3.org/Graphics/SVG/1.1/DTD/svg11.dtd">
<svg version="1.1" id="Layer_1" xmlns="http://www.w3.org/2000/svg" xmlns:xlink="http://www.w3.org/1999/xlink" x="0px" y="0px"
	 width="48px" height="48px" viewBox="0 0 48 48" enable-background="new 0 0 48 48" xml:space="preserve">
<g id="XMLID_40_">
	<circle id="XMLID_61_"  cx="23.649" cy="40.161" r="2.5"/>
	<path id="XMLID_59_"  d="M38.887,21.091c-4.566-3.603-9.693-5.43-15.238-5.43c-5.545,0-10.672,1.827-15.238,5.43
		c-0.867,0.684-1.016,1.942-0.332,2.809c0.685,0.868,1.944,1.016,2.809,0.332c3.845-3.033,8.138-4.57,12.762-4.57
		c4.625,0,8.917,1.537,12.761,4.57c0.367,0.29,0.803,0.43,1.238,0.43c0.591,0,1.176-0.261,1.57-0.761
		C39.902,23.033,39.754,21.775,38.887,21.091z"/>
	<path id="XMLID_41_"  d="M31.15,28.943c-2.225-1.493-4.818-2.282-7.501-2.282c-2.683,0-5.276,0.789-7.501,2.282
		c-0.917,0.616-1.161,1.858-0.545,2.775c0.614,0.917,1.854,1.162,2.775,0.546c3.125-2.099,7.417-2.099,10.542,0
		c0.342,0.229,0.73,0.34,1.113,0.34c0.645,0,1.275-0.311,1.662-0.886C32.311,30.802,32.066,29.56,31.15,28.943z"/>
</g>
</svg>
