<?xml version="1.0" encoding="utf-8"?>
<!-- Generator: Adobe Illustrator 16.0.0, SVG Export Plug-In . SVG Version: 6.00 Build 0)  -->
<!DOCTYPE svg PUBLIC "-//W3C//DTD SVG 1.1//EN" "http://www.w3.org/Graphics/SVG/1.1/DTD/svg11.dtd">
<svg version="1.1" id="Layer_1" xmlns="http://www.w3.org/2000/svg" xmlns:xlink="http://www.w3.org/1999/xlink" x="0px" y="0px"
	 width="48px" height="48px" viewBox="0 0 48 48" enable-background="new 0 0 48 48" xml:space="preserve">
<g>
	<circle  cx="24" cy="40.5" r="2.5"/>
	<path  d="M47.3,13.479C40.808,7.932,32.751,5,24,5S7.192,7.932,0.701,13.479c-0.84,0.718-0.939,1.98-0.222,2.82
		c0.718,0.84,1.983,0.938,2.82,0.221C9.057,11.601,16.215,9,24,9c7.786,0,14.944,2.601,20.702,7.521
		C45.077,16.842,45.54,17,45.999,17c0.564,0,1.127-0.238,1.521-0.701C48.239,15.459,48.14,14.197,47.3,13.479z"/>
	<path  d="M39.239,21.43C34.673,17.827,29.546,16,24,16c-5.545,0-10.672,1.827-15.238,5.43
		c-0.868,0.684-1.016,1.941-0.332,2.809c0.685,0.869,1.944,1.017,2.809,0.332C15.083,21.537,19.376,20,24,20
		s8.917,1.537,12.763,4.57c0.365,0.289,0.803,0.43,1.236,0.43c0.592,0,1.178-0.262,1.572-0.762
		C40.255,23.371,40.105,22.113,39.239,21.43z"/>
	<path  d="M31.501,29.283C29.276,27.789,26.683,27,24,27s-5.276,0.789-7.501,2.283
		c-0.917,0.615-1.161,1.857-0.545,2.775c0.614,0.916,1.854,1.161,2.775,0.545c3.125-2.098,7.417-2.098,10.542,0
		c0.344,0.23,0.73,0.34,1.113,0.34c0.645,0,1.277-0.311,1.662-0.885C32.663,31.141,32.419,29.898,31.501,29.283z"/>
</g>
</svg>
