<?xml version="1.0" encoding="utf-8"?>
<!-- Generator: Adobe Illustrator 19.1.0, SVG Export Plug-In . SVG Version: 6.00 Build 0)  -->
<svg version="1.1" id="Layer_1" xmlns="http://www.w3.org/2000/svg" xmlns:xlink="http://www.w3.org/1999/xlink" x="0px" y="0px"
	 width="48px" height="48px" viewBox="-281 373 48 48" style="enable-background:new -281 373 48 48;" xml:space="preserve">

<g>
	<path d="M-281,387v28c0,1.1,0.9,2,2,2h2v-32h-2C-280.1,385-281,385.9-281,387z"/>
	<path d="M-235,385h-2v32h2c1.1,0,2-0.9,2-2v-28C-233,385.9-233.9,385-235,385z"/>
	<path d="M-246,379c0-1.1-0.9-2-2-2h-18c-1.1,0-2,0.9-2,2v6h-5v32h32v-32h-5V379z M-250,385h-14v-4h14V385z"/>
</g>
</svg>
